<svg width="29" height="16" viewBox="0 0 29 16" fill="none" xmlns="http://www.w3.org/2000/svg">
<path fill-rule="evenodd" clip-rule="evenodd" d="M16.3512 0.803852C16.6836 0.474372 17.1323 0.288943 17.6003 0.287651C18.0683 0.28636 18.518 0.469311 18.8522 0.796952C19.1864 1.12459 19.3782 1.5706 19.3862 2.03854C19.3941 2.50648 19.2176 2.95876 18.8948 3.2976L9.41381 15.1489C9.25086 15.3244 9.0542 15.4652 8.83557 15.563C8.61695 15.6607 8.38085 15.7134 8.1414 15.7178C7.90196 15.7223 7.66407 15.6784 7.44198 15.5888C7.21988 15.4992 7.01814 15.3657 6.84881 15.1964L0.566932 8.9121C0.391926 8.74903 0.251558 8.55238 0.154202 8.33388C0.0568463 8.11538 0.00449708 7.87951 0.000277213 7.64034C-0.00394265 7.40117 0.0400534 7.1636 0.129641 6.94181C0.219228 6.72001 0.352572 6.51853 0.521716 6.34939C0.690861 6.18024 0.892341 6.0469 1.11414 5.95731C1.33593 5.86772 1.5735 5.82373 1.81267 5.82795C2.05184 5.83217 2.28771 5.88452 2.50621 5.98187C2.72471 6.07923 2.92136 6.2196 3.08443 6.3946L8.05768 11.3655L16.3037 0.856103C16.3185 0.837766 16.3343 0.820319 16.3512 0.803852ZM14.1662 13.0114L16.3512 15.1964C16.5205 15.3653 16.7221 15.4985 16.9439 15.5879C17.1658 15.6773 17.4034 15.721 17.6426 15.7166C17.8817 15.7122 18.1176 15.6596 18.336 15.5621C18.5544 15.4645 18.7509 15.324 18.9138 15.1489L28.3948 3.2976C28.5651 3.12946 28.6998 2.92871 28.7908 2.70736C28.8818 2.486 28.9273 2.24858 28.9245 2.00926C28.9217 1.76994 28.8707 1.53365 28.7746 1.31447C28.6784 1.0953 28.5391 0.897752 28.3649 0.733622C28.1907 0.569492 27.9852 0.442148 27.7607 0.359195C27.5363 0.276242 27.2973 0.239381 27.0583 0.250813C26.8192 0.262245 26.5849 0.321736 26.3694 0.425733C26.1538 0.52973 25.9614 0.6761 25.8037 0.856103L17.5553 11.3655L16.4034 10.2112L14.1638 13.0114H14.1662Z" fill="#00D6D9"/>
</svg>
