<svg width="116" height="29" viewBox="0 0 116 29" fill="none" xmlns="http://www.w3.org/2000/svg">
<g id="Logo">
<path id="Universal Login SDK" fill-rule="evenodd" clip-rule="evenodd" d="M53.7802 15.0442V6.92199H55.6882V15.0442C55.6882 16.3618 55.2424 17.4448 54.3508 18.2931C53.4771 19.1234 52.4072 19.5385 51.1411 19.5385C49.8751 19.5385 48.7873 19.1234 47.8957 18.2931C47.022 17.4448 46.5762 16.3618 46.5762 15.0442V6.92199H48.502V15.0442C48.502 15.8203 48.7517 16.4701 49.2688 16.9575C49.7859 17.4448 50.41 17.6975 51.1411 17.6975C51.8722 17.6975 52.4785 17.4448 52.9956 16.9575C53.5128 16.4701 53.7802 15.8203 53.7802 15.0442ZM60.2885 14.827V19.3574H58.4518V10.9283H60.2885V12.1918C60.7343 11.2712 61.8399 10.7478 62.8385 10.7478C64.8534 10.7478 66.0125 12.0654 66.0125 14.4479V19.3574H64.1758V14.6645C64.1758 13.3469 63.4982 12.5708 62.4283 12.5708C61.2158 12.5708 60.2885 13.2928 60.2885 14.827ZM70.3098 19.3573H68.4909V10.9282H70.3098V19.3573ZM69.4004 6.34399C70.0958 6.34399 70.6129 6.84909 70.6129 7.51654C70.6129 8.18399 70.0958 8.68909 69.4004 8.68909C68.7406 8.68909 68.17 8.16596 68.17 7.51654C68.17 6.86713 68.7406 6.34399 69.4004 6.34399ZM80.3317 19.358H73.5199V6.92199H75.4101V17.6072H80.3317V19.358ZM85.8948 17.7332C86.6081 17.7332 87.2144 17.4985 87.6959 17.0112C88.1773 16.5239 88.427 15.8921 88.427 15.116C88.427 13.5998 87.3214 12.571 85.8948 12.571C85.1994 12.571 84.5931 12.8057 84.1117 13.275C83.6302 13.7442 83.3806 14.3579 83.3806 15.116C83.3806 15.8921 83.6302 16.5239 84.1117 17.0112C84.5931 17.4985 85.1994 17.7332 85.8948 17.7332ZM85.8952 10.7478C87.1256 10.7478 88.1598 11.1449 88.9979 11.9571C89.836 12.7693 90.264 13.8162 90.264 15.1158C90.264 16.4153 89.836 17.4802 88.9801 18.3105C88.142 19.1227 87.1077 19.5379 85.8952 19.5379C84.6826 19.5379 83.6484 19.1227 82.8103 18.3105C81.9722 17.4802 81.5621 16.4153 81.5621 15.1158C81.5621 13.8162 81.9722 12.7693 82.8103 11.9571C83.6484 11.1449 84.6826 10.7478 85.8952 10.7478ZM98.7702 15.1519C98.7702 13.5455 97.6468 12.5528 96.2024 12.5528C95.4891 12.5528 94.8828 12.8055 94.4014 13.2928C93.9199 13.7802 93.6703 14.3938 93.6703 15.1519C93.6703 15.928 93.9199 16.5417 94.4014 17.029C94.8828 17.5164 95.4891 17.751 96.2024 17.751C96.8622 17.751 97.4685 17.5164 97.9856 17.0471C98.5027 16.5598 98.7702 15.928 98.7702 15.1519ZM92.9218 20.8013L93.6885 20.4223C94.1165 21.2887 95.0973 21.8301 96.0245 21.8301C97.879 21.8301 98.8063 20.7291 98.8063 18.509V18.0759C98.3248 18.9964 97.1479 19.5379 95.9889 19.5379C94.8298 19.5379 93.8312 19.1408 93.0109 18.3286C92.1907 17.5163 91.7805 16.4695 91.7805 15.1699C91.7805 13.8523 92.1907 12.7874 93.0109 11.9752C93.8312 11.1629 94.8298 10.7478 95.9889 10.7478C97.1479 10.7478 98.307 11.2893 98.8063 12.1737V10.9283H100.607V18.112C100.607 21.7399 99.0738 23.5629 96.0245 23.5629C94.4018 23.5629 92.9574 22.6965 92.1728 21.1984L92.9218 20.8013ZM104.993 19.3573H103.174V10.9282H104.993V19.3573ZM104.083 6.34399C104.779 6.34399 105.296 6.84909 105.296 7.51654C105.296 8.18399 104.779 8.68909 104.083 8.68909C103.424 8.68909 102.853 8.16596 102.853 7.51654C102.853 6.86713 103.424 6.34399 104.083 6.34399ZM109.398 14.827V19.3574H107.561V10.9283H109.398V12.1918C109.843 11.2712 110.949 10.7478 111.948 10.7478C113.963 10.7478 115.122 12.0654 115.122 14.4479V19.3574H113.285V14.6645C113.285 13.3469 112.607 12.5708 111.537 12.5708C110.325 12.5708 109.398 13.2928 109.398 14.827Z" fill="#12083A"/>
<g id="Group 2">
<path id="Rectangle Copy" fill-rule="evenodd" clip-rule="evenodd" d="M0.878906 0H4.75821C9.09609 0 12.6126 3.47185 12.6126 7.75459V13.9004C12.6126 15.9563 14.3007 17.6229 16.3831 17.6229C18.4655 17.6229 20.1535 15.9563 20.1535 13.9004V7.75459C20.1535 3.47185 23.6701 0 28.008 0H31.9529V13.6605C31.9529 22.1323 24.9967 29 16.4159 29C7.83505 29 0.878906 22.1323 0.878906 13.6605V0Z" fill="url(#paint0_linear)"/>
<path id="Rectangle Copy 2" fill-rule="evenodd" clip-rule="evenodd" d="M0.878906 0H4.75821C9.09609 0 12.6126 3.47185 12.6126 7.75459V13.9004C12.6126 15.9563 14.3007 17.6229 16.3831 17.6229C18.4655 17.6229 20.1535 15.9563 20.1535 13.9004V7.75459C20.1535 3.47185 23.6701 0 28.008 0H31.9529V13.6605C31.9529 22.1323 24.9967 29 16.4159 29C7.83505 29 0.878906 22.1323 0.878906 13.6605V0Z" fill="url(#paint1_linear)"/>
<path id="Rectangle Copy 2_2" fill-rule="evenodd" clip-rule="evenodd" d="M0.878906 0H4.75821C9.09609 0 12.6126 3.47185 12.6126 7.75459V13.9004C12.6126 15.9563 14.3007 17.6229 16.3831 17.6229C18.4655 17.6229 20.1535 15.9563 20.1535 13.9004V7.75459C20.1535 3.47185 23.6701 0 28.008 0H31.9529V13.6605C31.9529 22.1323 24.9967 29 16.4159 29C7.83505 29 0.878906 22.1323 0.878906 13.6605V0Z" fill="url(#paint2_linear)"/>
<path id="Rectangle Copy 2_3" fill-rule="evenodd" clip-rule="evenodd" d="M0.878906 0H4.75821C9.09609 0 12.6126 3.47185 12.6126 7.75459V13.9004C12.6126 15.9563 14.3007 17.6229 16.3831 17.6229C18.4655 17.6229 20.1535 15.9563 20.1535 13.9004V7.75459C20.1535 3.47185 23.6701 0 28.008 0H31.9529V13.6605C31.9529 22.1323 24.9967 29 16.4159 29C7.83505 29 0.878906 22.1323 0.878906 13.6605V0Z" fill="url(#paint3_linear)"/>
<path id="Path 4" opacity="0.973865" fill-rule="evenodd" clip-rule="evenodd" d="M17.0557 17.613L18.9169 18.4726L22.5341 18.1462L24.1774 17.613L26.1 16.9334L28.2596 15.1157L30.0297 14.2308L30.8501 11.8543L31.1425 9.87297L31.5845 8.44909V6.09735L31.8538 3.93483V2.20728C31.3343 5.73583 31.0296 6.58288 30.5344 7.59175C29.7916 9.10506 29.7916 9.1361 28.789 10.4999C27.7865 11.8637 27.2327 12.517 25.6935 13.7497C24.1543 14.9824 23.5514 15.3355 21.8346 16.0387C20.69 16.5076 19.5084 16.8663 18.2896 17.115L17.0557 17.613Z" fill="url(#paint4_linear)"/>
<path id="Rectangle Copy 2_4" fill-rule="evenodd" clip-rule="evenodd" d="M0.878906 0H4.75821C9.09609 0 12.6126 3.47185 12.6126 7.75459V13.9004C12.6126 15.9563 14.3007 17.6229 16.3831 17.6229C18.4655 17.6229 20.1535 15.9563 20.1535 13.9004V7.75459C20.1535 3.47185 23.6701 0 28.008 0H31.9529V13.6605C31.9529 22.1323 24.9967 29 16.4159 29C7.83505 29 0.878906 22.1323 0.878906 13.6605V0Z" fill="url(#paint5_linear)"/>
<path id="Rectangle Copy 3" fill-rule="evenodd" clip-rule="evenodd" d="M0.878906 0H4.75821C9.09609 0 12.6126 3.47185 12.6126 7.75459V13.868C12.6126 15.9418 14.3154 17.6229 16.4159 17.6229C18.8851 17.6229 21.3201 17.0524 23.5259 15.9569L23.6974 15.8718C26.0094 14.7236 27.9842 13.0086 29.4326 10.8911L29.4461 10.8713C30.8987 8.74773 31.7193 6.26467 31.8147 3.70391L31.9529 0V13.6605C31.9529 22.1323 24.9967 29 16.4159 29C7.83505 29 0.878906 22.1323 0.878906 13.6605V0Z" fill="url(#paint6_linear)"/>
<path id="Rectangle Copy 3_2" fill-rule="evenodd" clip-rule="evenodd" d="M0.878906 0H4.75821C9.09609 0 12.6126 3.47185 12.6126 7.75459V13.868C12.6126 15.9418 14.3154 17.6229 16.4159 17.6229C18.8851 17.6229 21.3201 17.0524 23.5259 15.9569L23.6974 15.8718C26.0094 14.7236 27.9842 13.0086 29.4326 10.8911L29.4461 10.8713C30.8987 8.74773 31.7193 6.26467 31.8147 3.70391L31.9529 0V13.6605C31.9529 22.1323 24.9967 29 16.4159 29C7.83505 29 0.878906 22.1323 0.878906 13.6605V0Z" fill="url(#paint7_linear)"/>
<g id="Mask Group">
<mask id="mask0" mask-type="alpha" maskUnits="userSpaceOnUse" x="0" y="0" width="32" height="29">
<path id="Rectangle Copy 5" fill-rule="evenodd" clip-rule="evenodd" d="M0.878906 0H4.75821C9.09609 0 12.6126 3.47185 12.6126 7.75459V13.868C12.6126 15.9418 14.3154 17.6229 16.4159 17.6229C18.8851 17.6229 21.3201 17.0524 23.5259 15.9569L23.6974 15.8718C26.0094 14.7236 27.9842 13.0086 29.4326 10.8911L29.4461 10.8713C30.8987 8.74773 31.7193 6.26467 31.8147 3.70391L31.9529 0V13.6605C31.9529 22.1323 24.9967 29 16.4159 29C7.83505 29 0.878906 22.1323 0.878906 13.6605V0Z" fill="url(#paint8_linear)"/>
</mask>
<g mask="url(#mask0)">
<path id="Path 4_2" opacity="0.5" fill-rule="evenodd" clip-rule="evenodd" d="M12.5978 11.7912L12.2833 13.9915L11.8523 17.7022L10.6709 19.0093L10.4113 21.0091L11.0714 23.734L11.0664 25.693L12.8386 27.4935L14.494 28.6502L15.5783 29.6855L17.7007 30.7532L19.5301 31.9718L21.0892 32.7561L19.8257 31.8823C19.0819 31.3679 18.3925 30.7808 17.768 30.1298L17.369 29.714C17.012 29.3419 16.5879 29.0387 16.1184 28.8199C15.6627 28.6075 15.3082 28.2289 15.1295 27.7637L14.951 27.2992C14.6489 26.5126 14.494 25.6784 14.494 24.8372L14.494 17.1145L13.8243 16.5888L13.2139 15.8985L13.0614 15.6358L13.025 15.5615C12.9724 15.4545 12.9234 15.3457 12.8781 15.2354C12.8328 15.1252 12.7934 15.0127 12.76 14.8984L12.7551 14.8816C12.7185 14.7562 12.6899 14.6287 12.6694 14.4997L12.6519 14.389L12.5978 13.9387L12.5978 11.7912Z" fill="url(#paint9_linear)"/>
</g>
</g>
<path id="Rectangle Copy 3_3" fill-rule="evenodd" clip-rule="evenodd" d="M0.878906 0H4.75821C9.09609 0 12.6126 3.47185 12.6126 7.75459V13.868C12.6126 15.9418 14.3154 17.6229 16.4159 17.6229C18.8851 17.6229 21.3201 17.0524 23.5259 15.9569L23.6974 15.8718C26.0094 14.7236 27.9842 13.0086 29.4326 10.8911L29.4461 10.8713C30.8987 8.74773 31.7193 6.26467 31.8147 3.70391L31.9529 0V13.6605C31.9529 22.1323 24.9967 29 16.4159 29C7.83505 29 0.878906 22.1323 0.878906 13.6605V0Z" fill="url(#paint10_linear)"/>
<path id="Rectangle Copy 4" fill-rule="evenodd" clip-rule="evenodd" d="M0.878906 0H4.75821C9.0961 0 12.6126 3.47185 12.6126 7.75459V9.63123V25.2451C12.6126 27.3189 14.3154 29 16.4159 29C7.83505 29 0.878906 22.1323 0.878906 13.6605V0Z" fill="url(#paint11_linear)"/>
<path id="Rectangle Copy 4_2" fill-rule="evenodd" clip-rule="evenodd" d="M0.878906 0H4.75821C9.0961 0 12.6126 3.47185 12.6126 7.75459V9.63123V25.2451C12.6126 27.3189 14.3154 29 16.4159 29C7.83505 29 0.878906 22.1323 0.878906 13.6605V0Z" fill="url(#paint12_linear)"/>
</g>
</g>
<defs>
<linearGradient id="paint0_linear" x1="16.4159" y1="0" x2="16.4159" y2="29" gradientUnits="userSpaceOnUse">
<stop stop-color="#DEEDFF"/>
<stop offset="1" stop-color="#B2D4FD"/>
</linearGradient>
<linearGradient id="paint1_linear" x1="29.0039" y1="1.54364" x2="28.1" y2="18.2235" gradientUnits="userSpaceOnUse">
<stop stop-color="#00D6D9"/>
<stop offset="1" stop-color="#455CDA"/>
</linearGradient>
<linearGradient id="paint2_linear" x1="20.9775" y1="1.54364" x2="27.205" y2="10.5425" gradientUnits="userSpaceOnUse">
<stop stop-color="#00D6D9"/>
<stop offset="1" stop-color="#04CFD9" stop-opacity="0"/>
</linearGradient>
<linearGradient id="paint3_linear" x1="21.0304" y1="14.5" x2="23.0561" y2="17.1602" gradientUnits="userSpaceOnUse">
<stop stop-color="#3F66DA" stop-opacity="0"/>
<stop offset="1" stop-color="#2E2EAE"/>
</linearGradient>
<linearGradient id="paint4_linear" x1="22.7551" y1="11.6931" x2="24.7617" y2="16.8322" gradientUnits="userSpaceOnUse">
<stop stop-color="#2D41B3" stop-opacity="0"/>
<stop offset="1" stop-color="#141E62"/>
</linearGradient>
<linearGradient id="paint5_linear" x1="14.373" y1="6.93531" x2="25.9658" y2="20.2928" gradientUnits="userSpaceOnUse">
<stop stop-color="#3F66DA" stop-opacity="0"/>
<stop offset="1" stop-color="#2436C1"/>
</linearGradient>
<linearGradient id="paint6_linear" x1="38.9715" y1="35.6712" x2="28.3954" y2="8.2104" gradientUnits="userSpaceOnUse">
<stop stop-color="#706AE1"/>
<stop offset="1" stop-color="#4352ED"/>
</linearGradient>
<linearGradient id="paint7_linear" x1="60.1254" y1="1.54364" x2="34.1725" y2="34.0428" gradientUnits="userSpaceOnUse">
<stop stop-color="#00D6D9"/>
<stop offset="1" stop-color="#0FC4DD" stop-opacity="0"/>
</linearGradient>
<linearGradient id="paint8_linear" x1="22.6232" y1="20.4513" x2="13.3497" y2="26.7027" gradientUnits="userSpaceOnUse">
<stop stop-color="#3F4DDA" stop-opacity="0"/>
<stop offset="1" stop-color="#2736A4"/>
</linearGradient>
<linearGradient id="paint9_linear" x1="17.747" y1="20.5229" x2="12.3579" y2="20.5483" gradientUnits="userSpaceOnUse">
<stop stop-color="#2D41B3" stop-opacity="0"/>
<stop offset="1" stop-color="#141E62"/>
</linearGradient>
<linearGradient id="paint10_linear" x1="22.6232" y1="20.4513" x2="13.3497" y2="26.7027" gradientUnits="userSpaceOnUse">
<stop stop-color="#3F4DDA" stop-opacity="0"/>
<stop offset="1" stop-color="#2736A4"/>
</linearGradient>
<linearGradient id="paint11_linear" x1="6.85341" y1="1.26939e-07" x2="15.8223" y2="20.249" gradientUnits="userSpaceOnUse">
<stop stop-color="#00D6D9"/>
<stop offset="1" stop-color="#5272EE"/>
</linearGradient>
<linearGradient id="paint12_linear" x1="5.19957" y1="7.03592" x2="12.146" y2="17.7561" gradientUnits="userSpaceOnUse">
<stop stop-color="#00D6D9"/>
<stop offset="1" stop-color="#0FC4DD" stop-opacity="0"/>
</linearGradient>
</defs>
</svg>
