<svg width="500" height="676" viewBox="0 0 500 676" fill="none" xmlns="http://www.w3.org/2000/svg">
<g opacity="0.2">
<path d="M0.687555 0.687555H89.6125C189.441 0.687555 270.363 81.2632 270.363 180.652V323.826C270.363 372.103 309.669 411.234 358.149 411.234C406.629 411.234 445.934 372.103 445.934 323.826V180.652C445.934 81.2632 526.856 0.687555 626.685 0.687555H717.125V318.238C717.125 515.215 556.748 674.901 358.906 674.901C161.065 674.901 0.687555 515.215 0.687555 318.238V0.687555Z" stroke="url(#paint0_linear)" stroke-width="1.37511"/>
<path d="M715.309 86.3124L717.125 37.2024V318.238C717.125 515.215 556.748 674.901 358.906 674.901C161.065 674.901 0.687555 515.215 0.687555 318.238V0.687555H89.6125C189.441 0.687555 270.363 81.2632 270.363 180.652V323.072C270.363 371.766 310.008 411.234 358.906 411.234C416.053 411.234 472.406 397.918 523.457 372.349L527.417 370.366C580.931 343.565 626.639 303.534 660.163 254.106L660.475 253.646L659.906 253.26L660.475 253.646C694.102 204.068 713.099 146.097 715.309 86.3124Z" stroke="url(#paint1_linear)" stroke-width="1.37511"/>
<path d="M270.363 588.114C270.363 630.678 300.656 666.194 340.941 674.461C151.447 665.142 0.687555 509.217 0.687555 318.238V0.687555H89.6125C189.441 0.687555 270.363 81.2632 270.363 180.652V224.371V588.114Z" stroke="url(#paint2_linear)" stroke-width="1.37511"/>
</g>
<defs>
<linearGradient id="paint0_linear" x1="879.945" y1="831.003" x2="632.017" y2="192.676" gradientUnits="userSpaceOnUse">
<stop stop-color="#706AE1"/>
<stop offset="1" stop-color="#4352ED"/>
</linearGradient>
<linearGradient id="paint1_linear" x1="649.692" y1="35.9609" x2="628.456" y2="424.518" gradientUnits="userSpaceOnUse">
<stop stop-color="#00D6D9"/>
<stop offset="1" stop-color="#455CDA"/>
</linearGradient>
<linearGradient id="paint2_linear" x1="138.012" y1="2.9572e-06" x2="348.137" y2="470.41" gradientUnits="userSpaceOnUse">
<stop stop-color="#00D6D9"/>
<stop offset="1" stop-color="#5272EE"/>
</linearGradient>
</defs>
</svg>
