<svg width="32" height="30" viewBox="0 0 32 30" fill="none" xmlns="http://www.w3.org/2000/svg">
<path d="M0 0H3.99491C8.46207 0 12.0834 3.59156 12.0834 8.02198V14.3797C12.0834 16.5065 13.8218 18.2306 15.9662 18.2306C18.1106 18.2306 19.849 16.5065 19.849 14.3797V8.02198C19.849 3.59156 23.4704 0 27.9375 0H32V14.1316C32 22.8955 24.8366 30 16 30C7.16344 30 0 22.8955 0 14.1316V0Z" fill="url(#paint0_linear)"/>
<path d="M0 0H3.99491C8.46207 0 12.0834 3.59156 12.0834 8.02198V14.3797C12.0834 16.5065 13.8218 18.2306 15.9662 18.2306C18.1106 18.2306 19.849 16.5065 19.849 14.3797V8.02198C19.849 3.59156 23.4704 0 27.9375 0H32V14.1316C32 22.8955 24.8366 30 16 30C7.16344 30 0 22.8955 0 14.1316V0Z" fill="url(#paint1_linear)"/>
<path d="M0 0H3.99491C8.46207 0 12.0834 3.59156 12.0834 8.02198V14.3797C12.0834 16.5065 13.8218 18.2306 15.9662 18.2306C18.1106 18.2306 19.849 16.5065 19.849 14.3797V8.02198C19.849 3.59156 23.4704 0 27.9375 0H32V14.1316C32 22.8955 24.8366 30 16 30C7.16344 30 0 22.8955 0 14.1316V0Z" fill="url(#paint2_linear)"/>
<path d="M0 0H3.99491C8.46207 0 12.0834 3.59156 12.0834 8.02198V14.3797C12.0834 16.5065 13.8218 18.2306 15.9662 18.2306C18.1106 18.2306 19.849 16.5065 19.849 14.3797V8.02198C19.849 3.59156 23.4704 0 27.9375 0H32V14.1316C32 22.8955 24.8366 30 16 30C7.16344 30 0 22.8955 0 14.1316V0Z" fill="url(#paint3_linear)"/>
<path opacity="0.973865" d="M17 18.1016L18.8866 19L22.5532 18.6589L24.2189 18.1016L26.1677 17.3913L28.3567 15.4914L30.1511 14.5666L30.9826 12.0828L31.279 10.0119L31.7271 8.52375V6.06578L32 3.80558V2C31.4734 5.68793 31.1645 6.57325 30.6626 7.62769C29.9097 9.20934 29.9097 9.24179 28.8935 10.6672C27.8772 12.0926 27.3158 12.7754 25.7557 14.0638C24.1955 15.3522 23.5844 15.7212 21.8441 16.4562C20.6839 16.9462 19.4862 17.3212 18.2508 17.5811L17 18.1016Z" fill="url(#paint4_linear)"/>
<path d="M0 0H3.99491C8.46207 0 12.0834 3.59156 12.0834 8.02198V14.3797C12.0834 16.5065 13.8218 18.2306 15.9662 18.2306C18.1106 18.2306 19.849 16.5065 19.849 14.3797V8.02198C19.849 3.59156 23.4704 0 27.9375 0H32V14.1316C32 22.8955 24.8366 30 16 30C7.16344 30 0 22.8955 0 14.1316V0Z" fill="url(#paint5_linear)"/>
<path d="M0 0H3.99491C8.46207 0 12.0834 3.59156 12.0834 8.02198V14.3462C12.0834 16.4915 13.8369 18.2306 16 18.2306C18.5428 18.2306 21.0503 17.6404 23.3219 16.5071L23.4985 16.4191C25.8794 15.2313 27.913 13.4572 29.4046 11.2666L29.4185 11.2462C30.9144 9.04938 31.7594 6.48069 31.8578 3.83163L32 0V14.1316C32 22.8955 24.8366 30 16 30C7.16344 30 0 22.8955 0 14.1316V0Z" fill="url(#paint6_linear)"/>
<path d="M0 0H3.99491C8.46207 0 12.0834 3.59156 12.0834 8.02198V14.3462C12.0834 16.4915 13.8369 18.2306 16 18.2306C18.5428 18.2306 21.0503 17.6404 23.3219 16.5071L23.4985 16.4191C25.8794 15.2313 27.913 13.4572 29.4046 11.2666L29.4185 11.2462C30.9144 9.04938 31.7594 6.48069 31.8578 3.83163L32 0V14.1316C32 22.8955 24.8366 30 16 30C7.16344 30 0 22.8955 0 14.1316V0Z" fill="url(#paint7_linear)"/>
<path d="M0 0H3.99491C8.46207 0 12.0834 3.59156 12.0834 8.02198V14.3462C12.0834 16.4915 13.8369 18.2306 16 18.2306C18.5428 18.2306 21.0503 17.6404 23.3219 16.5071L23.4985 16.4191C25.8794 15.2313 27.913 13.4572 29.4046 11.2666L29.4185 11.2462C30.9144 9.04938 31.7594 6.48069 31.8578 3.83163L32 0V14.1316C32 22.8955 24.8366 30 16 30C7.16344 30 0 22.8955 0 14.1316V0Z" fill="url(#paint8_linear)"/>
<path d="M0 0H3.99491C8.46207 0 12.0834 3.59156 12.0834 8.02198V9.96334V26.1156C12.0834 28.2609 13.8369 30 16 30C7.16344 30 0 22.8955 0 14.1316V0Z" fill="url(#paint9_linear)"/>
<path d="M0 0H3.99491C8.46207 0 12.0834 3.59156 12.0834 8.02198V9.96334V26.1156C12.0834 28.2609 13.8369 30 16 30C7.16344 30 0 22.8955 0 14.1316V0Z" fill="url(#paint10_linear)"/>
<defs>
<linearGradient id="paint0_linear" x1="0" y1="0" x2="0" y2="30" gradientUnits="userSpaceOnUse">
<stop stop-color="#DEEDFF"/>
<stop offset="1" stop-color="#B2D4FD"/>
</linearGradient>
<linearGradient id="paint1_linear" x1="18.6686" y1="-0.50078" x2="17.7293" y2="18.8079" gradientUnits="userSpaceOnUse">
<stop stop-color="#00D6D9"/>
<stop offset="1" stop-color="#455CDA"/>
</linearGradient>
<linearGradient id="paint2_linear" x1="15.3956" y1="3.29348" x2="21.8077" y2="13.6161" gradientUnits="userSpaceOnUse">
<stop stop-color="#00D6D9"/>
<stop offset="1" stop-color="#04CFD9" stop-opacity="0.01"/>
</linearGradient>
<linearGradient id="paint3_linear" x1="19.1942" y1="16.0649" x2="21.2784" y2="19.1139" gradientUnits="userSpaceOnUse">
<stop stop-color="#3F66DA" stop-opacity="0.01"/>
<stop offset="1" stop-color="#2E2EAE"/>
</linearGradient>
<linearGradient id="paint4_linear" x1="19.9397" y1="13.1243" x2="22.5614" y2="18.3782" gradientUnits="userSpaceOnUse">
<stop stop-color="#2D41B3" stop-opacity="0.01"/>
<stop offset="1" stop-color="#141E62"/>
</linearGradient>
<linearGradient id="paint5_linear" x1="6.14205" y1="12.2827" x2="18.0576" y2="27.5783" gradientUnits="userSpaceOnUse">
<stop stop-color="#3F66DA" stop-opacity="0.01"/>
<stop offset="1" stop-color="#2436C1"/>
</linearGradient>
<linearGradient id="paint6_linear" x1="55.8653" y1="33.7591" x2="44.9226" y2="2.1049" gradientUnits="userSpaceOnUse">
<stop stop-color="#706AE1"/>
<stop offset="1" stop-color="#4352ED"/>
</linearGradient>
<linearGradient id="paint7_linear" x1="42.0397" y1="-13.5994" x2="15.3484" y2="23.6374" gradientUnits="userSpaceOnUse">
<stop stop-color="#00D6D9"/>
<stop offset="1" stop-color="#0FC4DD" stop-opacity="0.01"/>
</linearGradient>
<linearGradient id="paint8_linear" x1="18.8892" y1="17.2255" x2="9.37265" y2="24.3725" gradientUnits="userSpaceOnUse">
<stop stop-color="#3F4DDA" stop-opacity="0.01"/>
<stop offset="1" stop-color="#2736A4"/>
</linearGradient>
<linearGradient id="paint9_linear" x1="-4.9287" y1="10.0596" x2="13.4504" y2="21.6166" gradientUnits="userSpaceOnUse">
<stop stop-color="#00D6D9"/>
<stop offset="1" stop-color="#5272EE"/>
</linearGradient>
<linearGradient id="paint10_linear" x1="-8.4377" y1="15.9967" x2="4.50982" y2="21.562" gradientUnits="userSpaceOnUse">
<stop stop-color="#00D6D9"/>
<stop offset="1" stop-color="#0FC4DD" stop-opacity="0.01"/>
</linearGradient>
</defs>
</svg>
