<svg width="13" height="12" viewBox="0 0 13 12" fill="none" xmlns="http://www.w3.org/2000/svg">
<path fill-rule="evenodd" clip-rule="evenodd" d="M12.8856 10.1319L7.1821 0.396493C7.03796 0.150449 6.77915 0 6.49998 0C6.22081 0 5.962 0.150423 5.81786 0.396493L0.114409 10.1319C-0.0339232 10.3851 -0.0383158 10.7009 0.102958 10.9583C0.244231 11.2158 0.509234 11.375 0.796504 11.375H12.2035C12.4908 11.375 12.7558 11.2158 12.897 10.9583C13.0383 10.7009 13.0339 10.3851 12.8856 10.1319ZM6.5042 3.36758C6.83176 3.36758 7.10893 3.55778 7.10893 3.8949C7.10893 4.40924 7.07953 5.03597 7.05013 5.66271C7.02074 6.28944 6.99134 6.91617 6.99134 7.43051C6.99134 7.69851 6.70577 7.81086 6.5042 7.81086C6.23546 7.81086 6.00867 7.69848 6.00867 7.43051C6.00867 6.91617 5.97928 6.28944 5.94989 5.66271C5.9205 5.03597 5.89111 4.40924 5.89111 3.8949C5.89111 3.55778 6.15985 3.36758 6.5042 3.36758ZM5.86621 9.07302C5.86621 9.42744 6.1434 9.73864 6.51294 9.73864C6.85728 9.73864 7.15126 9.42744 7.15126 9.07302C7.15126 8.70995 6.85728 8.40741 6.51294 8.40741C6.14338 8.40741 5.86621 8.70995 5.86621 9.07302Z" fill="white"/>
</svg>
