<?xml version="1.0" encoding="UTF-8"?>
<svg width="32px" height="31px" viewBox="0 0 32 31" version="1.1" xmlns="http://www.w3.org/2000/svg" xmlns:xlink="http://www.w3.org/1999/xlink">
    <!-- Generator: Sketch 56.2 (81672) - https://sketch.com -->
    <title>bank icon copy</title>
    <desc>Created with Sketch.</desc>
    <g id="approve" stroke="none" stroke-width="1" fill="none" fill-rule="evenodd">
        <g id="topup4" transform="translate(-871.000000, -297.000000)">
            <g id="bank-icon-copy" transform="translate(871.000000, 297.000000)">
                <ellipse id="bank14" fill="#FFFFFF" opacity="0.1" cx="15.6" cy="15.1726027" rx="15.6" ry="15.1726027"></ellipse>
                <g id="Group-2" transform="translate(5.701370, 4.556164)" fill-rule="nonzero">
                    <polygon id="bank13" fill="#8FA0FF" points="20.0876712 5.12876712 10.043858 -2.70894418e-14 4.08562073e-14 5.12876712"></polygon>
                    <polygon id="bank12" fill="#4256C8" points="4.2739726 4.2739726 10.2575576 1.28219178 16.2410959 4.2739726"></polygon>
                    <g id="bank11" transform="translate(1.282192, 5.128767)" fill="#000000">
                        <rect id="Rectangle" x="0.000737286642" y="0.0384884441" width="17.9370781" height="1.00503503"></rect>
                        <rect id="Rectangle" x="0.000737286642" y="12.1438562" width="17.9370781" height="1.00503503"></rect>
                    </g>
                    <g id="Group" transform="translate(0.427397, 5.983562)" fill="#8FA0FF">
                        <rect id="bank10" x="0.000503324806" y="12.1680537" width="19.6418388" height="1.0118258"></rect>
                        <path d="M1.3813063,0.041287196 L1.3813063,0.645362967 C1.3813063,1.053113 1.72265203,1.38537026 2.14155554,1.38537026 L4.77906904,1.38537026 C5.19797255,1.38537026 5.53931828,1.053113 5.53931828,0.645362967 L5.53931828,0.041287196 L1.3813063,0.041287196 Z" id="bank9"></path>
                        <path d="M5.53931828,11.2015236 L5.53931828,10.5974478 C5.53931828,10.1896978 5.19797255,9.85744053 4.77906904,9.85744053 L2.14155554,9.85744053 C1.72265203,9.85744053 1.3813063,10.1896978 1.3813063,10.5974478 L1.3813063,11.2015236 L5.53931828,11.2015236 Z" id="bank8"></path>
                    </g>
                    <rect id="bank7" fill="#495DCD" x="2.1369863" y="8.12054795" width="2.99178082" height="7.69315068"></rect>
                    <path d="M8.54794521,6.4109589 L8.54794521,6.98721867 C8.54794521,7.37619294 8.8975065,7.69315068 9.32649225,7.69315068 L12.0433708,7.69315068 C12.4723565,7.69315068 12.8219178,7.37619294 12.8219178,6.98721867 L12.8219178,6.4109589 L8.54794521,6.4109589 Z" id="bank6" fill="#8FA0FF"></path>
                    <rect id="bank5" fill="#495DCD" x="8.97534247" y="8.12054795" width="3.41917808" height="7.69315068"></rect>
                    <path d="M14.5315068,6.4109589 L14.5315068,6.98721867 C14.5315068,7.37619294 14.8810681,7.69315068 15.3100539,7.69315068 L18.0269324,7.69315068 C18.4559182,7.69315068 18.8054795,7.37619294 18.8054795,6.98721867 L18.8054795,6.4109589 L14.5315068,6.4109589 Z" id="bank4" fill="#8FA0FF"></path>
                    <path d="M18.8054795,17.5232877 L18.8054795,16.9470279 C18.8054795,16.5580536 18.4546141,16.2410959 18.024028,16.2410959 L15.3129583,16.2410959 C14.8823722,16.2410959 14.5315068,16.5580536 14.5315068,16.9470279 L14.5315068,17.5232877 L18.8054795,17.5232877 Z" id="bank3" fill="#8FA0FF"></path>
                    <path d="M12.8219178,17.5232877 L12.8219178,16.9470279 C12.8219178,16.5580536 12.4710525,16.2410959 12.0404664,16.2410959 L9.32939664,16.2410959 C8.89881055,16.2410959 8.54794521,16.5580536 8.54794521,16.9470279 L8.54794521,17.5232877 L12.8219178,17.5232877 Z" id="bank2" fill="#8FA0FF"></path>
                    <rect id="bank1" fill="#495DCD" x="14.9589041" y="8.12054795" width="2.99178082" height="7.69315068"></rect>
                </g>
            </g>
        </g>
    </g>
</svg>