<svg width="32" height="31" xmlns="http://www.w3.org/2000/svg"><g fill="none" fill-rule="evenodd"><ellipse fill="#FFF" opacity=".1" cx="15.6" cy="15.173" rx="15.6" ry="15.173"/><g fill-rule="nonzero"><path fill="#8FA0FF" d="M25.789 9.685L15.745 4.556 5.701 9.685z"/><path fill="#4256C8" d="M9.975 8.83l5.984-2.992 5.983 2.992z"/><g fill="#000"><path d="M6.985 9.723h17.937v1.005H6.985zM6.985 21.829h17.937v1.005H6.985z"/></g><g fill="#8FA0FF"><path d="M6.13 22.708h19.642v1.012H6.13zM7.51 10.581v.604c0 .408.341.74.76.74h2.638c.419 0 .76-.332.76-.74v-.604H7.51zM11.668 21.741v-.604a.752.752 0 00-.76-.74H8.27a.752.752 0 00-.76.74v.604h4.158z"/></g><path fill="#495DCD" d="M7.838 12.677h2.992v7.693H7.838z"/><path d="M14.25 10.967v.576c0 .39.349.706.778.706h2.717c.429 0 .778-.317.778-.706v-.576H14.25z" fill="#8FA0FF"/><path fill="#495DCD" d="M14.676 12.677h3.42v7.693h-3.42z"/><path d="M20.233 10.967v.576c0 .39.35.706.778.706h2.717c.43 0 .779-.317.779-.706v-.576h-4.274zM24.507 22.08v-.577c0-.389-.351-.706-.782-.706h-2.71c-.431 0-.782.317-.782.706v.576h4.274zM18.523 22.08v-.577c0-.389-.35-.706-.781-.706H15.03c-.43 0-.782.317-.782.706v.576h4.274z" fill="#8FA0FF"/><path fill="#495DCD" d="M20.66 12.677h2.992v7.693H20.66z"/></g></g></svg>