<?xml version="1.0" encoding="UTF-8"?>
<svg width="32px" height="32px" viewBox="0 0 32 32" version="1.1" xmlns="http://www.w3.org/2000/svg" xmlns:xlink="http://www.w3.org/1999/xlink">
    <!-- Generator: Sketch 56.2 (81672) - https://sketch.com -->
    <title>CARD icon Copy</title>
    <desc>Created with Sketch.</desc>
    <g id="approve" stroke="none" stroke-width="1" fill="none" fill-rule="evenodd">
        <g id="topup4" transform="translate(-837.000000, -296.000000)">
            <g id="CARD-icon-Copy" transform="translate(837.000000, 296.000000)">
                <circle id="Oval-Copy-card" fill="#FFFFFF" opacity="0.1" cx="15.6" cy="15.6" r="15.6"></circle>
                <g id="credit-card-3" transform="translate(6.410959, 9.830137)" fill-rule="nonzero">
                    <path d="M16.9550409,12.3945205 L0.995644025,12.3945205 C0.445672178,12.3945205 0,11.9695656 0,11.4451593 L0,0.949361252 C0,0.42495499 0.445672178,0 0.995644025,0 L16.9550409,0 C17.5050128,0 17.9506849,0.42495499 17.9506849,0.949361252 L17.9506849,11.4451593 C17.9506849,11.9695656 17.5050128,12.3945205 16.9550409,12.3945205" id="XMLID_115_" fill="#F6B04A"></path>
                    <rect id="XMLID_114_" fill="#FFFFFF" x="0" y="1.70958904" width="17.9506849" height="2.99178082"></rect>
                    <path d="M4.00199253,5.55616438 L1.55417186,5.55616438 C1.40403885,5.55616438 1.28219178,5.4604274 1.28219178,5.34246575 C1.28219178,5.22450411 1.40403885,5.12876712 1.55417186,5.12876712 L4.00199253,5.12876712 C4.15212553,5.12876712 4.2739726,5.22450411 4.2739726,5.34246575 C4.2739726,5.4604274 4.15212553,5.55616438 4.00199253,5.55616438" id="XMLID_113_" fill="#FFFFFF"></path>
                    <path d="M8.70336239,5.55616438 L6.25554172,5.55616438 C6.10540872,5.55616438 5.98356164,5.4604274 5.98356164,5.34246575 C5.98356164,5.22450411 6.10540872,5.12876712 6.25554172,5.12876712 L8.70336239,5.12876712 C8.85349539,5.12876712 8.97534247,5.22450411 8.97534247,5.34246575 C8.97534247,5.4604274 8.85349539,5.55616438 8.70336239,5.55616438" id="XMLID_112_" fill="#FFFFFF"></path>
                    <path d="M2.1369863,7.26575342 L1.70958904,7.26575342 C1.47366575,7.26575342 1.28219178,7.17001644 1.28219178,7.05205479 C1.28219178,6.93409315 1.47366575,6.83835616 1.70958904,6.83835616 L2.1369863,6.83835616 C2.37290959,6.83835616 2.56438356,6.93409315 2.56438356,7.05205479 C2.56438356,7.17001644 2.37290959,7.26575342 2.1369863,7.26575342" id="XMLID_111_" fill="#FFFFFF"></path>
                    <path d="M3.95342466,7.26575342 L3.31232877,7.26575342 C3.1353863,7.26575342 2.99178082,7.17001644 2.99178082,7.05205479 C2.99178082,6.93409315 3.1353863,6.83835616 3.31232877,6.83835616 L3.95342466,6.83835616 C4.13036712,6.83835616 4.2739726,6.93409315 4.2739726,7.05205479 C4.2739726,7.17001644 4.13036712,7.26575342 3.95342466,7.26575342" id="XMLID_110_" fill="#FFFFFF"></path>
                    <path d="M5.55616438,7.26575342 L5.12876712,7.26575342 C4.89284384,7.26575342 4.70136986,7.17001644 4.70136986,7.05205479 C4.70136986,6.93409315 4.89284384,6.83835616 5.12876712,6.83835616 L5.55616438,6.83835616 C5.79208767,6.83835616 5.98356164,6.93409315 5.98356164,7.05205479 C5.98356164,7.17001644 5.79208767,7.26575342 5.55616438,7.26575342" id="XMLID_109_" fill="#FFFFFF"></path>
                    <path d="M7.37260274,7.26575342 L6.73150685,7.26575342 C6.55456438,7.26575342 6.4109589,7.17001644 6.4109589,7.05205479 C6.4109589,6.93409315 6.55456438,6.83835616 6.73150685,6.83835616 L7.37260274,6.83835616 C7.54954521,6.83835616 7.69315068,6.93409315 7.69315068,7.05205479 C7.69315068,7.17001644 7.54954521,7.26575342 7.37260274,7.26575342" id="XMLID_108_" fill="#FFFFFF"></path>
                    <path d="M8.33424658,7.26575342 C8.27868493,7.26575342 8.22312329,7.24209873 8.18252055,7.20339106 C8.14405479,7.16253295 8.12054795,7.10877229 8.12054795,7.05071078 C8.12054795,6.99479969 8.14405479,6.9388886 8.18252055,6.8980305 C8.26158904,6.81846472 8.40476712,6.81846472 8.4859726,6.8980305 C8.52443836,6.9388886 8.54794521,6.99479969 8.54794521,7.05071078 C8.54794521,7.10662187 8.52443836,7.16253295 8.4859726,7.20339106 C8.44536986,7.24209873 8.38980822,7.26575342 8.33424658,7.26575342" id="XMLID_107_" fill="#FFFFFF"></path>
                    <path d="M15.3863014,9.40273973 C15.3863014,10.3470027 14.6209753,11.1123288 13.6767123,11.1123288 C12.7324493,11.1123288 11.9671233,10.3470027 11.9671233,9.40273973 C11.9671233,8.45847671 12.7324493,7.69315068 13.6767123,7.69315068 C14.6209753,7.69315068 15.3863014,8.45847671 15.3863014,9.40273973" id="XMLID_106_" fill="#FFCD00"></path>
                    <path d="M17.0958904,9.40273973 C17.0958904,10.3470027 16.3305644,11.1123288 15.3863014,11.1123288 C14.4420384,11.1123288 13.6767123,10.3470027 13.6767123,9.40273973 C13.6767123,8.45847671 14.4420384,7.69315068 15.3863014,7.69315068 C16.3305644,7.69315068 17.0958904,8.45847671 17.0958904,9.40273973" id="XMLID_105_" fill="#FFFFFF"></path>
                </g>
            </g>
        </g>
    </g>
</svg>