<svg width="32" height="32" xmlns="http://www.w3.org/2000/svg"><g fill="none" fill-rule="evenodd"><circle fill="#FFF" opacity=".1" cx="15.6" cy="15.6" r="15.6"/><g fill-rule="nonzero"><path d="M23.366 22.225H7.406c-.55 0-.995-.425-.995-.95V10.78c0-.524.446-.949.996-.949h15.959c.55 0 .996.425.996.95v10.495c0 .525-.446.95-.996.95" fill="#F6B04A"/><path fill="#FFF" d="M6.411 11.54h17.951v2.992H6.411zM10.413 15.386H7.965c-.15 0-.272-.095-.272-.213s.122-.214.272-.214h2.448c.15 0 .272.096.272.214s-.122.213-.272.213M15.114 15.386h-2.447c-.15 0-.272-.095-.272-.213s.121-.214.272-.214h2.447c.15 0 .272.096.272.214s-.122.213-.272.213M8.548 17.096H8.12c-.236 0-.428-.096-.428-.214s.192-.214.428-.214h.427c.236 0 .427.096.427.214s-.191.214-.427.214M10.364 17.096h-.64c-.178 0-.321-.096-.321-.214s.143-.214.32-.214h.641c.177 0 .32.096.32.214s-.143.214-.32.214M11.967 17.096h-.427c-.236 0-.428-.096-.428-.214s.192-.214.428-.214h.427c.236 0 .428.096.428.214s-.192.214-.428.214M13.784 17.096h-.642c-.176 0-.32-.096-.32-.214s.144-.214.32-.214h.642c.177 0 .32.096.32.214s-.143.214-.32.214M14.745 17.096a.224.224 0 01-.152-.062.223.223 0 01-.061-.153c0-.056.023-.112.061-.153.08-.08.223-.08.304 0 .038.041.062.097.062.153a.227.227 0 01-.062.153.224.224 0 01-.152.062"/><path d="M21.797 19.233a1.71 1.71 0 11-3.419 0 1.71 1.71 0 013.42 0" fill="#FFCD00"/><path d="M23.507 19.233a1.71 1.71 0 11-3.42 0 1.71 1.71 0 013.42 0" fill="#FFF"/></g></g></svg>