<?xml version="1.0" encoding="utf-8"?>
<!-- Generator: Adobe Illustrator 22.1.0, SVG Export Plug-In . SVG Version: 6.00 Build 0)  -->
<svg version="1.1" id="Warstwa_1" xmlns="http://www.w3.org/2000/svg" xmlns:xlink="http://www.w3.org/1999/xlink" x="0px" y="0px"
	 viewBox="0 0 120 60" style="enable-background:new 0 0 120 60;" xml:space="preserve">
<style type="text/css">
	.st0{fill:#FFFFFF;}
	.st1{fill:#A9CAFF;}
	.st2{fill:#0408E0;}
	.st3{fill:#0384FF;}
	.st4{fill:#004EFF;}
</style>
<path class="st0" d="M57.7,29.6l3-6.4h3.1l0.4,6.4l0.1,0l2.9-6.6H70l-4.7,10.5H62l-0.6-6.8l-0.1,0L60.7,28l-2.3,5.1
	c-0.1,0.2-0.2,0.3-0.5,0.3l-2.6,0c-0.1,0-0.2,0-0.3,0L54.5,23h3L57.7,29.6L57.7,29.6z M70.7,23h3.1l1,6.2l3.1-6.3l2.6,0h0.4
	l-0.7,1.3L75,33.8c-0.4,0.8-0.9,1.5-1.5,2.2c-1,1-2.2,1.4-3.6,1.3c-0.5,0-1-0.1-1.5-0.2l1.1-2.2c2.9,0.5,3-2.2,2.9-2.9l-1.6-8.8
	C70.6,23.1,70.6,23.1,70.7,23L70.7,23z M91.6,29.1c-0.2,1,0.4,1.9,1.4,2.2c0.8,0.2,1.6,0.1,2.4,0l1-0.3c0,0.1,0,0.2,0,0.3l-0.4,1.9
	c0,0-0.3,0.1-0.4,0.1c-0.9,0.2-1.9,0.3-2.8,0.2c-0.7-0.1-1.4-0.2-2-0.5c-1.3-0.7-2-1.8-2.2-3.2c-0.2-1.9,0.3-3.7,1.5-5.2
	c1.2-1.5,2.7-2,4.5-1.9c0.8,0,1.5,0.3,2.1,0.7c1.5,1,1.7,3.7-0.2,4.9c-0.7,0.4-1.4,0.6-2.2,0.7c-0.8,0.1-1.7,0.1-2.5,0
	C91.7,29.1,91.7,29.1,91.6,29.1L91.6,29.1z M91.8,27.1c0.8,0.1,1.6,0.1,2.3-0.1c0.3-0.1,0.5-0.2,0.7-0.4c0.5-0.6,0.3-1.4-0.4-1.6
	c-0.7-0.2-1.4,0-1.9,0.6C92.2,26,92,26.5,91.8,27.1z M83.4,33.5h-3.1L82.3,23h2.2l0.2,1.9c0.3-0.8,0.7-1.4,1.4-1.8
	c0.7-0.3,1.9-0.3,3,0.1l-1.3,2.6l-1.2-0.2c-0.9-0.1-1.5,0.3-1.8,1.1c-0.2,0.6-0.3,1.3-0.5,1.9L83.4,33.5L83.4,33.5z"/>
<path class="st1" d="M38.5,30h9.8L43,43.2c-0.8,1.9-2.6,3.1-4.6,3.1h-9.8L34,33.1C34.7,31.3,36.5,30,38.5,30"/>
<path class="st2" d="M31.5,39H37c2,0,2.6-0.1,4.3-1.6l7-7.6h-9.8c-2,0-3.8,1.3-4.6,3.1L31.5,39z"/>
<path class="st3" d="M35.2,22h9.8l-5.3,13.1c-0.8,1.9-2.6,3-4.6,3h-9.8l5.3-13C31.4,23.2,33.2,22,35.2,22"/>
<path class="st2" d="M28.2,31h5.5c2,0,2.6-0.3,4.3-1.7l7-7.4h-9.8c-2,0-3.8,1.2-4.6,3.1L28.2,31z"/>
<path class="st4" d="M31.9,13.7h9.8l-5.3,13.2c-0.8,1.9-2.6,3.1-4.6,3.1h-9.8l5.3-13.1C28.1,15,29.9,13.7,31.9,13.7"/>
</svg>
