<svg version="1.1" id="Warstwa_1" xmlns="http://www.w3.org/2000/svg" x="0" y="0" viewBox="0 0 120 60" xml:space="preserve"><style>.st2{fill:#0408e0}</style><path d="M57.7 29.6l3-6.4h3.1l.4 6.4h.1l2.9-6.6H70l-4.7 10.5H62l-.6-6.8h-.1l-.6 1.3-2.3 5.1c-.1.2-.2.3-.5.3H55L54.5 23h3l.2 6.6zm13-6.6h3.1l1 6.2 3.1-6.3h3l-.7 1.3-5.2 9.6c-.4.8-.9 1.5-1.5 2.2-1 1-2.2 1.4-3.6 1.3-.5 0-1-.1-1.5-.2l1.1-2.2c2.9.5 3-2.2 2.9-2.9l-1.6-8.8c-.2-.1-.2-.1-.1-.2zm20.9 6.1c-.2 1 .4 1.9 1.4 2.2.8.2 1.6.1 2.4 0l1-.3v.3l-.4 1.9s-.3.1-.4.1c-.9.2-1.9.3-2.8.2-.7-.1-1.4-.2-2-.5-1.3-.7-2-1.8-2.2-3.2-.2-1.9.3-3.7 1.5-5.2s2.7-2 4.5-1.9c.8 0 1.5.3 2.1.7 1.5 1 1.7 3.7-.2 4.9-.7.4-1.4.6-2.2.7-.8.1-1.7.1-2.5 0-.1.1-.1.1-.2.1zm.2-2c.8.1 1.6.1 2.3-.1.3-.1.5-.2.7-.4.5-.6.3-1.4-.4-1.6-.7-.2-1.4 0-1.9.6-.3.4-.5.9-.7 1.5zm-8.4 6.4h-3.1l2-10.5h2.2l.2 1.9c.3-.8.7-1.4 1.4-1.8.7-.3 1.9-.3 3 .1l-1.3 2.6-1.2-.2c-.9-.1-1.5.3-1.8 1.1-.2.6-.3 1.3-.5 1.9l-.9 4.9z" fill="#fff"/><path d="M38.5 30h9.8L43 43.2c-.8 1.9-2.6 3.1-4.6 3.1h-9.8L34 33.1c.7-1.8 2.5-3.1 4.5-3.1" fill="#a9caff"/><path class="st2" d="M31.5 39H37c2 0 2.6-.1 4.3-1.6l7-7.6h-9.8c-2 0-3.8 1.3-4.6 3.1L31.5 39z"/><path d="M35.2 22H45l-5.3 13.1c-.8 1.9-2.6 3-4.6 3h-9.8l5.3-13c.8-1.9 2.6-3.1 4.6-3.1" fill="#0384ff"/><path class="st2" d="M28.2 31h5.5c2 0 2.6-.3 4.3-1.7l7-7.4h-9.8c-2 0-3.8 1.2-4.6 3.1l-2.4 6z"/><path d="M31.9 13.7h9.8l-5.3 13.2c-.8 1.9-2.6 3.1-4.6 3.1H22l5.3-13.1c.8-1.9 2.6-3.2 4.6-3.2" fill="#004eff"/></svg>