<?xml version="1.0" encoding="UTF-8"?>
<svg width="15.54px" height="9.94px" viewBox="0 0 57 37" version="1.1" xmlns="http://www.w3.org/2000/svg" xmlns:xlink="http://www.w3.org/1999/xlink">
    <!-- Generator: Sketch 58 (84663) - https://sketch.com -->
    <title>laptop</title>
    <desc>Created with Sketch.</desc>
    <g id="Page-1" stroke="none" stroke-width="1" fill="none" fill-rule="evenodd">
        <g id="laptop" fill="#31405E">
            <path d="M52,0 C53.1045695,-2.02906125e-16 54,0.8954305 54,2 L54,31 C54,32.1045695 53.1045695,33 52,33 L5,33 C3.8954305,33 3,32.1045695 3,31 L3,2 C3,0.8954305 3.8954305,2.02906125e-16 5,0 L52,0 Z M52,2 L5,2 L5,31 L52,31 L52,2 Z" id="Combined-Shape"></path>
            <path d="M57,34 C57,35.6568542 55.6568542,37 54,37 L3,37 C1.34314575,37 2.02906125e-16,35.6568542 0,34 L23.4999294,34.0001498 C23.9560395,34.6072879 24.6821583,35 25.5,35 L25.5,35 L31.5,35 C32.3178417,35 33.0439605,34.6072879 33.5000706,34.0001498 L57,34 Z" id="Combined-Shape"></path>
        </g>
    </g>
</svg>