<svg width="11" height="12" xmlns="http://www.w3.org/2000/svg"><path d="M10.81 8.09l-.829-.456.638-.164a.361.361 0 00.268-.443l-.098-.35a.382.382 0 00-.464-.255l-1.739.445L7.018 6l1.566-.865 1.738.445a.382.382 0 00.464-.255l.099-.35a.361.361 0 00-.268-.442l-.638-.164.83-.457a.355.355 0 00.14-.495l-.381-.628a.39.39 0 00-.518-.134l-.83.458.172-.61a.361.361 0 00-.268-.443l-.366-.094a.382.382 0 00-.464.256l-.466 1.66-1.542.848V2.913l1.318-1.258a.364.364 0 000-.53L7.327.86a.408.408 0 00-.555 0l-.486.462V.375A.385.385 0 005.893 0h-.785a.385.385 0 00-.393.375v.947L4.23.86a.408.408 0 00-.555 0l-.28.265a.36.36 0 000 .53l1.319 1.258V4.73L3.173 3.88l-.467-1.66a.382.382 0 00-.464-.255l-.365.094a.361.361 0 00-.268.443l.172.61-.83-.458a.389.389 0 00-.518.134l-.38.626a.353.353 0 00.14.494l.83.457-.64.164a.362.362 0 00-.27.446l.099.349a.382.382 0 00.464.255l1.738-.445L3.981 6l-1.567.865L.676 6.42a.382.382 0 00-.464.255l-.098.35a.361.361 0 00.267.442l.639.164-.83.46a.355.355 0 00-.14.494l.38.628a.39.39 0 00.519.134l.83-.457-.172.61a.361.361 0 00.267.442l.366.094a.382.382 0 00.464-.256l.466-1.659 1.542-.848v1.816l-1.318 1.259a.36.36 0 000 .53l.277.264a.408.408 0 00.555 0l.484-.462v.945c0 .206.177.375.393.375h.785a.385.385 0 00.393-.375v-.947l.484.462a.408.408 0 00.555 0l.277-.265a.364.364 0 000-.53L6.286 9.087V7.27l1.542.849.466 1.66a.382.382 0 00.464.255l.366-.094a.361.361 0 00.268-.443l-.172-.61.83.458c.181.1.412.04.518-.134l.38-.628a.35.35 0 00-.137-.492z" fill="#2C3E62" fill-rule="nonzero"/></svg>