<?xml version="1.0" encoding="UTF-8"?>
<svg width="7.2px" height="13.03px" viewBox="0 0 23 40" version="1.1" xmlns="http://www.w3.org/2000/svg" xmlns:xlink="http://www.w3.org/1999/xlink">
    <!-- Generator: Sketch 58 (84663) - https://sketch.com -->
    <title>phone</title>
    <desc>Created with Sketch.</desc>
    <g id="Page-1" stroke="none" stroke-width="1" fill="none" fill-rule="evenodd">
        <path d="M20.3684211,0 C21.821802,-2.66981744e-16 23,1.17819803 23,2.63157895 L23,37.3684211 C23,38.821802 21.821802,40 20.3684211,40 L2.63157895,40 C1.17819803,40 -7.1019059e-16,38.821802 0,37.3684211 L0,2.63157895 C-1.77987829e-16,1.17819803 1.17819803,7.11070954e-16 2.63157895,0 L20.3684211,0 Z M21.3859649,4.78947368 L1.61403509,4.78947368 L1.61403509,35.7894737 L21.3859649,35.7894737 L21.3859649,4.78947368 Z M3.5,1 C3.22385763,1 3,1.22385763 3,1.5 C3,1.77614237 3.22385763,2 3.5,2 C3.77614237,2 4,1.77614237 4,1.5 C4,1.22385763 3.77614237,1 3.5,1 Z M10.5,2 L13.5,2 C13.7761424,2 14,2.22385763 14,2.5 C14,2.77614237 13.7761424,3 13.5,3 L10.5,3 C10.2238576,3 10,2.77614237 10,2.5 C10,2.22385763 10.2238576,2 10.5,2 Z M10,37 L13,37 C13.5522847,37 14,37.4477153 14,38 C14,38.5522847 13.5522847,39 13,39 L10,39 C9.44771525,39 9,38.5522847 9,38 C9,37.4477153 9.44771525,37 10,37 Z" id="phone" fill="#31405E"></path>
    </g>
</svg>