<svg width="28" height="36" xmlns="http://www.w3.org/2000/svg"><g fill="#2EC9F5" fill-rule="nonzero"><path d="M26.677 0H.702a.666.666 0 00-.666.666v34.633c0 .368.299.666.666.666h25.975a.666.666 0 00.666-.666V.666A.666.666 0 0026.677 0zm-.666 34.633H1.368V1.332h24.643v33.3z"/><path d="M23.347 9.324H12.691a.666.666 0 000 1.332h10.656a.666.666 0 000-1.332zM23.347 13.32H7.363a.666.666 0 000 1.332h15.984a.666.666 0 000-1.332zM23.347 17.316H7.363a.666.666 0 000 1.332h15.984a.666.666 0 000-1.332zM23.347 21.312H7.363a.666.666 0 000 1.333h15.984a.666.666 0 000-1.333zM23.347 25.309H7.363a.666.666 0 000 1.332h15.984a.666.666 0 000-1.332zM12.69 29.305H7.364a.666.666 0 000 1.332h5.328a.666.666 0 000-1.332z"/></g></svg>