<svg width="40" height="40" viewBox="0 0 40 40" fill="none" xmlns="http://www.w3.org/2000/svg">
<g clip-path="url(#clip0)">
<path fill-rule="evenodd" clip-rule="evenodd" d="M20 40C31.0457 40 40 31.0457 40 20C40 8.95431 31.0457 0 20 0C8.95431 0 0 8.95431 0 20C0 31.0457 8.95431 40 20 40Z" fill="#CEF4FF"/>
<path d="M25.625 10C23.9062 10 22.4999 11.4062 22.4999 13.125V30H1.87501C0.843761 29.9999 0 29.1562 0 28.125V1.87502C0 0.843761 0.843761 0 1.87501 0H30.6249C31.6562 0 32.4999 0.843761 32.4999 1.87502V10H25.625Z" fill="#83D8E4"/>
<path d="M25.6249 9.99995C23.9062 9.99995 22.4999 11.4062 22.4999 13.125V27.4999H3.75001C3.06248 27.4999 2.5 26.9375 2.5 26.2499V9.37495C2.5 8.68742 3.06248 8.12494 3.75001 8.12494H28.75C29.4375 8.12494 30 8.68742 30 9.37495V9.99995H25.6249Z" fill="white"/>
<path d="M5.625 11.25H12.5V17.1875H5.625V11.25Z" fill="#BAEEF6"/>
<path d="M22.5 13.125V17.1874H14.375V11.2499H23.125C22.75 11.7812 22.5 12.4375 22.5 13.125Z" fill="#15B2C7"/>
<path d="M16.25 2.8125H28.75C29.4375 2.8125 30 3.37498 30 4.06251C30 4.75004 29.4375 5.31252 28.75 5.31252H16.25C15.5625 5.31252 15 4.75004 15 4.06251C15 3.37498 15.5625 2.8125 16.25 2.8125Z" fill="#15B2C7"/>
<path d="M22.5 21.25H6.40624C5.96872 21.25 5.625 20.9063 5.625 20.4687C5.625 20.0312 5.96872 19.6875 6.40624 19.6875H22.5V21.25ZM6.40624 22.8125H22.5V24.375H6.40624C5.96872 24.375 5.625 24.0313 5.625 23.5938C5.625 23.1563 5.9688 22.8125 6.40624 22.8125Z" fill="#E4E7E7"/>
<path d="M3.75001 2.8125C3.06248 2.8125 2.5 3.37498 2.5 4.06251C2.5 4.75004 3.06248 5.31252 3.75001 5.31252C4.43754 5.31252 4.99994 4.75004 4.99994 4.06251C4.99994 3.37498 4.43746 2.8125 3.75001 2.8125ZM7.49996 2.8125C6.81243 2.8125 6.24995 3.37498 6.24995 4.06251C6.24995 4.75004 6.81243 5.31252 7.49996 5.31252C8.18749 5.31252 8.74997 4.75004 8.74997 4.06251C8.74997 3.37498 8.18749 2.8125 7.49996 2.8125ZM11.25 2.8125C10.5625 2.8125 9.99998 3.37498 9.99998 4.06251C9.99998 4.75004 10.5625 5.31252 11.25 5.31252C11.9375 5.31252 12.5 4.75004 12.5 4.06251C12.5 3.37498 11.9374 2.8125 11.25 2.8125Z" fill="white"/>
<path d="M26.875 11.25H36.875C38.5938 11.25 40 12.6562 40 14.375V36.8749C40 38.5937 38.5938 40 36.875 40H26.875C25.1562 40 23.75 38.5937 23.75 36.8749V14.3749C23.75 12.6562 25.1562 11.25 26.875 11.25Z" fill="#83D8E4"/>
<path d="M25.9375 15.625H37.8125C38.1562 15.625 38.4375 15.9063 38.4375 16.25V35C38.4375 35.3437 38.1562 35.625 37.8125 35.625H25.9375C25.5938 35.625 25.3125 35.3437 25.3125 35V16.25C25.3125 15.9063 25.5938 15.625 25.9375 15.625Z" fill="white"/>
<path d="M31.875 36.8749C32.4062 36.8749 32.8124 37.2811 32.8124 37.8123C32.8124 38.3436 32.4062 38.7498 31.875 38.7498C31.3437 38.7498 30.9375 38.3436 30.9375 37.8123C30.9375 37.3124 31.3437 36.8749 31.875 36.8749Z" fill="white"/>
<path d="M27.8125 18.1249H35.9375V22.4999H27.8125V18.1249Z" fill="#BAEEF6"/>
<path d="M27.8125 24.0625H35.9375V28.125H27.8125V24.0625Z" fill="#15B2C7"/>
<path d="M28.4375 30.9374H35.3125C35.6562 30.9374 35.9375 30.6562 35.9375 30.3124C35.9375 29.9687 35.6562 29.6874 35.3125 29.6874H28.4375C28.0938 29.6874 27.8125 29.9687 27.8125 30.3124C27.8125 30.6562 28.0938 30.9374 28.4375 30.9374ZM35.3125 31.8749H28.4375C28.0938 31.8749 27.8125 32.1562 27.8125 32.4999C27.8125 32.8436 28.0938 33.1249 28.4375 33.1249H35.3125C35.6562 33.1249 35.9375 32.8436 35.9375 32.4999C35.9375 32.1562 35.6562 31.8749 35.3125 31.8749Z" fill="#E4E7E7"/>
<path d="M30.4688 13.1249H33.5938C33.8438 13.1249 34.0626 13.3437 34.0626 13.5937C34.0626 13.8437 33.8438 14.0625 33.5938 14.0625H30.4688C30.2188 14.0625 30 13.8437 30 13.5937C30 13.3437 30.2188 13.1249 30.4688 13.1249Z" fill="#15B2C7"/>
</g>
<defs>
<clipPath id="clip0">
<rect width="40" height="40" fill="white"/>
</clipPath>
</defs>
</svg>
