<svg xmlns="http://www.w3.org/2000/svg" width="31" height="30" viewBox="0 0 31 30">
  <g fill="none" fill-rule="evenodd" transform="translate(.04)">
    <rect width="30" height="30" fill="#382A9C" rx="4"/>
    <rect width="15.12" height="3.78" x="7.395" y="4.25" fill="#9CA7FF"/>
    <rect width="4.13" height="10.937" y="8.03" fill="#382A9C"/>
    <rect width="4.214" height="10.937" x="25.786" y="8.03" fill="#382A9C"/>
    <polygon fill="#9CA7FF" points="3.762 11.866 7.861 11.866 7.861 22.483 0 22.483 0 18.966 3.762 18.966" transform="matrix(-1 0 0 1 7.861 0)"/>
    <rect width="4.13" height="14.201" x="4.093" y="8.03" fill="#382A9C"/>
    <rect width="3.357" height="10.937" x="22.459" y="8.03" fill="#382A9C"/>
    <polygon fill="#E8EA75" points="7.533 8.03 7.533 11.866 4.093 11.866 4.093 15.371 7.533 15.371 7.533 22.483 22.459 22.483 22.459 15.257 25.817 15.257 25.817 11.866 22.459 11.866 22.459 8.03"/>
    <rect width="9.82" height="3.526" x="10.045" y="11.866" fill="#00A5FA"/>
    <rect width="14.946" height="4.293" x="7.514" y="21.97" fill="#00A5FA"/>
    <rect width="7.56" height="3.737" x="11.207" y="26.263" fill="#382A9C"/>
    <polygon fill="#9CA7FF" points="25.817 11.866 30 11.866 30 22.23 25.817 21.97 25.817 18.966"/>
    <path fill="#9CA7FF" d="M4,-2.66453526e-15 L7.5,-2.66453526e-15 L7.5405047,8.02985322 L-2.66453526e-15,8.02985322 L-2.66453526e-15,4 C-2.93507676e-15,1.790861 1.790861,-2.25872301e-15 4,-2.66453526e-15 Z"/>
    <path fill="#9CA7FF" d="M26.4594953,-4.4408921e-15 L29.9594953,-4.4408921e-15 L30,8.02985322 L22.4594953,8.02985322 L22.4594953,4 C22.4594953,1.790861 24.2503563,-4.03507985e-15 26.4594953,-4.4408921e-15 Z" transform="matrix(-1 0 0 1 52.46 0)"/>
    <path fill="#9CA7FF" d="M4,21.9701468 L7.5405047,21.9701468 L7.5405047,30 L-2.04281037e-14,30 L-2.04281037e-14,25.9701468 C-2.06986452e-14,23.7610078 1.790861,21.9701468 4,21.9701468 Z" transform="matrix(1 0 0 -1 0 51.97)"/>
    <path fill="#9CA7FF" d="M26.4594953,21.9701468 L30,21.9701468 L30,30 L22.4594953,30 L22.4594953,25.9701468 C22.4594953,23.7610078 24.2503563,21.9701468 26.4594953,21.9701468 Z" transform="rotate(180 26.23 25.985)"/>
    <polygon fill="#382A9C" points="22.459 21.97 30 21.97 30 26.248 22.459 26.263"/>
    <rect width="7.541" height="4.293" y="21.97" fill="#382A9C"/>
    <rect width="3.42" height="3.78" x="4.093" y="4.25" fill="#E8EA75"/>
    <rect width="3.447" height="4.293" x="4.093" y="21.97" fill="#E8EA75"/>
    <rect width="3.42" height="3.78" x="22.459" y="4.25" fill="#E8EA75"/>
    <rect width="3.357" height="4.293" x="22.459" y="21.97" fill="#E8EA75"/>
    <g fill="#00A5FA">
      <path d="M4,0 L4.09307736,0 L4.09307736,4.29317677 L0,4.29317677 L0,4 C-2.705415e-16,1.790861 1.790861,4.05812251e-16 4,0 Z"/>
      <path d="M29.8799292,0 L30,0 L30,4.24985325 L25.8799292,4.24985325 L25.8799292,4 C25.8799292,1.790861 27.6707902,4.05812251e-16 29.8799292,0 Z" transform="matrix(-1 0 0 1 55.88 0)"/>
    </g>
    <g fill="#00A5FA" transform="matrix(1 0 0 -1 0 30)">
      <path d="M3.73667646,0 L4.09307736,0 L4.09307736,3.73667646 L0,3.73667646 L0,3.73667646 C-2.52731514e-16,1.67296703 1.67296703,-6.49919392e-17 3.73667646,-4.4408921e-16 Z"/>
      <path d="M29.5693703,0 L30,0 L30,3.7517395 L25.8176308,3.7517395 L25.8176308,3.7517395 C25.8176308,1.67971099 27.4973418,3.80625463e-16 29.5693703,0 Z" transform="matrix(-1 0 0 1 55.818 0)"/>
    </g>
  </g>
</svg>
