<svg xmlns="http://www.w3.org/2000/svg" width="31" height="30"><g fill="none" fill-rule="evenodd" transform="translate(.04)"><rect width="30" height="30" fill="#382A9C" rx="4"/><path fill="#9CA7FF" d="M7.395 4.25h15.12v3.78H7.395z"/><path fill="#382A9C" d="M0 8.03h4.13v10.937H0zm25.786 0H30v10.937h-4.214z"/><path fill="#9CA7FF" d="M4.099 11.866H0v10.617h7.861v-3.517H4.099z"/><path fill="#382A9C" d="M4.093 8.03h4.13v14.201h-4.13zm18.366 0h3.357v10.937h-3.357z"/><path fill="#E8EA75" d="M7.533 8.03v3.836h-3.44v3.505h3.44v7.112h14.926v-7.226h3.358v-3.391h-3.358V8.03z"/><path fill="#00A5FA" d="M10.045 11.866h9.82v3.526h-9.82zM7.514 21.97H22.46v4.293H7.514z"/><path fill="#382A9C" d="M11.207 26.263h7.56V30h-7.56z"/><path fill="#9CA7FF" d="M25.817 11.866H30V22.23l-4.183-.26v-3.004zM4 0h3.5l.04 8.03H0V4a4 4 0 014-4zm22 0h-3.5l-.04 8.03H30V4a4 4 0 00-4-4zM4 30h3.54v-8.03H0V26a4 4 0 004 4z"/><path fill="#9CA7FF" d="M26 30h-3.54v-8.03H30V26a4 4 0 01-4 4z"/><path fill="#382A9C" d="M22.459 21.97H30v4.278l-7.541.015zM0 21.97h7.541v4.293H0z"/><path fill="#E8EA75" d="M4.093 4.25h3.42v3.78h-3.42zm0 17.72H7.54v4.293H4.093zM22.459 4.25h3.42v3.78h-3.42zm0 17.72h3.357v4.293h-3.357z"/><path d="M4 0h.093v4.293H0V4a4 4 0 014-4zm22 0h-.12v4.25H30V4a4 4 0 00-4-4zM3.737 30h.356v-3.737H0A3.737 3.737 0 003.737 30zm22.512 0h-.431v-3.752H30A3.752 3.752 0 0126.25 30z" fill="#00A5FA"/></g></svg>