<svg width="21" height="20" xmlns="http://www.w3.org/2000/svg"><defs><linearGradient x1="122.587%" y1="123.004%" x2="84.243%" y2="30.09%" id="g"><stop stop-color="#706AE1" offset="0%"/><stop stop-color="#4352ED" offset="100%"/></linearGradient><linearGradient x1="50%" y1="0%" x2="50%" y2="100%" id="a"><stop stop-color="#DEEDFF" offset="0%"/><stop stop-color="#B2D4FD" offset="100%"/></linearGradient><linearGradient x1="64.68%" y1="5.323%" x2="86.637%" y2="34.933%" id="c"><stop stop-color="#00D6D9" offset="0%"/><stop stop-color="#04CFD9" stop-opacity="0" offset="100%"/></linearGradient><linearGradient x1="64.85%" y1="50%" x2="71.949%" y2="58.7%" id="d"><stop stop-color="#3F66DA" stop-opacity="0" offset="0%"/><stop stop-color="#2E2EAE" offset="100%"/></linearGradient><linearGradient x1="38.514%" y1="58.319%" x2="50%" y2="90.652%" id="e"><stop stop-color="#2D41B3" stop-opacity="0" offset="0%"/><stop stop-color="#141E62" offset="100%"/></linearGradient><linearGradient x1="43.426%" y1="23.915%" x2="83.697%" y2="67.219%" id="f"><stop stop-color="#3F66DA" stop-opacity="0" offset="0%"/><stop stop-color="#2436C1" offset="100%"/></linearGradient><linearGradient x1="90.51%" y1="5.323%" x2="87.171%" y2="62.815%" id="b"><stop stop-color="#00D6D9" offset="0%"/><stop stop-color="#455CDA" offset="100%"/></linearGradient><linearGradient x1="190.663%" y1="5.323%" x2="100%" y2="111.277%" id="h"><stop stop-color="#00D6D9" offset="0%"/><stop stop-color="#0FC4DD" stop-opacity="0" offset="100%"/></linearGradient><linearGradient x1="32.768%" y1="50%" x2="50%" y2="68.948%" id="i"><stop stop-color="#2D41B3" stop-opacity="0" offset="0%"/><stop stop-color="#141E62" offset="100%"/></linearGradient><linearGradient x1="69.976%" y1="70.522%" x2="38.879%" y2="90.086%" id="j"><stop stop-color="#3F4DDA" stop-opacity="0" offset="0%"/><stop stop-color="#2736A4" offset="100%"/></linearGradient><linearGradient x1="38.453%" y1="0%" x2="57.217%" y2="79.07%" id="k"><stop stop-color="#00D6D9" offset="0%"/><stop stop-color="#5272EE" offset="100%"/></linearGradient><linearGradient x1="27.809%" y1="24.262%" x2="44.07%" y2="71.104%" id="l"><stop stop-color="#00D6D9" offset="0%"/><stop stop-color="#0FC4DD" stop-opacity="0" offset="100%"/></linearGradient></defs><g fill="none" fill-rule="evenodd"><path d="M.16.3h2.505c2.8 0 5.07 2.27 5.07 5.07v4.018a2.434 2.434 0 004.868 0V5.37c0-2.8 2.27-5.07 5.07-5.07h2.546v8.93c0 5.54-4.49 10.03-10.03 10.03C4.652 19.26.162 14.77.162 9.23V.3z" fill="url(#a)"/><path d="M.16.3h2.505c2.8 0 5.07 2.27 5.07 5.07v4.018a2.434 2.434 0 004.868 0V5.37c0-2.8 2.27-5.07 5.07-5.07h2.546v8.93c0 5.54-4.49 10.03-10.03 10.03C4.652 19.26.162 14.77.162 9.23V.3z" fill="url(#b)"/><path d="M.16.3h2.505c2.8 0 5.07 2.27 5.07 5.07v4.018a2.434 2.434 0 004.868 0V5.37c0-2.8 2.27-5.07 5.07-5.07h2.546v8.93c0 5.54-4.49 10.03-10.03 10.03C4.652 19.26.162 14.77.162 9.23V.3z" fill="url(#c)"/><path d="M.16.3h2.505c2.8 0 5.07 2.27 5.07 5.07v4.018a2.434 2.434 0 004.868 0V5.37c0-2.8 2.27-5.07 5.07-5.07h2.546v8.93c0 5.54-4.49 10.03-10.03 10.03C4.652 19.26.162 14.77.162 9.23V.3z" fill="url(#d)"/><path d="M10.603 11.816l1.201.562 2.335-.214 1.061-.348 1.241-.444 1.394-1.189 1.143-.578.53-1.554.188-1.296.285-.93V4.286l.174-1.414v-1.13c-.335 2.307-.532 2.861-.852 3.52-.479.99-.479 1.01-1.126 1.902-.647.892-1.005 1.319-1.998 2.125-.994.806-1.383 1.037-2.491 1.497-.739.306-1.502.54-2.288.703l-.797.326z" fill="url(#e)" opacity=".974"/><path d="M.16.3h2.505c2.8 0 5.07 2.27 5.07 5.07v4.018a2.434 2.434 0 004.868 0V5.37c0-2.8 2.27-5.07 5.07-5.07h2.546v8.93c0 5.54-4.49 10.03-10.03 10.03C4.652 19.26.162 14.77.162 9.23V.3z" fill="url(#f)"/><path d="M.16.3h2.505c2.8 0 5.07 2.27 5.07 5.07v3.997c0 1.355 1.1 2.455 2.455 2.455 1.594 0 3.166-.373 4.59-1.09l.11-.055a9.759 9.759 0 003.702-3.257l.009-.013a8.962 8.962 0 001.529-4.686L20.219.3v8.93c0 5.54-4.49 10.03-10.03 10.03C4.652 19.26.162 14.77.162 9.23V.3z" fill="url(#g)"/><path d="M.16.3h2.505c2.8 0 5.07 2.27 5.07 5.07v3.997c0 1.355 1.1 2.455 2.455 2.455 1.594 0 3.166-.373 4.59-1.09l.11-.055a9.759 9.759 0 003.702-3.257l.009-.013a8.962 8.962 0 001.529-4.686L20.219.3v8.93c0 5.54-4.49 10.03-10.03 10.03C4.652 19.26.162 14.77.162 9.23V.3z" fill="url(#h)"/><path d="M4.31 17.556l1.374-.472 2.288-.854 1.108.292 1.24-.445 1.395-1.188 1.142-.579.53-1.554.189-1.295-.15-.796a.168.168 0 00-.312.038 2.686 2.686 0 01-.214.577c-.22.446-.489.758-.804.935l-5.24 2.67-.11.541-.224.556-.108.166-.033.043a3.552 3.552 0 01-.146.181 2.142 2.142 0 01-.162.168l-.008.008a2.037 2.037 0 01-.198.163l-.06.043-.246.164-1.25.638z" fill="url(#i)" opacity=".498" transform="rotate(117 8.943 13.829)"/><path d="M.16.3h2.505c2.8 0 5.07 2.27 5.07 5.07v3.997c0 1.355 1.1 2.455 2.455 2.455 1.594 0 3.166-.373 4.59-1.09l.11-.055a9.759 9.759 0 003.702-3.257l.009-.013a8.962 8.962 0 001.529-4.686L20.219.3v8.93c0 5.54-4.49 10.03-10.03 10.03C4.652 19.26.162 14.77.162 9.23V.3z" fill="url(#j)"/><path d="M.16.3h2.505c2.8 0 5.07 2.27 5.07 5.07v11.435c0 1.356 1.1 2.455 2.455 2.455C4.65 19.26.16 14.77.16 9.23V.3z" fill="url(#k)"/><path d="M.16.3h2.505c2.8 0 5.07 2.27 5.07 5.07v11.435c0 1.356 1.1 2.455 2.455 2.455C4.65 19.26.16 14.77.16 9.23V.3z" fill="url(#l)"/></g></svg>