<?xml version="1.0" encoding="UTF-8"?>
<svg width="21px" height="20px" viewBox="0 0 21 20" version="1.1" xmlns="http://www.w3.org/2000/svg" xmlns:xlink="http://www.w3.org/1999/xlink">
    <!-- Generator: Sketch 56 (81588) - https://sketch.com -->
    <title>Group 2</title>
    <desc>Created with Sketch.</desc>
    <defs>
        <linearGradient x1="50%" y1="0%" x2="50%" y2="100%" id="linearGradient-1">
            <stop stop-color="#DEEDFF" offset="0%"></stop>
            <stop stop-color="#B2D4FD" offset="100%"></stop>
        </linearGradient>
        <linearGradient x1="90.5099108%" y1="5.32289893%" x2="87.1713803%" y2="62.8146124%" id="linearGradient-2">
            <stop stop-color="#00D6D9" offset="0%"></stop>
            <stop stop-color="#455CDA" offset="100%"></stop>
        </linearGradient>
        <linearGradient x1="64.6799595%" y1="5.32289893%" x2="86.6365057%" y2="34.9328158%" id="linearGradient-3">
            <stop stop-color="#00D6D9" offset="0%"></stop>
            <stop stop-color="#04CFD9" stop-opacity="0" offset="100%"></stop>
        </linearGradient>
        <linearGradient x1="64.8499715%" y1="50%" x2="71.9489771%" y2="58.6999365%" id="linearGradient-4">
            <stop stop-color="#3F66DA" stop-opacity="0" offset="0%"></stop>
            <stop stop-color="#2E2EAE" offset="100%"></stop>
        </linearGradient>
        <linearGradient x1="38.5144143%" y1="58.3193659%" x2="50%" y2="90.6516982%" id="linearGradient-5">
            <stop stop-color="#2D41B3" stop-opacity="0" offset="0%"></stop>
            <stop stop-color="#141E62" offset="100%"></stop>
        </linearGradient>
        <linearGradient x1="43.4256771%" y1="23.9148467%" x2="83.6966242%" y2="67.2190584%" id="linearGradient-6">
            <stop stop-color="#3F66DA" stop-opacity="0" offset="0%"></stop>
            <stop stop-color="#2436C1" offset="100%"></stop>
        </linearGradient>
        <linearGradient x1="122.586956%" y1="123.004235%" x2="84.2432237%" y2="30.0897044%" id="linearGradient-7">
            <stop stop-color="#706AE1" offset="0%"></stop>
            <stop stop-color="#4352ED" offset="100%"></stop>
        </linearGradient>
        <linearGradient x1="190.662895%" y1="5.32289893%" x2="100%" y2="111.276935%" id="linearGradient-8">
            <stop stop-color="#00D6D9" offset="0%"></stop>
            <stop stop-color="#0FC4DD" stop-opacity="0" offset="100%"></stop>
        </linearGradient>
        <linearGradient x1="32.7679005%" y1="50%" x2="50%" y2="68.9476807%" id="linearGradient-9">
            <stop stop-color="#2D41B3" stop-opacity="0" offset="0%"></stop>
            <stop stop-color="#141E62" offset="100%"></stop>
        </linearGradient>
        <linearGradient x1="69.9759426%" y1="70.5218825%" x2="38.8788577%" y2="90.0856608%" id="linearGradient-10">
            <stop stop-color="#3F4DDA" stop-opacity="0" offset="0%"></stop>
            <stop stop-color="#2736A4" offset="100%"></stop>
        </linearGradient>
        <linearGradient x1="38.4534435%" y1="0%" x2="57.2168963%" y2="79.0700426%" id="linearGradient-11">
            <stop stop-color="#00D6D9" offset="0%"></stop>
            <stop stop-color="#5272EE" offset="100%"></stop>
        </linearGradient>
        <linearGradient x1="27.8089069%" y1="24.2618014%" x2="44.0703933%" y2="71.1037124%" id="linearGradient-12">
            <stop stop-color="#00D6D9" offset="0%"></stop>
            <stop stop-color="#0FC4DD" stop-opacity="0" offset="100%"></stop>
        </linearGradient>
    </defs>
    <g id="Page-1" stroke="none" stroke-width="1" fill="none" fill-rule="evenodd">
        <g id="Artboard-Copy-2" transform="translate(-489.000000, -412.000000)">
            <g id="Group-4" transform="translate(470.000000, 378.000000)">
                <g id="Group-5">
                    <g id="Group-3">
                        <g id="Group-8" transform="translate(19.000000, 32.000000)">
                            <g id="Group-2" transform="translate(0.000000, 2.000000)">
                                <path d="M0.160893761,0.299545927 L2.66496851,0.299545927 C5.46505246,0.299545927 7.73496899,2.56946246 7.73496899,5.36954641 L7.73496899,9.38773221 C7.73496899,10.7318887 8.82462314,11.8215429 10.1687797,11.8215429 C11.5129362,11.8215429 12.6025903,10.7318887 12.6025903,9.38773221 L12.6025903,5.36954641 C12.6025903,2.56946246 14.8725068,0.299545927 17.6725908,0.299545927 L20.2190019,0.299545927 L20.2190019,9.23089029 C20.2190019,14.7697839 15.7288415,19.2599444 10.1899478,19.2599444 C4.65105422,19.2599444 0.160893761,14.7697839 0.160893761,9.23089029 L0.160893761,0.299545927 Z" id="Rectangle-Copy" fill="url(#linearGradient-1)"></path>
                                <path d="M0.160893761,0.299545927 L2.66496851,0.299545927 C5.46505246,0.299545927 7.73496899,2.56946246 7.73496899,5.36954641 L7.73496899,9.38773221 C7.73496899,10.7318887 8.82462314,11.8215429 10.1687797,11.8215429 C11.5129362,11.8215429 12.6025903,10.7318887 12.6025903,9.38773221 L12.6025903,5.36954641 C12.6025903,2.56946246 14.8725068,0.299545927 17.6725908,0.299545927 L20.2190019,0.299545927 L20.2190019,9.23089029 C20.2190019,14.7697839 15.7288415,19.2599444 10.1899478,19.2599444 C4.65105422,19.2599444 0.160893761,14.7697839 0.160893761,9.23089029 L0.160893761,0.299545927 Z" id="Rectangle-Copy-2" fill="url(#linearGradient-2)"></path>
                                <path d="M0.160893761,0.299545927 L2.66496851,0.299545927 C5.46505246,0.299545927 7.73496899,2.56946246 7.73496899,5.36954641 L7.73496899,9.38773221 C7.73496899,10.7318887 8.82462314,11.8215429 10.1687797,11.8215429 C11.5129362,11.8215429 12.6025903,10.7318887 12.6025903,9.38773221 L12.6025903,5.36954641 C12.6025903,2.56946246 14.8725068,0.299545927 17.6725908,0.299545927 L20.2190019,0.299545927 L20.2190019,9.23089029 C20.2190019,14.7697839 15.7288415,19.2599444 10.1899478,19.2599444 C4.65105422,19.2599444 0.160893761,14.7697839 0.160893761,9.23089029 L0.160893761,0.299545927 Z" id="Rectangle-Copy-2" fill="url(#linearGradient-3)"></path>
                                <path d="M0.160893761,0.299545927 L2.66496851,0.299545927 C5.46505246,0.299545927 7.73496899,2.56946246 7.73496899,5.36954641 L7.73496899,9.38773221 C7.73496899,10.7318887 8.82462314,11.8215429 10.1687797,11.8215429 C11.5129362,11.8215429 12.6025903,10.7318887 12.6025903,9.38773221 L12.6025903,5.36954641 C12.6025903,2.56946246 14.8725068,0.299545927 17.6725908,0.299545927 L20.2190019,0.299545927 L20.2190019,9.23089029 C20.2190019,14.7697839 15.7288415,19.2599444 10.1899478,19.2599444 C4.65105422,19.2599444 0.160893761,14.7697839 0.160893761,9.23089029 L0.160893761,0.299545927 Z" id="Rectangle-Copy-2" fill="url(#linearGradient-4)"></path>
                                <path d="M10.6029975,11.815849 L11.8043994,12.377869 L14.1393104,12.1644734 L15.2000372,11.815849 L16.4410486,11.3715432 L17.8350511,10.1830762 L18.9776904,9.60453167 L19.5072477,8.0507919 L19.6959493,6.75537955 L19.9813224,5.82443537 L19.9813224,4.28684879 L20.1551086,2.87297964 L20.1551086,1.74349345 C19.8197694,4.05048637 19.6230841,4.60429562 19.3034451,5.26390077 C18.8239865,6.25330848 18.8239865,6.27360829 18.1768347,7.16527473 C17.529683,8.05694116 17.1721993,8.48403704 16.1786675,9.29000845 C15.1851357,10.0959799 14.7959833,10.3268112 13.6877635,10.7865927 C12.9489503,11.0931136 12.1862016,11.3276653 11.3995173,11.4902475 L10.6029975,11.815849 Z" id="Path-4" fill="url(#linearGradient-5)" opacity="0.973865327"></path>
                                <path d="M0.160893761,0.299545927 L2.66496851,0.299545927 C5.46505246,0.299545927 7.73496899,2.56946246 7.73496899,5.36954641 L7.73496899,9.38773221 C7.73496899,10.7318887 8.82462314,11.8215429 10.1687797,11.8215429 C11.5129362,11.8215429 12.6025903,10.7318887 12.6025903,9.38773221 L12.6025903,5.36954641 C12.6025903,2.56946246 14.8725068,0.299545927 17.6725908,0.299545927 L20.2190019,0.299545927 L20.2190019,9.23089029 C20.2190019,14.7697839 15.7288415,19.2599444 10.1899478,19.2599444 C4.65105422,19.2599444 0.160893761,14.7697839 0.160893761,9.23089029 L0.160893761,0.299545927 Z" id="Rectangle-Copy-2" fill="url(#linearGradient-6)"></path>
                                <path d="M0.160893761,0.299545927 L2.66496851,0.299545927 C5.46505246,0.299545927 7.73496899,2.56946246 7.73496899,5.36954641 L7.73496899,9.36656402 C7.73496899,10.7224114 8.83410047,11.8215429 10.1899478,11.8215429 L10.1899478,11.8215429 C11.7838197,11.8215429 13.3555698,11.4485071 14.7794538,10.7322795 L14.8901093,10.6766187 C16.3825261,9.92591843 17.6572366,8.80465724 18.5921856,7.42019737 L18.6008969,7.40729773 C19.5385246,6.01887134 20.0682104,4.39542857 20.1298482,2.72119016 L20.2190019,0.299545927 L20.2190019,9.23089029 C20.2190019,14.7697839 15.7288415,19.2599444 10.1899478,19.2599444 C4.65105422,19.2599444 0.160893761,14.7697839 0.160893761,9.23089029 L0.160893761,0.299545927 Z" id="Rectangle-Copy-3" fill="url(#linearGradient-7)"></path>
                                <path d="M0.160893761,0.299545927 L2.66496851,0.299545927 C5.46505246,0.299545927 7.73496899,2.56946246 7.73496899,5.36954641 L7.73496899,9.36656402 C7.73496899,10.7224114 8.83410047,11.8215429 10.1899478,11.8215429 L10.1899478,11.8215429 C11.7838197,11.8215429 13.3555698,11.4485071 14.7794538,10.7322795 L14.8901093,10.6766187 C16.3825261,9.92591843 17.6572366,8.80465724 18.5921856,7.42019737 L18.6008969,7.40729773 C19.5385246,6.01887134 20.0682104,4.39542857 20.1298482,2.72119016 L20.2190019,0.299545927 L20.2190019,9.23089029 C20.2190019,14.7697839 15.7288415,19.2599444 10.1899478,19.2599444 C4.65105422,19.2599444 0.160893761,14.7697839 0.160893761,9.23089029 L0.160893761,0.299545927 Z" id="Rectangle-Copy-3" fill="url(#linearGradient-8)"></path>
                                <path d="M4.31028298,17.5558054 L5.68418199,17.0835729 L7.9721569,16.230042 L9.07981977,16.5215529 L10.3208311,16.0772471 L11.7148337,14.8887801 L12.8574729,14.3102356 L13.3870303,12.7564958 L13.5757318,11.4610835 L13.4267034,10.665217 C13.3846004,10.5825853 13.283483,10.5497302 13.2008513,10.5918332 C13.1567067,10.614326 13.1247483,10.6551655 13.1135269,10.7034226 C13.0714397,10.8844376 13.0002218,11.0765338 12.8998731,11.2797112 C12.6795443,11.7258135 12.4114826,12.0376443 12.0956879,12.2152035 L6.85567629,14.8851228 L6.74566532,15.4263558 L6.5224134,15.9822715 L6.41406763,16.1479632 L6.38148166,16.1909765 C6.33449801,16.2529946 6.28548949,16.3134524 6.23453541,16.372252 C6.18360256,16.4310272 6.12962527,16.4870934 6.07282549,16.5402202 L6.06450048,16.5480068 C6.0021733,16.6063036 5.93624384,16.6606255 5.86710198,16.7106515 L5.8077343,16.7536055 L5.56128171,16.9183898 L4.31028298,17.5558054 Z" id="Path-4" fill="url(#linearGradient-9)" opacity="0.497884115" transform="translate(8.943007, 13.828735) rotate(117.000000) translate(-8.943007, -13.828735) "></path>
                                <path d="M0.160893761,0.299545927 L2.66496851,0.299545927 C5.46505246,0.299545927 7.73496899,2.56946246 7.73496899,5.36954641 L7.73496899,9.36656402 C7.73496899,10.7224114 8.83410047,11.8215429 10.1899478,11.8215429 L10.1899478,11.8215429 C11.7838197,11.8215429 13.3555698,11.4485071 14.7794538,10.7322795 L14.8901093,10.6766187 C16.3825261,9.92591843 17.6572366,8.80465724 18.5921856,7.42019737 L18.6008969,7.40729773 C19.5385246,6.01887134 20.0682104,4.39542857 20.1298482,2.72119016 L20.2190019,0.299545927 L20.2190019,9.23089029 C20.2190019,14.7697839 15.7288415,19.2599444 10.1899478,19.2599444 C4.65105422,19.2599444 0.160893761,14.7697839 0.160893761,9.23089029 L0.160893761,0.299545927 Z" id="Rectangle-Copy-3" fill="url(#linearGradient-10)"></path>
                                <path d="M0.160893761,0.299545927 L2.66496851,0.299545927 C5.46505246,0.299545927 7.73496899,2.56946246 7.73496899,5.36954641 L7.73496899,6.5965088 L7.73496899,16.8049655 C7.73496899,18.1608129 8.83410047,19.2599444 10.1899478,19.2599444 L10.1899478,19.2599444 C4.65105422,19.2599444 0.160893761,14.7697839 0.160893761,9.23089029 L0.160893761,0.299545927 Z" id="Rectangle-Copy-4" fill="url(#linearGradient-11)"></path>
                                <path d="M0.160893761,0.299545927 L2.66496851,0.299545927 C5.46505246,0.299545927 7.73496899,2.56946246 7.73496899,5.36954641 L7.73496899,6.5965088 L7.73496899,16.8049655 C7.73496899,18.1608129 8.83410047,19.2599444 10.1899478,19.2599444 L10.1899478,19.2599444 C4.65105422,19.2599444 0.160893761,14.7697839 0.160893761,9.23089029 L0.160893761,0.299545927 Z" id="Rectangle-Copy-4" fill="url(#linearGradient-12)"></path>
                            </g>
                        </g>
                    </g>
                </g>
            </g>
        </g>
    </g>
</svg>