<svg xmlns="http://www.w3.org/2000/svg" width="23" height="23" viewBox="0 0 23 23">
  <g fill="#B9C3F8" fill-rule="evenodd">
    <circle cx="11.5" cy="1.84" r="1.84"/>
    <circle cx="11.5" cy="19.187" r="3.554"/>
    <path d="M1.84,16.3955859 L1.93545898,16.3955859 C3.00438347,16.3955859 3.87091797,15.5290514 3.87091797,14.460127 L3.87091797,8.90056258 C3.87091797,4.76117548 7.22655423,1.40553922 11.3659413,1.40553922 L11.5785802,1.40553922 C15.7179673,1.40553922 19.0736035,4.76117548 19.0736035,8.90056258 L19.0736035,14.4323877 C19.0736035,15.5166321 19.9525573,16.3955859 21.0368018,16.3955859 L21.16,16.3955859 C22.1762039,16.3955859 23,17.219382 23,18.2355859 L23,18.2355859 C23,19.2517899 22.1762039,20.0755859 21.16,20.0755859 L1.84,20.0755859 C0.82379606,20.0755859 -3.54026877e-14,19.2517899 -3.55271368e-14,18.2355859 L-3.55271368e-14,18.2355859 C-3.1590019e-14,17.219382 0.82379606,16.3955859 1.84,16.3955859 Z"/>
    <rect width="23" height="3.68" y="16.396" rx="1.84"/>
  </g>
</svg>
