<svg xmlns="http://www.w3.org/2000/svg" width="23" height="15" viewBox="0 0 23 15">
  <g fill="#5053DD" fill-rule="evenodd" opacity=".85">
    <path d="M22.4457692,12.7525385 C22.4243077,12.7276154 22.3926923,12.7128462 22.3594615,12.7128462 L0.114,12.7128462 C0.0807692308,12.7128462 0.0493846154,12.7273846 0.0276923077,12.7525385 C0.006,12.7774615 -0.00369230769,12.8109231 0.00115384615,12.8439231 C0.00438461538,12.8646923 0.339923077,14.9245385 2.94415385,14.9245385 L19.5293077,14.9245385 C22.1333077,14.9245385 22.4688462,12.8646923 22.4723077,12.8439231 C22.4769231,12.8109231 22.4672308,12.7774615 22.4457692,12.7525385 Z"/>
    <path d="M15.8548292,-4.3181559 L6.34190416,-4.3181559 C5.55312909,-4.3181559 4.9181559,-3.68009432 4.9181559,-2.89193693 L4.9181559,15.2535956 C4.9181559,16.0392823 5.55312909,16.6791969 6.34190416,16.6791969 L15.8548292,16.6791969 C16.6411335,16.6791969 17.2791951,16.0399 17.2791951,15.2535956 L17.2791951,-2.89193693 C17.2804305,-3.68009432 16.6417512,-4.3181559 15.8548292,-4.3181559 Z M6.05981683,14.9736858 L6.05981683,-2.66900228 L16.1381519,-2.66900228 L16.1381519,14.9736858 L6.05981683,14.9736858 Z" transform="rotate(-90 11.099 6.18)"/>
  </g>
</svg>
