<svg xmlns="http://www.w3.org/2000/svg" width="11" height="19" viewBox="0 0 11 19">
  <path fill="#5053DD" fill-rule="evenodd" d="M29.0325325,16 L21.3319034,16 C20.5949213,16 20,16.5975891 20,17.3332373 L20,32.9705966 C20,33.7055779 20.5949213,34.3025 21.3319034,34.3025 L29.0325325,34.3025 C29.7681807,34.3025 30.3644359,33.7055779 30.3644359,32.9705966 L30.3644359,17.3332373 C30.3644359,16.5975891 29.7681807,16 29.0325325,16 Z M23.2820714,16.8096799 L27.0836984,16.8096799 C27.1797395,16.8096799 27.2577729,16.9530746 27.2577729,17.1304838 C27.2577729,17.3078931 27.1797395,17.4519548 27.0836984,17.4519548 L23.2820714,17.4519548 C23.1853633,17.4519548 23.1086638,17.3078931 23.1086638,17.1304838 C23.1086638,16.9530746 23.1853633,16.8096799 23.2820714,16.8096799 Z M25.1828849,32.9866035 C24.7140176,32.9866035 24.332521,32.6051069 24.332521,32.1355726 C24.332521,31.6660383 24.7140176,31.2858756 25.1828849,31.2858756 C25.6504183,31.2858756 26.0319149,31.6660383 26.0319149,32.1355726 C26.0319149,32.6051069 25.6504183,32.9866035 25.1828849,32.9866035 Z M29.3666755,30.0726897 L20.9984273,30.0726897 L20.9984273,18.2496295 L29.3666755,18.2496295 L29.3666755,30.0726897 Z" opacity=".85" transform="translate(-20 -16)"/>
</svg>
