<svg width="13" height="13" xmlns="http://www.w3.org/2000/svg"><path d="M5.187.128C2.663.62.63 2.649.132 5.165c-.94 4.749 3.344 8.288 6.571 7.788 1.046-.163 1.559-1.386 1.08-2.329-.587-1.152.25-2.498 1.545-2.498h2.024c.91 0 1.645-.752 1.648-1.658-.013-4.002-3.654-7.15-7.813-6.34zm-2.75 7.998a.812.812 0 11-.002-1.623.812.812 0 01.002 1.623zm.813-3.25a.812.812 0 11-.002-1.623.812.812 0 01.002 1.623zM6.5 3.251a.812.812 0 11-.002-1.623A.812.812 0 016.5 3.25zm3.25 1.625a.812.812 0 11-.002-1.623.812.812 0 01.002 1.623z" fill="#2C3E62" fill-rule="nonzero"/></svg>