<?xml version="1.0" encoding="UTF-8"?>
<svg width="13px" height="13px" viewBox="0 0 13 13" version="1.1" xmlns="http://www.w3.org/2000/svg" xmlns:xlink="http://www.w3.org/1999/xlink">
    <!-- Generator: Sketch 56.2 (81672) - https://sketch.com -->
    <title>palette</title>
    <desc>Created with Sketch.</desc>
    <g id="web" stroke="none" stroke-width="1" fill="none" fill-rule="evenodd">
        <g id="JARVIS-ALL-ICONS" transform="translate(-729.000000, -436.000000)" fill="#2C3E62" fill-rule="nonzero">
            <g id="ICONS" transform="translate(333.000000, 435.000000)">
                <g id="Group-5" transform="translate(191.000000, 0.000000)">
                    <g id="ACTIVITIES" transform="translate(205.000000, 0.000000)">
                        <g id="palette" transform="translate(0.000000, 1.000000)">
                            <path d="M5.18711841,0.127844993 C2.66323011,0.620430942 0.629392553,2.6491741 0.131724437,5.16542501 C-0.807751088,9.9135473 3.47574948,13.4530566 6.70297486,12.9528534 C7.74909355,12.7903508 8.26199641,11.5665032 7.78210215,10.6244961 C7.19556473,9.4717434 8.03347534,8.1260189 9.32842809,8.1260189 L11.3521091,8.1260189 C12.2611152,8.1260189 12.9974609,7.37444447 13,6.46798476 C12.9873044,2.4663587 9.34620195,-0.68212881 5.18711841,0.127844993 Z M2.43724816,8.1260189 C1.98782338,8.1260189 1.62472878,7.7629272 1.62472878,7.313506 C1.62472878,6.8640848 1.98782338,6.50099309 2.43724816,6.50099309 C2.88667293,6.50099309 3.24976753,6.8640848 3.24976753,7.313506 C3.24976753,7.7629272 2.88667293,8.1260189 2.43724816,8.1260189 Z M3.24976753,4.87596728 C2.80034275,4.87596728 2.43724816,4.51287558 2.43724816,4.06345438 C2.43724816,3.61403318 2.80034275,3.25094147 3.24976753,3.25094147 C3.69919231,3.25094147 4.0622869,3.61403318 4.0622869,4.06345438 C4.0622869,4.51287558 3.69919231,4.87596728 3.24976753,4.87596728 Z M6.49984502,3.25094147 C6.05042024,3.25094147 5.68732565,2.88784977 5.68732565,2.43842857 C5.68732565,1.98900737 6.05042024,1.62591566 6.49984502,1.62591566 C6.9492698,1.62591566 7.31236439,1.98900737 7.31236439,2.43842857 C7.31236439,2.88784977 6.9492698,3.25094147 6.49984502,3.25094147 Z M9.74992251,4.87596728 C9.30049773,4.87596728 8.93740314,4.51287558 8.93740314,4.06345438 C8.93740314,3.61403318 9.30049773,3.25094147 9.74992251,3.25094147 C10.1993473,3.25094147 10.5624419,3.61403318 10.5624419,4.06345438 C10.5624419,4.51287558 10.1993473,4.87596728 9.74992251,4.87596728 Z" id="Shape"></path>
                        </g>
                    </g>
                </g>
            </g>
        </g>
    </g>
</svg>