<?xml version="1.0" encoding="UTF-8"?>
<svg width="13px" height="7px" viewBox="0 0 13 7" version="1.1" xmlns="http://www.w3.org/2000/svg" xmlns:xlink="http://www.w3.org/1999/xlink">
    <!-- Generator: Sketch 56.2 (81672) - https://sketch.com -->
    <title>Path</title>
    <desc>Created with Sketch.</desc>
    <g id="web" stroke="none" stroke-width="1" fill="none" fill-rule="evenodd">
        <g id="16.-web" transform="translate(-937.000000, -358.000000)" fill="#31405E" fill-rule="nonzero" stroke="#31405E">
            <g id="send" transform="translate(335.000000, 222.000000)">
                <g id="content" transform="translate(135.000000, 96.000000)">
                    <g id="etherum">
                        <g id="Group-6" transform="translate(20.000000, 26.000000)">
                            <g id="next" transform="translate(453.911088, 17.588912) rotate(-270.000000) translate(-453.911088, -17.588912) translate(450.911088, 12.088912)">
                                <path d="M5.71114017,5.27160042 L0.531014644,0.0914748954 C0.409048117,-0.0304916318 0.213441423,-0.0304916318 0.0914748954,0.0914748954 C-0.0304916318,0.213441423 -0.0304916318,0.409048117 0.0914748954,0.531014644 L5.05067992,5.49021967 L0.0914748954,10.4494247 C-0.0304916318,10.5713912 -0.0304916318,10.7669979 0.0914748954,10.8889644 C0.151307531,10.9487971 0.231851464,10.9810146 0.310094142,10.9810146 C0.38833682,10.9810146 0.468880753,10.9510983 0.528713389,10.8889644 L5.70883891,5.70883891 C5.83080544,5.58917364 5.83080544,5.39126569 5.71114017,5.27160042 Z" id="Path"></path>
                            </g>
                        </g>
                    </g>
                </g>
            </g>
        </g>
    </g>
</svg>