<?xml version="1.0" encoding="UTF-8"?>
<svg width="11px" height="17px" viewBox="0 0 11 17" version="1.1" xmlns="http://www.w3.org/2000/svg" xmlns:xlink="http://www.w3.org/1999/xlink">
    <!-- Generator: Sketch 56.2 (81672) - https://sketch.com -->
    <title>Path Copy 2</title>
    <desc>Created with Sketch.</desc>
    <g id="web" stroke="none" stroke-width="1" fill="none" fill-rule="evenodd">
        <g id="16.-web" transform="translate(-632.000000, -607.000000)" fill="#C9C9D7" fill-rule="nonzero" stroke="#C9C9D7" stroke-width="0.2">
            <g id="send" transform="translate(335.000000, 222.000000)">
                <g id="content" transform="translate(135.000000, 96.000000)">
                    <g id="recipient" transform="translate(73.000000, 287.000000)">
                        <path d="M94.1132723,18.0800915 C94.2322654,18.1990847 94.3924485,18.2631579 94.5480549,18.2631579 C94.7036613,18.2631579 94.8638444,18.2036613 94.9828375,18.0800915 L98.909611,14.1533181 C99.1521739,13.9107551 99.1521739,13.5217391 98.909611,13.2791762 C98.6670481,13.0366133 98.278032,13.0366133 98.0354691,13.2791762 L95.1659039,16.1533181 L95.1659039,3.61784897 C95.1659039,3.27459954 94.8913043,3 94.5480549,3 C94.2048055,3 93.9302059,3.27459954 93.9302059,3.61784897 L93.9302059,16.1533181 L91.0560641,13.2791762 C90.8135011,13.0366133 90.4244851,13.0366133 90.1819222,13.2791762 C89.9393593,13.5217391 89.9393593,13.9107551 90.1819222,14.1533181 L94.1132723,18.0800915 Z" id="Path-Copy-2" transform="translate(94.545767, 10.631579) rotate(-360.000000) translate(-94.545767, -10.631579) "></path>
                    </g>
                </g>
            </g>
        </g>
    </g>
</svg>