<svg width="13" height="19" viewBox="0 0 13 19" fill="none" xmlns="http://www.w3.org/2000/svg">
<path d="M10.3825 13.8044H8.49941V10.6163C8.49941 10.2759 8.2232 10 7.88249 10H5.11755C4.77685 10 4.50063 10.2759 4.50063 10.6163V13.8044H2.6175C2.07219 13.8044 1.79538 14.4624 2.17657 14.8516L6.05905 18.8148C6.30066 19.0615 6.69877 19.062 6.94086 18.8148L10.8233 14.8516C11.2048 14.4623 10.9276 13.8044 10.3825 13.8044Z" fill="#31405E"/>
<path fill-rule="evenodd" clip-rule="evenodd" d="M9.50988 0.208307L12.1413 2.83969C12.2746 2.97305 12.3496 3.15396 12.3496 3.3426V11.2887C12.3496 11.6815 12.0312 12 11.6384 12H9.9447C9.8138 12 9.70764 11.8939 9.70764 11.7629V7.08488C9.70764 6.82302 9.49535 6.61073 9.23348 6.61073H3.46578C3.20391 6.61073 2.99162 6.82302 2.99162 7.08488V11.7629C2.99162 11.8939 2.88546 12 2.75452 12H1.06087C0.668064 12 0.349609 11.6815 0.349609 11.2887V0.711256C0.349609 0.318454 0.668064 0 1.06087 0H9.00697C9.19561 0 9.37648 0.0749047 9.50988 0.208307ZM3.5329 4.0606H9.16628C9.59888 4.0606 9.94959 3.7099 9.94959 3.27729C9.94959 2.84468 9.59888 2.49398 9.16628 2.49398H3.5329C3.10029 2.49398 2.74959 2.84468 2.74959 3.27729C2.74959 3.7099 3.10029 4.0606 3.5329 4.0606Z" fill="#31405E"/>
</svg>
