<svg width="13" height="18" viewBox="0 0 13 18" fill="none" xmlns="http://www.w3.org/2000/svg">
<path d="M10.6635 12.2271H8.57118V8.68472C8.57118 8.30658 8.26427 8 7.88571 8H4.81356C4.435 8 4.12809 8.30658 4.12809 8.68472V12.2271H2.03573C1.42982 12.2271 1.12225 12.9583 1.54579 13.3907L5.85966 17.7943C6.12812 18.0683 6.57046 18.0688 6.83945 17.7943L11.1533 13.3907C11.5772 12.9581 11.2691 12.2271 10.6635 12.2271Z" fill="#31405E"/>
<path fill-rule="evenodd" clip-rule="evenodd" d="M9.50988 0.208307L12.1413 2.83969C12.2746 2.97305 12.3496 3.15396 12.3496 3.3426V11.2887C12.3496 11.6815 12.0312 12 11.6384 12H9.9447C9.8138 12 9.70764 11.8939 9.70764 11.7629V7.08488C9.70764 6.82302 9.49535 6.61073 9.23348 6.61073H3.46578C3.20391 6.61073 2.99162 6.82302 2.99162 7.08488V11.7629C2.99162 11.8939 2.88546 12 2.75452 12H1.06087C0.668064 12 0.349609 11.6815 0.349609 11.2887V0.711256C0.349609 0.318454 0.668064 0 1.06087 0H9.00697C9.19561 0 9.37648 0.0749047 9.50988 0.208307ZM3.5329 4.0606H9.16628C9.59888 4.0606 9.94959 3.7099 9.94959 3.27729C9.94959 2.84468 9.59888 2.49398 9.16628 2.49398H3.5329C3.10029 2.49398 2.74959 2.84468 2.74959 3.27729C2.74959 3.7099 3.10029 4.0606 3.5329 4.0606Z" fill="#31405E"/>
</svg>
