<svg width="35" height="57" viewBox="0 0 35 57" fill="none" xmlns="http://www.w3.org/2000/svg">
<path fill-rule="evenodd" clip-rule="evenodd" d="M34.1099 8.96961L26.6543 1.51403C26.2763 1.13606 25.7639 0.923828 25.2294 0.923828H2.71542C1.60248 0.923828 0.700195 1.82612 0.700195 2.93905V32.9086C0.700195 34.0215 1.60248 34.9238 2.71542 34.9238H7.51412C7.8851 34.9238 8.1859 34.6231 8.1859 34.2522V20.9977C8.1859 20.2557 8.78738 19.6542 9.52934 19.6542H25.8712C26.6131 19.6542 27.2146 20.2557 27.2146 20.9977V34.252C27.2146 34.6231 27.5154 34.9237 27.8863 34.9237H32.685C33.7979 34.9237 34.7002 34.0214 34.7002 32.9085V10.3945C34.7001 9.86005 34.4877 9.34747 34.1099 8.96961ZM25.3473 12.7843H9.26237C8.02714 12.7843 7.02578 11.7223 7.02578 10.4122C7.02578 9.10214 8.02714 8.04011 9.26237 8.04011H25.3473C26.5826 8.04011 27.5839 9.10214 27.5839 10.4122C27.5839 11.7223 26.5826 12.7843 25.3473 12.7843ZM23.9206 40.8359H29.7792C31.4748 40.8359 32.3374 42.8827 31.1506 44.0939L19.0718 56.4241C18.3186 57.1928 17.08 57.1913 16.3283 56.4241L4.24951 44.0939C3.0636 42.8832 3.92477 40.8359 5.62132 40.8359H11.4799V30.9173C11.4799 29.8585 12.3393 29.0001 13.3993 29.0001H22.0013C23.0613 29.0001 23.9206 29.8585 23.9206 30.9173V40.8359Z" fill="#2EC9F5"/>
</svg>
