<svg width="13" height="19" fill="none" xmlns="http://www.w3.org/2000/svg"><path d="M10.383 13.804H8.498v-3.188A.617.617 0 007.882 10H5.118a.617.617 0 00-.617.616v3.188H2.617a.617.617 0 00-.44 1.048l3.882 3.963c.242.246.64.247.882 0l3.882-3.963a.617.617 0 00-.44-1.048z" fill="#31405E"/><path fill-rule="evenodd" clip-rule="evenodd" d="M9.51.208L12.14 2.84a.711.711 0 01.209.503v7.946a.711.711 0 01-.712.711H9.945a.237.237 0 01-.237-.237V7.085a.474.474 0 00-.475-.474H3.466a.474.474 0 00-.474.474v4.678a.237.237 0 01-.237.237H1.06a.711.711 0 01-.711-.711V.71C.35.318.668 0 1.06 0h7.947c.189 0 .37.075.503.208zM3.533 4.061h5.633a.783.783 0 000-1.567H3.533a.783.783 0 000 1.567z" fill="#31405E"/></svg>