<svg width="35" height="57" fill="none" xmlns="http://www.w3.org/2000/svg"><path fill-rule="evenodd" clip-rule="evenodd" d="M34.11 8.97l-7.456-7.456a2.015 2.015 0 00-1.425-.59H2.715A2.015 2.015 0 00.7 2.939v29.97c0 1.113.902 2.015 2.015 2.015h4.8c.37 0 .67-.3.67-.672V20.998c0-.742.602-1.344 1.344-1.344h16.342c.742 0 1.344.602 1.344 1.344v13.254c0 .371.3.672.671.672h4.799a2.015 2.015 0 002.015-2.016V10.394c0-.534-.212-1.047-.59-1.424zm-8.763 3.814H9.262c-1.235 0-2.236-1.062-2.236-2.372 0-1.31 1.001-2.372 2.236-2.372h16.085c1.236 0 2.237 1.062 2.237 2.372 0 1.31-1.001 2.372-2.237 2.372zm-1.426 28.052h5.858c1.696 0 2.558 2.047 1.372 3.258l-12.08 12.33a1.922 1.922 0 01-2.743 0L4.25 44.094c-1.186-1.21-.325-3.258 1.371-3.258h5.859v-9.919c0-1.059.86-1.917 1.92-1.917H22c1.06 0 1.92.858 1.92 1.917v9.919z" fill="#2EC9F5"/></svg>