<svg width="16" height="25" viewBox="0 0 16 25" fill="none" xmlns="http://www.w3.org/2000/svg">
<path fill-rule="evenodd" clip-rule="evenodd" d="M14.9488 3.60001L11.6129 0.264081C11.4438 0.0949603 11.2145 0 10.9754 0H0.901694C0.40372 0 0 0.40372 0 0.901694V14.3113C0 14.8093 0.40372 15.213 0.901694 15.213H3.04883C3.21482 15.213 3.34941 15.0784 3.34941 14.9125V8.98185C3.34941 8.64987 3.61854 8.38074 3.95052 8.38074H11.2625C11.5945 8.38074 11.8636 8.64987 11.8636 8.98185V14.9124C11.8636 15.0784 11.9982 15.2129 12.1642 15.2129H14.3113C14.8093 15.2129 15.213 14.8092 15.213 14.3112V4.23757C15.2129 3.99843 15.1179 3.76908 14.9488 3.60001ZM11.1773 5.14782H4.03561C3.48718 5.14782 3.04257 4.70322 3.04257 4.15478C3.04257 3.60634 3.48718 3.16173 4.03561 3.16173H11.1773C11.7258 3.16173 12.1704 3.60634 12.1704 4.15478C12.1704 4.70322 11.7258 5.14782 11.1773 5.14782ZM10.3102 17.3769H12.8567C13.5937 17.3769 13.9686 18.2773 13.4528 18.8101L8.20265 24.2341C7.87528 24.5723 7.33693 24.5716 7.01021 24.2341L1.76006 18.8101C1.2446 18.2775 1.61891 17.3769 2.35633 17.3769H4.90282V13.0138C4.90282 12.548 5.27634 12.1704 5.73706 12.1704H9.47599C9.93671 12.1704 10.3102 12.548 10.3102 13.0138V17.3769Z" fill="#2EC9F5"/>
</svg>
