<?xml version="1.0" encoding="UTF-8"?>
<svg width="22px" height="25px" viewBox="0 0 22 25" version="1.1" xmlns="http://www.w3.org/2000/svg" xmlns:xlink="http://www.w3.org/1999/xlink">
    <!-- Generator: Sketch 56.2 (81672) - https://sketch.com -->
    <title>Shape</title>
    <desc>Created with Sketch.</desc>
    <g id="web" stroke="none" stroke-width="1" fill="none" fill-rule="evenodd">
        <g id="13.-web-" transform="translate(-1169.000000, -25.000000)" fill="#31405E" fill-rule="nonzero">
            <g id="top">
                <g id="notifications-button" transform="translate(1169.000000, 25.000000)">
                    <path d="M10.6372549,25 C12.0122549,25 13.1372549,23.875 13.1372549,22.5 L8.1372549,22.5 C8.1372549,23.875 9.2622549,25 10.6372549,25 Z M18.7622549,17.5 L18.7622549,10.625 C18.7622549,6.75 16.1372549,3.625 12.5122549,2.75 L12.5122549,1.875 C12.5122549,0.875 11.6372549,0 10.6372549,0 C9.6372549,0 8.7622549,0.875 8.7622549,1.875 L8.7622549,2.75 C5.1372549,3.625 2.5122549,6.75 2.5122549,10.625 L2.5122549,17.5 L0.012254902,20 L0.012254902,21.25 L21.2622549,21.25 L21.2622549,20 L18.7622549,17.5 Z" id="Shape"></path>
                </g>
            </g>
        </g>
    </g>
</svg>