<svg xmlns="http://www.w3.org/2000/svg" width="22" height="22"><path fill="#B9C3F8" fill-rule="evenodd" d="M21.83 9.77c-.034-.309-.393-.541-.703-.541a2.432 2.432 0 01-2.268-1.506 2.454 2.454 0 01.613-2.718.612.612 0 00.066-.829 10.856 10.856 0 00-1.734-1.758.608.608 0 00-.833.068c-.652.725-1.825.995-2.73.615A2.442 2.442 0 0112.76.715a.61.61 0 00-.537-.642A10.892 10.892 0 009.761.067a.61.61 0 00-.543.628A2.446 2.446 0 017.72 3.04c-.895.367-2.06.1-2.71-.619a.609.609 0 00-.827-.07A10.896 10.896 0 002.411 4.11a.613.613 0 00.065.835 2.442 2.442 0 01.612 2.743C2.71 8.59 1.776 9.172.706 9.172a.596.596 0 00-.633.54 11.05 11.05 0 00-.004 2.5c.034.31.404.54.718.54.953-.025 1.869.568 2.253 1.506a2.45 2.45 0 01-.613 2.717.612.612 0 00-.066.828c.509.65 1.093 1.243 1.732 1.76.251.202.616.174.834-.067.655-.727 1.827-.996 2.73-.616a2.438 2.438 0 011.48 2.385.61.61 0 00.538.642 10.844 10.844 0 002.463.007.61.61 0 00.543-.63 2.443 2.443 0 011.498-2.343c.9-.37 2.06-.1 2.711.62a.61.61 0 00.827.068 10.92 10.92 0 001.771-1.757.612.612 0 00-.065-.836 2.442 2.442 0 01-.614-2.741 2.451 2.451 0 012.24-1.49l.136.003a.61.61 0 00.64-.539 11.04 11.04 0 00.006-2.499zm-10.863 4.91a3.663 3.663 0 01-3.652-3.666 3.663 3.663 0 013.652-3.666 3.663 3.663 0 013.652 3.666 3.663 3.663 0 01-3.652 3.666z"/></svg>