<svg xmlns="http://www.w3.org/2000/svg" width="18" height="18" viewBox="0 0 18 18">
  <g fill="#FFF">
    <path d="M16.6278522,0 L6.67807826,0 C5.96895652,0 5.39209565,0.5769 5.39209565,1.28598261 L5.39209565,4.30426957 C5.66542174,4.30426957 11.0296174,4.30426957 11.2437783,4.30426957 C12.6001957,4.30426957 13.703713,5.40778696 13.703713,6.76420435 C13.703713,7.01812174 13.703713,12.4573304 13.703713,12.5218174 L16.6278522,12.5218174 C17.3369348,12.5218174 17.9138348,11.9449174 17.9138348,11.2357957 L17.9138348,1.28598261 C17.9137957,0.5769 17.3369348,0 16.6278522,0 Z"/>
    <path d="M11.2437,5.47818261 L1.29396522,5.47818261 C0.584882609,5.47818261 0.00794347826,6.05508261 0.00794347826,6.76420435 L0.00794347826,16.7139783 C0.0079826087,17.4231 0.584843478,18 1.29396522,18 L11.2437391,18 C11.9528609,18 12.5297609,17.4231 12.5297609,16.7140174 L12.5297609,6.76420435 C12.5298,6.05508261 11.9528217,5.47818261 11.2437,5.47818261 Z"/>
  </g>
</svg>
