<svg width="13" height="16" xmlns="http://www.w3.org/2000/svg"><g fill="#C9C9D7" fill-rule="nonzero"><path d="M8.167 3.12H1.204C.551 3.12.02 3.65.02 4.304v9.99c0 .654.53 1.185 1.184 1.185h6.963c.654 0 1.184-.531 1.184-1.185v-9.99A1.189 1.189 0 008.167 3.12zM8.52 14.29c0 .197-.16.356-.356.356H1.201a.356.356 0 01-.356-.356V4.304c0-.197.16-.356.356-.356h6.963c.196 0 .356.16.356.356v9.987z"/><path d="M10.83.5H3.867c-.654 0-1.184.53-1.184 1.184 0 .23.184.414.414.414.23 0 .414-.184.414-.414 0-.196.16-.356.356-.356h6.963c.196 0 .356.16.356.356v9.99c0 .197-.16.357-.356.357a.412.412 0 00-.414.414c0 .23.184.414.414.414.653 0 1.184-.53 1.184-1.184V1.684c0-.653-.53-1.184-1.184-1.184z"/></g></svg>