<?xml version="1.0" encoding="UTF-8"?>
<svg width="13px" height="16px" viewBox="0 0 13 16" version="1.1" xmlns="http://www.w3.org/2000/svg" xmlns:xlink="http://www.w3.org/1999/xlink">
    <!-- Generator: Sketch 56.2 (81672) - https://sketch.com -->
    <title>copy</title>
    <desc>Created with Sketch.</desc>
    <g id="web" stroke="none" stroke-width="1" fill="none" fill-rule="evenodd">
        <g id="11.-web" transform="translate(-866.000000, -526.000000)" fill="#C9C9D7" fill-rule="nonzero">
            <g id="pop-up" transform="translate(335.000000, 130.000000)">
                <g id="account-" transform="translate(221.000000, 378.000000)">
                    <g id="Group-2" transform="translate(301.000000, 11.000000)">
                        <g id="Group-7">
                            <g id="copy" transform="translate(9.000000, 7.500000)">
                                <path d="M8.16717791,2.6196319 L1.20398773,2.6196319 C0.550613497,2.6196319 0.0199386503,3.15030675 0.0199386503,3.80368098 L0.0199386503,13.7944785 C0.0199386503,14.4478528 0.550613497,14.9785276 1.20398773,14.9785276 L8.16717791,14.9785276 C8.82055215,14.9785276 9.35122699,14.4478528 9.35122699,13.7944785 L9.35122699,3.80368098 C9.34815951,3.15030675 8.81748466,2.6196319 8.16717791,2.6196319 Z M8.51993865,13.791411 C8.51993865,13.9877301 8.36042945,14.1472393 8.16411043,14.1472393 L1.20092025,14.1472393 C1.00460123,14.1472393 0.845092025,13.9877301 0.845092025,13.791411 L0.845092025,3.80368098 C0.845092025,3.60736196 1.00460123,3.44785276 1.20092025,3.44785276 L8.16411043,3.44785276 C8.36042945,3.44785276 8.51993865,3.60736196 8.51993865,3.80368098 L8.51993865,13.791411 Z" id="Shape"></path>
                                <path d="M10.8297546,0 L3.86656442,0 C3.21319018,0 2.68251534,0.530674847 2.68251534,1.18404908 C2.68251534,1.41411043 2.86656442,1.59815951 3.09662577,1.59815951 C3.32668712,1.59815951 3.5107362,1.41411043 3.5107362,1.18404908 C3.5107362,0.987730061 3.6702454,0.828220859 3.86656442,0.828220859 L10.8297546,0.828220859 C11.0260736,0.828220859 11.1855828,0.987730061 11.1855828,1.18404908 L11.1855828,11.1748466 C11.1855828,11.3711656 11.0260736,11.5306748 10.8297546,11.5306748 C10.5996933,11.5306748 10.4156442,11.7147239 10.4156442,11.9447853 C10.4156442,12.1748466 10.5996933,12.3588957 10.8297546,12.3588957 C11.4831288,12.3588957 12.0138037,11.8282209 12.0138037,11.1748466 L12.0138037,1.18404908 C12.0138037,0.530674847 11.4831288,0 10.8297546,0 Z" id="Path"></path>
                            </g>
                        </g>
                    </g>
                </g>
            </g>
        </g>
    </g>
</svg>