<svg width="22" height="22" viewBox="0 0 22 22" fill="none" xmlns="http://www.w3.org/2000/svg">
<path fill-rule="evenodd" clip-rule="evenodd" d="M1.57779 15.1693C1.57779 15.3587 1.73336 15.5131 1.9244 15.5131H10.1437V19.9376C10.1437 20.7008 10.3941 21.4037 10.8093 21.9828H7.48741C6.83413 21.9828 6.30408 21.4575 6.30408 20.8093C6.30408 20.1611 6.83413 19.6358 7.48741 19.6358H8.52892V17.0777H1.9244C0.863563 17.0777 0 16.2216 0 15.1692V1.90835C0 0.855973 0.863563 0 1.9244 0H20.0584C21.1192 0 21.9828 0.856022 21.9828 1.90835V5.37608C21.5229 5.06778 20.9821 4.88022 20.405 4.81265V1.90835C20.405 1.71895 20.2495 1.56463 20.0584 1.56463H1.9244C1.7334 1.56463 1.57779 1.71895 1.57779 1.90835V15.1693ZM12.9316 5.86207C12.2174 5.86207 11.6384 6.44101 11.6384 7.15517V19.2241C11.6384 19.9383 12.2174 20.5172 12.9316 20.5172H19.6714C20.3855 20.5172 20.9645 19.9383 20.9645 19.2241V7.15517C20.9645 6.44101 20.3855 5.86207 19.6714 5.86207H12.9316Z" fill="#2EC9F5"/>
</svg>
