<svg width="16" height="16" viewBox="0 0 16 16" fill="none" xmlns="http://www.w3.org/2000/svg">
<path d="M1.40066 11.2911C1.26161 11.2911 1.14838 11.1787 1.14838 11.0409V1.38898C1.14838 1.25113 1.26165 1.13881 1.40066 1.13881H14.5994C14.7385 1.13881 14.8517 1.25113 14.8517 1.38898V3.50285C15.2717 3.55204 15.6653 3.68855 16 3.91294V1.38898C16 0.62305 15.3715 0 14.5993 0L1.40066 0C0.628538 0 0 0.623014 0 1.38898V11.0408C0 11.8068 0.628538 12.4299 1.40066 12.4299H6.20772V14.2918H5.44966C4.97417 14.2918 4.58838 14.6741 4.58838 15.1459C4.58838 15.6177 4.97417 16 5.44966 16H7.86747C7.56527 15.5785 7.38306 15.0669 7.38306 14.5114V11.2911H1.40066Z" fill="#31405E"/>
<rect x="8" y="4" width="7" height="11" rx="1" fill="#31405E"/>
</svg>
