<?xml version="1.0" encoding="UTF-8"?>
<svg width="28px" height="36px" viewBox="0 0 28 36" version="1.1" xmlns="http://www.w3.org/2000/svg" xmlns:xlink="http://www.w3.org/1999/xlink">
    <!-- Generator: Sketch 56 (81588) - https://sketch.com -->
    <title>word</title>
    <desc>Created with Sketch.</desc>
    <g id="web" stroke="none" stroke-width="1" fill="none" fill-rule="evenodd">
        <g id="5.-web" transform="translate(-785.000000, -574.000000)" fill="#2EC9F5" fill-rule="nonzero">
            <g id="pop-up" transform="translate(335.000000, 130.000000)">
                <g id="passphrase" transform="translate(400.000000, 95.000000)">
                    <g id="connect-with-passphrase" transform="translate(20.000000, 319.000000)">
                        <g id="word" transform="translate(30.000000, 30.000000)">
                            <path d="M26.6770732,0 L0.702439024,0 C0.334829268,0 0.0363902439,0.298341463 0.0363902439,0.66604878 L0.0363902439,35.2989268 C0.0363902439,35.6665366 0.334731707,35.9649756 0.702439024,35.9649756 L26.6770732,35.9649756 C27.0446829,35.9649756 27.343122,35.6666341 27.343122,35.2989268 L27.343122,0.66604878 C27.343122,0.298341463 27.0446829,0 26.6770732,0 Z M26.011122,34.632878 L1.3684878,34.632878 L1.3684878,1.332 L26.011122,1.332 L26.011122,34.632878 L26.011122,34.632878 Z" id="Shape"></path>
                            <path d="M23.3470244,9.32419512 L12.6907317,9.32419512 C12.323122,9.32419512 12.0246829,9.62253659 12.0246829,9.9902439 C12.0246829,10.3579512 12.3230244,10.6562927 12.6907317,10.6562927 L23.3470244,10.6562927 C23.7146341,10.6562927 24.0130732,10.3579512 24.0130732,9.9902439 C24.0130732,9.62253659 23.7146341,9.32419512 23.3470244,9.32419512 Z" id="Path"></path>
                            <path d="M23.3470244,13.3202927 L7.36263415,13.3202927 C6.99502439,13.3202927 6.69658537,13.6186341 6.69658537,13.9863415 C6.69658537,14.3540488 6.99492683,14.6523902 7.36263415,14.6523902 L23.3470244,14.6523902 C23.7146341,14.6523902 24.0130732,14.3540488 24.0130732,13.9863415 C24.0130732,13.6187317 23.7146341,13.3202927 23.3470244,13.3202927 Z" id="Path"></path>
                            <path d="M23.3470244,17.3163902 L7.36263415,17.3163902 C6.99502439,17.3163902 6.69658537,17.6147317 6.69658537,17.982439 C6.69658537,18.3501463 6.99492683,18.6484878 7.36263415,18.6484878 L23.3470244,18.6484878 C23.7146341,18.6484878 24.0130732,18.3501463 24.0130732,17.982439 C24.0130732,17.6147317 23.7146341,17.3163902 23.3470244,17.3163902 Z" id="Path"></path>
                            <path d="M23.3470244,21.3124878 L7.36263415,21.3124878 C6.99502439,21.3124878 6.69658537,21.6108293 6.69658537,21.9785366 C6.69658537,22.3462439 6.99492683,22.6445854 7.36263415,22.6445854 L23.3470244,22.6445854 C23.7146341,22.6445854 24.0130732,22.3462439 24.0130732,21.9785366 C24.0130732,21.6108293 23.7146341,21.3124878 23.3470244,21.3124878 Z" id="Path"></path>
                            <path d="M23.3470244,25.3085854 L7.36263415,25.3085854 C6.99502439,25.3085854 6.69658537,25.6069268 6.69658537,25.9746341 C6.69658537,26.3423415 6.99492683,26.6406829 7.36263415,26.6406829 L23.3470244,26.6406829 C23.7146341,26.6406829 24.0130732,26.3423415 24.0130732,25.9746341 C24.0130732,25.6069268 23.7146341,25.3085854 23.3470244,25.3085854 Z" id="Path"></path>
                            <path d="M12.6907317,29.3046829 L7.36263415,29.3046829 C6.99502439,29.3046829 6.69658537,29.6030244 6.69658537,29.9707317 C6.69658537,30.338439 6.99492683,30.6367805 7.36263415,30.6367805 L12.6907317,30.6367805 C13.0583415,30.6367805 13.3567805,30.338439 13.3567805,29.9707317 C13.3567805,29.6030244 13.0583415,29.3046829 12.6907317,29.3046829 Z" id="Path"></path>
                        </g>
                    </g>
                </g>
            </g>
        </g>
    </g>
</svg>