<svg width="9" height="18" viewBox="0 0 9 18" fill="none" xmlns="http://www.w3.org/2000/svg">
<path d="M6.91567 8.17665C6.23406 7.7863 5.50942 7.48889 4.79194 7.18033C4.37581 7.00189 3.97761 6.7937 3.62604 6.50373C2.93368 5.93122 3.06641 5.00182 3.87716 4.63378C4.10675 4.52968 4.34711 4.49623 4.59105 4.48136C5.53094 4.42931 6.4242 4.60775 7.2744 5.03156C7.69771 5.24346 7.83762 5.17655 7.98111 4.71928C8.13178 4.23599 8.25734 3.74527 8.39725 3.25827C8.49052 2.93112 8.37573 2.7155 8.07797 2.57795C7.53269 2.32887 6.97306 2.15042 6.38473 2.05377C5.61704 1.93108 5.61704 1.92737 5.61345 1.12808C5.60986 0.00165224 5.60986 0.00165226 4.5193 0.00165226C4.36146 0.00165226 4.20361 -0.00206533 4.04577 0.00165226C3.53636 0.0165226 3.45026 0.109463 3.43591 0.641079C3.42874 0.879005 3.43591 1.11693 3.43233 1.35857C3.42874 2.06492 3.42515 2.05377 2.77225 2.29913C1.19381 2.89394 0.218041 4.00922 0.114007 5.79367C0.0207355 7.37365 0.817132 8.4406 2.06913 9.21757C2.84041 9.69714 3.6942 9.97968 4.51213 10.3552C4.8314 10.5001 5.13633 10.6674 5.40179 10.8979C6.18743 11.5708 6.04393 12.6898 5.11122 13.1136C4.61257 13.3404 4.08523 13.3962 3.54354 13.3255C2.70768 13.2177 1.90769 12.9909 1.15435 12.5857C0.713098 12.3478 0.583953 12.411 0.433283 12.9054C0.304138 13.333 0.189342 13.7642 0.0745461 14.1954C-0.0797109 14.7754 -0.0223129 14.9129 0.512206 15.1843C1.19381 15.5263 1.92204 15.7011 2.66463 15.8237C3.24578 15.9204 3.26372 15.9464 3.2709 16.571C3.27448 16.8535 3.27448 17.1398 3.27807 17.4223C3.28166 17.7792 3.44668 17.9874 3.80183 17.9948C4.20361 18.0023 4.60898 18.0023 5.01077 17.9911C5.34081 17.9837 5.50942 17.7978 5.50942 17.452C5.50942 17.0654 5.52735 16.6751 5.513 16.2884C5.49507 15.8944 5.66008 15.6936 6.026 15.5895C6.86903 15.3516 7.5865 14.8832 8.13896 14.1843C9.67435 12.2511 9.08961 9.42204 6.91567 8.17665Z" fill="#303F5F"/>
</svg>
