<svg width="11" height="22" viewBox="0 0 11 22" fill="none" xmlns="http://www.w3.org/2000/svg">
<path d="M8.44586 9.98585C7.61344 9.50913 6.72845 9.14592 5.85223 8.76908C5.34402 8.55115 4.85771 8.2969 4.42836 7.94277C3.5828 7.24359 3.7449 6.10854 4.73504 5.65907C5.01543 5.53194 5.30897 5.49108 5.60688 5.47292C6.75474 5.40936 7.84564 5.62729 8.88397 6.14487C9.40094 6.40365 9.57181 6.32193 9.74705 5.76349C9.93106 5.17327 10.0844 4.57397 10.2553 3.9792C10.3692 3.57967 10.229 3.31634 9.86534 3.14835C9.19941 2.84416 8.51595 2.62623 7.79745 2.50819C6.85989 2.35836 6.85989 2.35382 6.85551 1.37769C6.85112 0.00201786 6.85112 0.00201785 5.51926 0.00201785C5.32649 0.00201785 5.13372 -0.00252232 4.94095 0.00201785C4.31883 0.0201785 4.21368 0.133683 4.19616 0.782927C4.1874 1.0735 4.19616 1.36407 4.19178 1.65918C4.1874 2.52181 4.18302 2.50819 3.38565 2.80784C1.45795 3.53427 0.266286 4.89632 0.139233 7.0756C0.0253236 9.00517 0.997935 10.3082 2.52695 11.2571C3.46889 11.8428 4.5116 12.1878 5.5105 12.6464C5.90042 12.8235 6.27282 13.0278 6.59702 13.3092C7.55649 14.131 7.38124 15.4976 6.24215 16.0152C5.63317 16.2921 4.98914 16.3602 4.32759 16.274C3.30679 16.1423 2.3298 15.8654 1.40976 15.3705C0.870882 15.0799 0.713161 15.1571 0.529154 15.7609C0.371433 16.2831 0.231237 16.8097 0.0910405 17.3364C-0.0973481 18.0446 -0.02725 18.2126 0.625538 18.5441C1.45795 18.9618 2.34732 19.1751 3.25422 19.325C3.96396 19.443 3.98587 19.4748 3.99463 20.2375C3.99901 20.5826 3.99901 20.9322 4.00339 21.2772C4.00777 21.7131 4.2093 21.9674 4.64303 21.9764C5.13372 21.9855 5.62879 21.9855 6.11948 21.9719C6.52254 21.9628 6.72845 21.7358 6.72845 21.3136C6.72845 20.8414 6.75036 20.3647 6.73283 19.8925C6.71093 19.4112 6.91246 19.1661 7.35934 19.0389C8.3889 18.7484 9.26513 18.1763 9.93982 17.3228C11.8149 14.9619 11.1008 11.5068 8.44586 9.98585Z" fill="#2EC9F5"/>
</svg>
