<svg width="9" height="18" fill="none" xmlns="http://www.w3.org/2000/svg"><path d="M6.916 8.177c-.682-.39-1.407-.688-2.124-.997-.416-.178-.814-.386-1.166-.676-.692-.573-.56-1.502.251-1.87.23-.104.47-.138.714-.153a5.256 5.256 0 012.683.55c.424.212.564.146.707-.312.15-.483.276-.974.416-1.46.094-.328-.021-.543-.319-.681a6.644 6.644 0 00-1.693-.524c-.768-.123-.768-.127-.772-.926C5.61.002 5.61.002 4.52.002c-.158 0-.315-.004-.473 0-.51.015-.596.107-.61.64-.007.237 0 .475-.004.717-.003.706-.007.695-.66.94C1.194 2.894.218 4.01.114 5.794.021 7.374.817 8.44 2.069 9.218c.771.48 1.625.762 2.443 1.137a3.6 3.6 0 01.89.543c.785.673.642 1.792-.29 2.216-.5.226-1.027.282-1.568.211-.836-.107-1.636-.334-2.39-.74-.44-.237-.57-.174-.72.32-.13.428-.245.86-.36 1.29-.154.58-.096.718.438.99.682.341 1.41.516 2.153.639.58.096.599.122.606.747.003.282.003.569.007.851.004.357.169.565.524.573.402.007.807.007 1.209-.004.33-.007.498-.193.498-.539 0-.387.018-.777.004-1.164-.018-.394.147-.594.513-.699a4.042 4.042 0 002.113-1.405c1.535-1.933.95-4.762-1.223-6.007z" fill="#303F5F"/></svg>