<?xml version="1.0" encoding="UTF-8"?>
<svg width="14px" height="14px" viewBox="0 0 14 14" version="1.1" xmlns="http://www.w3.org/2000/svg" xmlns:xlink="http://www.w3.org/1999/xlink">
    <!-- Generator: Sketch 56.2 (81672) - https://sketch.com -->
    <title>Shape</title>
    <desc>Created with Sketch.</desc>
    <g id="web" stroke="none" stroke-width="1" fill="none" fill-rule="evenodd">
        <g id="EMOJIS" transform="translate(-898.000000, -436.000000)" fill="#2C3E62" fill-rule="nonzero">
            <g id="Group-6" transform="translate(481.000000, 435.000000)">
                <g id="Group-4" transform="translate(417.000000, 0.000000)">
                    <path d="M7,1 C3.13306452,1 0,4.13306452 0,8 C0,11.8669355 3.13306452,15 7,15 C10.8669355,15 14,11.8669355 14,8 C14,4.13306452 10.8669355,1 7,1 Z M2.67016129,5.54153226 L3.65524194,5.40040323 L4.09274194,4.50846774 C4.17459677,4.34475806 4.40322581,4.34475806 4.48508065,4.50846774 L4.92258065,5.40040323 L5.90766129,5.54153226 C6.08266129,5.56975806 6.15887097,5.78427419 6.02903226,5.9141129 L5.31209677,6.60846774 L5.48145161,7.59354839 C5.50967742,7.76854839 5.33185484,7.90403226 5.17096774,7.81653226 L4.29032258,7.35927419 L3.40685484,7.81935484 C3.24596774,7.90685484 3.06814516,7.77137097 3.09637097,7.59637097 L3.26572581,6.61129032 L2.54879032,5.91693548 C2.41895161,5.78427419 2.49516129,5.56975806 2.67016129,5.54153226 Z M7,12.9677419 C5.28951613,12.9677419 3.20362903,11.8866935 2.94112903,10.3342742 C2.88467742,10.0012097 3.20362903,9.72741935 3.52540323,9.82903226 C4.37782258,10.1028226 5.64516129,10.2580645 7,10.2580645 C8.35483871,10.2580645 9.62217742,10.1028226 10.4745968,9.82903226 C10.7991935,9.72459677 11.1125,10.0012097 11.058871,10.3342742 C10.796371,11.8866935 8.71048387,12.9677419 7,12.9677419 Z M11.4512097,5.9141129 L10.7342742,6.60846774 L10.903629,7.59354839 C10.9318548,7.76854839 10.7540323,7.90403226 10.5931452,7.81653226 L9.70967742,7.35927419 L8.82620968,7.81935484 C8.66532258,7.90685484 8.4875,7.77137097 8.51572581,7.59637097 L8.68508065,6.61129032 L7.96814516,5.91693548 C7.84112903,5.78709677 7.91451613,5.57258065 8.08951613,5.54435484 L9.07459677,5.40322581 L9.51209677,4.51129032 C9.59395161,4.34758065 9.82258065,4.34758065 9.90443548,4.51129032 L10.3419355,5.40322581 L11.3270161,5.54435484 C11.5048387,5.56975806 11.5810484,5.78427419 11.4512097,5.9141129 L11.4512097,5.9141129 Z" id="Shape"></path>
                </g>
            </g>
        </g>
    </g>
</svg>