<svg xmlns="http://www.w3.org/2000/svg" width="25" height="23" viewBox="0 0 25 23">
  <path fill="#B9C3F8" d="M7.68009954 10.2433994L2.91254983 10.2433994 5.72259966 7.43334956C6.04499964 7.08959958 6.02764964 6.54954961 5.68384966 6.22719963 5.35539968 5.91919965 4.84419971 5.91939965 4.51599973 6.22759963L.249299985 10.4942494C.00574999966 10.7383494-.066949996 11.1049993.0649999961 11.4235493.107649994 11.5271993.17024999 11.6214493.249299985 11.7008993L4.51594973 15.967549C4.85494971 16.294949 5.39514968 16.285549 5.72254966 15.946549 6.04194964 15.6158491 6.04194964 15.0915991 5.72254966 14.7608991L2.91249983 11.9499993 7.68009954 11.9499993 7.68009954 10.2433994zM21.3334487.0033999998L10.2401494.0033999998C8.82629947.0033999998 7.68014954 1.14954993 7.68014954 2.56339985L7.68014954 10.2433994 17.066799 10.2433994C17.538099 10.2433994 17.9201489 10.6254494 17.9201489 11.0967493 17.9201489 11.5680493 17.538099 11.9500993 17.066799 11.9500993L7.68009954 11.9500993 7.68009954 19.6300988C7.68009954 21.0439487 8.82624947 22.1900987 10.2400994 22.1900987L21.3334487 22.1900987C22.7472986 22.1900987 23.8934486 21.0439487 23.8934486 19.6300988L23.8934486 2.56339985C23.8934486 1.14954993 22.7472986.0033999998 21.3334487.0033999998z" transform="translate(.5 .5)"/>
</svg>
