<svg width="12" height="13" xmlns="http://www.w3.org/2000/svg"><path d="M9.171 3.225c.65.117 1.182.467 1.598 1.05.367.517.616 1.167.75 1.95a6.218 6.218 0 01-.026 2.15c-.2 1.183-.599 2.175-1.198 2.975-.716.967-1.615 1.45-2.697 1.45-.266 0-.557-.083-.874-.25a1.354 1.354 0 00-.724-.2c-.266 0-.507.067-.724.2-.317.167-.608.25-.874.25-1.082 0-1.98-.483-2.697-1.45-.6-.8-.999-1.792-1.198-2.975a6.218 6.218 0 01-.025-2.15c.133-.783.382-1.433.749-1.95.416-.583.948-.933 1.598-1.05.399-.067.948-.008 1.648.175.599.167 1.107.367 1.523.6a6.922 6.922 0 011.523-.6c.7-.183 1.249-.242 1.648-.175zM7.798 2.2c-.233.217-.541.375-.924.475A2.917 2.917 0 016 2.8l-.374-.025a3.208 3.208 0 010-.8c.066-.6.258-1.058.574-1.375.233-.217.541-.375.924-.475C7.39.042 7.68 0 7.998 0l.374.025.025.375c0 .317-.042.608-.125.875-.1.383-.257.692-.474.925z" fill="#2C3E62" fill-rule="nonzero"/></svg>