<?xml version="1.0" encoding="UTF-8"?>
<svg width="12px" height="13px" viewBox="0 0 12 13" version="1.1" xmlns="http://www.w3.org/2000/svg" xmlns:xlink="http://www.w3.org/1999/xlink">
    <!-- Generator: Sketch 56.2 (81672) - https://sketch.com -->
    <title>apple-alt</title>
    <desc>Created with Sketch.</desc>
    <g id="web" stroke="none" stroke-width="1" fill="none" fill-rule="evenodd">
        <g id="JARVIS-ALL-ICONS" transform="translate(-634.000000, -436.000000)" fill="#2C3E62" fill-rule="nonzero">
            <g id="ICONS" transform="translate(333.000000, 435.000000)">
                <g id="Group-5" transform="translate(191.000000, 0.000000)">
                    <g id="FOOD" transform="translate(110.000000, 0.000000)">
                        <g id="apple-alt" transform="translate(0.000000, 1.000000)">
                            <path d="M9.17145255,3.225 C9.82069284,3.34175 10.3531849,3.69175 10.7694286,4.275 C11.1356732,4.79175 11.3854194,5.44175 11.5184174,6.225 C11.6351657,6.94175 11.6264158,7.65825 11.4934178,8.375 C11.2936708,9.55825 10.8941768,10.55 10.2949357,11.35 C9.57894646,12.31675 8.6802099,12.8 7.59822609,12.8 C7.33173008,12.8 7.04073443,12.71675 6.72423917,12.55 C6.5077424,12.41675 6.26649601,12.35 6,12.35 C5.73350399,12.35 5.49250759,12.41675 5.27576083,12.55 C4.95926557,12.71675 4.66826992,12.8 4.40177391,12.8 C3.3197901,12.8 2.42105354,12.31675 1.70506425,11.35 C1.10582322,10.55 0.706329195,9.55825 0.506582183,8.375 C0.373584173,7.65825 0.364834304,6.94175 0.481582557,6.225 C0.614580568,5.44175 0.864326831,4.79175 1.23057135,4.275 C1.64681513,3.69175 2.17930716,3.34175 2.82854745,3.225 C3.22804147,3.15825 3.77728325,3.21675 4.47652279,3.4 C5.07576383,3.56675 5.58350623,3.76675 5.99975,4 C6.41599378,3.76675 6.92373618,3.56675 7.52297722,3.4 C8.22246675,3.21675 8.77195853,3.15825 9.17145255,3.225 Z M7.7979731,2.2 C7.56497659,2.41675 7.2567312,2.575 6.87398692,2.675 C6.60749091,2.75825 6.31649527,2.8 6,2.8 L5.6255056,2.775 C5.5922561,2.54175 5.5922561,2.275 5.6255056,1.975 C5.6922546,1.375 5.88350174,0.91675 6.19974701,0.6 C6.43274353,0.38325 6.74098891,0.225 7.12373319,0.125 C7.3902292,0.04175 7.68122485,0 7.99772011,0 L8.37221451,0.025 L8.39721414,0.4 C8.39721414,0.71675 8.35546476,1.00825 8.272466,1.275 C8.1727175,1.65825 8.01471986,1.96675 7.7979731,2.2 Z" id="Shape"></path>
                        </g>
                    </g>
                </g>
            </g>
        </g>
    </g>
</svg>