<svg width="25" height="25" xmlns="http://www.w3.org/2000/svg"><path d="M24.445 10.325l-2.868-.705a9.466 9.466 0 00-.661-1.575L22.25 5.82a.732.732 0 00-.11-.895L20.07 2.853a.73.73 0 00-.895-.11L16.946 4.08a9.436 9.436 0 00-1.566-.656L14.675.555a.732.732 0 00-.71-.555h-2.93a.732.732 0 00-.71.555s-.489 2.001-.705 2.867a9.403 9.403 0 00-1.662.708l-2.31-1.387a.734.734 0 00-.896.11L2.681 4.925a.732.732 0 00-.11.895L4 8.206c-.23.455-.424.927-.577 1.412l-2.868.707a.732.732 0 00-.555.71v2.93c0 .336.229.63.555.71l2.868.705c.174.552.4 1.088.674 1.602l-1.279 2.131a.732.732 0 00.11.895L5 22.079a.735.735 0 00.895.11l2.136-1.28c.509.271 1.04.495 1.59.669l.704 2.867c.08.326.374.555.71.555h2.93a.732.732 0 00.71-.555l.705-2.867a9.303 9.303 0 001.625-.69l2.17 1.302a.732.732 0 00.895-.11l2.07-2.072a.732.732 0 00.111-.895l-1.317-2.193a9.38 9.38 0 00.643-1.54l2.868-.705a.732.732 0 00.555-.71v-2.93a.732.732 0 00-.555-.71zM12.5 17.627A5.133 5.133 0 017.373 12.5c0-2.827 2.3-5.127 5.127-5.127s5.127 2.3 5.127 5.127-2.3 5.127-5.127 5.127z" fill="#31405E" fill-rule="nonzero"/></svg>