<?xml version="1.0" encoding="UTF-8"?>
<svg width="25px" height="25px" viewBox="0 0 25 25" version="1.1" xmlns="http://www.w3.org/2000/svg" xmlns:xlink="http://www.w3.org/1999/xlink">
    <!-- Generator: Sketch 56.2 (81672) - https://sketch.com -->
    <title>gear</title>
    <desc>Created with Sketch.</desc>
    <g id="web" stroke="none" stroke-width="1" fill="none" fill-rule="evenodd">
        <g id="13.-web-" transform="translate(-1119.000000, -25.000000)" fill="#31405E" fill-rule="nonzero">
            <g id="top">
                <g id="gear" transform="translate(1119.000000, 25.000000)">
                    <path d="M24.4449707,10.3249023 L21.5773438,9.61967773 C21.4049805,9.07607422 21.183252,8.54892578 20.9157227,8.04467773 C21.3462891,7.32797852 22.251123,5.81953125 22.251123,5.81953125 C22.4242187,5.53129883 22.378418,5.16220703 22.1409668,4.92475586 L20.0695801,2.85336914 C19.8321289,2.61518555 19.4637695,2.56943359 19.1748047,2.74321289 L16.9460449,4.07861328 C16.4446289,3.81323242 15.9203613,3.59365234 15.3803711,3.42270508 L14.6751465,0.555078125 C14.5935547,0.22890625 14.3010254,0 13.9648438,0 L11.0351562,0 C10.6989746,0 10.4057129,0.22890625 10.3249023,0.555029297 C10.3249023,0.555029297 9.83637695,2.55649414 9.62036133,3.42197266 C9.04458008,3.6043457 8.48813477,3.84111328 7.95810547,4.13007812 L5.64711914,2.74321289 C5.3581543,2.5715332 4.99052734,2.61591797 4.75234375,2.85336914 L2.68095703,4.92475586 C2.44350586,5.16220703 2.39770508,5.53129883 2.57080078,5.81953125 L3.99990234,8.20634766 C3.76958008,8.66054687 3.57646484,9.13330078 3.42270508,9.6175293 L0.555078125,10.3249023 C0.22890625,10.4064453 0,10.6989746 0,11.0351562 L0,13.9648438 C0,14.3010254 0.22890625,14.5942871 0.555029297,14.6750977 L3.42338867,15.3803223 C3.5972168,15.9317871 3.82319336,16.4675293 4.09716797,16.9817871 L2.81831055,19.1132324 C2.64521484,19.4014648 2.69101562,19.7705566 2.9284668,20.0080078 L4.99985352,22.0793945 C5.23662109,22.3161621 5.60566406,22.3611816 5.89462891,22.1895508 C5.89462891,22.1895508 7.32871094,21.329834 8.03110352,20.9092285 C8.53964844,21.1803223 9.07177734,21.4041992 9.62041016,21.5779785 L10.3249512,24.4449219 C10.4057129,24.7711426 10.6989746,25 11.0351562,25 L13.9648438,25 C14.3010254,25 14.5935547,24.7710938 14.6750977,24.4449707 L15.3796387,21.5780273 C15.9439941,21.3992188 16.4875488,21.1681641 17.0046875,20.887793 C17.7263672,21.3205078 19.1747559,22.1895508 19.1747559,22.1895508 C19.4629883,22.3619141 19.8320801,22.3175781 20.0695312,22.0793945 L22.140918,20.0080078 C22.3783691,19.7705566 22.4241699,19.4014648 22.2510742,19.1132324 L20.9342773,16.9195312 C21.1938965,16.426709 21.4092285,15.9110352 21.5772949,15.3803223 L24.4449219,14.6750977 C24.7711426,14.5935547 25,14.3010254 25,13.9648438 L25,11.0351562 C25,10.6989746 24.7711426,10.4064453 24.4449707,10.3249023 Z M12.5,17.6269531 C9.67329102,17.6269531 7.37304688,15.326709 7.37304688,12.5 C7.37304688,9.67329102 9.67329102,7.37304688 12.5,7.37304688 C15.326709,7.37304688 17.6269531,9.67329102 17.6269531,12.5 C17.6269531,15.326709 15.326709,17.6269531 12.5,17.6269531 Z" id="Shape"></path>
                </g>
            </g>
        </g>
    </g>
</svg>