<svg xmlns="http://www.w3.org/2000/svg" width="25" height="20" viewBox="0 0 25 20">
  <g fill="#B9C3F8" fill-rule="evenodd">
    <path d="M12.5284011,4.07277174 L3.63067751,11.4279348 C3.63067751,11.4383152 3.62807588,11.453587 3.62287263,11.4744022 C3.61777778,11.4950543 3.61506775,11.5100543 3.61506775,11.5207065 L3.61506775,18.968587 C3.61506775,19.2375 3.71311653,19.4705435 3.90915989,19.6667935 C4.10514905,19.8631522 4.33723577,19.9619565 4.60547425,19.9619565 L10.5474797,19.9619565 L10.5474797,14.0034783 L14.5093767,14.0034783 L14.5093767,19.9621739 L20.4513279,19.9621739 C20.7195122,19.9621739 20.9519241,19.863587 21.1476423,19.6667935 C21.3436856,19.4707609 21.4420596,19.2375543 21.4420596,18.968587 L21.4420596,11.5207065 C21.4420596,11.4794022 21.4364228,11.4482065 21.4264499,11.4279348 L12.5284011,4.07277174 Z"/>
    <path d="M24.8304607,9.75206522 L21.4417344,6.92804348 L21.4417344,0.597228261 C21.4417344,0.4525 21.3953388,0.333478261 21.3022222,0.240326087 C21.2098645,0.147282609 21.0911653,0.10076087 20.9465041,0.10076087 L17.9754472,0.10076087 C17.8309485,0.10076087 17.7123035,0.147282609 17.6193496,0.240326087 C17.5266125,0.333478261 17.480271,0.452554348 17.480271,0.597228261 L17.480271,3.62293478 L13.7045528,0.457445652 C13.3747967,0.188478261 12.98271,0.0540217391 12.5287263,0.0540217391 C12.0747967,0.0540217391 11.6827642,0.188478261 11.3526829,0.457445652 L0.226124661,9.75206522 C0.12298103,9.83467391 0.0664498645,9.94586957 0.0559349593,10.0855435 C0.0454742547,10.2251087 0.0815176152,10.3470109 0.164173442,10.4503804 L1.12357724,11.5986413 C1.20623306,11.6916848 1.31441734,11.748587 1.44856369,11.7694022 C1.57241192,11.779837 1.69626016,11.7435326 1.8201084,11.6608152 L12.5284011,2.70744565 L23.2368022,11.6607609 C23.3195122,11.7329348 23.4276423,11.7689674 23.5617886,11.7689674 L23.6082927,11.7689674 C23.7422222,11.7485326 23.8501897,11.69125 23.9332791,11.5984239 L24.8927913,10.4503261 C24.9752846,10.3467391 25.0114363,10.2250543 25.0007046,10.0853261 C24.9901355,9.94603261 24.9333875,9.83483696 24.8304607,9.75206522 Z"/>
  </g>
</svg>
