<svg width="18" height="18" xmlns="http://www.w3.org/2000/svg"><path d="M15.364 2.576c-3.515-3.469-9.213-3.47-12.728 0a8.803 8.803 0 000 12.563c3.515 3.468 9.213 3.468 12.728 0a8.803 8.803 0 000-12.563zm-5.19 10.143c0 .64-.526 1.159-1.174 1.159a1.166 1.166 0 01-1.174-1.159V8.085c0-.64.525-1.159 1.174-1.159.648 0 1.174.519 1.174 1.159v4.634zM8.979 6.104c-.676 0-1.127-.473-1.113-1.056-.014-.612.437-1.07 1.127-1.07s1.127.458 1.141 1.07c0 .583-.45 1.056-1.155 1.056z" fill="#2EC9F5" fill-rule="evenodd"/></svg>