<svg xmlns="http://www.w3.org/2000/svg" width="13" height="13" viewBox="0 0 13 13">
  <g fill="#676AE1">
    <path d="M6.5,0 C2.916,0 0,2.9158 0,6.5 C0,10.0842 2.916,13 6.5,13 C10.084,13 13,10.0842 13,6.5 C13,2.9158 10.084,0 6.5,0 Z M6.5,11.375 C3.81190789,11.375 1.625,9.18809211 1.625,6.5 C1.625,3.81190789 3.81190789,1.625 6.5,1.625 C9.18809211,1.625 11.375,3.81190789 11.375,6.5 C11.375,9.18809211 9.18809211,11.375 6.5,11.375 Z"/>
    <path d="M6.54505296 4.52916433C6.89143905 4.52916433 7.17224046 4.24836292 7.17224046 3.90197683 7.17224046 3.55559074 6.89143905 3.27478933 6.54505296 3.27478933 6.19866687 3.27478933 5.91786546 3.55559074 5.91786546 3.90197683 5.91786546 4.24836292 6.19866687 4.52916433 6.54505296 4.52916433zM6.37986546 5.55216433C6.17286546 5.55216433 6.00486546 5.72016433 6.00486546 5.92716433L6.00486546 9.11466433C6.00486546 9.32166433 6.17286546 9.48966433 6.37986546 9.48966433 6.58686546 9.48966433 6.75486546 9.32166433 6.75486546 9.11466433L6.75486546 5.92716433C6.75486546 5.71997683 6.58686546 5.55216433 6.37986546 5.55216433z"/>
  </g>
</svg>
