<?xml version="1.0" encoding="UTF-8"?>
<svg width="18px" height="18px" viewBox="0 0 18 18" version="1.1" xmlns="http://www.w3.org/2000/svg" xmlns:xlink="http://www.w3.org/1999/xlink">
    <!-- Generator: Sketch 56 (81588) - https://sketch.com -->
    <title>Group 3 Copy</title>
    <desc>Created with Sketch.</desc>
    <g id="Page-1" stroke="none" stroke-width="1" fill="none" fill-rule="evenodd">
        <g id="Artboard-Copy-2" transform="translate(-360.000000, -585.000000)" fill="#2EC9F5">
            <g id="Group-2" transform="translate(360.000000, 582.000000)">
                <g id="Group-3-Copy" transform="translate(0.000000, 2.974026)">
                    <g id="info-button">
                        <path d="M15.3641739,2.60159458 C11.8494783,-0.867069452 6.15091304,-0.867455675 2.63582609,2.60159458 C-0.878869565,6.07064483 -0.878478261,11.6952027 2.63582609,15.1646392 C6.15052174,18.632917 11.849087,18.6333032 15.3641739,15.1646392 C18.8784783,11.6952027 18.878087,6.07103106 15.3641739,2.60159458 Z M10.1735217,12.7453416 C10.1735217,13.3853123 9.648,13.904009 8.9996087,13.904009 C8.35121739,13.904009 7.82569565,13.3853123 7.82569565,12.7453416 L7.82569565,8.11067194 C7.82569565,7.4707013 8.35121739,6.95200452 8.9996087,6.95200452 C9.648,6.95200452 10.1735217,7.4707013 10.1735217,8.11067194 L10.1735217,12.7453416 Z M8.97886957,6.13012309 C8.30269565,6.13012309 7.85191304,5.65738679 7.866,5.07380463 C7.85191304,4.46202823 8.30269565,4.00358216 8.99256522,4.00358216 C9.68282609,4.00358216 10.1195217,4.46241446 10.134,5.07380463 C10.1336087,5.65738679 9.68321739,6.13012309 8.97886957,6.13012309 Z" id="Shape"></path>
                    </g>
                </g>
            </g>
        </g>
    </g>
</svg>