<svg width="12" height="12" viewBox="0 0 12 12" fill="none" xmlns="http://www.w3.org/2000/svg">
<path fill-rule="evenodd" clip-rule="evenodd" d="M10.2428 1.75724C7.89964 -0.585616 4.10062 -0.585877 1.75724 1.75724C-0.585877 4.10036 -0.585616 7.89938 1.75724 10.2428C4.10036 12.5854 7.89938 12.5856 10.2428 10.2428C12.5856 7.89938 12.5854 4.10062 10.2428 1.75724ZM6.78234 8.60868C6.78234 9.04094 6.432 9.39129 5.99974 9.39129C5.56748 9.39129 5.21713 9.04094 5.21713 8.60868V5.47826C5.21713 5.04601 5.56748 4.69566 5.99974 4.69566C6.432 4.69566 6.78234 5.04601 6.78234 5.47826V8.60868ZM5.98591 4.14053C5.53513 4.14053 5.23461 3.82123 5.244 3.42706C5.23461 3.01384 5.53513 2.70419 5.99504 2.70419C6.45521 2.70419 6.74634 3.0141 6.756 3.42706C6.75573 3.82123 6.45548 4.14053 5.98591 4.14053Z" fill="#2EC9F5"/>
</svg>
