<svg width="36" height="34" viewBox="0 0 36 34" fill="none" xmlns="http://www.w3.org/2000/svg">
<path fill-rule="evenodd" clip-rule="evenodd" d="M15.5043 23.9936H2.94138C2.64938 23.9936 2.4116 23.7548 2.4116 23.4618V2.95158C2.4116 2.65865 2.64946 2.41996 2.94138 2.41996H33.0587C33.3508 2.41996 33.5885 2.65865 33.5885 2.95158V7.44356C34.4706 7.54808 35.2971 7.83816 36 8.315V2.95158C36 1.32398 34.6801 0 33.0586 0H2.94138C1.31993 0 0 1.32391 0 2.95158V23.4617C0 25.0894 1.31993 26.4135 2.94138 26.4135H13.0362V30.3701H11.4443C10.4458 30.3701 9.63559 31.1824 9.63559 32.185C9.63559 33.1876 10.4458 34 11.4443 34H16.5217C15.8871 33.1044 15.5044 32.0172 15.5044 30.8368V23.9936H15.5043ZM25.6744 32.2812V29.6774H20.4003V13.0464C20.4003 12.6956 20.6839 12.4102 21.0332 12.4102H32.9669C33.3161 12.4102 33.5997 12.6956 33.5997 13.0464V18.1935H34.4988C35.0484 18.1935 35.5571 18.3529 36 18.6129V13.0464C36 11.3664 34.6393 10 32.9668 10H21.0332C19.3607 10 18 11.3664 18 13.0464V30.9536C18 32.6337 19.3607 34 21.0332 34H26.2159C25.8854 33.5234 25.6744 32.8593 25.6744 32.2812ZM28.5321 19H34.468C35.3129 19 36 19.6729 36 20.4996V31.5009C36 32.3276 35.3129 33 34.468 33H28.5321C27.6871 33 27 32.3276 27 31.5009V20.4996C27 19.673 27.6871 19 28.5321 19ZM34.1644 20.7961H28.8356V30.3058H34.1644V20.7961ZM31.5007 32.2715C31.3321 32.2715 31.1816 32.2048 31.0669 32.1019C30.9365 31.9861 30.8529 31.8235 30.8529 31.6381C30.8529 31.2886 31.1422 31.0055 31.5007 31.0055C31.8568 31.0055 32.146 31.2886 32.146 31.6381C32.146 31.8235 32.0623 31.986 31.9333 32.1019C31.8184 32.2048 31.6679 32.2715 31.5007 32.2715Z" fill="#31405E"/>
</svg>
