<svg width="23" height="22" xmlns="http://www.w3.org/2000/svg"><g fill="#C9C9D7" fill-rule="nonzero" stroke="#C9C9D7" stroke-width=".2"><path d="M21.947 10.755a.615.615 0 00-.617.618v5.62a2.773 2.773 0 01-2.77 2.769H5.006a2.773 2.773 0 01-2.77-2.769v-5.712a.615.615 0 00-.617-.617.615.615 0 00-.618.617v5.712a4.009 4.009 0 004.005 4.005H18.56a4.009 4.009 0 004.004-4.005v-5.62a.618.618 0 00-.618-.618z"/><path d="M11.348 16.092c.119.119.279.183.435.183.155 0 .315-.06.434-.183l3.927-3.927a.616.616 0 000-.874.616.616 0 00-.874 0l-2.87 2.874V1.629a.615.615 0 00-.617-.618.615.615 0 00-.618.618v12.536L8.29 11.29a.616.616 0 00-.875 0 .616.616 0 000 .874l3.932 3.927z"/></g></svg>