<svg xmlns="http://www.w3.org/2000/svg" width="20" height="15" viewBox="0 0 20 15">
  <path fill="#5053DD" fill-rule="evenodd" d="M30.4450271,16 L19.2713641,16 C18.5670118,16 18,16.5697697 18,17.2735703 L18,33.4769812 C18,34.1785756 18.5670118,34.75 19.2713641,34.75 L30.4450271,34.75 C31.147173,34.75 31.7169427,34.1791272 31.7169427,33.4769812 L31.7169427,17.2735703 C31.7180458,16.5697697 31.1477246,16 30.4450271,16 Z M24.8587471,34.2728937 C24.4406586,34.2728937 24.1025475,33.9347826 24.1025475,33.5172457 C24.1025475,33.0991572 24.4406586,32.7604945 24.8587471,32.7604945 C25.2757325,32.7604945 25.6149468,33.0991572 25.6149468,33.5172457 C25.6149468,33.9347826 25.2757325,34.2728937 24.8587471,34.2728937 Z M30.4301347,32.0980614 L19.2873595,32.0980614 L19.2873595,17.5300494 L30.4301347,17.5300494 L30.4301347,32.0980614 L30.4301347,32.0980614 Z" opacity=".85" transform="rotate(-90 8.358 23.875)"/>
</svg>
