<svg width="28" height="40" xmlns="http://www.w3.org/2000/svg"><g fill="#2EC9F5" fill-rule="nonzero"><path d="M5.333 8h4V4h-4v4zm1.334-2.667H8v1.334H6.667V5.333zM13.333 8h4V4h-4v4zm1.334-2.667H16v1.334h-1.333V5.333zM2.667 14.667H4v2.667H2.667zM5.333 14.667h1.333v2.667H5.333zM8 14.667h1.333v2.667H8zM10.667 14.667H12v2.667h-1.333zM13.333 14.667h1.333v2.667h-1.333zM16 14.667h1.333v2.667H16zM18.667 14.667H20v2.667h-1.333z"/><path d="M24.4 26.808a7.24 7.24 0 00-3.235-1.382l1.48-5.933a.593.593 0 000-.067.607.607 0 00.022-.093v-6.666A.667.667 0 0022 12h-2V.667A.667.667 0 0019.333 0h-16a.667.667 0 00-.666.667V12h-2a.667.667 0 00-.667.667v6.666c.004.031.01.062.019.092a.593.593 0 000 .067l4 16c.073.298.34.508.648.508h4.666v4h1.334v-4H12v4h1.333v-4h.139a7.333 7.333 0 0013.861-3.333 7.258 7.258 0 00-2.933-5.859zM4 1.333h14.667V12H4V1.333zm-2.667 12h20v5.334h-20v-5.334zM12.67 32.86c.01.428.06.854.144 1.273.038.182.084.358.134.534h-7.76L1.521 20h19.626l-1.334 5.343a7.333 7.333 0 00-7.144 7.517zM20 38.667a6 6 0 010-12 6.015 6.015 0 016 6 6.007 6.007 0 01-6 6z"/><path d="M23.105 34.829l-2.162-2.162 2.162-2.162a.667.667 0 00-.943-.943L20 31.724l-2.162-2.162a.667.667 0 10-.943.943l2.162 2.162-2.162 2.162a.667.667 0 10.943.942L20 33.61l2.162 2.162a.667.667 0 10.943-.942z"/></g></svg>