<?xml version="1.0" encoding="UTF-8"?>
<svg width="28px" height="40px" viewBox="0 0 28 40" version="1.1" xmlns="http://www.w3.org/2000/svg" xmlns:xlink="http://www.w3.org/1999/xlink">
    <!-- Generator: Sketch 56 (81588) - https://sketch.com -->
    <title>usb</title>
    <desc>Created with Sketch.</desc>
    <g id="web" stroke="none" stroke-width="1" fill="none" fill-rule="evenodd">
        <g id="5.-web" transform="translate(-399.000000, -572.000000)" fill="#2EC9F5" fill-rule="nonzero">
            <g id="pop-up" transform="translate(335.000000, 130.000000)">
                <g id="passwordless" transform="translate(35.000000, 95.000000)">
                    <g id="connect-with-another-device" transform="translate(19.000000, 319.000000)">
                        <g id="Group-2-Copy" transform="translate(10.000000, 28.000000)">
                            <g id="usb">
                                <path d="M5.33333333,8 L9.33333333,8 L9.33333333,4 L5.33333333,4 L5.33333333,8 Z M6.66666667,5.33333333 L8,5.33333333 L8,6.66666667 L6.66666667,6.66666667 L6.66666667,5.33333333 Z" id="Shape"></path>
                                <path d="M13.3333333,8 L17.3333333,8 L17.3333333,4 L13.3333333,4 L13.3333333,8 Z M14.6666667,5.33333333 L16,5.33333333 L16,6.66666667 L14.6666667,6.66666667 L14.6666667,5.33333333 Z" id="Shape"></path>
                                <rect id="Rectangle" x="2.66666667" y="14.6666667" width="1.33333333" height="2.66666667"></rect>
                                <rect id="Rectangle" x="5.33333333" y="14.6666667" width="1.33333333" height="2.66666667"></rect>
                                <rect id="Rectangle" x="8" y="14.6666667" width="1.33333333" height="2.66666667"></rect>
                                <rect id="Rectangle" x="10.6666667" y="14.6666667" width="1.33333333" height="2.66666667"></rect>
                                <rect id="Rectangle" x="13.3333333" y="14.6666667" width="1.33333333" height="2.66666667"></rect>
                                <rect id="Rectangle" x="16" y="14.6666667" width="1.33333333" height="2.66666667"></rect>
                                <rect id="Rectangle" x="18.6666667" y="14.6666667" width="1.33333333" height="2.66666667"></rect>
                                <path d="M24.4,26.808 C23.4518333,26.0884167 22.34075,25.61375 21.1653333,25.426 L22.6453333,19.4926667 C22.6465833,19.4705 22.6465833,19.4481667 22.6453333,19.426 C22.6548333,19.39575 22.662,19.36475 22.6666667,19.3333333 L22.6666667,12.6666667 C22.6666667,12.2985 22.3681667,12 22,12 L20,12 L20,0.666666667 C20,0.2985 19.7015,0 19.3333333,0 L3.33333333,0 C2.96516667,0 2.66666667,0.2985 2.66666667,0.666666667 L2.66666667,12 L0.666666667,12 C0.2985,12 0,12.2985 0,12.6666667 L0,19.3333333 C0.00383333333,19.3644167 0.0100833333,19.3951667 0.0186666667,19.4253333 C0.0174166667,19.4475 0.0174166667,19.4698333 0.0186666667,19.492 L4.01866667,35.492 C4.09183333,35.7904167 4.35941667,36.00025 4.66666667,36 L9.33333333,36 L9.33333333,40 L10.6666667,40 L10.6666667,36 L12,36 L12,40 L13.3333333,40 L13.3333333,36 L13.472,36 C15.31725,39.6053333 19.73575,41.0321667 23.3410833,39.1869167 C25.7890833,37.934 27.3304167,35.4166667 27.333395,32.6666667 C27.3428333,30.3584167 26.2538333,28.18325 24.4,26.808 Z M4,1.33333333 L18.6666667,1.33333333 L18.6666667,12 L4,12 L4,1.33333333 Z M1.33333333,13.3333333 L21.3333333,13.3333333 L21.3333333,18.6666667 L1.33333333,18.6666667 L1.33333333,13.3333333 Z M12.6689167,32.86025 C12.6798333,33.288 12.7280833,33.714 12.81325,34.1333333 C12.8505833,34.3146667 12.89725,34.4913333 12.9465833,34.6666667 L5.18725,34.6666667 L1.52058333,20 L21.1466667,20 L19.8133333,25.3426667 C15.7645,25.44575 12.5659167,28.8114167 12.6689167,32.86025 Z M20,38.6666667 C16.6863333,38.6666667 14,35.9803333 14,32.6666667 C14,29.3529167 16.6863333,26.6666667 20,26.6666667 C23.3103333,26.67475 25.9919167,29.3563333 26,32.6666667 C25.9963333,35.9788333 23.3121667,38.663 20,38.6666667 Z" id="Shape"></path>
                                <path d="M23.1046667,34.8286667 L20.9426667,32.6666667 L23.1046667,30.5046667 C23.3649167,30.2443333 23.3649167,29.8223333 23.1046667,29.562 C22.8443333,29.30175 22.4223333,29.30175 22.162,29.562 L20,31.724 L17.838,29.562 C17.5821667,29.2971667 17.1601667,29.2898333 16.8953333,29.5456667 C16.6305,29.8015 16.6231667,30.2235 16.879,30.4883333 C16.8843333,30.4938333 16.88975,30.4993333 16.8953333,30.5046667 L19.0573333,32.6666667 L16.8953333,34.8286667 C16.6305,35.0845 16.6231667,35.5065 16.879,35.7713333 C17.1348333,36.0361667 17.5568333,36.0435 17.8216667,35.7876667 C17.8271667,35.7823333 17.8326667,35.7769167 17.838,35.7713333 L20,33.6093333 L22.162,35.7713333 C22.4178333,36.0361667 22.8398333,36.0435 23.1046667,35.7876667 C23.3695,35.5318333 23.3768333,35.1098333 23.121,34.845 C23.1155833,34.8394167 23.1101667,34.834 23.1046667,34.8286667 Z" id="Path"></path>
                            </g>
                        </g>
                    </g>
                </g>
            </g>
        </g>
    </g>
</svg>