<svg width="51" height="46" fill="none" xmlns="http://www.w3.org/2000/svg"><path fill-rule="evenodd" clip-rule="evenodd" d="M49.907 40.913L27.817 1.602C27.259.608 26.257 0 25.175 0c-1.081 0-2.084.607-2.642 1.601L.443 40.913A3.52 3.52 0 00.4 44.252c.547 1.04 1.573 1.682 2.686 1.682h44.18c1.113 0 2.139-.643 2.686-1.682a3.52 3.52 0 00-.044-3.337zM25.19 13.6c1.27 0 2.343.768 2.343 2.129 0 2.077-.114 4.608-.228 7.138-.114 2.531-.228 5.062-.228 7.14 0 1.081-1.106 1.535-1.887 1.535-1.04 0-1.919-.454-1.919-1.536 0-2.077-.114-4.608-.227-7.139-.114-2.53-.228-5.061-.228-7.138 0-1.361 1.04-2.13 2.374-2.13zM22.72 36.638c0 1.43 1.074 2.688 2.505 2.688 1.334 0 2.472-1.257 2.472-2.688 0-1.466-1.138-2.688-2.472-2.688-1.431 0-2.505 1.222-2.505 2.688z" fill="#FC4B61"/></svg>