<svg width="51" height="46" viewBox="0 0 51 46" fill="none" xmlns="http://www.w3.org/2000/svg">
<path fill-rule="evenodd" clip-rule="evenodd" d="M49.9069 40.9135L27.8168 1.60108C27.2586 0.607527 26.2562 0 25.1749 0C24.0937 0 23.0913 0.607421 22.533 1.60108L0.443115 40.9135C-0.131387 41.9359 -0.1484 43.2112 0.398764 44.2508C0.945927 45.2905 1.9723 45.9333 3.08492 45.9333H47.265C48.3777 45.9333 49.404 45.2903 49.9512 44.2508C50.4984 43.2111 50.4814 41.9359 49.9069 40.9135ZM25.1914 13.5986C26.4601 13.5986 27.5336 14.3666 27.5336 15.7279C27.5336 17.8049 27.4198 20.3357 27.3059 22.8665C27.1921 25.3973 27.0782 27.9281 27.0782 30.0051C27.0782 31.0873 25.9722 31.541 25.1914 31.541C24.1506 31.541 23.2722 31.0872 23.2722 30.0051C23.2722 27.9281 23.1584 25.3973 23.0446 22.8665C22.9308 20.3357 22.8169 17.8049 22.8169 15.7279C22.8169 14.3666 23.8578 13.5986 25.1914 13.5986ZM22.7192 36.6377C22.7192 38.0688 23.7928 39.3255 25.224 39.3255C26.5577 39.3255 27.6963 38.0688 27.6963 36.6377C27.6963 35.1716 26.5577 33.9498 25.224 33.9498C23.7927 33.9498 22.7192 35.1716 22.7192 36.6377Z" fill="#FC4B61"/>
</svg>
