<?xml version="1.0" encoding="UTF-8"?>
<svg width="15px" height="15px" viewBox="0 0 15 15" version="1.1" xmlns="http://www.w3.org/2000/svg" xmlns:xlink="http://www.w3.org/1999/xlink">
    <!-- Generator: Sketch 56.2 (81672) - https://sketch.com -->
    <title>Group 4</title>
    <desc>Created with Sketch.</desc>
    <g id="Symbols" stroke="none" stroke-width="1" fill="none" fill-rule="evenodd">
        <g id="menu-Universal-Login" transform="translate(-321.000000, -21.000000)" fill="#B9C3F8">
            <g id="menu">
                <g id="Group-2" transform="translate(42.000000, 20.000000)">
                    <g id="devices" transform="translate(279.000000, 1.000000)">
                        <g id="Group-4">
                            <path d="M1.3131182,10.5854037 C1.18276046,10.5854037 1.07660628,10.4800683 1.07660628,10.3507974 L1.07660628,1.30216979 C1.07660628,1.17293213 1.18279394,1.06762984 1.3131182,1.06762984 L13.6869153,1.06762984 C13.8173065,1.06762984 13.9234272,1.17293213 13.9234272,1.30216979 L13.9234272,3.28392447 C14.317212,3.33003572 14.6861907,3.45801187 15,3.66838408 L15,1.30216979 C15,0.584109047 14.4107455,0 13.6868818,0 L1.3131182,0 C0.589254469,0 0,0.58407585 0,1.30216979 L0,10.3507642 C0,11.0688581 0.589254469,11.6530004 1.3131182,11.6530004 L5.81973317,11.6530004 L5.81973317,13.3985552 L5.1090592,13.3985552 C4.66328529,13.3985552 4.30160449,13.7569549 4.30160449,14.1992776 C4.30160449,14.6416004 4.66328529,15 5.1090592,15 L7.37575731,15 C7.09244516,14.604884 6.92161425,14.1252473 6.92161425,13.604479 L6.92161425,10.5854037 L1.3131182,10.5854037 Z" id="Path" fill-rule="nonzero"></path>
                            <rect id="Rectangle-Copy" x="7.94152971" y="4" width="6.36363636" height="10" rx="1"></rect>
                        </g>
                    </g>
                </g>
            </g>
        </g>
    </g>
</svg>