<svg width="15" height="15" xmlns="http://www.w3.org/2000/svg"><g fill="#B9C3F8" fill-rule="evenodd"><path d="M1.313 10.585a.236.236 0 01-.236-.234V1.302c0-.13.106-.234.236-.234h12.374c.13 0 .236.105.236.234v1.982c.394.046.763.174 1.077.384V1.302A1.31 1.31 0 0013.687 0H1.313A1.31 1.31 0 000 1.302v9.049c0 .718.59 1.302 1.313 1.302H5.82v1.746h-.71a.804.804 0 00-.808.8c0 .443.361.801.807.801h2.267a2.386 2.386 0 01-.454-1.396v-3.019H1.313z" fill-rule="nonzero"/><rect x="7.942" y="4" width="6.364" height="10" rx="1"/></g></svg>