<svg width="23" height="23" viewBox="0 0 23 23" fill="none" xmlns="http://www.w3.org/2000/svg">
<path fill-rule="evenodd" clip-rule="evenodd" d="M1.93985 15.2381C1.93985 15.4276 2.09542 15.5819 2.28646 15.5819H10.5058V20.0064C10.5058 20.7696 10.7562 21.4726 11.1714 22.0516H7.84947C7.19619 22.0516 6.66614 21.5264 6.66614 20.8781C6.66614 20.2299 7.19619 19.7047 7.84947 19.7047H8.89098V17.1465H2.28646C1.22562 17.1465 0.362061 16.2905 0.362061 15.2381V1.9772C0.362061 0.924821 1.22562 0.0688477 2.28646 0.0688477H20.4204C21.4813 0.0688477 22.3448 0.92487 22.3448 1.9772V5.44493C21.8849 5.13662 21.3442 4.94907 20.7671 4.8815V1.9772C20.7671 1.7878 20.6116 1.63348 20.4205 1.63348H2.28646C2.09547 1.63348 1.93985 1.7878 1.93985 1.9772V15.2381ZM13.2936 5.93092C12.5795 5.93092 12.0005 6.50986 12.0005 7.22402V19.293C12.0005 20.0071 12.5795 20.5861 13.2936 20.5861H20.0334C20.7476 20.5861 21.3265 20.0071 21.3265 19.293V7.22402C21.3265 6.50986 20.7476 5.93092 20.0334 5.93092H13.2936Z" fill="#0FB989"/>
</svg>
