<svg width="12" height="23" viewBox="0 0 12 23" fill="none" xmlns="http://www.w3.org/2000/svg">
<path d="M9.3941 10.0547C8.56168 9.57798 7.67669 9.21476 6.80047 8.83793C6.29226 8.62 5.80595 8.36575 5.3766 8.01162C4.53104 7.31243 4.69315 6.17739 5.68328 5.72791C5.96367 5.60079 6.25721 5.55993 6.55513 5.54177C7.70298 5.47821 8.79388 5.69613 9.83221 6.21371C10.3492 6.4725 10.52 6.39078 10.6953 5.83234C10.8793 5.24212 11.0326 4.64281 11.2035 4.04805C11.3174 3.64852 11.1772 3.38519 10.8136 3.2172C10.1477 2.91301 9.4642 2.69508 8.74569 2.57704C7.80813 2.42721 7.80813 2.42267 7.80375 1.44654C7.79937 0.0708655 7.79937 0.0708655 6.4675 0.0708655C6.27473 0.0708655 6.08196 0.0663253 5.88919 0.0708655C5.26707 0.0890262 5.16193 0.20253 5.1444 0.851774C5.13564 1.14235 5.1444 1.43292 5.14002 1.72803C5.13564 2.59066 5.13126 2.57704 4.33389 2.87669C2.4062 3.60312 1.21453 4.96517 1.08748 7.14445C0.973566 9.07402 1.94618 10.377 3.47519 11.3259C4.41713 11.9116 5.45984 12.2567 6.45874 12.7152C6.84866 12.8923 7.22106 13.0966 7.54526 13.3781C8.50473 14.1999 8.32948 15.5665 7.19039 16.084C6.58141 16.361 5.93739 16.4291 5.27584 16.3428C4.25503 16.2112 3.27804 15.9342 2.358 15.4393C1.81912 15.1488 1.6614 15.2259 1.4774 15.8298C1.31968 16.3519 1.17948 16.8786 1.03928 17.4052C0.850894 18.1135 0.920992 18.2815 1.57378 18.6129C2.4062 19.0306 3.29556 19.244 4.20246 19.3938C4.9122 19.5119 4.93411 19.5436 4.94287 20.3064C4.94725 20.6514 4.94725 21.001 4.95163 21.3461C4.95601 21.7819 5.15754 22.0362 5.59128 22.0453C6.08196 22.0544 6.57703 22.0544 7.06772 22.0407C7.47078 22.0317 7.67669 21.8046 7.67669 21.3824C7.67669 20.9102 7.6986 20.4335 7.68108 19.9613C7.65917 19.4801 7.8607 19.2349 8.30758 19.1078C9.33714 18.8172 10.2134 18.2452 10.8881 17.3916C12.7632 15.0307 12.0491 11.5757 9.3941 10.0547Z" fill="#0FB989"/>
</svg>
