<svg width="14" height="14" xmlns="http://www.w3.org/2000/svg"><path d="M7 0C3.133 0 0 3.133 0 7s3.133 7 7 7 7-3.133 7-7-3.133-7-7-7zM2.67 4.542l.985-.142.438-.892a.218.218 0 01.392 0l.438.892.985.142a.22.22 0 01.121.372l-.717.694.17.986a.211.211 0 01-.311.223l-.88-.458-.884.46a.211.211 0 01-.31-.223l.169-.985-.717-.694a.221.221 0 01.121-.375zM7 11.968c-1.71 0-3.796-1.081-4.059-2.634a.453.453 0 01.584-.505c.853.274 2.12.43 3.475.43s2.622-.156 3.475-.43a.452.452 0 01.584.505C10.796 10.887 8.71 11.968 7 11.968zm4.451-7.054l-.717.694.17.986a.211.211 0 01-.31.223l-.884-.458-.884.46a.211.211 0 01-.31-.223l.17-.985-.718-.694a.22.22 0 01.122-.373l.985-.14.437-.893a.218.218 0 01.392 0l.438.892.985.141c.178.026.254.24.124.37z" fill="#FFF" fill-rule="nonzero" opacity=".8"/></svg>