<?xml version="1.0" encoding="UTF-8"?>
<svg width="84px" height="24px" viewBox="0 0 84 24" version="1.1" xmlns="http://www.w3.org/2000/svg" xmlns:xlink="http://www.w3.org/1999/xlink">
    <!-- Generator: Sketch 58 (84663) - https://sketch.com -->
    <title>Logo-KickBack</title>
    <desc>Created with Sketch.</desc>
    <g id="devices" stroke="none" stroke-width="1" fill="none" fill-rule="evenodd">
        <g id="new-device-want2" transform="translate(-392.000000, -481.000000)" fill-rule="nonzero">
            <g id="Logo-KickBack" transform="translate(392.000000, 481.000000)">
                <g id="Group" transform="translate(8.000000, 0.000000)" fill="#6E76FF">
                    <g id="SVGID_5_-link">
                        <path d="M1.01020408,13.8673469 C2.14285714,15 3.94897959,15 5.08163265,13.8673469 L14.0816327,4.98979592 C15.2142857,3.8877551 15.2142857,2.08163265 14.1122449,0.979591837 C14.1122449,0.979591837 14.1122449,0.979591837 14.1122449,0.979591837 C12.9795918,-0.153061224 11.1734694,-0.153061224 10.0408163,0.979591837 L1.04081633,9.85714286 C-0.0918367347,10.9285714 -0.12244898,12.7346939 1.01020408,13.8673469 C0.979591837,13.8367347 0.979591837,13.8673469 1.01020408,13.8673469 Z" id="SVGID_5_"></path>
                    </g>
                </g>
                <path d="M8.86990596,14.130094 C7.71003135,12.9702194 7.71003135,11.0893417 8.86990596,9.92946708 L17.9294671,0.869905956 C19.0893417,-0.289968652 20.9702194,-0.289968652 22.130094,0.869905956 C23.2899687,2.02978056 23.2899687,3.91065831 22.130094,5.07053292 L13.0705329,14.130094 C11.9106583,15.2899687 10.0297806,15.2899687 8.86990596,14.130094 Z" id="Shape" fill="#6E76FF"></path>
                <path d="M8.86990596,9.86990596 C7.71003135,11.0297806 7.71003135,12.9106583 8.86990596,14.0705329 L17.9294671,23.130094 C19.0893417,24.2899687 20.9702194,24.2899687 22.130094,23.130094 C23.2899687,21.9702194 23.2899687,20.0893417 22.130094,18.9294671 L13.0705329,9.86990596 C11.9106583,8.71003135 10.0297806,8.71003135 8.86990596,9.86990596 Z" id="Shape" fill="#6E76FF"></path>
                <g id="Group" fill="#6E76FF">
                    <path d="M5.88,3.04615385 C5.88,1.44615385 4.59,0.123076923 3.03,0.123076923 C1.47,0.123076923 0.18,1.44615385 0.18,3.04615385 L0.18,20.9538462 C0.18,22.5538462 1.47,23.8769231 3.03,23.8769231 C4.59,23.8769231 5.88,22.5538462 5.88,20.9538462 L5.88,17.8153846 C5.88,17.1692308 5.49,16.3076923 5.1,15.7846154 L5.13,15.8153846 C3.36,13.5384615 3.39,10.2769231 5.16,8 C5.52,7.53846154 5.88,6.95384615 5.88,6.30769231 L5.88,3.04615385 Z" id="Shape"></path>
                </g>
                <g id="Kickback" transform="translate(30.000000, 8.000000)" fill="#FFFFFF">
                    <path d="M0.217824704,0.207515699 L2.05913892,0.207515699 L2.05913892,3.92979788 L5.51692041,0.207515699 L7.93554437,0.207515699 L4.26506982,3.92979788 L8.12392966,9.24646782 L5.71745959,9.24646782 L2.95244978,5.29729199 L2.05913892,6.22326334 L2.05913892,9.24646782 L0.217824704,9.24646782 L0.217824704,0.207515699 Z M10.8160161,1.76510989 L9.05977913,1.76510989 L9.05977913,0.152325353 L10.8160161,0.152325353 L10.8160161,1.76510989 Z M9.05977913,2.56230377 L10.8160161,2.56230377 L10.8160161,9.24646782 L9.05977913,9.24646782 L9.05977913,2.56230377 Z M16.4493438,4.96001766 C16.4169333,4.71063782 16.3338825,4.48579051 16.2001891,4.285469 C16.0057268,4.01564818 15.7039073,3.8807398 15.2947243,3.8807398 C14.7113347,3.8807398 14.312286,4.17304129 14.0975662,4.75765306 C13.9841294,5.06835582 13.9274118,5.48125724 13.9274118,5.9963697 C13.9274118,6.486953 13.9841294,6.88145782 14.0975662,7.179896 C14.3041834,7.7358904 14.6931039,8.01388344 15.2643396,8.01388344 C15.6694713,8.01388344 15.9571104,7.90350385 16.1272657,7.68274137 C16.297421,7.46197888 16.4007281,7.17580958 16.4371899,6.82422488 L18.2055808,6.82422488 C18.1650676,7.35569012 17.9746586,7.85853047 17.634348,8.33276099 C17.0914716,9.0972533 16.2872973,9.47949372 15.221801,9.47949372 C14.1563047,9.47949372 13.3723867,9.16061936 12.8700234,8.52286107 C12.3676601,7.88510278 12.1164823,7.05725587 12.1164823,6.03929553 C12.1164823,4.89051296 12.3939933,3.99725594 12.9490237,3.35949765 C13.5040541,2.72173935 14.2697414,2.40286499 15.2461088,2.40286499 C16.0766287,2.40286499 16.7562268,2.5909191 17.2849237,2.96703297 C17.8136205,3.34314683 18.12658,4.00746842 18.2238116,4.96001766 L16.4493438,4.96001766 Z M19.3966619,0.238177002 L21.0982064,0.238177002 L21.0982064,5.10719192 L23.2555218,2.59296507 L25.4006832,2.59296507 L23.0853673,5.15011774 L25.4918374,9.24646782 L23.4013684,9.24646782 L21.8152859,6.38883438 L21.0982064,7.14310243 L21.0982064,9.24646782 L19.3966619,9.24646782 L19.3966619,0.238177002 Z M29.9158531,2.41512951 C30.7868862,2.41512951 31.46851,2.73195981 31.9607449,3.36562991 C32.4529799,3.9993 32.6990937,4.81692657 32.6990937,5.81853414 C32.6990937,6.85693546 32.4560184,7.71748743 31.9698604,8.40021586 C31.4837024,9.08294428 30.805117,9.42430338 29.9340839,9.42430338 C29.3871589,9.42430338 28.9475949,9.31392379 28.6153869,9.0931613 C28.4168724,8.96233909 28.2021558,8.73340365 27.9712308,8.40634812 L27.9712308,9.24646782 L26.2757632,9.24646782 L26.2757632,0.21978022 L28.0016155,0.21978022 L28.0016155,3.43308477 C28.2203866,3.12238202 28.4614363,2.88527031 28.7247719,2.72174254 C29.0367233,2.51733283 29.4337464,2.41512951 29.9158531,2.41512951 Z M29.4722361,7.98322214 C29.9178809,7.98322214 30.2642633,7.80130022 30.5113936,7.43745094 C30.758524,7.07360166 30.8820873,6.59529012 30.8820873,6.00250196 C30.8820873,5.52827144 30.8213184,5.13581068 30.6997789,4.82510793 C30.4688539,4.23640797 30.043472,3.9420624 29.4236206,3.9420624 C28.7956665,3.9420624 28.3642077,4.23027577 28.1292314,4.80671115 C28.0076919,5.11332571 27.946923,5.5098746 27.946923,5.9963697 C27.946923,6.56871689 28.0725119,7.0429403 28.3236936,7.41905416 C28.5748752,7.79516802 28.9577189,7.98322214 29.4722361,7.98322214 Z M37.5910341,5.9963697 C37.4816486,6.065869 37.3712519,6.12208083 37.2598406,6.16500687 C37.1484294,6.20793291 36.9954945,6.2477922 36.8010313,6.28458595 L36.4121069,6.35817308 C36.0474884,6.42358418 35.7861824,6.50330277 35.628181,6.59733124 C35.3607941,6.75677081 35.2271027,7.00410285 35.2271027,7.33933477 C35.2271027,7.63777295 35.3091406,7.85342195 35.4732189,7.98628827 C35.6372973,8.11915458 35.8368216,8.18558673 36.071798,8.18558673 C36.4445191,8.18558673 36.787863,8.07520715 37.1018401,7.85444466 C37.4158171,7.63368218 37.5788802,7.23100109 37.5910341,6.64638932 L37.5910341,5.9963697 Z M36.5397227,5.18077904 C36.8597767,5.1398971 37.0886727,5.08879544 37.2264175,5.02747253 C37.4735478,4.92117948 37.5971111,4.7556101 37.5971111,4.53075942 C37.5971111,4.25685041 37.5029194,4.06777427 37.3145332,3.96352531 C37.1261469,3.85927636 36.8496487,3.80715267 36.4850302,3.80715267 C36.0758472,3.80715267 35.7861824,3.90935599 35.6160271,4.1137657 C35.4944876,4.26502888 35.4134625,4.46943553 35.3729493,4.72699176 L33.7017896,4.72699176 C33.7382514,4.14237999 33.9003017,3.66202438 34.1879451,3.28591052 C34.6457439,2.69721056 35.4316876,2.40286499 36.5457997,2.40286499 C37.2709853,2.40286499 37.915135,2.54799371 38.478268,2.83825549 C39.0414011,3.12851728 39.3229633,3.67632708 39.3229633,4.48170133 L39.3229633,7.54783163 C39.3229633,7.76041773 39.3270146,8.0179701 39.3351172,8.32049647 C39.3472712,8.54943534 39.3817069,8.70478439 39.4384253,8.78654827 C39.4951437,8.86831216 39.5802201,8.93576635 39.693657,8.98891287 L39.693657,9.24646782 L37.8098041,9.24646782 C37.757137,9.11155741 37.7206757,8.98482529 37.7004191,8.86626766 C37.6801626,8.74771003 37.6639575,8.61280165 37.6518036,8.46153846 C37.4127759,8.72318289 37.1372905,8.94598613 36.8253391,9.12995487 C36.452618,9.34662916 36.0312874,9.45496468 35.5613346,9.45496468 C34.9617398,9.45496468 34.4664737,9.28224107 34.0755217,8.93678866 C33.6845696,8.59133625 33.4890965,8.10178234 33.4890965,7.46811224 C33.4890965,6.64638522 33.8030688,6.05156189 34.4310229,5.68362441 C34.7753848,5.4833029 35.2817918,5.34021825 35.9502591,5.25436617 L36.5397227,5.18077904 Z M44.8165213,4.96001766 C44.7841108,4.71063782 44.70106,4.48579051 44.5673666,4.285469 C44.3729043,4.01564818 44.0710848,3.8807398 43.6619018,3.8807398 C43.0785122,3.8807398 42.6794635,4.17304129 42.4647437,4.75765306 C42.3513069,5.06835582 42.2945893,5.48125724 42.2945893,5.9963697 C42.2945893,6.486953 42.3513069,6.88145782 42.4647437,7.179896 C42.6713609,7.7358904 43.0602814,8.01388344 43.6315171,8.01388344 C44.0366488,8.01388344 44.3242879,7.90350385 44.4944432,7.68274137 C44.6645985,7.46197888 44.7679055,7.17580958 44.8043674,6.82422488 L46.5727583,6.82422488 C46.5322451,7.35569012 46.3418361,7.85853047 46.0015255,8.33276099 C45.4586491,9.0972533 44.6544748,9.47949372 43.5889785,9.47949372 C42.5234822,9.47949372 41.7395642,9.16061936 41.2372009,8.52286107 C40.7348376,7.88510278 40.4836598,7.05725587 40.4836598,6.03929553 C40.4836598,4.89051296 40.7611708,3.99725594 41.3162012,3.35949765 C41.8712316,2.72173935 42.6369189,2.40286499 43.6132863,2.40286499 C44.4438062,2.40286499 45.1234043,2.5909191 45.6521012,2.96703297 C46.180798,3.34314683 46.4937575,4.00746842 46.5909891,4.96001766 L44.8165213,4.96001766 Z M47.7638394,0.238177002 L49.4653839,0.238177002 L49.4653839,5.10719192 L51.6226993,2.59296507 L53.7678607,2.59296507 L51.4525448,5.15011774 L53.8590149,9.24646782 L51.7685459,9.24646782 L50.1824634,6.38883438 L49.4653839,7.14310243 L49.4653839,9.24646782 L47.7638394,9.24646782 L47.7638394,0.238177002 Z"></path>
                </g>
            </g>
        </g>
    </g>
</svg>