<svg width="23" height="24" fill="none" xmlns="http://www.w3.org/2000/svg"><path d="M9.01 13.867a2.864 2.864 0 004.072 0l9-8.877a2.818 2.818 0 00.03-4.01 2.864 2.864 0 00-4.071 0l-9 8.877c-1.133 1.072-1.163 2.878-.03 4.01-.031-.03-.031 0 0 0z" fill="#6E76FF"/><path d="M8.87 14.13a2.97 2.97 0 010-4.2L17.93.87a2.97 2.97 0 014.2 4.2l-9.06 9.06a2.97 2.97 0 01-4.2 0z" fill="#6E76FF"/><path d="M8.87 9.87a2.97 2.97 0 000 4.2l9.06 9.06a2.97 2.97 0 004.2-4.2l-9.06-9.06a2.97 2.97 0 00-4.2 0zM5.88 3.046c0-1.6-1.29-2.923-2.85-2.923S.18 1.446.18 3.046v17.908c0 1.6 1.29 2.923 2.85 2.923s2.85-1.323 2.85-2.923v-3.139c0-.646-.39-1.507-.78-2.03l.03.03C3.36 13.538 3.39 10.277 5.16 8c.36-.462.72-1.046.72-1.692V3.046z" fill="#6E76FF"/></svg>