<svg width="23" height="24" viewBox="0 0 23 24" fill="none" xmlns="http://www.w3.org/2000/svg">
<g id="Logo-KickBack">
<g id="Group">
<g id="SVGID_5_-link">
<path id="SVGID_5_" d="M9.01021 13.8674C10.1429 15 11.949 15 13.0816 13.8674L22.0816 4.98982C23.2143 3.88778 23.2143 2.08166 22.1123 0.979617V0.979617C20.9796 -0.153036 19.1735 -0.153036 18.0408 0.979617L9.04082 9.85717C7.90817 10.9286 7.87756 12.7347 9.01021 13.8674C8.9796 13.8368 8.9796 13.8674 9.01021 13.8674Z" fill="#6E76FF"/>
</g>
</g>
<path id="Shape" d="M8.86991 14.1301C7.71003 12.9702 7.71003 11.0893 8.86991 9.92947L17.9295 0.869906C19.0893 -0.289969 20.9702 -0.289969 22.1301 0.869906C23.29 2.02978 23.29 3.91066 22.1301 5.07053L13.0705 14.1301C11.9107 15.29 10.0298 15.29 8.86991 14.1301Z" fill="#6E76FF"/>
<path id="Shape_2" d="M8.86991 9.86991C7.71003 11.0298 7.71003 12.9107 8.86991 14.0705L17.9295 23.1301C19.0893 24.29 20.9702 24.29 22.1301 23.1301C23.29 21.9702 23.29 20.0893 22.1301 18.9295L13.0705 9.86991C11.9107 8.71003 10.0298 8.71003 8.86991 9.86991Z" fill="#6E76FF"/>
<g id="Group_2">
<path id="Shape_3" d="M5.87999 3.04612C5.87999 1.44612 4.58999 0.123047 3.02999 0.123047C1.46999 0.123047 0.179993 1.44612 0.179993 3.04612V20.9538C0.179993 22.5538 1.46999 23.8769 3.02999 23.8769C4.58999 23.8769 5.87999 22.5538 5.87999 20.9538V17.8154C5.87999 17.1692 5.48999 16.3077 5.09999 15.7846L5.12999 15.8154C3.35999 13.5384 3.38999 10.2769 5.15999 7.99997C5.51999 7.53843 5.87999 6.95382 5.87999 6.30766V3.04612Z" fill="#6E76FF"/>
</g>
</g>
</svg>
