<?xml version="1.0" encoding="UTF-8"?>
<svg width="11px" height="12px" viewBox="0 0 11 12" version="1.1" xmlns="http://www.w3.org/2000/svg" xmlns:xlink="http://www.w3.org/1999/xlink">
    <!-- Generator: Sketch 56.2 (81672) - https://sketch.com -->
    <title>śnieżynka copy</title>
    <desc>Created with Sketch.</desc>
    <g id="web" stroke="none" stroke-width="1" fill="none" fill-rule="evenodd">
        <g id="NATURE" transform="translate(-481.000000, -436.000000)" fill="#FFFFFF" fill-rule="nonzero">
            <g id="Group-6" transform="translate(472.000000, 435.000000)">
                <g id="Group-3" transform="translate(9.000000, 0.000000)">
                    <path d="M10.810861,9.090625 L9.98101999,8.63359375 L10.6193592,8.46953125 C10.8206816,8.41796875 10.940984,8.21875 10.8869707,8.0265625 L10.7887646,7.67734375 C10.7347513,7.48515625 10.5260635,7.3703125 10.3247411,7.421875 L8.58649431,7.8671875 L7.01765292,7 L8.58403916,6.13515625 L10.322286,6.58046875 C10.5236083,6.63203125 10.7322962,6.5171875 10.7863095,6.325 L10.8845155,5.97578125 C10.9385288,5.78359375 10.8182264,5.584375 10.6169041,5.5328125 L9.97856484,5.36875 L10.8084058,4.91171875 C10.990087,4.8109375 11.0514658,4.590625 10.9483494,4.4171875 L10.567801,3.7890625 C10.4622296,3.615625 10.2314454,3.55703125 10.0497642,3.65546875 L9.21992323,4.1125 L9.39178379,3.503125 C9.44579711,3.3109375 9.32549472,3.11171875 9.12417235,3.06015625 L8.75835487,2.96640625 C8.5570325,2.91484375 8.34834468,3.0296875 8.29433136,3.221875 L7.8278527,4.88125 L6.28601796,5.7296875 L6.28601796,3.91328125 L7.60443397,2.6546875 C7.75665332,2.509375 7.75665332,2.2703125 7.60443397,2.125 L7.32700192,1.86015625 C7.17478257,1.71484375 6.92435719,1.71484375 6.77213783,1.86015625 L6.28601796,2.321875 L6.28601796,1.375 C6.28601796,1.16875 6.1092471,1 5.89319383,1 L5.10754556,1 C4.89149228,1 4.71472142,1.16875 4.71472142,1.375 L4.71472142,2.321875 L4.2310567,1.86015625 C4.07883735,1.71484375 3.82841197,1.71484375 3.67619261,1.86015625 L3.39630542,2.125 C3.24163091,2.2703125 3.24163091,2.509375 3.39630542,2.6546875 L4.71472142,3.91328125 L4.71472142,5.7296875 L3.17288669,4.88125 L2.70640803,3.221875 C2.65239471,3.0296875 2.44370689,2.91484375 2.24238452,2.96640625 L1.87656704,3.06015625 C1.67524467,3.11171875 1.55494228,3.3109375 1.6089556,3.503125 L1.78081616,4.1125 L0.950975171,3.65546875 C0.769294008,3.5546875 0.538509828,3.615625 0.432938342,3.7890625 L0.0523899604,4.41484375 C-0.0531815261,4.58828125 0.0106523959,4.80859375 0.192333559,4.909375 L1.02217455,5.36640625 L0.383835325,5.53046875 C0.180057804,5.58203125 0.0597554129,5.78125 0.113768732,5.97578125 L0.211974766,6.325 C0.265988084,6.5171875 0.474675906,6.63203125 0.675998276,6.58046875 L2.41424508,6.13515625 L3.98063132,7 L2.41424508,7.86484375 L0.675998276,7.41953125 C0.474675906,7.36796875 0.265988084,7.4828125 0.211974766,7.675 L0.113768732,8.02421875 C0.0597554129,8.21640625 0.180057804,8.415625 0.381380174,8.4671875 L1.01971939,8.63125 L0.189878408,9.090625 C0.00819724508,9.19140625 -0.0531815261,9.41171875 0.0499348095,9.58515625 L0.430483191,10.2132812 C0.536054678,10.3867187 0.766838857,10.4453125 0.94852002,10.346875 L1.77836101,9.88984375 L1.60650045,10.4992187 C1.55248713,10.6914062 1.67278952,10.890625 1.87411189,10.9421875 L2.23992937,11.0359375 C2.44125174,11.0875 2.64993956,10.9726562 2.70395288,10.7804687 L3.17043154,9.12109375 L4.71226627,8.27265625 L4.71226627,10.0890625 L3.39385027,11.3476562 C3.23917576,11.4929687 3.23917576,11.7320312 3.39385027,11.8773437 L3.67128231,12.1421875 C3.82350166,12.2875 4.07392705,12.2875 4.2261464,12.1421875 L4.70981112,11.6804687 L4.70981112,12.625 C4.70981112,12.83125 4.88658198,13 5.10263526,13 L5.88828353,13 C6.1043368,13 6.28110766,12.83125 6.28110766,12.625 L6.28110766,11.678125 L6.76477238,12.1398438 C6.91699173,12.2851562 7.16741712,12.2851562 7.31963647,12.1398438 L7.59706852,11.875 C7.74928787,11.7296875 7.74928787,11.490625 7.59706852,11.3453125 L6.28601796,10.0867187 L6.28601796,8.2703125 L7.8278527,9.11875 L8.29433136,10.778125 C8.34834468,10.9703125 8.5570325,11.0851563 8.75835487,11.0335937 L9.12417235,10.9398437 C9.32549472,10.8882812 9.44579711,10.6890625 9.39178379,10.496875 L9.21992323,9.8875 L10.0497642,10.3445312 C10.2314454,10.4453125 10.4622296,10.384375 10.567801,10.2109375 L10.9483494,9.5828125 C11.0539209,9.41171875 10.9925421,9.1890625 10.810861,9.090625 Z" id="śnieżynka-copy"></path>
                </g>
            </g>
        </g>
    </g>
</svg>