<svg xmlns="http://www.w3.org/2000/svg" width="81" height="81" viewBox="0 0 81 81">
  <path fill="#FFF" d="M19.0700759,41.9520271 L22.8873011,41.9520271 L22.8873011,45.7692522 L26.7018513,45.7692522 L26.7018513,49.5838024 L7.63177537,49.5838024 L7.63177537,45.7692522 L11.4463256,45.7692522 L11.4463256,38.1374769 L19.0781009,38.1374769 L19.0781009,41.9520271 L19.0700759,41.9520271 Z M68.6512034,76.2722787 L72.4604036,76.2722787 L72.4604036,72.4577286 L68.6512034,72.4577286 L68.6512034,76.2722787 Z M22.8846261,41.9520271 L26.6991763,41.9520271 L26.6991763,38.1374769 L22.8846261,38.1374769 L22.8846261,41.9520271 Z M76.2696037,76.2722787 L80.0868289,76.2722787 L80.0868289,72.4577286 L76.2696037,72.4577286 L76.2696037,76.2722787 Z M30.5164015,80.0841539 L38.1401519,80.0841539 L38.1401519,76.2696037 L30.5164015,76.2696037 L30.5164015,80.0841539 Z M64.8339782,80.0841539 L64.8339782,76.2696037 L61.016753,76.2696037 L61.016753,80.0841539 L64.8339782,80.0841539 Z M49.5811274,80.0841539 L53.3956776,80.0841539 L53.3956776,72.4550536 L49.5811274,72.4550536 L49.5811274,80.0841539 Z M19.0700759,30.5110515 L19.0700759,34.3256017 L30.5110515,34.3256017 L30.5110515,30.5110515 L19.0700759,30.5110515 Z M15.2608757,34.3229267 L15.2608757,30.5083765 L7.62910037,30.5083765 L7.62910037,38.1374769 L11.4436506,38.1374769 L11.4436506,34.3229267 L15.2608757,34.3229267 Z M26.6991763,26.6938263 L0.00535000026,26.6938263 L0.00535000026,0.00267500013 L26.6991763,0.00267500013 L26.6991763,26.6938263 Z M22.8846261,3.81722519 L3.81455019,3.81722519 L3.81455019,22.8819511 L22.8846261,22.8819511 L22.8846261,3.81722519 Z M7.62910037,72.4577286 L19.0674009,72.4577286 L19.0674009,61.016753 L7.62910037,61.016753 L7.62910037,72.4577286 Z M45.7639022,68.6405034 L45.7639022,72.4577286 L49.5838024,72.4577286 L49.5838024,68.6405034 L45.7639022,68.6405034 Z M19.0700759,7.63177537 L7.63177537,7.63177537 L7.63177537,19.0674009 L19.0700759,19.0674009 L19.0700759,7.63177537 Z M80.0841539,0.00267500013 L80.0841539,26.6965013 L53.3903276,26.6965013 L53.3903276,0.00267500013 L80.0841539,0.00267500013 Z M76.2696037,3.81722519 L57.2048778,3.81722519 L57.2048778,22.8819511 L76.2696037,22.8819511 L76.2696037,3.81722519 Z M0,53.3849776 L26.6965013,53.3849776 L26.6965013,80.0788039 L0,80.0788039 L0,53.3849776 Z M3.81722519,76.2722787 L22.8873011,76.2722787 L22.8873011,57.2022028 L3.81722519,57.2022028 L3.81722519,76.2722787 Z M3.81722519,30.5110515 L0,30.5110515 L0,49.5811274 L3.81722519,49.5811274 L3.81722519,30.5110515 Z M53.3903276,49.5757774 L53.3903276,53.3849776 L57.2048778,53.3849776 L57.2048778,49.5757774 L53.3903276,49.5757774 Z M41.9493521,64.8313032 L41.9493521,61.016753 L38.1374769,61.016753 L38.1374769,64.8339782 L30.5137265,64.8339782 L30.5137265,72.4657536 L38.1374769,72.4657536 L38.1374769,76.2803037 L41.9493521,76.2803037 L41.9493521,68.6485284 L45.7665772,68.6485284 L45.7665772,64.8339782 L41.9493521,64.8339782 L41.9493521,64.8313032 Z M30.5164015,15.2582007 L38.1401519,15.2582007 L38.1401519,11.4383006 L30.5164015,11.4383006 L30.5164015,15.2582007 Z M61.019428,45.7665772 L68.6538784,45.7665772 L68.6538784,49.5811274 L72.4657536,49.5811274 L72.4657536,38.1428269 L68.6538784,38.1428269 L68.6538784,30.5110515 L64.8339782,30.5110515 L64.8339782,41.9520271 L53.4010276,41.9520271 L53.4010276,45.7692522 L57.2155778,45.7692522 L57.2155778,49.5838024 L61.030128,49.5838024 L61.030128,45.7692522 L61.019428,45.7692522 L61.019428,45.7665772 Z M64.8339782,57.2022028 L61.016753,57.2022028 L61.016753,53.3849776 L57.2022028,53.3849776 L57.2022028,61.016753 L45.7639022,61.016753 L45.7639022,64.8339782 L53.3983526,64.8339782 L53.3983526,72.4657536 L57.2129028,72.4657536 L57.2129028,76.2803037 L61.027453,76.2803037 L61.027453,68.6485284 L76.2776287,68.6485284 L76.2776287,64.8339782 L64.8393282,64.8339782 L64.8393282,57.2022028 L64.8339782,57.2022028 Z M64.8339782,57.2022028 L68.6538784,57.2022028 L68.6538784,49.5757774 L64.8339782,49.5757774 L64.8339782,57.2022028 Z M34.3256017,57.2022028 L34.3256017,53.3849776 L38.1348019,53.3849776 L38.1348019,49.5757774 L41.9466771,49.5757774 L41.9466771,45.7612272 L45.7639022,45.7612272 L45.7639022,38.1294519 L57.2022028,38.1294519 L57.2022028,30.4976765 L53.3876526,30.4976765 L53.3876526,34.3122267 L49.5731024,34.3122267 L49.5731024,19.0593759 L45.7585522,19.0593759 L45.7585522,11.4276006 L49.5731024,11.4276006 L49.5731024,0 L45.7585522,0 L45.7585522,7.62910037 L41.9440021,7.62910037 L41.9440021,0 L30.5057015,0 L30.5057015,7.62910037 L34.3202517,7.62910037 L34.3202517,3.81455019 L38.1294519,3.81455019 L38.1294519,11.4383006 L41.9440021,11.4383006 L41.9440021,22.8792761 L45.7585522,22.8792761 L45.7585522,26.6938263 L41.9440021,26.6938263 L41.9440021,34.3229267 L38.1294519,34.3229267 L38.1294519,26.6938263 L34.3202517,26.6938263 L34.3202517,22.8819511 L30.5057015,22.8819511 L30.5057015,30.5110515 L34.3202517,30.5110515 L34.3202517,34.3256017 L30.5057015,34.3256017 L30.5057015,45.7692522 L34.3202517,45.7692522 L34.3202517,38.1374769 L38.1294519,38.1374769 L38.1294519,45.7692522 L34.3202517,45.7692522 L34.3202517,49.5838024 L30.5057015,49.5838024 L30.5057015,61.016753 L38.1294519,61.016753 L38.1294519,57.2022028 L34.3256017,57.2022028 Z M76.2696037,61.016753 L76.2696037,57.2022028 L68.6458534,57.2022028 L68.6458534,61.016753 L76.2696037,61.016753 Z M72.4550536,7.63177537 L61.019428,7.63177537 L61.019428,19.0674009 L72.4550536,19.0674009 L72.4550536,7.63177537 Z M41.9493521,57.2022028 L49.5838024,57.2022028 L49.5838024,53.3849776 L45.7639022,53.3849776 L45.7639022,49.5757774 L41.9466771,49.5757774 L41.9466771,57.2022028 L41.9493521,57.2022028 Z M49.5811274,49.5757774 L49.5811274,45.7612272 L45.7612272,45.7612272 L45.7612272,49.5757774 L49.5811274,49.5757774 Z M72.4550536,34.3229267 L80.0868289,34.3229267 L80.0868289,30.5083765 L72.4550536,30.5083765 L72.4550536,34.3229267 Z M76.2696037,64.8313032 L80.0868289,64.8313032 L80.0868289,61.016753 L76.2696037,61.016753 L76.2696037,64.8313032 Z M76.2696037,41.9520271 L80.0868289,41.9520271 L80.0868289,38.1374769 L76.2696037,38.1374769 L76.2696037,41.9520271 Z M41.9493521,22.8819511 L38.1374769,22.8819511 L38.1374769,26.6965013 L41.9493521,26.6965013 L41.9493521,22.8819511 Z" transform="translate(.875 .25)"/>
</svg>
