<?xml version="1.0" encoding="UTF-8"?>
<svg width="15px" height="15px" viewBox="0 0 15 15" version="1.1" xmlns="http://www.w3.org/2000/svg" xmlns:xlink="http://www.w3.org/1999/xlink">
    <!-- Generator: Sketch 56.2 (81672) - https://sketch.com -->
    <title>close-5</title>
    <desc>Created with Sketch.</desc>
    <g id="web" stroke="none" stroke-width="1" fill="none" fill-rule="evenodd">
        <g id="16.-web" transform="translate(-1055.000000, -245.000000)" fill="#000000" fill-rule="nonzero">
            <g id="send" transform="translate(335.000000, 219.000000)">
                <g id="close-5" transform="translate(720.000000, 26.000000)">
                    <path d="M14.793655,0.177134503 C14.5574854,-0.0590350877 14.1745906,-0.0590350877 13.9384211,0.177134503 L0.177134503,13.9383918 C-0.0590350877,14.1745614 -0.0590350877,14.5574561 0.177134503,14.7936257 C0.295204678,14.9117544 0.45,14.9707602 0.604766082,14.9707602 C0.759532164,14.9707602 0.914298246,14.9117251 1.03239766,14.7935965 L14.793655,1.03233918 C15.0297953,0.79619883 15.0297953,0.413304094 14.793655,0.177134503 Z" id="Path"></path>
                    <path d="M14.7936257,13.9384211 L1.03233918,0.177163743 C0.79619883,-0.059005848 0.413274854,-0.059005848 0.177134503,0.177163743 C-0.0590350877,0.413304094 -0.0590350877,0.79619883 0.177134503,1.03236842 L13.9384211,14.793655 C14.0564912,14.9117544 14.2112865,14.9707895 14.3660526,14.9707895 C14.5208187,14.9707895 14.675614,14.9117544 14.793655,14.7936842 C15.0297661,14.5574854 15.0297661,14.1745906 14.7936257,13.9384211 Z" id="Path"></path>
                </g>
            </g>
        </g>
    </g>
</svg>