<svg xmlns="http://www.w3.org/2000/svg" width="194" height="125" viewBox="0 0 194 125">
  <g fill="#C2C2D3">
    <g transform="translate(58.806)">
      <path d="M89.6510862,124.97369 L45.1693157,124.97369 C43.8046037,124.97369 42.5371503,124.358612 41.6932218,123.28538 C40.8477294,122.212136 40.5465502,120.834494 40.8681185,119.507066 L45.131666,101.829955 L89.6903061,101.829955 L93.9538474,119.507066 C94.2754215,120.834494 93.9742489,122.212136 93.1287565,123.28538 C92.2848221,124.358612 91.0173688,124.97369 89.6510862,124.97369 Z M47.6603041,105.043406 L43.9897055,120.260218 C43.8704876,120.759174 44.080683,121.123197 44.2171553,121.298932 C44.3520575,121.471537 44.6579474,121.76024 45.1693157,121.76024 L89.6510862,121.76024 C90.1640371,121.76024 90.4699211,121.471537 90.6048168,121.295803 C90.7412953,121.123197 90.9514907,120.759174 90.8322728,120.260218 L87.1616677,105.043406 L47.6603041,105.043406 Z"/>
      <path d="M46.3959912 105.043406L32.9229861 105.043406C32.0351394 105.043406 31.3167038 104.324772 31.3167038 103.436675 31.3167038 102.548589 32.0351394 101.829956 32.9229861 101.829956L46.3959912 101.829956C47.2838317 101.829956 48.0022673 102.548589 48.0022673 103.436675 48.0022673 104.324772 47.283832 105.043406 46.3959912 105.043406zM128.270878 105.043406L88.4259809 105.043406C87.5381404 105.043406 86.8197048 104.324772 86.8197048 103.436675 86.8197048 102.548589 87.5381404 101.829956 88.4259809 101.829956L128.270878 101.829956C129.787747 101.829956 131.020691 100.596672 131.020691 99.077814L131.020691 89.8328638 32.9872998 89.8328638C32.0994532 89.8328638 31.3810176 89.1142301 31.3810176 88.226145 31.3810176 87.3380474 32.0994532 86.6194137 32.9872998 86.6194137L134.233256 86.6194137 134.233256 99.077814C134.233256 102.366572 131.55873 105.043406 128.270878 105.043406z"/>
      <path d="M132.626968,89.8328638 C131.739127,89.8328638 131.020691,89.1142301 131.020691,88.226145 L131.020691,6.3145683 C131.020691,4.7988488 129.787747,3.56556175 128.270878,3.56556175 L6.5511001,3.56556175 C5.03423143,3.56556175 3.80128685,4.79884913 3.80128685,6.3145683 L3.80128685,26.8097195 C3.80128685,27.6978109 3.08285122,28.4164445 2.19500459,28.4164445 C1.30715796,28.4164445 0.588722326,27.6978109 0.588722326,26.8097195 L0.588722326,6.3145683 C0.588722326,3.02580424 3.26324234,0.352114617 6.5511001,0.352114617 L128.270872,0.352114617 C131.558724,0.352114617 134.23325,3.02580424 134.23325,6.3145683 L134.23325,88.2261483 C134.233256,89.1142301 133.51482,89.8328638 132.626968,89.8328638 Z"/>
    </g>
    <g transform="translate(0 59.395)">
      <path d="M34.7015275,65.5785024 L6.01747422,65.5785024 C2.85667553,65.5785024 0.285683265,63.0052368 0.285683265,59.8451292 L0.285683265,6.20500973 C0.285683265,3.04490836 2.85667553,0.471636523 6.01747422,0.471636523 L34.7015282,0.471636523 C37.8623259,0.471636523 40.4333185,3.04490836 40.4333185,6.20500973 L40.4333185,59.8451292 C40.4333178,63.0052368 37.8623252,65.5785024 34.7015275,65.5785024 Z M6.01747422,3.68508627 C4.62766397,3.68508627 3.49824681,4.81481442 3.49824681,6.2050094 L3.49824681,59.8451289 C3.49824681,61.2353239 4.62766364,62.365052 6.01747422,62.365052 L34.7015282,62.365052 C36.0913371,62.365052 37.2207539,61.2353239 37.2207539,59.8451289 L37.2207539,6.2050094 C37.2207539,4.81481442 36.0913371,3.68508627 34.7015282,3.68508627 L6.01747422,3.68508627 Z"/>
      <path d="M38.5603688 12.2992705L2.46608539 12.2992705C1.57823811 12.2992705.859803783 11.5806368.859803783 10.6925392.859803783 9.80445409 1.57823843 9.08581421 2.46608539 9.08581421L38.5603675 9.08581421C39.4482141 9.08581421 40.1666498 9.80445409 40.1666498 10.6925392 40.1666507 11.5806368 39.4482154 12.2992705 38.5603688 12.2992705zM38.5603688 52.8313999L2.46608539 52.8313999C1.57823811 52.8313999.859803783 52.1127662.859803783 51.224681.859803783 50.3365835 1.57823843 49.6179498 2.46608539 49.6179498L38.5603675 49.6179498C39.4482141 49.6179498 40.1666498 50.3365835 40.1666498 51.224681 40.1666507 52.1127662 39.4482154 52.8313999 38.5603688 52.8313999zM23.0920623 7.99374616L18.9665526 7.99374616C18.078706 7.99374616 17.3602704 7.27511249 17.3602704 6.38702113 17.3602704 5.49892976 18.078706 4.78029609 18.9665526 4.78029609L23.0920623 4.78029609C23.9799089 4.78029609 24.6983429 5.49892976 24.6983429 6.38702113 24.6983429 7.27511249 23.9799089 7.99374616 23.0920623 7.99374616z"/>
    </g>
    <g transform="translate(29.403 32.68)">
      <path d="M48.6335014,92.2945452 L17.1117882,92.2945452 C16.2239415,92.2945452 15.5055059,91.5759115 15.5055059,90.6878264 C15.5055059,89.7997288 16.2239415,89.0810951 17.1117882,89.0810951 L48.6335014,89.0810951 C51.0037079,89.0810951 52.9315581,87.1511426 52.9315581,84.7818475 L52.9315581,8.01681774 C52.9315581,5.64752879 51.0037079,3.7175763 48.6335014,3.7175763 L7.58233304,3.7175763 C5.21369373,3.7175763 3.28584354,5.64752879 3.28584354,8.01681774 L3.28584354,22.0160348 C3.28584354,22.9041261 2.56740791,23.6227598 1.67956127,23.6227598 C0.79171464,23.6227598 0.0732790104,22.9041261 0.0732790104,22.0160348 L0.0732790104,8.01681774 C0.0732790104,3.87448097 3.44113778,0.504126232 7.58233304,0.504126232 L48.6335014,0.504126232 C52.7746967,0.504126232 56.1441226,3.87448097 56.1441226,8.01681774 L56.1441226,84.7818475 C56.1441226,88.9241843 52.774697,92.2945452 48.6335014,92.2945452 Z"/>
      <path d="M54.1550934 14.622594L2.49995681 14.622594C1.61211018 14.622594.89367455 13.9039604.89367455 13.015869.89367455 12.1277776 1.61211018 11.409144 2.49995681 11.409144L54.1550934 11.409144C55.04294 11.409144 55.7613756 12.1277776 55.7613756 13.015869 55.7613756 13.9039604 55.04294 14.622594 54.1550934 14.622594zM54.1550934 76.8486558L17.3172791 76.8486558C16.4294325 76.8486558 15.7109968 76.1300221 15.7109968 75.2419245 15.7109968 74.3538394 16.4294325 73.6352057 17.3172791 73.6352057L54.1550934 73.6352057C55.04294 73.6352057 55.7613756 74.3538394 55.7613756 75.2419245 55.7613756 76.1300221 55.04294 76.8486558 54.1550934 76.8486558zM32.0169565 9.89028629L26.1141815 9.89028629C25.2263349 9.89028629 24.5078992 9.17165263 24.5078992 8.28356126 24.5078992 7.39546989 25.2263349 6.67683622 26.1141815 6.67683622L32.0169565 6.67683622C32.9048032 6.67683622 33.6232388 7.39546989 33.6232388 8.28356126 33.6232388 9.17165263 32.9048032 9.89028629 32.0169565 9.89028629z"/>
    </g>
    <path d="M131.490983,10.4098331 L120.943489,10.4098331 C120.055637,10.4098331 119.337201,9.69119939 119.337201,8.80310802 C119.337201,7.91501665 120.055637,7.19638298 120.943489,7.19638298 L131.490983,7.19638298 C132.378836,7.19638298 133.097271,7.91501665 133.097271,8.80310802 C133.097271,9.69119939 132.378836,10.4098331 131.490983,10.4098331 Z"/>
  </g>
</svg>
