<svg xmlns="http://www.w3.org/2000/svg" width="194" height="125"><g fill="#C2C2D3"><path d="M148.457 124.974h-44.482a4.397 4.397 0 01-3.476-1.689 4.398 4.398 0 01-.825-3.778l4.264-17.677h44.558l4.264 17.677a4.398 4.398 0 01-.825 3.778 4.397 4.397 0 01-3.478 1.689zm-41.99-19.93l-3.671 15.216c-.12.5.09.863.227 1.039.135.173.44.461.952.461h44.482c.513 0 .819-.288.954-.464.136-.173.346-.537.227-1.036l-3.67-15.217h-39.502z"/><path d="M105.202 105.043H91.729a1.606 1.606 0 110-3.213h13.473a1.606 1.606 0 110 3.213zm81.875 0h-39.845a1.606 1.606 0 110-3.213h39.845a2.753 2.753 0 002.75-2.752v-9.245H91.793a1.606 1.606 0 110-3.214H193.04v12.459a5.971 5.971 0 01-5.962 5.965z"/><path d="M191.433 89.833a1.606 1.606 0 01-1.606-1.607V6.315a2.752 2.752 0 00-2.75-2.75H65.357a2.752 2.752 0 00-2.75 2.75V26.81a1.606 1.606 0 11-3.212 0V6.315A5.968 5.968 0 0165.357.352h121.72a5.968 5.968 0 015.962 5.963v81.911c0 .888-.718 1.607-1.606 1.607zM34.702 124.974H6.017a5.74 5.74 0 01-5.731-5.734V65.6a5.74 5.74 0 015.731-5.733h28.685a5.74 5.74 0 015.731 5.733v53.64a5.74 5.74 0 01-5.731 5.734zM6.017 63.08c-1.39 0-2.519 1.13-2.519 2.52v53.64c0 1.39 1.13 2.52 2.52 2.52h28.684c1.39 0 2.519-1.13 2.519-2.52V65.6c0-1.39-1.13-2.52-2.52-2.52H6.018z"/><path d="M38.56 71.694H2.466a1.606 1.606 0 110-3.213H38.56a1.606 1.606 0 110 3.213zm0 40.532H2.466a1.606 1.606 0 110-3.213H38.56a1.606 1.606 0 110 3.213zM23.092 67.39h-4.125a1.606 1.606 0 110-3.214h4.125a1.606 1.606 0 110 3.214z"/><g><path d="M78.037 124.975H46.515a1.606 1.606 0 110-3.214h31.522c2.37 0 4.298-1.93 4.298-4.3V40.698c0-2.37-1.928-4.3-4.298-4.3H36.985a4.304 4.304 0 00-4.296 4.3v13.999a1.606 1.606 0 11-3.213 0v-14c0-4.142 3.368-7.512 7.51-7.512h41.05c4.142 0 7.511 3.37 7.511 7.513v76.765c0 4.142-3.37 7.513-7.51 7.513z"/><path d="M83.558 47.303H31.903a1.606 1.606 0 110-3.214h51.655a1.606 1.606 0 110 3.214zm0 62.226H46.72a1.606 1.606 0 110-3.214h36.838a1.606 1.606 0 110 3.214zM61.42 42.57h-5.903a1.606 1.606 0 110-3.213h5.903a1.606 1.606 0 110 3.213z"/></g><path d="M131.491 10.41h-10.548a1.606 1.606 0 110-3.214h10.548a1.606 1.606 0 110 3.214z"/></g></svg>