<svg xmlns="http://www.w3.org/2000/svg" width="40" height="41" viewBox="0 0 40 41">
  <defs>
    <linearGradient id="logo-a" x1="50%" x2="50%" y1="0%" y2="100%">
      <stop offset="0%" stop-color="#DEEDFF"/>
      <stop offset="100%" stop-color="#B2D4FD"/>
    </linearGradient>
    <linearGradient id="logo-b" x1="90.51%" x2="87.171%" y1="0%" y2="64.341%">
      <stop offset="0%" stop-color="#00D6D9"/>
      <stop offset="100%" stop-color="#455CDA"/>
    </linearGradient>
    <linearGradient id="logo-c" x1="64.68%" x2="86.637%" y1="0%" y2="33.138%">
      <stop offset="0%" stop-color="#00D6D9"/>
      <stop offset="100%" stop-color="#04CFD9" stop-opacity="0"/>
    </linearGradient>
    <linearGradient id="logo-d" x1="64.85%" x2="71.949%" y1="50%" y2="59.736%">
      <stop offset="0%" stop-color="#3F66DA" stop-opacity="0"/>
      <stop offset="100%" stop-color="#2E2EAE"/>
    </linearGradient>
    <linearGradient id="logo-e" x1="35.764%" x2="50%" y1="58.319%" y2="90.652%">
      <stop offset="0%" stop-color="#2D41B3" stop-opacity="0"/>
      <stop offset="100%" stop-color="#141E62"/>
    </linearGradient>
    <linearGradient id="logo-f" x1="43.426%" x2="83.697%" y1="20.807%" y2="69.271%">
      <stop offset="0%" stop-color="#3F66DA" stop-opacity="0"/>
      <stop offset="100%" stop-color="#2436C1"/>
    </linearGradient>
    <linearGradient id="logo-g" x1="122.587%" x2="84.243%" y1="131.702%" y2="27.718%">
      <stop offset="0%" stop-color="#706AE1"/>
      <stop offset="100%" stop-color="#4352ED"/>
    </linearGradient>
    <linearGradient id="logo-h" x1="190.663%" y1="0%" y2="118.578%">
      <stop offset="0%" stop-color="#00D6D9"/>
      <stop offset="100%" stop-color="#0FC4DD" stop-opacity="0"/>
    </linearGradient>
    <linearGradient id="logo-i" x1="32.768%" x2="50%" y1="50%" y2="79.275%">
      <stop offset="0%" stop-color="#2D41B3" stop-opacity="0"/>
      <stop offset="100%" stop-color="#141E62"/>
    </linearGradient>
    <linearGradient id="logo-j" x1="69.976%" x2="38.879%" y1="72.967%" y2="94.862%">
      <stop offset="0%" stop-color="#3F4DDA" stop-opacity="0"/>
      <stop offset="100%" stop-color="#2736A4"/>
    </linearGradient>
    <linearGradient id="logo-k" x1="8.731%" x2="75.794%" y1="0%" y2="79.07%">
      <stop offset="0%" stop-color="#00D6D9"/>
      <stop offset="100%" stop-color="#5272EE"/>
    </linearGradient>
    <linearGradient id="logo-l" x1="-29.315%" x2="28.807%" y1="24.262%" y2="71.104%">
      <stop offset="0%" stop-color="#00D6D9"/>
      <stop offset="100%" stop-color="#0FC4DD" stop-opacity="0"/>
    </linearGradient>
  </defs>
  <g fill="none" fill-rule="evenodd" transform="translate(0 .1)">
    <path fill="url(#logo-a)" d="M0.317344666,0.590820313 L5.25634766,0.590820313 C10.7791952,0.590820313 15.2563477,5.06797281 15.2563477,10.5908203 L15.2563477,18.5162354 C15.2563477,21.1674314 17.4055667,23.3166504 20.0567627,23.3166504 L20.0567627,23.3166504 C22.7079587,23.3166504 24.8571777,21.1674314 24.8571777,18.5162354 L24.8571777,10.5908203 C24.8571777,5.06797281 29.3343302,0.590820313 34.8571777,0.590820313 L39.8796844,0.590820313 L39.8796844,18.2068825 C39.8796844,29.1317209 31.023353,37.9880524 20.0985146,37.9880524 L20.0985146,37.9880524 C9.17367609,37.9880524 0.317344666,29.1317209 0.317344666,18.2068825 L0.317344666,0.590820313 Z"/>
    <path fill="url(#logo-b)" d="M0.317344666,0.590820313 L5.25634766,0.590820313 C10.7791952,0.590820313 15.2563477,5.06797281 15.2563477,10.5908203 L15.2563477,18.5162354 C15.2563477,21.1674314 17.4055667,23.3166504 20.0567627,23.3166504 L20.0567627,23.3166504 C22.7079587,23.3166504 24.8571777,21.1674314 24.8571777,18.5162354 L24.8571777,10.5908203 C24.8571777,5.06797281 29.3343302,0.590820313 34.8571777,0.590820313 L39.8796844,0.590820313 L39.8796844,18.2068825 C39.8796844,29.1317209 31.023353,37.9880524 20.0985146,37.9880524 L20.0985146,37.9880524 C9.17367609,37.9880524 0.317344666,29.1317209 0.317344666,18.2068825 L0.317344666,0.590820313 Z"/>
    <path fill="url(#logo-c)" d="M0.317344666,0.590820313 L5.25634766,0.590820313 C10.7791952,0.590820313 15.2563477,5.06797281 15.2563477,10.5908203 L15.2563477,18.5162354 C15.2563477,21.1674314 17.4055667,23.3166504 20.0567627,23.3166504 L20.0567627,23.3166504 C22.7079587,23.3166504 24.8571777,21.1674314 24.8571777,18.5162354 L24.8571777,10.5908203 C24.8571777,5.06797281 29.3343302,0.590820313 34.8571777,0.590820313 L39.8796844,0.590820313 L39.8796844,18.2068825 C39.8796844,29.1317209 31.023353,37.9880524 20.0985146,37.9880524 L20.0985146,37.9880524 C9.17367609,37.9880524 0.317344666,29.1317209 0.317344666,18.2068825 L0.317344666,0.590820313 Z"/>
    <path fill="url(#logo-d)" d="M0.317344666,0.590820313 L5.25634766,0.590820313 C10.7791952,0.590820313 15.2563477,5.06797281 15.2563477,10.5908203 L15.2563477,18.5162354 C15.2563477,21.1674314 17.4055667,23.3166504 20.0567627,23.3166504 L20.0567627,23.3166504 C22.7079587,23.3166504 24.8571777,21.1674314 24.8571777,18.5162354 L24.8571777,10.5908203 C24.8571777,5.06797281 29.3343302,0.590820313 34.8571777,0.590820313 L39.8796844,0.590820313 L39.8796844,18.2068825 C39.8796844,29.1317209 31.023353,37.9880524 20.0985146,37.9880524 L20.0985146,37.9880524 C9.17367609,37.9880524 0.317344666,29.1317209 0.317344666,18.2068825 L0.317344666,0.590820313 Z"/>
    <path fill="url(#logo-e)" d="M20.913208,23.3054199 L23.2828369,24.4139404 L27.8881836,23.993042 L29.9803467,23.3054199 L32.4281006,22.4290771 L35.1776123,20.0849609 L37.4313384,18.9438477 L38.4758301,15.8792725 L38.8480225,13.3242188 L39.4108887,11.4880371 L39.4108887,8.45532227 L39.7536621,5.66662598 L39.7536621,3.43884277 C39.0922437,7.98912423 38.7043042,9.08145007 38.0738525,10.3824463 C37.128175,12.3339406 37.128175,12.3739797 35.8517417,14.1326904 C34.5753083,15.8914012 33.8702123,16.7337993 31.9105837,18.3234863 C29.9509551,19.9131734 29.1833962,20.3684621 26.9975586,21.2753287 C25.5403335,21.8799065 24.0358983,22.3425329 22.4842529,22.663208 L20.913208,23.3054199 Z" opacity=".974"/>
    <path fill="url(#logo-f)" d="M0.317344666,0.590820313 L5.25634766,0.590820313 C10.7791952,0.590820313 15.2563477,5.06797281 15.2563477,10.5908203 L15.2563477,18.5162354 C15.2563477,21.1674314 17.4055667,23.3166504 20.0567627,23.3166504 L20.0567627,23.3166504 C22.7079587,23.3166504 24.8571777,21.1674314 24.8571777,18.5162354 L24.8571777,10.5908203 C24.8571777,5.06797281 29.3343302,0.590820313 34.8571777,0.590820313 L39.8796844,0.590820313 L39.8796844,18.2068825 C39.8796844,29.1317209 31.023353,37.9880524 20.0985146,37.9880524 L20.0985146,37.9880524 C9.17367609,37.9880524 0.317344666,29.1317209 0.317344666,18.2068825 L0.317344666,0.590820313 Z"/>
    <path fill="url(#logo-g)" d="M0.317344666,0.590820313 L5.25634766,0.590820313 C10.7791952,0.590820313 15.2563477,5.06797281 15.2563477,10.5908203 L15.2563477,18.4744835 C15.2563477,21.1487384 17.4242596,23.3166504 20.0985146,23.3166504 L20.0985146,23.3166504 C23.2422458,23.3166504 26.3423443,22.5808797 29.1507937,21.1682021 L29.3690491,21.0584176 C32.3126716,19.5777465 34.8268933,17.3661862 36.670974,14.6354964 L36.6881561,14.6100533 C38.5375202,11.87154 39.5822653,8.66948354 39.7038388,5.36723846 L39.8796844,0.590820313 L39.8796844,18.2068825 C39.8796844,29.1317209 31.023353,37.9880524 20.0985146,37.9880524 L20.0985146,37.9880524 C9.17367609,37.9880524 0.317344666,29.1317209 0.317344666,18.2068825 L0.317344666,0.590820313 Z"/>
    <path fill="url(#logo-h)" d="M0.317344666,0.590820313 L5.25634766,0.590820313 C10.7791952,0.590820313 15.2563477,5.06797281 15.2563477,10.5908203 L15.2563477,18.4744835 C15.2563477,21.1487384 17.4242596,23.3166504 20.0985146,23.3166504 L20.0985146,23.3166504 C23.2422458,23.3166504 26.3423443,22.5808797 29.1507937,21.1682021 L29.3690491,21.0584176 C32.3126716,19.5777465 34.8268933,17.3661862 36.670974,14.6354964 L36.6881561,14.6100533 C38.5375202,11.87154 39.5822653,8.66948354 39.7038388,5.36723846 L39.8796844,0.590820313 L39.8796844,18.2068825 C39.8796844,29.1317209 31.023353,37.9880524 20.0985146,37.9880524 L20.0985146,37.9880524 C9.17367609,37.9880524 0.317344666,29.1317209 0.317344666,18.2068825 L0.317344666,0.590820313 Z"/>
    <path fill="url(#logo-i)" d="M11.0525873,40.2676265 L13.762447,39.3362015 L18.2752176,37.6527087 L20.4599568,38.2276809 L22.9077107,37.3513382 L25.6572224,35.007222 L27.9109485,33.8661087 L28.9554402,30.8015335 L29.3276325,28.2464798 L29.8904987,26.4102981 L29.8904987,23.3775833 L30.2332722,20.588887 L30.2332722,18.3611038 L29.9595821,20.3059418 C29.7984584,21.4508842 29.5223256,22.5766679 29.1353718,23.6662185 L28.8881719,24.3622622 C28.6669677,24.9851095 28.5637022,25.6437078 28.5836575,26.3043679 L28.5836575,26.3043679 C28.6030283,26.9456768 28.3729003,27.5695002 27.9416908,28.0445903 L27.5111332,28.5189622 C26.7820593,29.3222279 25.9130582,29.9862923 24.946497,30.4787798 L16.0730864,35.0000083 L15.8561023,36.067529 L15.4157632,37.1640095 L15.2020635,37.4908177 L15.1377914,37.5756565 C15.0451214,37.6979802 14.9484577,37.8172263 14.8479566,37.9332019 L14.8479566,37.9332019 C14.7474973,38.0491291 14.6410332,38.1597134 14.5290021,38.2644999 L14.512582,38.2798583 C14.3896487,38.394842 14.2596104,38.5019859 14.1232359,38.6006563 L14.0061399,38.6853783 L13.5200402,39.0103965 L11.0525873,40.2676265 Z" opacity=".498" transform="rotate(117 20.643 29.314)"/>
    <path fill="url(#logo-j)" d="M0.317344666,0.590820313 L5.25634766,0.590820313 C10.7791952,0.590820313 15.2563477,5.06797281 15.2563477,10.5908203 L15.2563477,18.4744835 C15.2563477,21.1487384 17.4242596,23.3166504 20.0985146,23.3166504 L20.0985146,23.3166504 C23.2422458,23.3166504 26.3423443,22.5808797 29.1507937,21.1682021 L29.3690491,21.0584176 C32.3126716,19.5777465 34.8268933,17.3661862 36.670974,14.6354964 L36.6881561,14.6100533 C38.5375202,11.87154 39.5822653,8.66948354 39.7038388,5.36723846 L39.8796844,0.590820313 L39.8796844,18.2068825 C39.8796844,29.1317209 31.023353,37.9880524 20.0985146,37.9880524 L20.0985146,37.9880524 C9.17367609,37.9880524 0.317344666,29.1317209 0.317344666,18.2068825 L0.317344666,0.590820313 Z"/>
    <path fill="url(#logo-k)" d="M0.317344666,0.590820313 L5.25634766,0.590820313 C10.7791952,0.590820313 15.2563477,5.06797281 15.2563477,10.5908203 L15.2563477,13.0108643 L15.2563477,33.1458855 C15.2563477,35.8201404 17.4242596,37.9880524 20.0985146,37.9880524 L20.0985146,37.9880524 C9.17367609,37.9880524 0.317344666,29.1317209 0.317344666,18.2068825 L0.317344666,0.590820313 Z"/>
    <path fill="url(#logo-l)" d="M0.317344666,0.590820313 L5.25634766,0.590820313 C10.7791952,0.590820313 15.2563477,5.06797281 15.2563477,10.5908203 L15.2563477,13.0108643 L15.2563477,33.1458855 C15.2563477,35.8201404 17.4242596,37.9880524 20.0985146,37.9880524 L20.0985146,37.9880524 C9.17367609,37.9880524 0.317344666,29.1317209 0.317344666,18.2068825 L0.317344666,0.590820313 Z"/>
  </g>
</svg>
