<svg xmlns="http://www.w3.org/2000/svg" width="248" height="52"><defs><linearGradient id="g" x1="122.587%" x2="84.243%" y1="131.702%" y2="27.718%"><stop offset="0%" stop-color="#706AE1"/><stop offset="100%" stop-color="#4352ED"/></linearGradient><linearGradient id="a" x1="50%" x2="50%" y1="0%" y2="100%"><stop offset="0%" stop-color="#DEEDFF"/><stop offset="100%" stop-color="#B2D4FD"/></linearGradient><linearGradient id="c" x1="64.68%" x2="86.637%" y1="0%" y2="33.138%"><stop offset="0%" stop-color="#00D6D9"/><stop offset="100%" stop-color="#04CFD9" stop-opacity="0"/></linearGradient><linearGradient id="d" x1="64.85%" x2="71.949%" y1="50%" y2="59.736%"><stop offset="0%" stop-color="#3F66DA" stop-opacity="0"/><stop offset="100%" stop-color="#2E2EAE"/></linearGradient><linearGradient id="e" x1="35.764%" x2="50%" y1="58.319%" y2="90.652%"><stop offset="0%" stop-color="#2D41B3" stop-opacity="0"/><stop offset="100%" stop-color="#141E62"/></linearGradient><linearGradient id="f" x1="43.426%" x2="83.697%" y1="20.807%" y2="69.271%"><stop offset="0%" stop-color="#3F66DA" stop-opacity="0"/><stop offset="100%" stop-color="#2436C1"/></linearGradient><linearGradient id="b" x1="90.51%" x2="87.171%" y1="0%" y2="64.341%"><stop offset="0%" stop-color="#00D6D9"/><stop offset="100%" stop-color="#455CDA"/></linearGradient><linearGradient id="h" x1="190.663%" y1="0%" y2="118.578%"><stop offset="0%" stop-color="#00D6D9"/><stop offset="100%" stop-color="#0FC4DD" stop-opacity="0"/></linearGradient><linearGradient id="i" x1="32.768%" x2="50%" y1="50%" y2="79.275%"><stop offset="0%" stop-color="#2D41B3" stop-opacity="0"/><stop offset="100%" stop-color="#141E62"/></linearGradient><linearGradient id="j" x1="69.976%" x2="38.879%" y1="72.967%" y2="94.862%"><stop offset="0%" stop-color="#3F4DDA" stop-opacity="0"/><stop offset="100%" stop-color="#2736A4"/></linearGradient><linearGradient id="k" x1="8.731%" x2="75.794%" y1="0%" y2="79.07%"><stop offset="0%" stop-color="#00D6D9"/><stop offset="100%" stop-color="#5272EE"/></linearGradient><linearGradient id="l" x1="-29.315%" x2="28.807%" y1="24.262%" y2="71.104%"><stop offset="0%" stop-color="#00D6D9"/><stop offset="100%" stop-color="#0FC4DD" stop-opacity="0"/></linearGradient></defs><g fill="none" fill-rule="evenodd"><path fill="#FFF" d="M78.945 23.33v-8.775h2.086v8.775c0 1.423-.487 2.593-1.462 3.51-.956.897-2.126 1.345-3.51 1.345-1.385 0-2.574-.448-3.55-1.345-.955-.917-1.442-2.087-1.442-3.51v-8.775h2.106v8.775c0 .838.273 1.54.838 2.067.566.526 1.248.8 2.048.8s1.462-.274 2.028-.8c.565-.527.858-1.229.858-2.067zm7.117-.234v4.894h-2.008v-9.106h2.008v1.365c.488-.995 1.697-1.56 2.789-1.56 2.203 0 3.47 1.423 3.47 3.997v5.304h-2.008v-5.07c0-1.423-.74-2.262-1.91-2.262-1.327 0-2.34.78-2.34 2.438zm10.96 4.894h-1.99v-9.106h1.99v9.106zm-.995-14.06c.76 0 1.326.547 1.326 1.268 0 .722-.566 1.268-1.326 1.268-.722 0-1.346-.566-1.346-1.268 0-.702.624-1.267 1.346-1.267zm8.307 14.06h-1.853l-3.802-9.106h2.125l2.613 6.552 2.574-6.552h2.145l-3.802 9.106zm14.118-4.582c0 .37 0 .604-.02.74h-7.234c.175 1.405 1.306 2.282 2.788 2.282 1.034 0 2.009-.468 2.477-1.306l1.638.721c-.78 1.54-2.399 2.34-4.212 2.34-1.326 0-2.438-.448-3.335-1.326-.897-.877-1.345-2.028-1.345-3.451 0-1.424.448-2.555 1.345-3.413.897-.877 2.009-1.306 3.335-1.306s2.418.429 3.276 1.306c.858.858 1.287 1.99 1.287 3.413zm-7.254-.722h5.284c-.175-1.404-1.209-2.242-2.593-2.242-1.424 0-2.516.858-2.691 2.242zm11.388 2.028v3.276h-2.009v-9.106h2.009v2.086c.448-1.52 1.267-2.281 2.496-2.281.721 0 1.267.117 1.618.35l-.331 1.853a2.848 2.848 0 00-1.346-.312c-1.638 0-2.437 1.58-2.437 4.134zm9.126-.37l-1.229-.293c-1.891-.526-2.652-1.462-2.515-2.964.058-.682.39-1.248 1.033-1.696.644-.468 1.385-.702 2.223-.702 1.794 0 3.218.877 3.315 2.69h-1.91c-.079-.643-.644-.974-1.327-.974-.526 0-1.111.195-1.287.507-.156.253-.175.526-.078.819.098.292.468.526 1.112.702l1.404.35c1.58.39 2.379 1.268 2.379 2.653 0 1.716-1.502 2.75-3.627 2.75a3.917 3.917 0 01-2.418-.8c-.702-.546-1.053-1.268-1.073-2.184h1.853c.097.8.76 1.306 1.794 1.306.936 0 1.618-.41 1.618-1.092 0-.526-.429-.877-1.267-1.072zm14.39 3.646h-1.988v-1.306c-.566.936-1.872 1.501-3.062 1.501-1.267 0-2.36-.448-3.276-1.326-.897-.877-1.345-2.028-1.345-3.432s.448-2.535 1.345-3.412c.917-.878 2.009-1.326 3.276-1.326 1.19 0 2.457.526 3.062 1.482v-1.287h1.989v9.106zm-2.008-4.582c0-.839-.292-1.521-.858-2.009-.565-.507-1.209-.76-1.95-.76-.78 0-1.443.253-1.989.78-.526.507-.8 1.17-.8 1.989 0 .819.274 1.501.8 2.028.546.526 1.21.8 1.99.8 1.56 0 2.807-1.112 2.807-2.828zm6.825 4.582h-2.008V13.93h2.008v14.06zm15.561 0h-7.449V14.555h2.067v11.544h5.382v1.891zm6.084-1.755c.78 0 1.443-.253 1.97-.78.526-.526.8-1.209.8-2.047 0-1.638-1.21-2.75-2.77-2.75-.76 0-1.423.254-1.95.76-.526.508-.8 1.17-.8 1.99 0 .838.274 1.52.8 2.047.527.527 1.19.78 1.95.78zm0-7.546c1.346 0 2.477.429 3.393 1.306.917.878 1.385 2.009 1.385 3.413s-.468 2.554-1.404 3.451c-.917.878-2.048 1.326-3.374 1.326s-2.457-.448-3.373-1.326c-.917-.897-1.365-2.047-1.365-3.451s.448-2.535 1.365-3.413c.916-.877 2.047-1.306 3.373-1.306zm14.08 4.758c0-1.736-1.23-2.808-2.809-2.808-.78 0-1.443.273-1.97.8-.526.526-.799 1.189-.799 2.008 0 .838.273 1.501.8 2.028.526.526 1.19.78 1.97.78.72 0 1.384-.254 1.95-.76.565-.527.857-1.21.857-2.048zm-6.397 6.103l.839-.41c.468.937 1.54 1.522 2.554 1.522 2.028 0 3.042-1.19 3.042-3.588v-.468c-.526.994-1.813 1.58-3.08 1.58-1.268 0-2.36-.43-3.257-1.307-.897-.878-1.346-2.009-1.346-3.413 0-1.423.449-2.574 1.346-3.451.897-.878 1.989-1.326 3.256-1.326 1.268 0 2.535.585 3.081 1.54v-1.345h1.97v7.76c0 3.92-1.677 5.89-5.012 5.89-1.774 0-3.354-.936-4.212-2.555l.82-.429zm13.202-1.56h-1.99v-9.106h1.99v9.106zm-.995-14.06c.76 0 1.326.547 1.326 1.268 0 .722-.565 1.268-1.326 1.268-.721 0-1.345-.566-1.345-1.268 0-.702.624-1.267 1.345-1.267zm5.811 9.166v4.894h-2.008v-9.106h2.008v1.365c.488-.995 1.697-1.56 2.789-1.56 2.203 0 3.47 1.423 3.47 3.997v5.304h-2.008v-5.07c0-1.423-.74-2.262-1.91-2.262-1.327 0-2.34.78-2.34 2.438zm13.494.994h2.067c.02.566.293 1.092.78 1.54.488.45 1.131.664 1.892.664 1.501 0 2.379-.8 2.535-1.833.058-1.112-.644-1.833-2.126-2.184l-1.696-.43c-2.223-.604-3.335-1.793-3.335-3.607 0-1.111.43-2.028 1.307-2.75.877-.72 1.91-1.091 3.12-1.091 1.267 0 2.3.37 3.12 1.092.838.721 1.248 1.677 1.248 2.886h-2.067c0-1.229-.936-2.028-2.34-2.028-1.268 0-2.32.76-2.32 1.852 0 .858.604 1.443 1.793 1.755l1.716.449c2.652.702 3.842 2.203 3.627 4.173-.097 1.072-.585 1.93-1.423 2.613-.839.663-1.892.994-3.16.994-1.364 0-2.495-.41-3.392-1.209-.897-.8-1.346-1.774-1.346-2.886zm17.2-7.605h-3.16v9.594h3.16c1.267 0 2.261-.448 2.944-1.345.682-.897 1.033-2.048 1.033-3.432 0-1.404-.35-2.555-1.053-3.452-.682-.916-1.657-1.365-2.925-1.365zm0 11.505h-5.227V14.555h5.226c1.853 0 3.335.643 4.407 1.91 1.092 1.268 1.638 2.867 1.638 4.837 0 1.95-.546 3.549-1.618 4.816-1.073 1.248-2.555 1.872-4.427 1.872zm17.432-13.435l-5.148 6.688 6.338 6.747h-2.73l-5.012-5.44v5.44h-2.086V14.555h2.086v5.46l4.115-5.46h2.437z"/><path fill="url(#a)" d="M.413.768h6.42c7.18 0 13 5.82 13 13v10.303a6.24 6.24 0 1012.481 0V13.768c0-7.18 5.82-13 13-13h6.53v22.9c0 14.203-11.514 25.716-25.716 25.716C11.926 49.384.413 37.871.413 23.67V.769z" transform="translate(.023 -.747)"/><path fill="url(#b)" d="M.413.768h6.42c7.18 0 13 5.82 13 13v10.303a6.24 6.24 0 1012.481 0V13.768c0-7.18 5.82-13 13-13h6.53v22.9c0 14.203-11.514 25.716-25.716 25.716C11.926 49.384.413 37.871.413 23.67V.769z" transform="translate(.023 -.747)"/><path fill="url(#c)" d="M.413.768h6.42c7.18 0 13 5.82 13 13v10.303a6.24 6.24 0 1012.481 0V13.768c0-7.18 5.82-13 13-13h6.53v22.9c0 14.203-11.514 25.716-25.716 25.716C11.926 49.384.413 37.871.413 23.67V.769z" transform="translate(.023 -.747)"/><path fill="url(#d)" d="M.413.768h6.42c7.18 0 13 5.82 13 13v10.303a6.24 6.24 0 1012.481 0V13.768c0-7.18 5.82-13 13-13h6.53v22.9c0 14.203-11.514 25.716-25.716 25.716C11.926 49.384.413 37.871.413 23.67V.769z" transform="translate(.023 -.747)"/><path fill="url(#e)" d="M27.187 30.297l3.08 1.441 5.988-.547 2.72-.894 3.182-1.14 3.574-3.047 2.93-1.483 1.358-3.984.483-3.322.732-2.387v-3.942l.446-3.625V4.47c-.86 5.916-1.364 7.336-2.184 9.027-1.23 2.537-1.23 2.59-2.889 4.875-1.66 2.287-2.576 3.382-5.123 5.449-2.548 2.066-3.546 2.658-6.387 3.837a32.374 32.374 0 01-5.867 1.804l-2.043.835z" opacity=".974" transform="translate(.023 -.747)"/><path fill="url(#f)" d="M.413.768h6.42c7.18 0 13 5.82 13 13v10.303a6.24 6.24 0 1012.481 0V13.768c0-7.18 5.82-13 13-13h6.53v22.9c0 14.203-11.514 25.716-25.716 25.716C11.926 49.384.413 37.871.413 23.67V.769z" transform="translate(.023 -.747)"/><path fill="url(#g)" d="M.413.768h6.42c7.18 0 13 5.82 13 13v10.249a6.295 6.295 0 006.295 6.295c4.087 0 8.117-.957 11.768-2.793l.284-.143a25.022 25.022 0 009.492-8.35l.023-.033a22.98 22.98 0 003.92-12.016l.229-6.209v22.9c0 14.203-11.514 25.716-25.716 25.716C11.926 49.384.413 37.871.413 23.67V.769z" transform="translate(.023 -.747)"/><path fill="url(#h)" d="M.413.768h6.42c7.18 0 13 5.82 13 13v10.249a6.295 6.295 0 006.295 6.295c4.087 0 8.117-.957 11.768-2.793l.284-.143a25.022 25.022 0 009.492-8.35l.023-.033a22.98 22.98 0 003.92-12.016l.229-6.209v22.9c0 14.203-11.514 25.716-25.716 25.716C11.926 49.384.413 37.871.413 23.67V.769z" transform="translate(.023 -.747)"/><path fill="url(#i)" d="M14.368 52.348l3.523-1.21 5.867-2.19 2.84.748 3.182-1.14 3.574-3.047 2.93-1.483 1.358-3.984.484-3.322.732-2.387v-3.942l.445-3.625v-2.897l-.356 2.529a22.365 22.365 0 01-1.071 4.368l-.321.905a6.92 6.92 0 00-.396 2.525 3.221 3.221 0 01-.835 2.262l-.56.617a11.638 11.638 0 01-3.334 2.547L20.895 45.5l-.282 1.388-.573 1.425-.277.425-.084.11c-.12.16-.246.314-.377.465a5.71 5.71 0 01-.414.43l-.022.02c-.16.15-.329.29-.506.418l-.152.11-.632.423-3.208 1.634z" opacity=".498" transform="rotate(117 27.076 37.743)"/><path fill="url(#j)" d="M.413.768h6.42c7.18 0 13 5.82 13 13v10.249a6.295 6.295 0 006.295 6.295c4.087 0 8.117-.957 11.768-2.793l.284-.143a25.022 25.022 0 009.492-8.35l.023-.033a22.98 22.98 0 003.92-12.016l.229-6.209v22.9c0 14.203-11.514 25.716-25.716 25.716C11.926 49.384.413 37.871.413 23.67V.769z" transform="translate(.023 -.747)"/><path fill="url(#k)" d="M.413.768h6.42c7.18 0 13 5.82 13 13V43.09a6.295 6.295 0 006.295 6.294C11.926 49.384.413 37.871.413 23.67V.769z" transform="translate(.023 -.747)"/><path fill="url(#l)" d="M.413.768h6.42c7.18 0 13 5.82 13 13V43.09a6.295 6.295 0 006.295 6.294C11.926 49.384.413 37.871.413 23.67V.769z" transform="translate(.023 -.747)"/></g></svg>