<svg xmlns="http://www.w3.org/2000/svg" width="248" height="52" viewBox="0 0 248 52">
  <defs>
    <linearGradient id="logo-with-text-a" x1="50%" x2="50%" y1="0%" y2="100%">
      <stop offset="0%" stop-color="#DEEDFF"/>
      <stop offset="100%" stop-color="#B2D4FD"/>
    </linearGradient>
    <linearGradient id="logo-with-text-b" x1="90.51%" x2="87.171%" y1="0%" y2="64.341%">
      <stop offset="0%" stop-color="#00D6D9"/>
      <stop offset="100%" stop-color="#455CDA"/>
    </linearGradient>
    <linearGradient id="logo-with-text-c" x1="64.68%" x2="86.637%" y1="0%" y2="33.138%">
      <stop offset="0%" stop-color="#00D6D9"/>
      <stop offset="100%" stop-color="#04CFD9" stop-opacity="0"/>
    </linearGradient>
    <linearGradient id="logo-with-text-d" x1="64.85%" x2="71.949%" y1="50%" y2="59.736%">
      <stop offset="0%" stop-color="#3F66DA" stop-opacity="0"/>
      <stop offset="100%" stop-color="#2E2EAE"/>
    </linearGradient>
    <linearGradient id="logo-with-text-e" x1="35.764%" x2="50%" y1="58.319%" y2="90.652%">
      <stop offset="0%" stop-color="#2D41B3" stop-opacity="0"/>
      <stop offset="100%" stop-color="#141E62"/>
    </linearGradient>
    <linearGradient id="logo-with-text-f" x1="43.426%" x2="83.697%" y1="20.807%" y2="69.271%">
      <stop offset="0%" stop-color="#3F66DA" stop-opacity="0"/>
      <stop offset="100%" stop-color="#2436C1"/>
    </linearGradient>
    <linearGradient id="logo-with-text-g" x1="122.587%" x2="84.243%" y1="131.702%" y2="27.718%">
      <stop offset="0%" stop-color="#706AE1"/>
      <stop offset="100%" stop-color="#4352ED"/>
    </linearGradient>
    <linearGradient id="logo-with-text-h" x1="190.663%" y1="0%" y2="118.578%">
      <stop offset="0%" stop-color="#00D6D9"/>
      <stop offset="100%" stop-color="#0FC4DD" stop-opacity="0"/>
    </linearGradient>
    <linearGradient id="logo-with-text-i" x1="32.768%" x2="50%" y1="50%" y2="79.275%">
      <stop offset="0%" stop-color="#2D41B3" stop-opacity="0"/>
      <stop offset="100%" stop-color="#141E62"/>
    </linearGradient>
    <linearGradient id="logo-with-text-j" x1="69.976%" x2="38.879%" y1="72.967%" y2="94.862%">
      <stop offset="0%" stop-color="#3F4DDA" stop-opacity="0"/>
      <stop offset="100%" stop-color="#2736A4"/>
    </linearGradient>
    <linearGradient id="logo-with-text-k" x1="8.731%" x2="75.794%" y1="0%" y2="79.07%">
      <stop offset="0%" stop-color="#00D6D9"/>
      <stop offset="100%" stop-color="#5272EE"/>
    </linearGradient>
    <linearGradient id="logo-with-text-l" x1="-29.315%" x2="28.807%" y1="24.262%" y2="71.104%">
      <stop offset="0%" stop-color="#00D6D9"/>
      <stop offset="100%" stop-color="#0FC4DD" stop-opacity="0"/>
    </linearGradient>
  </defs>
  <g fill="none" fill-rule="evenodd" transform="translate(-.8 -1.6)">
    <path fill="#FFF" d="M79.7447466,24.9297357 L79.7447466,16.1547353 L81.8312467,16.1547353 L81.8312467,24.9297357 C81.8312467,26.3532358 81.3437467,27.5232359 80.3687466,28.4397359 C79.4132466,29.336736 78.2432465,29.785236 76.8587464,29.785236 C75.4742463,29.785236 74.2847463,29.336736 73.3097462,28.4397359 C72.3542462,27.5232359 71.8667461,26.3532358 71.8667461,24.9297357 L71.8667461,16.1547353 L73.9727463,16.1547353 L73.9727463,24.9297357 C73.9727463,25.7682358 74.2457463,26.4702358 74.8112463,26.9967359 C75.3767463,27.5232359 76.0592464,27.7962359 76.8587464,27.7962359 C77.6582465,27.7962359 78.3212465,27.5232359 78.8867465,26.9967359 C79.4522466,26.4702358 79.7447466,25.7682358 79.7447466,24.9297357 Z M86.862247,24.6957357 L86.862247,29.590236 L84.8537469,29.590236 L84.8537469,20.4837355 L86.862247,20.4837355 L86.862247,21.8487356 C87.349747,20.8542355 88.5587471,20.2887355 89.6507471,20.2887355 C91.8542472,20.2887355 93.1217473,21.7122356 93.1217473,24.2862357 L93.1217473,29.590236 L91.1132472,29.590236 L91.1132472,24.5202357 C91.1132472,23.0967356 90.3722472,22.2582356 89.2022471,22.2582356 C87.876247,22.2582356 86.862247,23.0382356 86.862247,24.6957357 Z M97.8212476,29.590236 L95.8322475,29.590236 L95.8322475,20.4837355 L97.8212476,20.4837355 L97.8212476,29.590236 Z M96.8267475,15.5307352 C97.5872476,15.5307352 98.1527476,16.0767353 98.1527476,16.7982353 C98.1527476,17.5197353 97.5872476,18.0657354 96.8267475,18.0657354 C96.1052475,18.0657354 95.4812474,17.5002353 95.4812474,16.7982353 C95.4812474,16.0962353 96.1052475,15.5307352 96.8267475,15.5307352 Z M105.133748,29.590236 L103.281248,29.590236 L99.4787477,20.4837355 L101.604248,20.4837355 L104.217248,27.0357359 L106.791248,20.4837355 L108.936248,20.4837355 L105.133748,29.590236 Z M119.251749,25.0077358 C119.251749,25.3782358 119.251749,25.6122358 119.232249,25.7487358 L111.997748,25.7487358 C112.173248,27.1527359 113.304248,28.0302359 114.786249,28.0302359 C115.819749,28.0302359 116.794749,27.5622359 117.262749,26.7237358 L118.900749,27.4452359 C118.120749,28.985736 116.502249,29.785236 114.688748,29.785236 C113.362748,29.785236 112.251248,29.336736 111.354248,28.4592359 C110.457248,27.5817359 110.008748,26.4312358 110.008748,25.0077358 C110.008748,23.5842357 110.457248,22.4532356 111.354248,21.5952356 C112.251248,20.7177355 113.362748,20.2887355 114.688748,20.2887355 C116.014749,20.2887355 117.106749,20.7177355 117.964749,21.5952356 C118.822749,22.4532356 119.251749,23.5842357 119.251749,25.0077358 Z M111.997748,24.2862357 L117.282249,24.2862357 C117.106749,22.8822356 116.073249,22.0437356 114.688748,22.0437356 C113.265248,22.0437356 112.173248,22.9017356 111.997748,24.2862357 Z M123.385749,26.3142358 L123.385749,29.590236 L121.377249,29.590236 L121.377249,20.4837355 L123.385749,20.4837355 L123.385749,22.5702356 C123.834249,21.0492355 124.653249,20.2887355 125.881749,20.2887355 C126.603249,20.2887355 127.149249,20.4057355 127.500249,20.6397355 L127.168749,22.4922356 C126.759249,22.2777356 126.310749,22.1802356 125.823249,22.1802356 C124.185249,22.1802356 123.385749,23.7597357 123.385749,26.3142358 Z M132.511749,25.9437358 L131.283249,25.6512358 C129.391749,25.1247358 128.631249,24.1887357 128.767749,22.6872356 C128.826249,22.0047356 129.157749,21.4392356 129.801249,20.9907355 C130.444749,20.5227355 131.185749,20.2887355 132.024249,20.2887355 C133.81825,20.2887355 135.24175,21.1662355 135.33925,22.9797356 L133.42825,22.9797356 C133.35025,22.3362356 132.784749,22.0047356 132.102249,22.0047356 C131.575749,22.0047356 130.990749,22.1997356 130.815249,22.5117356 C130.659249,22.7652356 130.639749,23.0382356 130.737249,23.3307357 C130.834749,23.6232357 131.205249,23.8572357 131.848749,24.0327357 L133.25275,24.3837357 C134.83225,24.7737357 135.63175,25.6512358 135.63175,27.0357359 C135.63175,28.751736 134.13025,29.785236 132.004749,29.785236 C131.088249,29.785236 130.288749,29.512236 129.586749,28.985736 C128.884749,28.4397359 128.533749,27.7182359 128.514249,26.8017358 L130.366749,26.8017358 C130.464249,27.6012359 131.127249,28.1082359 132.160749,28.1082359 C133.09675,28.1082359 133.77925,27.6987359 133.77925,27.0162359 C133.77925,26.4897358 133.35025,26.1387358 132.511749,25.9437358 Z M146.90275,29.590236 L144.91375,29.590236 L144.91375,28.2837359 C144.34825,29.219736 143.04175,29.785236 141.85225,29.785236 C140.58475,29.785236 139.49275,29.336736 138.57625,28.4592359 C137.67925,27.5817359 137.23075,26.4312358 137.23075,25.0272358 C137.23075,23.6232357 137.67925,22.4922356 138.57625,21.6147356 C139.49275,20.7372355 140.58475,20.2887355 141.85225,20.2887355 C143.04175,20.2887355 144.30925,20.8152355 144.91375,21.7707356 L144.91375,20.4837355 L146.90275,20.4837355 L146.90275,29.590236 Z M144.89425,25.0077358 C144.89425,24.1692357 144.60175,23.4867357 144.03625,22.9992356 C143.47075,22.4922356 142.82725,22.2387356 142.08625,22.2387356 C141.30625,22.2387356 140.64325,22.4922356 140.09725,23.0187356 C139.57075,23.5257357 139.29775,24.1887357 139.29775,25.0077358 C139.29775,25.8267358 139.57075,26.5092358 140.09725,27.0357359 C140.64325,27.5622359 141.30625,27.8352359 142.08625,27.8352359 C143.64625,27.8352359 144.89425,26.7237358 144.89425,25.0077358 Z M151.719251,29.590236 L149.71075,29.590236 L149.71075,15.5307352 L151.719251,15.5307352 L151.719251,29.590236 Z M167.280251,29.590236 L159.831251,29.590236 L159.831251,16.1547353 L161.898251,16.1547353 L161.898251,27.6987359 L167.280251,27.6987359 L167.280251,29.590236 Z M173.364252,27.8352359 C174.144252,27.8352359 174.807252,27.5817359 175.333752,27.0552359 C175.860252,26.5287358 176.133252,25.8462358 176.133252,25.0077358 C176.133252,23.3697357 174.924252,22.2582356 173.364252,22.2582356 C172.603752,22.2582356 171.940752,22.5117356 171.414252,23.0187356 C170.887752,23.5257357 170.614752,24.1887357 170.614752,25.0077358 C170.614752,25.8462358 170.887752,26.5287358 171.414252,27.0552359 C171.940752,27.5817359 172.603752,27.8352359 173.364252,27.8352359 Z M173.364252,20.2887355 C174.709752,20.2887355 175.840752,20.7177355 176.757252,21.5952356 C177.673752,22.4727356 178.141752,23.6037357 178.141752,25.0077358 C178.141752,26.4117358 177.673752,27.5622359 176.737752,28.4592359 C175.821252,29.336736 174.690252,29.785236 173.364252,29.785236 C172.038252,29.785236 170.907252,29.336736 169.990752,28.4592359 C169.074251,27.5622359 168.625751,26.4117358 168.625751,25.0077358 C168.625751,23.6037357 169.074251,22.4727356 169.990752,21.5952356 C170.907252,20.7177355 172.038252,20.2887355 173.364252,20.2887355 Z M187.443253,25.0467358 C187.443253,23.3112357 186.214752,22.2387356 184.635252,22.2387356 C183.855252,22.2387356 183.192252,22.5117356 182.665752,23.0382356 C182.139252,23.5647357 181.866252,24.2277357 181.866252,25.0467358 C181.866252,25.8852358 182.139252,26.5482358 182.665752,27.0747359 C183.192252,27.6012359 183.855252,27.8547359 184.635252,27.8547359 C185.356752,27.8547359 186.019752,27.6012359 186.585252,27.0942359 C187.150752,26.5677358 187.443253,25.8852358 187.443253,25.0467358 Z M181.047252,31.1502361 L181.885752,30.7407361 C182.353752,31.6767361 183.426252,32.2617362 184.440252,32.2617362 C186.468252,32.2617362 187.482253,31.0722361 187.482253,28.673736 L187.482253,28.2057359 C186.955752,29.200236 185.668752,29.785236 184.401252,29.785236 C183.133752,29.785236 182.041752,29.356236 181.144752,28.4787359 C180.247752,27.6012359 179.799252,26.4702358 179.799252,25.0662358 C179.799252,23.6427357 180.247752,22.4922356 181.144752,21.6147356 C182.041752,20.7372355 183.133752,20.2887355 184.401252,20.2887355 C185.668752,20.2887355 186.936252,20.8737355 187.482253,21.8292356 L187.482253,20.4837355 L189.451753,20.4837355 L189.451753,28.2447359 C189.451753,32.1642361 187.774753,34.1337363 184.440252,34.1337363 C182.665752,34.1337363 181.086252,33.1977362 180.228252,31.5792361 L181.047252,31.1502361 Z M194.248753,29.590236 L192.259753,29.590236 L192.259753,20.4837355 L194.248753,20.4837355 L194.248753,29.590236 Z M193.254253,15.5307352 C194.014753,15.5307352 194.580253,16.0767353 194.580253,16.7982353 C194.580253,17.5197353 194.014753,18.0657354 193.254253,18.0657354 C192.532753,18.0657354 191.908753,17.5002353 191.908753,16.7982353 C191.908753,16.0962353 192.532753,15.5307352 193.254253,15.5307352 Z M199.065253,24.6957357 L199.065253,29.590236 L197.056753,29.590236 L197.056753,20.4837355 L199.065253,20.4837355 L199.065253,21.8487356 C199.552753,20.8542355 200.761753,20.2887355 201.853753,20.2887355 C204.057253,20.2887355 205.324753,21.7122356 205.324753,24.2862357 L205.324753,29.590236 L203.316253,29.590236 L203.316253,24.5202357 C203.316253,23.0967356 202.575253,22.2582356 201.405253,22.2582356 C200.079253,22.2582356 199.065253,23.0382356 199.065253,24.6957357 Z M212.559254,25.6902358 L214.626254,25.6902358 C214.645754,26.2557358 214.918754,26.7822358 215.406254,27.2307359 C215.893754,27.6792359 216.537254,27.8937359 217.297754,27.8937359 C218.799254,27.8937359 219.676754,27.0942359 219.832754,26.0607358 C219.891254,24.9492357 219.189254,24.2277357 217.707254,23.8767357 L216.010754,23.4477357 C213.787754,22.8432356 212.676254,21.6537356 212.676254,19.8402355 C212.676254,18.7287354 213.105254,17.8122354 213.982754,17.0907353 C214.860254,16.3692353 215.893754,15.9987353 217.102754,15.9987353 C218.370254,15.9987353 219.403754,16.3692353 220.222754,17.0907353 C221.061254,17.8122354 221.470754,18.7677354 221.470754,19.9767355 L219.403754,19.9767355 C219.403754,18.7482354 218.467754,17.9487354 217.063754,17.9487354 C215.796254,17.9487354 214.743254,18.7092354 214.743254,19.8012355 C214.743254,20.6592355 215.347754,21.2442355 216.537254,21.5562356 L218.253254,22.0047356 C220.905254,22.7067356 222.094754,24.2082357 221.880254,26.1777358 C221.782754,27.2502359 221.295254,28.1082359 220.456754,28.790736 C219.618254,29.453736 218.565254,29.785236 217.297754,29.785236 C215.932754,29.785236 214.801754,29.375736 213.904754,28.5762359 C213.007754,27.7767359 212.559254,26.8017358 212.559254,25.6902358 Z M229.758255,18.0852354 L226.599255,18.0852354 L226.599255,27.6792359 L229.758255,27.6792359 C231.025755,27.6792359 232.020255,27.2307359 232.702755,26.3337358 C233.385255,25.4367358 233.736255,24.2862357 233.736255,22.9017356 C233.736255,21.4977356 233.385255,20.3472355 232.683255,19.4502354 C232.000755,18.5337354 231.025755,18.0852354 229.758255,18.0852354 Z M229.758255,29.590236 L224.532255,29.590236 L224.532255,16.1547353 L229.758255,16.1547353 C231.610755,16.1547353 233.092755,16.7982353 234.165255,18.0657354 C235.257255,19.3332354 235.803255,20.9322355 235.803255,22.9017356 C235.803255,24.8517357 235.257255,26.4507358 234.184755,27.7182359 C233.112255,28.966236 231.630255,29.590236 229.758255,29.590236 Z M247.191256,16.1547353 L242.043256,22.8432356 L248.380756,29.590236 L245.650756,29.590236 L240.639255,24.1497357 L240.639255,29.590236 L238.552755,29.590236 L238.552755,16.1547353 L240.639255,16.1547353 L240.639255,21.6147356 L244.753756,16.1547353 L247.191256,16.1547353 Z"/>
    <g transform="translate(.823 .853)">
      <path fill="url(#logo-with-text-a)" d="M0.412548088,0.768066449 L6.83325233,0.768066449 C14.0129545,0.768066449 19.833253,6.58836502 19.833253,13.7680672 L19.833253,24.0711073 C19.833253,27.5176623 22.6272379,30.3116472 26.0737929,30.3116472 L26.0737929,30.3116472 C29.520348,30.3116472 32.3143328,27.5176623 32.3143328,24.0711073 L32.3143328,13.7680672 C32.3143328,6.58836502 38.1346314,0.768066449 45.3143335,0.768066449 L51.8435926,0.768066449 L51.8435926,23.6689485 C51.8435926,37.8712393 40.3303611,49.3844708 26.1280704,49.3844708 L26.1280704,49.3844708 C11.9257796,49.3844708 0.412548088,37.8712393 0.412548088,23.6689485 L0.412548088,0.768066449 Z"/>
      <path fill="url(#logo-with-text-b)" d="M0.412548088,0.768066449 L6.83325233,0.768066449 C14.0129545,0.768066449 19.833253,6.58836502 19.833253,13.7680672 L19.833253,24.0711073 C19.833253,27.5176623 22.6272379,30.3116472 26.0737929,30.3116472 L26.0737929,30.3116472 C29.520348,30.3116472 32.3143328,27.5176623 32.3143328,24.0711073 L32.3143328,13.7680672 C32.3143328,6.58836502 38.1346314,0.768066449 45.3143335,0.768066449 L51.8435926,0.768066449 L51.8435926,23.6689485 C51.8435926,37.8712393 40.3303611,49.3844708 26.1280704,49.3844708 L26.1280704,49.3844708 C11.9257796,49.3844708 0.412548088,37.8712393 0.412548088,23.6689485 L0.412548088,0.768066449 Z"/>
      <path fill="url(#logo-with-text-c)" d="M0.412548088,0.768066449 L6.83325233,0.768066449 C14.0129545,0.768066449 19.833253,6.58836502 19.833253,13.7680672 L19.833253,24.0711073 C19.833253,27.5176623 22.6272379,30.3116472 26.0737929,30.3116472 L26.0737929,30.3116472 C29.520348,30.3116472 32.3143328,27.5176623 32.3143328,24.0711073 L32.3143328,13.7680672 C32.3143328,6.58836502 38.1346314,0.768066449 45.3143335,0.768066449 L51.8435926,0.768066449 L51.8435926,23.6689485 C51.8435926,37.8712393 40.3303611,49.3844708 26.1280704,49.3844708 L26.1280704,49.3844708 C11.9257796,49.3844708 0.412548088,37.8712393 0.412548088,23.6689485 L0.412548088,0.768066449 Z"/>
      <path fill="url(#logo-with-text-d)" d="M0.412548088,0.768066449 L6.83325233,0.768066449 C14.0129545,0.768066449 19.833253,6.58836502 19.833253,13.7680672 L19.833253,24.0711073 C19.833253,27.5176623 22.6272379,30.3116472 26.0737929,30.3116472 L26.0737929,30.3116472 C29.520348,30.3116472 32.3143328,27.5176623 32.3143328,24.0711073 L32.3143328,13.7680672 C32.3143328,6.58836502 38.1346314,0.768066449 45.3143335,0.768066449 L51.8435926,0.768066449 L51.8435926,23.6689485 C51.8435926,37.8712393 40.3303611,49.3844708 26.1280704,49.3844708 L26.1280704,49.3844708 C11.9257796,49.3844708 0.412548088,37.8712393 0.412548088,23.6689485 L0.412548088,0.768066449 Z"/>
      <path fill="url(#logo-with-text-e)" d="M27.1871719,30.2970476 L30.2676897,31.7381243 L36.2546407,31.1909563 L38.9744528,30.2970476 L42.1565331,29.1578019 L45.7308985,26.1104507 L48.6607427,24.6270033 L50.0185819,20.6430553 L50.502432,17.3214853 L51.2341581,14.9344491 L51.2341581,10.9919196 L51.6797636,7.36661417 L51.6797636,4.47049585 C50.8199196,10.3858621 50.3155983,11.8058857 49.496011,13.4971809 C48.2666302,16.0341237 48.2666302,16.0861745 46.6072667,18.3724986 C44.9479033,20.6588227 44.0312785,21.7539403 41.4837611,23.8205335 C38.9362438,25.8871268 37.9384172,26.4790021 35.0968281,27.6579289 C33.2024354,28.44388 31.2466695,29.0452944 29.2295304,29.462172 L27.1871719,30.2970476 Z" opacity=".974"/>
      <path fill="url(#logo-with-text-f)" d="M0.412548088,0.768066449 L6.83325233,0.768066449 C14.0129545,0.768066449 19.833253,6.58836502 19.833253,13.7680672 L19.833253,24.0711073 C19.833253,27.5176623 22.6272379,30.3116472 26.0737929,30.3116472 L26.0737929,30.3116472 C29.520348,30.3116472 32.3143328,27.5176623 32.3143328,24.0711073 L32.3143328,13.7680672 C32.3143328,6.58836502 38.1346314,0.768066449 45.3143335,0.768066449 L51.8435926,0.768066449 L51.8435926,23.6689485 C51.8435926,37.8712393 40.3303611,49.3844708 26.1280704,49.3844708 L26.1280704,49.3844708 C11.9257796,49.3844708 0.412548088,37.8712393 0.412548088,23.6689485 L0.412548088,0.768066449 Z"/>
      <path fill="url(#logo-with-text-g)" d="M0.412548088,0.768066449 L6.83325233,0.768066449 C14.0129545,0.768066449 19.833253,6.58836502 19.833253,13.7680672 L19.833253,24.0168299 C19.833253,27.4933615 22.6515388,30.3116472 26.1280704,30.3116472 L26.1280704,30.3116472 C30.2149212,30.3116472 34.2450495,29.3551453 37.8960339,27.5186643 L38.1797659,27.3759443 C42.0064754,25.4510719 45.2749638,22.5760433 47.6722688,19.0261463 L47.6946056,18.9930703 C50.098779,15.4330028 51.4569478,11.2703292 51.6149932,6.97741038 L51.8435926,0.768066449 L51.8435926,23.6689485 C51.8435926,37.8712393 40.3303611,49.3844708 26.1280704,49.3844708 L26.1280704,49.3844708 C11.9257796,49.3844708 0.412548088,37.8712393 0.412548088,23.6689485 L0.412548088,0.768066449 Z"/>
      <path fill="url(#logo-with-text-h)" d="M0.412548088,0.768066449 L6.83325233,0.768066449 C14.0129545,0.768066449 19.833253,6.58836502 19.833253,13.7680672 L19.833253,24.0168299 C19.833253,27.4933615 22.6515388,30.3116472 26.1280704,30.3116472 L26.1280704,30.3116472 C30.2149212,30.3116472 34.2450495,29.3551453 37.8960339,27.5186643 L38.1797659,27.3759443 C42.0064754,25.4510719 45.2749638,22.5760433 47.6722688,19.0261463 L47.6946056,18.9930703 C50.098779,15.4330028 51.4569478,11.2703292 51.6149932,6.97741038 L51.8435926,0.768066449 L51.8435926,23.6689485 C51.8435926,37.8712393 40.3303611,49.3844708 26.1280704,49.3844708 L26.1280704,49.3844708 C11.9257796,49.3844708 0.412548088,37.8712393 0.412548088,23.6689485 L0.412548088,0.768066449 Z"/>
      <path fill="url(#logo-with-text-i)" d="M14.3683642,52.3479174 L17.8911821,51.1370647 L23.7577842,48.948524 L26.5979452,49.695988 L29.7800255,48.5567423 L33.3543909,45.5093911 L36.2842351,44.0259437 L37.6420743,40.0419957 L38.1259244,36.7204257 L38.8576505,34.3333895 L38.8576505,30.3908599 L39.303256,26.7655546 L39.303256,23.8694362 L38.9474588,26.3977258 C38.7379981,27.886151 38.3790255,29.3496698 37.8759854,30.7660858 L37.5546256,31.6709427 C37.2670601,32.4806442 37.1328149,33.3368219 37.1587568,34.1956802 L37.1587568,34.1956802 C37.1839388,35.0293817 36.8847724,35.8403522 36.3242,36.4579694 L35.7644751,37.0746529 C34.816679,38.1188983 33.6869775,38.9821821 32.4304479,39.6224159 L20.8950135,45.5000134 L20.6129341,46.8877903 L20.0404933,48.313215 L19.7626836,48.7380656 L19.6791299,48.8483561 C19.558659,49.007377 19.4329961,49.1623969 19.3023446,49.3131652 L19.3023446,49.3131652 C19.1717476,49.4638706 19.0333443,49.6076301 18.8877038,49.7438527 L18.8663576,49.7638185 C18.7065444,49.9132973 18.5374945,50.0525844 18.3602077,50.1808559 L18.2079829,50.2909945 L17.5760532,50.7135182 L14.3683642,52.3479174 Z" opacity=".498" transform="rotate(117 26.836 38.109)"/>
      <path fill="url(#logo-with-text-j)" d="M0.412548088,0.768066449 L6.83325233,0.768066449 C14.0129545,0.768066449 19.833253,6.58836502 19.833253,13.7680672 L19.833253,24.0168299 C19.833253,27.4933615 22.6515388,30.3116472 26.1280704,30.3116472 L26.1280704,30.3116472 C30.2149212,30.3116472 34.2450495,29.3551453 37.8960339,27.5186643 L38.1797659,27.3759443 C42.0064754,25.4510719 45.2749638,22.5760433 47.6722688,19.0261463 L47.6946056,18.9930703 C50.098779,15.4330028 51.4569478,11.2703292 51.6149932,6.97741038 L51.8435926,0.768066449 L51.8435926,23.6689485 C51.8435926,37.8712393 40.3303611,49.3844708 26.1280704,49.3844708 L26.1280704,49.3844708 C11.9257796,49.3844708 0.412548088,37.8712393 0.412548088,23.6689485 L0.412548088,0.768066449 Z"/>
      <path fill="url(#logo-with-text-k)" d="M0.412548088,0.768066449 L6.83325233,0.768066449 C14.0129545,0.768066449 19.833253,6.58836502 19.833253,13.7680672 L19.833253,16.9141245 L19.833253,43.0896535 C19.833253,46.5661851 22.6515388,49.3844708 26.1280704,49.3844708 L26.1280704,49.3844708 C11.9257796,49.3844708 0.412548088,37.8712393 0.412548088,23.6689485 L0.412548088,0.768066449 Z"/>
      <path fill="url(#logo-with-text-l)" d="M0.412548088,0.768066449 L6.83325233,0.768066449 C14.0129545,0.768066449 19.833253,6.58836502 19.833253,13.7680672 L19.833253,16.9141245 L19.833253,43.0896535 C19.833253,46.5661851 22.6515388,49.3844708 26.1280704,49.3844708 L26.1280704,49.3844708 C11.9257796,49.3844708 0.412548088,37.8712393 0.412548088,23.6689485 L0.412548088,0.768066449 Z"/>
    </g>
  </g>
</svg>
