<svg width="28" height="20" xmlns="http://www.w3.org/2000/svg" xmlns:xlink="http://www.w3.org/1999/xlink"><defs><rect id="a" x="0" y="0" width="28" height="20" rx="2"/></defs><g fill="none" fill-rule="evenodd"><mask id="b" fill="#fff"><use xlink:href="#a"/></mask><rect stroke="#F5F5F5" stroke-width=".5" x=".25" y=".25" width="27.5" height="19.5" rx="2"/><path d="M0 12h8v8H1.991C.891 20 0 19.102 0 18.01V12zm28 0v6.01c0 1.099-.9 1.99-1.991 1.99H12v-8h16zM26.009 0C27.109 0 28 .898 28 1.99V8H12V0h14.009zM8 8H0V1.99C0 .892.9 0 1.991 0H8v8z" fill="#EF264D" mask="url(#b)"/></g></svg>