<svg width="28" height="20" xmlns="http://www.w3.org/2000/svg" xmlns:xlink="http://www.w3.org/1999/xlink"><defs><linearGradient x1="50%" y1="0%" x2="50%" y2="100%" id="c"><stop stop-color="#FF212E" offset="0%"/><stop stop-color="#FD0D1B" offset="100%"/></linearGradient><rect id="a" x="0" y="0" width="28" height="20" rx="2"/></defs><g fill="none" fill-rule="evenodd"><mask id="b" fill="#fff"><use xlink:href="#a"/></mask><rect stroke="#F5F5F5" stroke-width=".5" x=".25" y=".25" width="27.5" height="19.5" rx="2"/><path fill="#FF202D" mask="url(#b)" d="M0 0h28v6.667H0z"/><path d="M11.333 4.667l.667.666v1.334h-1.333V5.333l.666-.666zm2.667 0l.667.666v1.334h-1.334V5.333L14 4.667zm2.667 0l.666.666v1.334H16V5.333l.667-.666z" fill="#1895DB" opacity=".5" mask="url(#b)"/><path d="M12.667 4.667l.666.666v1.334H12V5.333l.667-.666zm2.666 0l.667.666v1.334h-1.333V5.333l.666-.666z" fill="#191F94" opacity=".5" mask="url(#b)"/><path fill="#2027AC" mask="url(#b)" d="M0 13.333h28V20H0z"/><path d="M16 9.333h-1.333v1.333H16V9.334zM17.333 12v1.333H16V12h1.333zm-2.667-1.333h-1.333V12h1.334l-.001-1.333zm-1.333-1.334H12v1.334h1.333V9.333zM14.667 8h-1.334v1.333h1.334V8zm2-1.333L17.333 8H16V6.667h.667zm-4.667 0V8h-1.333l.666-1.333H12zM12 12v1.333h-1.333V12H12zm1.333 1.333v1.334H12v-1.334h1.333zm0 0V12H12v-1.333h-1.333V9.333H12V8h1.333V6.667h1.334V8H16v1.333h1.333v1.334H16V12h-1.333v1.333H16v1.334h-1.333v-1.334h-1.334z" fill="url(#c)" mask="url(#b)"/></g></svg>