<?xml version="1.0" encoding="UTF-8"?>
<svg width="28px" height="20px" viewBox="0 0 28 20" version="1.1" xmlns="http://www.w3.org/2000/svg" xmlns:xlink="http://www.w3.org/1999/xlink">
    <!-- Generator: Sketch 57.1 (83088) - https://sketch.com -->
    <title>@slovakia</title>
    <desc>Created with Sketch.</desc>
    <defs>
        <rect id="path-1" x="0" y="0" width="28" height="20" rx="2"></rect>
        <path d="M0.948647176,1.33517342 C0.977008558,0.597777501 1.5956951,0 2.33517342,0 L8.33149325,0 C9.06888917,0 9.68957802,0.595695098 9.71801949,1.33517342 L9.94864718,7.33149325 C9.97700856,8.06888917 9.55254038,9.05020348 8.98740284,9.53460709 L6.84846627,11.3679813 C6.01168145,12.0852254 4.65475993,12.0850323 3.8182004,11.3679813 L1.67926383,9.53460709 C1.12002186,9.05525683 0.689578017,8.07097157 0.71801949,7.33149325 L0.948647176,1.33517342 Z" id="path-3"></path>
    </defs>
    <g id="Page-1" stroke="none" stroke-width="1" fill="none" fill-rule="evenodd">
        <g id="Flags" transform="translate(-460.000000, -892.000000)">
            <g id="slovakia" transform="translate(460.000000, 892.000000)">
                <mask id="mask-2" fill="white">
                    <use xlink:href="#path-1"></use>
                </mask>
                <rect stroke="#F5F5F5" stroke-width="0.5" x="0.25" y="0.25" width="27.5" height="19.5" rx="2"></rect>
                <rect id="Rectangle-2" fill="#0C47B7" mask="url(#mask-2)" x="0" y="6.66666667" width="28" height="6.66666667"></rect>
                <rect id="Rectangle-2" fill="#E53B35" mask="url(#mask-2)" x="0" y="13.3333333" width="28" height="6.66666667"></rect>
                <g id="Rectangle-1693" mask="url(#mask-2)">
                    <g transform="translate(4.666667, 4.000000)">
                        <mask id="mask-4" fill="white">
                            <use xlink:href="#path-3"></use>
                        </mask>
                        <path stroke="#FFFFFF" stroke-width="1.33333333" d="M0.28247306,1.30955134 C0.324619791,0.213736331 1.23793597,-0.666666667 2.33517342,-0.666666667 L8.33149325,-0.666666667 C9.42778186,-0.666666667 10.3420104,0.212788217 10.3841936,1.30955134 L10.6148213,7.30587117 C10.6510975,8.24905174 10.1392072,9.42539808 9.42126375,10.0407782 L7.28232718,11.8741524 C6.19595089,12.805332 4.47062718,12.8052561 3.38433948,11.8741524 L1.24540291,10.0407782 C0.531003795,9.42843606 0.015608835,8.24802118 0.051845374,7.30587117 L0.28247306,1.30955134 Z"></path>
                        <path d="M4.66666667,6.99365234 C4.66666667,6.81306314 4.50973002,6.66666667 4.33640734,6.66666667 L2.99692599,6.66666667 C2.8145288,6.66666667 2.66666667,6.52397664 2.66666667,6.33021037 L2.66666667,5.66978963 C2.66666667,5.48396995 2.82360331,5.33333333 2.99692599,5.33333333 L4.33640734,5.33333333 C4.51880453,5.33333333 4.66666667,5.19064331 4.66666667,4.99687703 L4.66666667,4.3364563 C4.66666667,4.15063662 4.52397664,4 4.33021037,4 L3.66978963,4 C3.48396995,4 3.33333333,3.85730998 3.33333333,3.6635437 L3.33333333,3.00312297 C3.33333333,2.81730328 3.47602336,2.66666667 3.66978963,2.66666667 L4.33021037,2.66666667 C4.51603005,2.66666667 4.66666667,2.52397664 4.66666667,2.33021037 L4.66666667,1.66978963 C4.66666667,1.48396995 4.80935669,1.33333333 5.00312297,1.33333333 L5.6635437,1.33333333 C5.84936338,1.33333333 6,1.47602336 6,1.66978963 L6,2.33021037 C6,2.51603005 6.14269002,2.66666667 6.3364563,2.66666667 L6.99687703,2.66666667 C7.18269672,2.66666667 7.33333333,2.80935669 7.33333333,3.00312297 L7.33333333,3.6635437 C7.33333333,3.84936338 7.19064331,4 6.99687703,4 L6.3364563,4 C6.15063662,4 6,4.14269002 6,4.3364563 L6,4.99687703 C6,5.18269672 6.15693665,5.33333333 6.33025932,5.33333333 L7.66974068,5.33333333 C7.85213786,5.33333333 8,5.47602336 8,5.66978963 L8,6.33021037 C8,6.51603005 7.84306335,6.66666667 7.66974068,6.66666667 L6.33025932,6.66666667 C6.14786214,6.66666667 6,6.81003825 6,6.99365234 L6,9.00634766 C6,9.18693686 5.85730998,9.33333333 5.6635437,9.33333333 L5.00312297,9.33333333 C4.81730328,9.33333333 4.66666667,9.18996175 4.66666667,9.00634766 L4.66666667,6.99365234 Z" id="Rectangle-1694" stroke="none" fill="#FFFFFF" fill-rule="evenodd" mask="url(#mask-4)"></path>
                        <path d="M5.33333333,8.66666667 C5.86405742,8.66666667 6.32235829,8.9767473 6.53695132,9.42562394 C8.15807394,9.68096925 9.33333333,10.4385272 9.33333333,11.3333333 C9.33333333,12.4379028 7.54247233,13.3333333 5.33333333,13.3333333 C3.12419433,13.3333333 1.33333333,12.4379028 1.33333333,11.3333333 C1.33333333,10.4385272 2.50859273,9.68096925 4.12940807,9.42551133 C4.34430838,8.9767473 4.80260925,8.66666667 5.33333333,8.66666667 Z" id="Oval-215" stroke="none" fill="#1251A1" fill-rule="evenodd" mask="url(#mask-4)"></path>
                    </g>
                </g>
            </g>
        </g>
    </g>
</svg>