<svg width="28" height="20" xmlns="http://www.w3.org/2000/svg" xmlns:xlink="http://www.w3.org/1999/xlink"><defs><linearGradient x1="50%" y1="0%" x2="50%" y2="100%" id="e"><stop stop-color="#FFF" offset="0%"/><stop stop-color="#F0F0F0" offset="100%"/></linearGradient><filter x="-5.4%" y="-7.5%" width="110.7%" height="130%" filterUnits="objectBoundingBox" id="c"><feOffset dy="1" in="SourceAlpha" result="shadowOffsetOuter1"/><feColorMatrix values="0 0 0 0 0 0 0 0 0 0 0 0 0 0 0 0 0 0 0.06 0" in="shadowOffsetOuter1"/></filter><rect id="a" x="0" y="0" width="28" height="20" rx="2"/><path d="M10 6.667A.667.667 0 1110 8a.667.667 0 010-1.333zm-2.667 0a.667.667 0 110 1.333.667.667 0 010-1.333zm-2.666 0a.667.667 0 110 1.333.667.667 0 010-1.333zM2 6.667A.667.667 0 112 8a.667.667 0 010-1.333zm1.333-1.334a.667.667 0 110 1.334.667.667 0 010-1.334zm2.667 0a.667.667 0 110 1.334.667.667 0 010-1.334zm2.667 0a.667.667 0 110 1.334.667.667 0 010-1.334zM10 4a.667.667 0 110 1.333A.667.667 0 0110 4zM7.333 4a.667.667 0 110 1.333.667.667 0 010-1.333zM4.667 4a.667.667 0 110 1.333.667.667 0 010-1.333zM2 4a.667.667 0 110 1.333A.667.667 0 012 4zm1.333-1.333a.667.667 0 110 1.333.667.667 0 010-1.333zm2.667 0A.667.667 0 116 4a.667.667 0 010-1.333zm2.667 0a.667.667 0 110 1.333.667.667 0 010-1.333zM2 1.333a.667.667 0 110 1.334.667.667 0 010-1.334zm2.667 0a.667.667 0 110 1.334.667.667 0 010-1.334zm2.666 0a.667.667 0 110 1.334.667.667 0 010-1.334zm2.667 0a.667.667 0 110 1.334.667.667 0 010-1.334z" id="d"/></defs><g fill="none" fill-rule="evenodd"><mask id="b" fill="#fff"><use xlink:href="#a"/></mask><use fill="#FFF" xlink:href="#a"/><path d="M28 18.667V20H0v-1.333h28zM28 16v1.333H0V16h28zm0-2.667v1.334H0v-1.334h28zm0-2.666V12H0v-1.333h28zM28 8v1.333H0V8h28zm0-2.667v1.334H0V5.333h28zm0-2.666V4H0V2.667h28zM28 0v1.333H0V0h28z" fill="#D02F44" mask="url(#b)"/><path fill="#46467F" mask="url(#b)" d="M0 0h12v9.333H0z"/><g mask="url(#b)"><use fill="#000" filter="url(#c)" xlink:href="#d"/><use fill="url(#e)" xlink:href="#d"/></g></g></svg>