<svg width="20" height="19" xmlns="http://www.w3.org/2000/svg"><g fill="#FFF" fill-rule="nonzero"><path d="M10.802 3.355c.894 0 1.624.7 1.628 1.561v12.39c0 .861-.73 1.561-1.628 1.561H1.799c-.898 0-1.628-.7-1.628-1.561V4.916c0-.861.73-1.561 1.628-1.561h9.003zm0 .186H1.799c-.791 0-1.434.616-1.434 1.375v12.39c0 .759.643 1.375 1.434 1.375h9.003c.791 0 1.434-.616 1.434-1.375V4.916c-.004-.758-.647-1.375-1.434-1.375zm1.529 13.71c0 .136-.108.724-.373 1.038-.313.371-.802.463-.968.463H1.8c-.155 0-.638-.08-.984-.371-.345-.292-.553-.795-.553-.943l.102-12.87c0-.137.162-.554.451-.774.335-.254.814-.304.98-.304l9.002.05c.162 0 .683-.073 1.029.254.31.294.455.983.455 1.123l.049 12.335zm-1.17.05V4.917a.356.356 0 00-.363-.348H1.795c-.2 0-.363.156-.363.348v12.386c0 .192.163.348.363.348h9.003c.2 0 .363-.156.363-.348z"/><path d="M18.06.106H9.059c-.899 0-1.628.7-1.628 1.562 0 .336.281.606.632.606s.633-.27.633-.606c0-.192.162-.349.363-.349h9.003c.2 0 .363.157.363.349v12.39a.356.356 0 01-.363.347.618.618 0 00-.633.607c0 .337.282.606.633.606.898 0 1.628-.7 1.628-1.56V1.667c0-.862-.73-1.562-1.628-1.562zm0 .186c.792 0 1.435.617 1.435 1.376v12.39c0 .758-.643 1.374-1.434 1.374-.244 0 .794.113.794-.12 0-.235-.143-.065.101-.065.308 0 .618-.895.618-1.19l-.08-12.738c0-.132-.132-.484-.395-.699C18.777.36 18.3.243 18.13.243L8.993.199c-.307 0-1.37.547-1.37.842v.627c0-.76.644-1.376 1.435-1.376h9.003z"/></g></svg>