<svg width="18" height="22" xmlns="http://www.w3.org/2000/svg"><g fill="#C9C9D7" fill-rule="nonzero"><path d="M11.89 4.393c.922 0 1.674.752 1.678 1.679v13.32a1.68 1.68 0 01-1.678 1.68H2.605a1.68 1.68 0 01-1.678-1.68V6.073a1.68 1.68 0 011.678-1.68h9.285zm0 .2H2.605a1.48 1.48 0 00-1.478 1.479v13.32a1.48 1.48 0 001.478 1.48h9.285a1.48 1.48 0 001.478-1.48V6.073a1.485 1.485 0 00-1.478-1.48zm1.576 14.742c0 .145-.111.777-.384 1.115-.323.399-.827.497-.999.497H2.605c-.158 0-.657-.085-1.013-.398-.357-.314-.57-.855-.57-1.014l.105-13.838c0-.147.166-.595.465-.832.345-.273.84-.327 1.01-.327l9.283.055c.168 0 .705-.08 1.061.272.32.316.47 1.057.47 1.207l.05 13.263zm-1.206.054V6.072a.375.375 0 00-.375-.375H2.601a.375.375 0 00-.374.375v13.317c0 .206.168.374.374.374h9.284a.375.375 0 00.375-.374z"/><path d="M15.44.9H6.155a1.68 1.68 0 00-1.678 1.679c0 .362.29.652.652.652a.65.65 0 00.652-.652c0-.207.168-.375.374-.375h9.285c.206 0 .374.168.374.375v13.32a.375.375 0 01-.374.375.65.65 0 00-.652.652c0 .362.29.653.652.653a1.68 1.68 0 001.678-1.68V2.58A1.68 1.68 0 0015.44.9zm0 .2a1.48 1.48 0 011.478 1.479v13.32a1.48 1.48 0 01-1.478 1.48c-.252 0 .819.12.819-.13 0-.252-.147-.07.104-.07.317 0 .637-.962.637-1.28l-.082-13.695c0-.142-.137-.52-.408-.751-.332-.282-.823-.406-.998-.406L6.09 1c-.317 0-1.412.588-1.412.905v.674A1.48 1.48 0 016.155 1.1h9.285z"/></g></svg>