<?xml version="1.0" encoding="UTF-8"?>
<svg width="18px" height="18px" viewBox="0 0 18 18" version="1.1" xmlns="http://www.w3.org/2000/svg" xmlns:xlink="http://www.w3.org/1999/xlink">
    <!-- Generator: Sketch 56.2 (81672) - https://sketch.com -->
    <title>Shape</title>
    <desc>Created with Sketch.</desc>
    <g id="web" stroke="none" stroke-width="1" fill="none" fill-rule="evenodd">
        <g id="top-up-method-3" transform="translate(-436.000000, -629.000000)" fill="#FF4C62">
            <g id="info-choose" transform="translate(436.000000, 626.000000)">
                <g id="info-button" transform="translate(0.000000, 3.000000)">
                    <path d="M15.3641739,2.63582609 C11.8494783,-0.878478261 6.15091304,-0.878869565 2.63582609,2.63582609 C-0.878869565,6.15052174 -0.878478261,11.849087 2.63582609,15.3641739 C6.15052174,18.878087 11.849087,18.8784783 15.3641739,15.3641739 C18.8784783,11.849087 18.878087,6.15091304 15.3641739,2.63582609 Z M10.1735217,12.9130435 C10.1735217,13.5614348 9.648,14.0869565 8.9996087,14.0869565 C8.35121739,14.0869565 7.82569565,13.5614348 7.82569565,12.9130435 L7.82569565,8.2173913 C7.82569565,7.569 8.35121739,7.04347826 8.9996087,7.04347826 C9.648,7.04347826 10.1735217,7.569 10.1735217,8.2173913 L10.1735217,12.9130435 Z M8.97886957,6.21078261 C8.30269565,6.21078261 7.85191304,5.73182609 7.866,5.14056522 C7.85191304,4.52073913 8.30269565,4.05626087 8.99256522,4.05626087 C9.68282609,4.05626087 10.1195217,4.52113043 10.134,5.14056522 C10.1336087,5.73182609 9.68321739,6.21078261 8.97886957,6.21078261 Z" id="Shape"></path>
                </g>
            </g>
        </g>
    </g>
</svg>