<svg xmlns="http://www.w3.org/2000/svg" width="25" height="25" viewBox="0 0 25 25">
  <g fill="#C6D1DB" fill-rule="evenodd" transform="translate(0 .179)">
    <circle cx="12.5" cy="2" r="2"/>
    <circle cx="12.5" cy="20.855" r="3.863"/>
    <path d="M2,17.8212891 L2.10375977,17.8212891 C3.2656342,17.8212891 4.20751953,16.8794037 4.20751953,15.7175293 L4.20751953,9.67452454 C4.20751953,5.17519074 7.85495025,1.52776003 12.354284,1.52776003 L12.5854132,1.52776003 C17.084747,1.52776003 20.7321777,5.17519074 20.7321777,9.67452454 L20.7321777,15.6873779 C20.7321777,16.8659045 21.6875623,17.8212891 22.8660889,17.8212891 L23,17.8212891 C24.1045695,17.8212891 25,18.7167196 25,19.8212891 L25,19.8212891 C25,20.9258586 24.1045695,21.8212891 23,21.8212891 L2,21.8212891 C0.8954305,21.8212891 -4.07209366e-14,20.9258586 -4.08562073e-14,19.8212891 L-9.32587341e-15,19.8212891 C-5.53692499e-15,18.7167196 0.8954305,17.8212891 2,17.8212891 Z"/>
    <rect width="25" height="4" y="17.821" rx="2"/>
  </g>
</svg>
