<svg xmlns="http://www.w3.org/2000/svg" width="112" height="111" viewBox="0 0 112 111">
  <g fill="none" fill-rule="evenodd" stroke-width="9.45" transform="translate(-11.41 -11.91)">
    <path stroke="#22D6DE" stroke-dasharray="171.36" d="M67.4099971,117.809995 C95.2451472,117.809995 117.809995,95.2451472 117.809995,67.4099971 C117.809995,39.5748469 95.2451472,17.0099993 67.4099971,17.0099993 C39.5748469,17.0099993 17.0099993,39.5748469 17.0099993,67.4099971 C17.0099993,95.2451472 39.5748469,117.809995 67.4099971,117.809995 Z"/>
    <path stroke="#22D6DE" stroke-dasharray="146.16" d="M67.4099971,117.809995 C95.2451472,117.809995 117.809995,95.2451472 117.809995,67.4099971 C117.809995,39.5748469 95.2451472,17.0099993 67.4099971,17.0099993 C39.5748469,17.0099993 17.0099993,39.5748469 17.0099993,67.4099971 C17.0099993,95.2451472 39.5748469,117.809995 67.4099971,117.809995 Z" transform="rotate(154 67.41 67.41)"/>
    <path stroke="#22D6DE" stroke-dasharray="146.16" d="M67.4099971,117.809995 C95.2451472,117.809995 117.809995,95.2451472 117.809995,67.4099971 C117.809995,39.5748469 95.2451472,17.0099993 67.4099971,17.0099993 C39.5748469,17.0099993 17.0099993,39.5748469 17.0099993,67.4099971 C17.0099993,95.2451472 39.5748469,117.809995 67.4099971,117.809995 Z" transform="rotate(-175 67.41 67.41)"/>
    <path stroke="#22D6DE" stroke-dasharray="171.36" d="M67.4099971,117.809995 C95.2451472,117.809995 117.809995,95.2451472 117.809995,67.4099971 C117.809995,39.5748469 95.2451472,17.0099993 67.4099971,17.0099993 C39.5748469,17.0099993 17.0099993,39.5748469 17.0099993,67.4099971 C17.0099993,95.2451472 39.5748469,117.809995 67.4099971,117.809995 Z" transform="rotate(-104 67.41 67.41)"/>
  </g>
</svg>
