<svg xmlns="http://www.w3.org/2000/svg" width="29" height="24" viewBox="0 0 29 24">
  <g fill="none" fill-rule="evenodd" transform="translate(0 .6)">
    <rect width="19" height="19" x=".5" y=".5" fill="#0D0E55" stroke="#B9C3F8" rx="3"/>
    <rect width="23" height="20" y="3" fill="#B9C3F8" rx="3"/>
    <path stroke="#BAB9F8" stroke-linecap="round" d="M9.5 3.5L6.5 3.5M6.58251953 3.5L4.3241272 3.5C3.49441914 3.5 2.82180786 2.82738872 2.82180786 1.99768066L2.82180786 1.99768066C2.82180786 1.16797261 3.49441914.495361328 4.3241272.495361328L7.03981018.495361328"/>
    <path fill="#B9C3F8" d="M2.55755615,1.0501709 L2.4660904,1.26403704 C2.38585065,1.45165441 2.33932523,1.65195189 2.32865143,1.85572815 L2.32865143,1.85572815 C2.31794846,2.06006118 2.33638184,2.26487753 2.38339706,2.46401596 L2.38949613,2.48984928 C2.43788538,2.69480758 2.52880907,2.88730836 2.65637207,3.05487061 L2.29277668,3.12133921 C2.08457742,3.15939996 1.88272476,3.22639371 1.69308472,3.32037354 L1.69308472,3.32037354 C1.5029711,3.41458806 1.32255822,3.52722515 1.15443787,3.65666669 L1.00152588,3.7743988 L1.00152588,3.03555672 C1.00152588,2.75633273 1.05214387,2.47942145 1.15092468,2.21825409 L1.15092468,2.21825409 C1.24913761,1.95858816 1.4072228,1.72575394 1.61233595,1.53866902 L1.63963318,1.51377106 C1.8625624,1.31043599 2.13115608,1.16374265 2.42272366,1.08608356 L2.55755615,1.0501709 Z"/>
    <circle cx="23" cy="12.836" r="5" fill="#0D0E55" stroke="#B9C3F8"/>
    <path stroke="#B9C3F8" stroke-linecap="round" d="M23.1662598,11.0864258 L23.1662598,14.5864258"/>
    <path stroke="#B9C3F8" stroke-linecap="round" d="M22.9055176,10.9006348 L22.9055176,14.4006348" transform="rotate(90 22.906 12.9)"/>
  </g>
</svg>
