<svg xmlns="http://www.w3.org/2000/svg" width="24" height="24" viewBox="0 0 24 24">
  <g fill="none" fill-rule="evenodd" transform="translate(.5 .6)">
    <g transform="translate(0 .274)">
      <rect width="19" height="19" x=".5" y=".5" fill="#0D0E54" stroke="#B9C3F8" rx="3"/>
      <rect width="23" height="20" y="3" fill="#B9C3F8" rx="3"/>
      <path stroke="#BAB9F8" stroke-linecap="round" d="M9.5 3.5L6.5 3.5M6.58251953 3.5L4.3241272 3.5C3.49441914 3.5 2.82180786 2.82738872 2.82180786 1.99768066L2.82180786 1.99768066C2.82180786 1.16797261 3.49441914.495361328 4.3241272.495361328L7.03981018.495361328"/>
    </g>
    <path fill="#BAB9F8" d="M2.48608398,0.769760132 L2.64447837,1.09571334 C2.76117324,1.33585486 2.82180786,1.59936218 2.82180786,1.8663559 L2.82180786,3.71838379 L2.03512379,3.75835109 C1.83817673,3.76835694 1.65973413,3.87753303 1.56116486,4.04833221 L1.56116486,4.04833221 C1.46334201,4.217838 1.28250627,4.32226562 1.08679853,4.32226562 L0.616699219,4.32226562 L0.616699219,3.22383817 C0.616699219,2.99249208 0.682731767,2.76595206 0.807037354,2.57083893 L0.807037354,2.57083893 C0.933844244,2.37179968 1.05025096,2.16632255 1.15578918,1.9552342 L1.20022583,1.8663559 C1.33297072,1.60085115 1.53524175,1.37632128 1.78549766,1.21667806 L2.48608398,0.769760132 Z"/>
    <g stroke="#0D0D52" stroke-linecap="round" transform="translate(5 7.335)">
      <path d="M0.5,2.56809256 L11.3937988,2.56809256"/>
      <polyline points="8.448 1.348 8.471 3.788 10.888 3.788" transform="rotate(-135 9.668 2.568)"/>
    </g>
    <g stroke="#0D0D51" stroke-linecap="round" transform="matrix(-1 0 0 1 18 13.335)">
      <path d="M0.5,2.56809256 L11.3937988,2.56809256"/>
      <polyline points="8.592 1 8.622 4.136 11.729 4.136" transform="rotate(-135 10.16 2.568)"/>
    </g>
  </g>
</svg>
