<svg id="Layer_1" xmlns="http://www.w3.org/2000/svg" viewBox="0 0 284.9 95.1" width="2500" height="835"><style>.st0{fill:#061027}.st1{fill:#94c5ff}.st2{fill:#1a32af}.st3{fill:#0092ff}.st4{fill:#05f}</style><g id="WyreLogo"><g id="WyreLogoColor"><g id="Shape"><path class="st0" d="M-96.8-170.9c8.7 1.2 14.1-.4 18.2-4.5 2.6-2.6 4.6-5.6 6.3-8.8 7-12.9 24-44 24-44h-12.2l-12.7 25.5-4-25.5h-13v.6s4.4 23.3 6.6 35.3c.3 1.8.7 6.4-2.5 9.3-1.8 1.7-4.4 3-8.9 2.3l-1.8 9.8zM-106.5-228.2l-11.8 26.8-.3-.1-1.6-26h-12.9l-12.5 26.1-.3-.2-.5-26.6h-12.3l2.4 42.7h13.3l12.9-27.8h.3l2 27.8h13.4l19.4-42.7zM-35.5-185.5h-12.9c2.9-14.4 5.6-28.3 8.5-42.7h10v7.9c1.3-3.2 3.2-6.3 6.3-7.6 3-1.3 7.7-1.2 12.5.2-1.9 3.7-3.3 6.9-5.4 10.9-1.8-.4-3.5-.8-5.2-1-3.8-.4-6.5 1.1-7.8 4.7-.9 2.5-1.5 5.2-2 7.8-1.4 6.6-2.6 13.2-4 19.8zM5.8-218c1.8-2.2 5.2-3.5 7.6-2.7 3 .9 4 4.3 1.9 6.6-.7.8-1.7 1.4-2.7 1.8-3.1 1.2-6.3 1.1-9.7.5.5-2.4 1.4-4.4 2.9-6.2zm16.5 21.9h-.4c-4.9 1.9-10.4 2.4-14.2 1.3-4.2-1.2-6.6-4.8-5.8-8.9 12.4 1 17.7-1.3 20.6-3 7.7-4.6 9.6-16.9-.4-20.5-8.8-3.2-21.1-1.7-26.9 5.3-5.3 6.4-6.8 13.4-6 21.3.6 5.9 4.6 14.3 17.8 15.7 8 .8 13.1-1.3 13.5-1.4l1.8-9.8z" transform="translate(256 252)"/><path class="st1" d="M-207.5-204.4h29.3l-15.8 38.7c-2.2 5.4-7.4 8.9-13.2 8.9h-29.3l15.8-38.7c2.2-5.5 7.4-8.9 13.2-8.9" transform="translate(256 252)"/><path class="st2" d="M-178.2-204.4l-17.8 22.6c-2.7 3.6-6.8 5.9-11.6 5.9h-21.3l8.1-19.7c2.2-5.3 7.4-8.8 13.2-8.8h29.4z" transform="translate(256 252)"/><path class="st3" d="M-217.3-228.2h29.3l-15.8 38.7c-2.2 5.4-7.4 8.9-13.2 8.9h-29.3l15.8-38.7c2.2-5.4 7.5-8.9 13.2-8.9" transform="translate(256 252)"/><path class="st2" d="M-187.9-228.2l-17.8 22.6c-2.7 3.6-6.8 5.9-11.6 5.9h-21.3l8.1-19.7c2.2-5.3 7.4-8.8 13.2-8.8h29.4z" transform="translate(256 252)"/><path class="st4" d="M-227-252h29.3l-15.8 38.7c-2.2 5.4-7.4 8.9-13.2 8.9H-256l15.8-38.7c2.2-5.4 7.4-8.9 13.2-8.9" transform="translate(256 252)"/></g></g></g></svg>