<svg width="24" height="24" viewBox="0 0 24 24" fill="none" xmlns="http://www.w3.org/2000/svg">
<path fill-rule="evenodd" clip-rule="evenodd" d="M4 7.89744C4 6.90616 4.80878 6.10256 5.80645 6.10256H14.0645C15.0622 6.10256 15.871 6.90616 15.871 7.89744V20.2051C15.871 21.1964 15.0622 22 14.0645 22H5.80645C4.80878 22 4 21.1964 4 20.2051V7.89744ZM5.80645 7.64103C5.66393 7.64103 5.54839 7.75583 5.54839 7.89744V20.2051C5.54839 20.3467 5.66393 20.4615 5.80645 20.4615H14.0645C14.207 20.4615 14.3226 20.3467 14.3226 20.2051V7.89744C14.3226 7.75583 14.207 7.64103 14.0645 7.64103H5.80645Z" fill="#08AEC5"/>
<path fill-rule="evenodd" clip-rule="evenodd" d="M8.12903 3.79487C8.12903 2.80359 8.93781 2 9.93548 2H18.1935C19.1912 2 20 2.80359 20 3.79487V16.1026C20 17.0938 19.1912 17.8974 18.1935 17.8974H16.6452V16.359H18.1935C18.3361 16.359 18.4516 16.2442 18.4516 16.1026V3.79487C18.4516 3.65326 18.3361 3.53846 18.1935 3.53846H9.93548C9.79296 3.53846 9.67742 3.65326 9.67742 3.79487V4.82051H8.12903V3.79487Z" fill="#08AEC5"/>
</svg>
