<svg width="18" height="18" viewBox="0 0 18 18" fill="none" xmlns="http://www.w3.org/2000/svg">
<path fill-rule="evenodd" clip-rule="evenodd" d="M15.3642 2.63587C11.8495 -0.878429 6.15096 -0.878821 2.63587 2.63587C-0.878821 6.15057 -0.878429 11.8491 2.63587 15.3642C6.15057 18.8781 11.8491 18.8785 15.3642 15.3642C18.8785 11.8491 18.8781 6.15096 15.3642 2.63587ZM10.1736 12.9131C10.1736 13.5615 9.64805 14.087 8.99966 14.087C8.35127 14.087 7.82574 13.5615 7.82574 12.9131V8.21744C7.82574 7.56905 8.35127 7.04353 8.99966 7.04353C9.64805 7.04353 10.1736 7.56905 10.1736 8.21744V12.9131ZM8.97892 6.21083C8.30274 6.21083 7.85196 5.73187 7.86605 5.14061C7.85196 4.52079 8.30274 4.05631 8.99261 4.05631C9.68287 4.05631 10.1196 4.52118 10.134 5.14061C10.1337 5.73187 9.68327 6.21083 8.97892 6.21083Z" fill="#C4C9D7"/>
</svg>
