<svg width="24" height="24" viewBox="0 0 24 24" fill="none" xmlns="http://www.w3.org/2000/svg">
<path d="M4.21875 1.40625H1.40625V4.26562H0V0H4.21875V1.40625Z" fill="#08AEC5"/>
<path d="M19.7344 0H24V4.26562H22.5938V1.40625H19.7344V0Z" fill="#08AEC5"/>
<path d="M1.40625 22.5938V19.7812H0V24H4.21875V22.5938H1.40625Z" fill="#08AEC5"/>
<path d="M22.5938 19.7812H24V24H19.7344V22.5938H22.5938V19.7812Z" fill="#08AEC5"/>
<path d="M7.03125 5.67188H5.625V7.07812H7.03125V5.67188Z" fill="#08AEC5"/>
<path fill-rule="evenodd" clip-rule="evenodd" d="M9.89062 2.85938H2.8125V9.89062H9.89062V2.85938ZM8.48438 8.48438H4.21875V4.26562H8.48438V8.48438Z" fill="#08AEC5"/>
<path d="M18.3281 5.67188H16.9219V7.07812H18.3281V5.67188Z" fill="#08AEC5"/>
<path fill-rule="evenodd" clip-rule="evenodd" d="M21.1406 2.85938H14.1094V9.89062H21.1406V2.85938ZM19.7344 8.48438H15.5156V4.26562H19.7344V8.48438Z" fill="#08AEC5"/>
<path d="M7.03125 16.9219H5.625V18.3281H7.03125V16.9219Z" fill="#08AEC5"/>
<path fill-rule="evenodd" clip-rule="evenodd" d="M2.8125 21.1875H9.89062V14.1094H2.8125V21.1875ZM4.21875 15.5156H8.48438V19.7812H4.21875V15.5156Z" fill="#08AEC5"/>
<path d="M11.2969 15.5156H14.1094V14.1094H12.7031V11.2969H5.625V12.7031H11.2969V15.5156Z" fill="#08AEC5"/>
<path d="M4.21875 11.2969H2.8125V12.7031H4.21875V11.2969Z" fill="#08AEC5"/>
<path d="M14.1094 11.2969H21.1406V12.7031H14.1094V11.2969Z" fill="#08AEC5"/>
<path d="M12.7031 2.85938H11.2969V7.07812H12.7031V2.85938Z" fill="#08AEC5"/>
<path d="M12.7031 19.7812V16.9219H11.2969V21.1875H15.5156V19.7812H12.7031Z" fill="#08AEC5"/>
<path d="M19.7344 16.9219H21.1406V21.1875H16.9219V19.7812H19.7344V16.9219Z" fill="#08AEC5"/>
<path d="M16.9219 15.5156H21.1406V14.1094H15.5156V16.9219H14.1094V18.3281H15.5156V16.9219H16.9219V18.3281H18.3281V16.9219H16.9219V15.5156Z" fill="#08AEC5"/>
<path d="M12.7031 8.48438H11.2969V9.89062H12.7031V8.48438Z" fill="#08AEC5"/>
</svg>
