<?xml version="1.0" encoding="UTF-8"?>
<svg width="18px" height="12px" viewBox="0 0 18 12" version="1.1" xmlns="http://www.w3.org/2000/svg" xmlns:xlink="http://www.w3.org/1999/xlink">
    <!-- Generator: Sketch 56.2 (81672) - https://sketch.com -->
    <title>Group 3 Copy 2</title>
    <desc>Created with Sketch.</desc>
    <g id="web" stroke="none" stroke-width="1" fill="none" fill-rule="evenodd">
        <g id="17.-web" transform="translate(-20.000000, -90.000000)" fill="#31405E" fill-rule="nonzero">
            <g id="&lt;-" transform="translate(20.000000, 87.000000)">
                <g id="Group-3-Copy-2" transform="translate(0.000000, 3.000000)">
                    <g id="right-arrow" transform="translate(9.000000, 6.000000) rotate(-180.000000) translate(-9.000000, -6.000000) ">
                        <path d="M12.0634783,0.525391304 C11.8396522,0.29373913 11.4671304,0.29373913 11.2354783,0.525391304 C11.0116522,0.749217391 11.0116522,1.12173913 11.2354783,1.34504348 L15.433913,5.54347826 L1.27530435,5.54347826 C0.952347826,5.544 0.695652174,5.80069565 0.695652174,6.12365217 C0.695652174,6.4466087 0.952347826,6.71165217 1.27530435,6.71165217 L15.433913,6.71165217 L11.2354783,10.9022609 C11.0116522,11.133913 11.0116522,11.5069565 11.2354783,11.7302609 C11.4671304,11.961913 11.8401739,11.961913 12.0634783,11.7302609 L17.2558261,6.53791304 C17.4874783,6.31408696 17.4874783,5.94156522 17.2558261,5.71826087 L12.0634783,0.525391304 Z" id="Path"></path>
                    </g>
                </g>
            </g>
        </g>
    </g>
</svg>