<svg width="16" height="16" viewBox="0 0 16 16" fill="none" xmlns="http://www.w3.org/2000/svg">
<path fill-rule="evenodd" clip-rule="evenodd" d="M8.00033 15.3333C3.95024 15.3333 0.666992 12.0501 0.666992 7.99999C0.666992 3.9499 3.95024 0.666656 8.00033 0.666656C12.0504 0.666656 15.3337 3.9499 15.3337 7.99999C15.3337 12.0501 12.0504 15.3333 8.00033 15.3333ZM8.00033 14C11.314 14 14.0003 11.3137 14.0003 7.99999C14.0003 4.68628 11.314 1.99999 8.00033 1.99999C4.68662 1.99999 2.00033 4.68628 2.00033 7.99999C2.00033 11.3137 4.68662 14 8.00033 14ZM5.80504 11.1381L9.33363 7.60947V9.99999H10.667V5.33332H6.0003V6.66666H8.39083L4.86223 10.1953L5.80504 11.1381Z" fill="white"/>
</svg>
