<svg width="11" height="17" xmlns="http://www.w3.org/2000/svg"><g fill="#B9C3F8" fill-rule="nonzero"><path d="M9.118 11.422H7.444V8.554A.551.551 0 006.896 8H4.438a.551.551 0 00-.549.554v2.868H2.216c-.485 0-.731.592-.392.943l3.45 3.565a.544.544 0 00.785 0l3.45-3.565c.34-.35.093-.943-.391-.943z"/><path d="M10.493 2.366L8.3.174A.593.593 0 007.881 0H1.26a.593.593 0 00-.592.593v8.814c0 .328.265.593.592.593h1.412c.109 0 .197-.088.197-.198V5.904c0-.218.177-.395.395-.395H8.07c.218 0 .395.177.395.395v3.898c0 .11.088.198.198.198h1.411a.593.593 0 00.593-.593V2.785a.593.593 0 00-.174-.419zm-2.48 1.018H3.32a.653.653 0 010-1.306h4.695a.653.653 0 010 1.306z"/></g></svg>