<svg width="16" height="25" viewBox="0 0 16 25" fill="none" xmlns="http://www.w3.org/2000/svg">
<path fill-rule="evenodd" clip-rule="evenodd" d="M15.4114 3.66886L12.0754 0.332929C11.9063 0.163808 11.677 0.0688477 11.4379 0.0688477H1.36422C0.866244 0.0688477 0.462524 0.472568 0.462524 0.970541V14.3801C0.462524 14.8781 0.866244 15.2818 1.36422 15.2818H3.51135C3.67734 15.2818 3.81193 15.1473 3.81193 14.9813V9.0507C3.81193 8.71871 4.08106 8.44959 4.41304 8.44959H11.725C12.057 8.44959 12.3261 8.71871 12.3261 9.0507V14.9812C12.3261 15.1473 12.4607 15.2818 12.6267 15.2818H14.7738C15.2718 15.2818 15.6755 14.8781 15.6755 14.3801V4.30642C15.6755 4.06728 15.5804 3.83793 15.4114 3.66886ZM11.6398 5.21667H4.49814C3.9497 5.21667 3.5051 4.77206 3.5051 4.22363C3.5051 3.67519 3.9497 3.23058 4.49814 3.23058H11.6398C12.1883 3.23058 12.6329 3.67519 12.6329 4.22363C12.6329 4.77206 12.1883 5.21667 11.6398 5.21667ZM10.7728 17.4458H13.3192C14.0562 17.4458 14.4312 18.3461 13.9153 18.879L8.66517 24.3029C8.3378 24.6411 7.79945 24.6405 7.47273 24.3029L2.22259 18.879C1.70712 18.3464 2.08144 17.4458 2.81885 17.4458H5.36534V13.0826C5.36534 12.6168 5.73886 12.2392 6.19958 12.2392H9.93851C10.3992 12.2392 10.7728 12.6168 10.7728 13.0826V17.4458Z" fill="#0FB989"/>
</svg>
