<?xml version="1.0" encoding="UTF-8"?>
<svg width="11px" height="17px" viewBox="0 0 11 17" version="1.1" xmlns="http://www.w3.org/2000/svg" xmlns:xlink="http://www.w3.org/1999/xlink">
    <!-- Generator: Sketch 56.2 (81672) - https://sketch.com -->
    <title>269030</title>
    <desc>Created with Sketch.</desc>
    <g id="Symbols" stroke="none" stroke-width="1" fill="none" fill-rule="evenodd">
        <g id="menu-Universal-Login" transform="translate(-451.000000, -21.000000)" fill="#B9C3F8" fill-rule="nonzero">
            <g id="menu">
                <g id="Group-2" transform="translate(42.000000, 20.000000)">
                    <g id="backup" transform="translate(409.000000, 0.000000)">
                        <g id="269030" transform="translate(0.000000, 1.000000)">
                            <path d="M9.11781529,11.4224313 L7.44392348,11.4224313 L7.44392348,8.55438255 C7.44392348,8.24821663 7.19839683,8 6.8955489,8 L4.43782624,8 C4.13497832,8 3.88945167,8.24821663 3.88945167,8.55438255 L3.88945167,11.4224313 L2.21555986,11.4224313 C1.73083125,11.4224313 1.48478266,12.0144328 1.82361374,12.3645185 L5.27471075,15.929874 C5.48947364,16.1517387 5.84334886,16.1521733 6.05854159,15.929874 L9.5096386,12.3645185 C9.84871529,12.0142776 9.60226758,11.4224313 9.11781529,11.4224313 Z" id="Path"></path>
                            <path d="M10.4930439,2.36640639 L8.30022709,0.173589564 C8.18905809,0.0624205639 8.03833284,0 7.88113656,0 L1.25937995,0 C0.932045322,0 0.666666667,0.265378655 0.666666667,0.592713287 L0.666666667,9.40728671 C0.666666667,9.73462135 0.932045322,10 1.25937995,10 L2.67076167,10 C2.77987321,10 2.86834383,9.91156257 2.86834383,9.80245103 L2.86834383,5.90406945 C2.86834383,5.68584636 3.04525187,5.50893832 3.26347495,5.50893832 L8.06989156,5.50893832 C8.28811465,5.50893832 8.46502269,5.68584636 8.46502269,5.90406945 L8.46502269,9.80241784 C8.46502269,9.91156257 8.55349331,10 8.66257167,10 L10.0739534,10 C10.401288,10 10.6666667,9.73458816 10.6666667,9.40725353 L10.6666667,2.78549693 C10.6666667,2.62830064 10.6041797,2.4775422 10.4930439,2.36640639 Z M8.01388981,3.38383416 L3.31941034,3.38383416 C2.95890379,3.38383416 2.66665007,3.09158044 2.66665007,2.73107389 C2.66665007,2.37056734 2.95890379,2.07831363 3.31941034,2.07831363 L8.01388981,2.07831363 C8.37439636,2.07831363 8.66665007,2.37056734 8.66665007,2.73107389 C8.66665007,3.09158044 8.37439636,3.38383416 8.01388981,3.38383416 Z" id="Shape"></path>
                        </g>
                    </g>
                </g>
            </g>
        </g>
    </g>
</svg>