<svg width="11" height="17" fill="none" xmlns="http://www.w3.org/2000/svg"><path d="M9.117 11.422H7.443V8.554A.551.551 0 006.895 8H4.437a.551.551 0 00-.548.554v2.868H2.215c-.485 0-.73.592-.392.942l3.451 3.566a.544.544 0 00.784 0l3.451-3.566c.34-.35.093-.942-.392-.942z" fill="#0FB989"/><path fill-rule="evenodd" clip-rule="evenodd" d="M8.3.174l2.192 2.192a.593.593 0 01.174.42v6.621a.593.593 0 01-.593.593H8.662a.198.198 0 01-.198-.198V5.904a.395.395 0 00-.395-.395H3.263a.395.395 0 00-.395.395v3.898c0 .11-.089.198-.198.198H1.26a.593.593 0 01-.593-.593V.593C.666.265.931 0 1.259 0H7.88c.158 0 .308.062.42.174zm-4.981 3.21h4.694a.653.653 0 100-1.306H3.32a.653.653 0 000 1.306z" fill="#0FB989"/></svg>
