<svg width="11" height="17" viewBox="0 0 11 17" fill="none" xmlns="http://www.w3.org/2000/svg">
<path d="M9.11716 11.4224H7.44327V8.55438C7.44327 8.24822 7.19775 8 6.8949 8H4.43718C4.13433 8 3.8888 8.24822 3.8888 8.55438V11.4224H2.21491C1.73018 11.4224 1.48413 12.0144 1.82296 12.3645L5.27406 15.9299C5.48882 16.1517 5.8427 16.1522 6.05789 15.9299L9.50899 12.3645C9.84806 12.0143 9.60162 11.4224 9.11716 11.4224Z" fill="#0FB989"/>
<path fill-rule="evenodd" clip-rule="evenodd" d="M8.29958 0.17359L10.4924 2.36641C10.6035 2.47754 10.666 2.6283 10.666 2.7855V9.40725C10.666 9.73459 10.4006 9.99997 10.0733 9.99997H8.66192C8.55284 9.99997 8.46437 9.91156 8.46437 9.80242V5.90407C8.46437 5.68585 8.28746 5.50894 8.06924 5.50894H3.26282C3.0446 5.50894 2.86769 5.68585 2.86769 5.90407V9.80245C2.86769 9.91156 2.77922 10 2.67011 10H1.25873C0.931394 10 0.666016 9.73462 0.666016 9.40729V0.592713C0.666016 0.265379 0.931394 0 1.25873 0H7.88049C8.03768 0 8.18841 0.0624206 8.29958 0.17359ZM3.31876 3.38383H8.01324C8.37375 3.38383 8.666 3.09158 8.666 2.73107C8.666 2.37057 8.37375 2.07831 8.01324 2.07831H3.31876C2.95825 2.07831 2.666 2.37057 2.666 2.73107C2.666 3.09158 2.95825 3.38383 3.31876 3.38383Z" fill="#0FB989"/>
</svg>
