<svg width="24" height="24" viewBox="0 0 24 24" fill="none" xmlns="http://www.w3.org/2000/svg">
<path fill-rule="evenodd" clip-rule="evenodd" d="M12 24C18.6274 24 24 18.6274 24 12C24 5.37258 18.6274 0 12 0C5.37258 0 0 5.37258 0 12C0 18.6274 5.37258 24 12 24Z" fill="#E8F9FE"/>
<rect x="4.07617" y="18.6321" width="15.1091" height="0.800253" fill="#83D8E4"/>
<rect x="5.05859" y="7.80859" width="13.7978" height="0.794882" fill="#15B2C7"/>
<rect x="4.7334" y="17.9369" width="13.7978" height="0.79488" fill="#15B2C7"/>
<path d="M19.5243 7.77826L11.7983 3.72192L4.07227 7.77826H19.5243Z" fill="#83D8E4"/>
<path d="M7.36035 7.10216L11.9631 4.73596L16.5658 7.10216H7.36035Z" fill="#15B2C7"/>
<path d="M4.97754 8.6322V9.10997C4.97754 9.43245 5.24011 9.69524 5.56235 9.69524H7.5912C7.91344 9.69524 8.17601 9.43245 8.17601 9.10997V8.6322H4.97754Z" fill="#BAEEF6"/>
<path d="M8.17601 17.6043V17.1265C8.17601 16.804 7.91344 16.5413 7.5912 16.5413H5.56235C5.24011 16.5413 4.97754 16.804 4.97754 17.1265V17.6043H8.17601Z" fill="#BAEEF6"/>
<rect x="5.42969" y="10.1444" width="2.30137" height="6.08451" fill="#15B2C7"/>
<path d="M9.98535 8.6322V9.08797C9.98535 9.39561 10.2542 9.64629 10.5842 9.64629H12.6741C13.0041 9.64629 13.273 9.39561 13.273 9.08797V8.6322H9.98535Z" fill="#BAEEF6"/>
<rect x="10.3145" y="10.1444" width="2.63014" height="6.08451" fill="#15B2C7"/>
<path d="M13.2428 17.5553V17.0996C13.2428 16.7919 12.9729 16.5413 12.6416 16.5413H10.5562C10.225 16.5413 9.95508 16.7919 9.95508 17.0996V17.5553H13.2428Z" fill="#BAEEF6"/>
<path d="M14.9316 8.6322V9.08797C14.9316 9.39561 15.2005 9.64629 15.5305 9.64629H17.6204C17.9504 9.64629 18.2193 9.39561 18.2193 9.08797V8.6322H14.9316Z" fill="#BAEEF6"/>
<path d="M18.2193 17.5553V17.0996C18.2193 16.7919 17.9494 16.5413 17.6182 16.5413H15.5328C15.2015 16.5413 14.9316 16.7919 14.9316 17.0996V17.5553H18.2193Z" fill="#BAEEF6"/>
<rect x="15.3848" y="10.1444" width="2.30137" height="6.08451" fill="#15B2C7"/>
</svg>
