<?xml version="1.0" encoding="UTF-8"?>
<svg width="24px" height="16px" viewBox="0 0 24 16" version="1.1" xmlns="http://www.w3.org/2000/svg" xmlns:xlink="http://www.w3.org/1999/xlink">
    <!-- Generator: Sketch 56 (81588) - https://sketch.com -->
    <title>Group 11</title>
    <desc>Created with Sketch.</desc>
    <g id="Page-1" stroke="none" stroke-width="1" fill="none" fill-rule="evenodd">
        <g id="Artboard-Copy-25" transform="translate(-708.000000, -765.000000)">
            <g id="Group-12" transform="translate(0.000000, 439.000000)">
                <g id="Group-18" transform="translate(435.000000, 59.000000)">
                    <g id="Group-4-Copy-2" transform="translate(0.000000, 253.000000)">
                        <g id="Group-5">
                            <g id="Group-3">
                                <g id="Group-14" transform="translate(200.000000, 14.000000)">
                                    <g id="Group-11" transform="translate(73.000000, 0.000000)">
                                        <rect id="Rectangle" fill="#6579E5" x="0" y="0" width="23.4285714" height="16" rx="2"></rect>
                                        <g id="european-union" transform="translate(5.142857, 1.142857)" fill="#FFCD00" fill-rule="nonzero">
                                            <g id="Group" transform="translate(0.428571, 0.428571)">
                                                <polygon id="Path" points="6.42861264 0.00717032967 6.77019231 1.05836538 7.87541209 1.05836538 6.98122253 1.70802198 7.3228022 2.75921703 6.42861264 2.10951923 5.53438187 2.75921703 5.87596154 1.70802198 4.98177198 1.05836538 6.08703297 1.05836538"></polygon>
                                                <polygon id="Path" points="1.88793956 1.88793956 2.87282967 2.3896978 3.6543544 1.60821429 3.4814011 2.69983516 4.46625 3.20163462 3.37458791 3.3745467 3.20167582 4.46625 2.69987637 3.4814011 1.60825549 3.6543544 2.38978022 2.87282967"></polygon>
                                                <polygon id="Path" points="0.00721153846 6.42857143 1.05840659 6.08699176 1.05840659 4.98173077 1.70802198 5.87596154 2.75925824 5.53438187 2.10951923 6.42857143 2.75925824 7.32276099 1.70802198 6.98122253 1.05840659 7.87541209 1.05840659 6.7701511"></polygon>
                                                <polygon id="Path" points="1.88793956 10.9692033 2.38973901 9.98431319 1.60825549 9.20278846 2.69991758 9.37578297 3.20163462 8.39093407 3.37458791 9.48259615 4.46620879 9.65550824 3.48148352 10.1573077 3.6543544 11.2489286 2.87282967 10.4674038"></polygon>
                                                <polygon id="Path" points="6.42861264 12.8499725 6.08699176 11.7987775 4.98177198 11.7987775 5.87600275 11.1491209 5.53438187 10.0980082 6.42861264 10.7476236 7.3228022 10.0980082 6.98122253 11.1491209 7.87541209 11.7987775 6.7701511 11.7987775"></polygon>
                                                <polygon id="Path" points="10.9692445 10.9692033 9.9843956 10.4674451 9.20282967 11.2489698 9.37578297 10.1572665 8.39101648 9.65550824 9.48263736 9.48259615 9.65554945 8.39093407 10.1573077 9.37578297 11.2489286 9.20278846 10.4674038 9.9843956"></polygon>
                                                <polygon id="Path" points="12.8499725 6.42857143 11.7987775 6.7701511 11.7987775 7.87541209 11.1491209 6.98118132 10.0980082 7.32276099 10.7476648 6.42857143 10.0980082 5.53438187 11.1491621 5.87596154 11.7987775 4.98173077 11.7987775 6.08703297"></polygon>
                                                <polygon id="Path" points="10.9692445 1.88793956 10.4674451 2.87282967 11.2489698 3.6543544 10.1572665 3.48135989 9.65554945 4.46620879 9.48263736 3.3745467 8.39101648 3.20159341 9.37578297 2.69983516 9.20282967 1.60825549 9.98443681 2.38973901"></polygon>
                                            </g>
                                        </g>
                                    </g>
                                </g>
                            </g>
                        </g>
                    </g>
                </g>
            </g>
        </g>
    </g>
</svg>