<svg width="24" height="16" xmlns="http://www.w3.org/2000/svg"><g fill="none" fill-rule="evenodd"><rect fill="#6579E5" width="23.429" height="16" rx="2"/><g fill="#FFCD00" fill-rule="nonzero"><path d="M12 1.579l.342 1.05h1.105l-.894.65.341 1.052L12 3.68l-.894.65.341-1.052-.894-.65h1.105zM7.46 3.46l.984.501.782-.781-.173 1.091.985.502-1.092.173-.173 1.092-.502-.985-1.091.173.781-.782zM5.579 8l1.05-.342V6.553l.65.894 1.052-.341L7.68 8l.65.894-1.052-.341-.65.894V8.342zM7.46 12.54l.501-.984-.781-.782 1.091.173.502-.985.173 1.092 1.092.173-.985.502.173 1.091-.782-.781zM12 14.421l-.342-1.05h-1.105l.894-.65-.341-1.052.894.65.894-.65-.341 1.052.894.65h-1.105zM16.54 12.54l-.984-.501-.782.781.173-1.091-.985-.502 1.092-.173.173-1.092.502.985 1.091-.173-.781.782zM18.421 8l-1.05.342v1.105l-.65-.894-1.052.341.65-.894-.65-.894 1.052.341.65-.894v1.105zM16.54 3.46l-.501.984.781.782-1.091-.173-.502.985-.173-1.092-1.092-.173.985-.502-.173-1.091.782.781z"/></g></g></svg>