<?xml version="1.0" encoding="UTF-8"?>
<svg width="15px" height="14px" viewBox="0 0 15 14" version="1.1" xmlns="http://www.w3.org/2000/svg" xmlns:xlink="http://www.w3.org/1999/xlink">
    <!-- Generator: Sketch 56.2 (81672) - https://sketch.com -->
    <title>aprovend</title>
    <desc>Created with Sketch.</desc>
    <g id="approve" stroke="none" stroke-width="1" fill="none" fill-rule="evenodd">
        <g transform="translate(-641.000000, -151.000000)" fill="#B9C3F8" id="menu">
            <g transform="translate(235.000000, 130.000000)">
                <g id="menu-napisy" transform="translate(275.000000, 18.000000)">
                    <g id="APD" transform="translate(127.750000, 1.000000)">
                        <g id="ikona-approve" transform="translate(4.000000, 0.000000)">
                            <path d="M5.80555359,2.95811364 C5.87694306,2.41734602 6.33973334,2 6.9,2 C7.46304433,2 7.92764335,2.42149448 7.99547931,2.96616569 C9.97347815,3.43848027 11.4441621,5.21766059 11.4441621,7.34033755 L11.4441621,10.6594326 C11.4441621,11.3099793 11.9715344,11.8373516 12.6220811,11.8373516 L12.696,11.8373516 C13.3057224,11.8373516 13.8,12.3316292 13.8,12.9413516 C13.8,13.5510739 13.3057224,14.0453516 12.696,14.0453516 L8.96534291,14.0453516 C8.72857943,14.9650935 7.89365299,15.6446826 6.9,15.6446826 C5.90634701,15.6446826 5.07142057,14.9650935 4.83465709,14.0453516 L1.104,14.0453516 C0.494277636,14.0453516 3.82663415e-14,13.5510739 3.8191672e-14,12.9413516 C3.81170026e-14,12.3316292 0.494277636,11.8373516 1.104,11.8373516 L1.16127539,11.8373516 C1.80263008,11.8373516 2.32255078,11.3174309 2.32255078,10.6760762 L2.32255078,7.34033755 C2.32255078,5.20540191 3.81027049,3.41794183 5.80555359,2.95811364 Z" id="aprovend"></path>
                        </g>
                    </g>
                </g>
            </g>
        </g>
    </g>
</svg>