<?xml version="1.0" encoding="UTF-8"?>
<svg width="24px" height="16px" viewBox="0 0 24 16" version="1.1" xmlns="http://www.w3.org/2000/svg" xmlns:xlink="http://www.w3.org/1999/xlink">
    <!-- Generator: Sketch 56 (81588) - https://sketch.com -->
    <title>credit-card-3</title>
    <desc>Created with Sketch.</desc>
    <g id="Page-1" stroke="none" stroke-width="1" fill="none" fill-rule="evenodd">
        <g id="Artboard-Copy-25" transform="translate(-708.000000, -664.000000)" fill-rule="nonzero">
            <g id="Group-12" transform="translate(0.000000, 439.000000)">
                <g id="Group-18" transform="translate(435.000000, 59.000000)">
                    <g id="Group-4-Copy" transform="translate(0.000000, 153.000000)">
                        <g id="Group-5">
                            <g id="Group-3">
                                <g id="Group-6" transform="translate(193.000000, 13.000000)">
                                    <g id="credit-card-3" transform="translate(80.000000, 0.000000)">
                                        <path d="M22.1290936,16 L1.29947783,16 C0.581674877,16 0,15.4514286 0,14.7744762 L0,1.22552381 C0,0.548571429 0.581674877,0 1.29947783,0 L22.1290936,0 C22.8468966,0 23.4285714,0.548571429 23.4285714,1.22552381 L23.4285714,14.7744762 C23.4285714,15.4514286 22.8468966,16 22.1290936,16" id="XMLID_115_" fill="#8FA0FF"></path>
                                        <rect id="XMLID_114_" fill="#000000" x="0" y="1.9047619" width="23.4285714" height="3.04761905"></rect>
                                        <path d="M5.71428571,7.61904762 L2.28571429,7.61904762 C2.07542857,7.61904762 1.9047619,7.44838095 1.9047619,7.23809524 C1.9047619,7.02780952 2.07542857,6.85714286 2.28571429,6.85714286 L5.71428571,6.85714286 C5.92457143,6.85714286 6.0952381,7.02780952 6.0952381,7.23809524 C6.0952381,7.44838095 5.92457143,7.61904762 5.71428571,7.61904762" id="XMLID_113_" fill="#FFFFFF"></path>
                                        <path d="M10.6666667,7.61904762 L7.23809524,7.61904762 C7.02780952,7.61904762 6.85714286,7.44838095 6.85714286,7.23809524 C6.85714286,7.02780952 7.02780952,6.85714286 7.23809524,6.85714286 L10.6666667,6.85714286 C10.8769524,6.85714286 11.047619,7.02780952 11.047619,7.23809524 C11.047619,7.44838095 10.8769524,7.61904762 10.6666667,7.61904762" id="XMLID_112_" fill="#FFFFFF"></path>
                                        <path d="M2.66666667,9.52380952 L2.28571429,9.52380952 C2.07542857,9.52380952 1.9047619,9.35314286 1.9047619,9.14285714 C1.9047619,8.93257143 2.07542857,8.76190476 2.28571429,8.76190476 L2.66666667,8.76190476 C2.87695238,8.76190476 3.04761905,8.93257143 3.04761905,9.14285714 C3.04761905,9.35314286 2.87695238,9.52380952 2.66666667,9.52380952" id="XMLID_111_" fill="#FFFFFF"></path>
                                        <path d="M4.95238095,9.52380952 L4.19047619,9.52380952 C3.98019048,9.52380952 3.80952381,9.35314286 3.80952381,9.14285714 C3.80952381,8.93257143 3.98019048,8.76190476 4.19047619,8.76190476 L4.95238095,8.76190476 C5.16266667,8.76190476 5.33333333,8.93257143 5.33333333,9.14285714 C5.33333333,9.35314286 5.16266667,9.52380952 4.95238095,9.52380952" id="XMLID_110_" fill="#FFFFFF"></path>
                                        <path d="M6.85714286,9.52380952 L6.47619048,9.52380952 C6.26590476,9.52380952 6.0952381,9.35314286 6.0952381,9.14285714 C6.0952381,8.93257143 6.26590476,8.76190476 6.47619048,8.76190476 L6.85714286,8.76190476 C7.06742857,8.76190476 7.23809524,8.93257143 7.23809524,9.14285714 C7.23809524,9.35314286 7.06742857,9.52380952 6.85714286,9.52380952" id="XMLID_109_" fill="#FFFFFF"></path>
                                        <path d="M9.14285714,9.52380952 L8.38095238,9.52380952 C8.17066667,9.52380952 8,9.35314286 8,9.14285714 C8,8.93257143 8.17066667,8.76190476 8.38095238,8.76190476 L9.14285714,8.76190476 C9.35314286,8.76190476 9.52380952,8.93257143 9.52380952,9.14285714 C9.52380952,9.35314286 9.35314286,9.52380952 9.14285714,9.52380952" id="XMLID_108_" fill="#FFFFFF"></path>
                                        <path d="M10.6666667,9.52380952 C10.567619,9.52380952 10.4685714,9.48190476 10.3961905,9.41333333 C10.327619,9.34095238 10.2857143,9.24571429 10.2857143,9.14285714 C10.2857143,9.04380952 10.327619,8.9447619 10.3961905,8.87238095 C10.5371429,8.73142857 10.792381,8.73142857 10.9371429,8.87238095 C11.0057143,8.9447619 11.047619,9.04380952 11.047619,9.14285714 C11.047619,9.24190476 11.0057143,9.34095238 10.9371429,9.41333333 C10.8647619,9.48190476 10.7657143,9.52380952 10.6666667,9.52380952" id="XMLID_107_" fill="#FFFFFF"></path>
                                        <path d="M19.4285714,12.5714286 C19.4285714,13.8339048 18.4053333,14.8571429 17.1428571,14.8571429 C15.880381,14.8571429 14.8571429,13.8339048 14.8571429,12.5714286 C14.8571429,11.3089524 15.880381,10.2857143 17.1428571,10.2857143 C18.4053333,10.2857143 19.4285714,11.3089524 19.4285714,12.5714286" id="XMLID_106_" fill="#FFCD00"></path>
                                        <path d="M22.0952381,12.5714286 C22.0952381,13.8339048 21.072,14.8571429 19.8095238,14.8571429 C18.5470476,14.8571429 17.5238095,13.8339048 17.5238095,12.5714286 C17.5238095,11.3089524 18.5470476,10.2857143 19.8095238,10.2857143 C21.072,10.2857143 22.0952381,11.3089524 22.0952381,12.5714286" id="XMLID_105_" fill="#4256C8"></path>
                                    </g>
                                </g>
                            </g>
                        </g>
                    </g>
                </g>
            </g>
        </g>
    </g>
</svg>