<svg width="24" height="24" viewBox="0 0 24 24" fill="none" xmlns="http://www.w3.org/2000/svg">
<path opacity="0.2" fill-rule="evenodd" clip-rule="evenodd" d="M11.7867 23.5733C18.2963 23.5733 23.5733 18.2963 23.5733 11.7867C23.5733 5.27707 18.2963 0 11.7867 0C5.27707 0 0 5.27707 0 11.7867C0 18.2963 5.27707 23.5733 11.7867 23.5733Z" fill="#B55EF7"/>
<path d="M17.6542 16.792H5.59601C5.18048 16.792 4.84375 16.4709 4.84375 16.0747V8.14454C4.84375 7.74832 5.18048 7.42725 5.59601 7.42725H17.6542C18.0698 7.42725 18.4065 7.74832 18.4065 8.14454V16.0747C18.4065 16.4709 18.0698 16.792 17.6542 16.792Z" fill="#B55EF7"/>
<rect x="4.84375" y="8.71899" width="13.5627" height="2.26046" fill="white"/>
<path d="M7.86746 11.6253H6.018C5.90456 11.6253 5.8125 11.553 5.8125 11.4638C5.8125 11.3747 5.90456 11.3024 6.018 11.3024H7.86746C7.9809 11.3024 8.07296 11.3747 8.07296 11.4638C8.07296 11.553 7.9809 11.6253 7.86746 11.6253Z" fill="white"/>
<path d="M11.4192 11.6253H9.56975C9.45632 11.6253 9.36426 11.553 9.36426 11.4638C9.36426 11.3747 9.45632 11.3024 9.56975 11.3024H11.4192C11.5327 11.3024 11.6247 11.3747 11.6247 11.4638C11.6247 11.553 11.5327 11.6253 11.4192 11.6253Z" fill="white"/>
<path d="M6.45835 12.9169H6.13542C5.95717 12.9169 5.8125 12.8446 5.8125 12.7555C5.8125 12.6663 5.95717 12.594 6.13542 12.594H6.45835C6.6366 12.594 6.78127 12.6663 6.78127 12.7555C6.78127 12.8446 6.6366 12.9169 6.45835 12.9169Z" fill="white"/>
<path d="M7.83107 12.9169H7.34668C7.21299 12.9169 7.10449 12.8446 7.10449 12.7555C7.10449 12.6663 7.21299 12.594 7.34668 12.594H7.83107C7.96476 12.594 8.07326 12.6663 8.07326 12.7555C8.07326 12.8446 7.96476 12.9169 7.83107 12.9169Z" fill="white"/>
<path d="M9.04135 12.9169H8.71843C8.54018 12.9169 8.39551 12.8446 8.39551 12.7555C8.39551 12.6663 8.54018 12.594 8.71843 12.594H9.04135C9.21961 12.594 9.36428 12.6663 9.36428 12.7555C9.36428 12.8446 9.21961 12.9169 9.04135 12.9169Z" fill="white"/>
<path d="M10.4141 12.9169H9.92969C9.796 12.9169 9.6875 12.8446 9.6875 12.7555C9.6875 12.6663 9.796 12.594 9.92969 12.594H10.4141C10.5478 12.594 10.6563 12.6663 10.6563 12.7555C10.6563 12.8446 10.5478 12.9169 10.4141 12.9169Z" fill="white"/>
<path d="M11.141 12.9169C11.099 12.9169 11.057 12.899 11.0263 12.8698C10.9973 12.8389 10.9795 12.7983 10.9795 12.7544C10.9795 12.7122 10.9973 12.67 11.0263 12.6391C11.0861 12.579 11.1942 12.579 11.2556 12.6391C11.2847 12.67 11.3024 12.7122 11.3024 12.7544C11.3024 12.7967 11.2847 12.8389 11.2556 12.8698C11.2249 12.899 11.1829 12.9169 11.141 12.9169Z" fill="white"/>
<path d="M16.4691 14.5316C16.4691 15.245 15.8909 15.8232 15.1774 15.8232C14.464 15.8232 13.8857 15.245 13.8857 14.5316C13.8857 13.8181 14.464 13.2399 15.1774 13.2399C15.8909 13.2399 16.4691 13.8181 16.4691 14.5316Z" fill="#DAC9E7"/>
<path d="M17.7601 14.5316C17.7601 15.245 17.1819 15.8232 16.4684 15.8232C15.755 15.8232 15.1768 15.245 15.1768 14.5316C15.1768 13.8181 15.755 13.2399 16.4684 13.2399C17.1819 13.2399 17.7601 13.8181 17.7601 14.5316Z" fill="white"/>
</svg>
