<svg width="24" height="16" xmlns="http://www.w3.org/2000/svg"><g fill-rule="nonzero" fill="none"><path d="M22.13 16H1.3C.581 16 0 15.451 0 14.774V1.226C0 .549.582 0 1.3 0h20.83c.717 0 1.299.549 1.299 1.226v13.548c0 .677-.582 1.226-1.3 1.226" fill="#8FA0FF"/><path fill="#000" d="M0 1.905h23.429v3.048H0z"/><path d="M5.714 7.619H2.286a.381.381 0 010-.762h3.428a.381.381 0 010 .762M10.667 7.619H7.238a.381.381 0 010-.762h3.429a.381.381 0 010 .762M2.667 9.524h-.381a.381.381 0 010-.762h.38a.381.381 0 010 .762M4.952 9.524H4.19a.381.381 0 010-.762h.762a.381.381 0 010 .762M6.857 9.524h-.38a.381.381 0 010-.762h.38a.381.381 0 010 .762M9.143 9.524H8.38a.381.381 0 010-.762h.762a.381.381 0 010 .762M10.667 9.524a.4.4 0 01-.27-.11.393.393 0 01-.111-.271.4.4 0 01.11-.27.399.399 0 01.541 0 .4.4 0 01.11.27.4.4 0 01-.11.27.4.4 0 01-.27.11" fill="#FFF"/><path d="M19.429 12.571a2.286 2.286 0 11-4.572 0 2.286 2.286 0 014.572 0" fill="#FFCD00"/><path d="M22.095 12.571a2.286 2.286 0 11-4.57 0 2.286 2.286 0 014.57 0" fill="#4256C8"/></g></svg>