<svg width="16" height="19" viewBox="0 0 16 19" fill="none" xmlns="http://www.w3.org/2000/svg">
<path fill-rule="evenodd" clip-rule="evenodd" d="M12.0603 5.24376C12.0565 4.44354 11.3879 3.79395 10.5681 3.79395H2.31545C1.49199 3.79395 0.823242 4.44369 0.823242 5.24376V16.7483C0.823242 17.5484 1.49199 18.1981 2.31545 18.1981H10.5681C11.3916 18.1981 12.0603 17.5484 12.0603 16.7483V5.24376ZM2.31545 3.96667H10.5645H10.5681C11.2898 3.96667 11.8791 4.53924 11.8825 5.24416L11.8825 16.7483C11.8825 17.453 11.2934 18.0254 10.5681 18.0254H2.31545C1.59017 18.0254 1.00102 17.453 1.00102 16.7483V5.24376C1.00102 4.53909 1.59017 3.96667 2.31545 3.96667ZM11.9697 16.6982C11.9697 16.8236 11.8705 17.37 11.6279 17.6612C11.3408 18.0059 10.8928 18.0909 10.7401 18.0909H2.31545C2.17453 18.0909 1.73136 18.0174 1.41451 17.7466C1.09781 17.476 0.907387 17.0082 0.907387 16.8713L1.00102 4.92038C1.00102 4.79345 1.14913 4.40628 1.41451 4.20202C1.7215 3.96572 2.16069 3.91915 2.31181 3.91915L10.5645 3.96667C10.5835 3.96667 10.608 3.96554 10.6368 3.9642C10.8329 3.95512 11.2311 3.93666 11.5075 4.20202C11.7911 4.47424 11.9252 5.11491 11.9252 5.24416L11.9697 16.6982ZM10.8973 5.24376V16.7448C10.8973 16.9231 10.7481 17.0682 10.5645 17.0682H2.31181C2.12823 17.0682 1.97898 16.9231 1.97898 16.7448V5.24376C1.97898 5.06539 2.12823 4.92038 2.31181 4.92038H10.5645C10.7481 4.92038 10.8973 5.06539 10.8973 5.24376Z" fill="white"/>
<path fill-rule="evenodd" clip-rule="evenodd" d="M5.4717 0.777344H13.7244C14.5478 0.777344 15.2166 1.42709 15.2166 2.22716V13.7317C15.2166 14.5318 14.5478 15.1815 13.7244 15.1815C13.4026 15.1815 13.1447 14.9309 13.1447 14.6183C13.1447 14.3057 13.4026 14.0551 13.7244 14.0551C13.908 14.0551 14.0572 13.9101 14.0572 13.7317V2.22716C14.0572 2.04879 13.908 1.90378 13.7244 1.90378H5.4717C5.28812 1.90378 5.13887 2.04879 5.13887 2.22716C5.13887 2.53977 4.88094 2.79038 4.55918 2.79038C4.23742 2.79038 3.97949 2.53977 3.97949 2.22716C3.97949 1.42709 4.64824 0.777344 5.4717 0.777344ZM15.0388 2.22716C15.0388 1.52248 14.4496 0.950071 13.7244 0.950071H5.4717C4.74642 0.950071 4.15727 1.52248 4.15727 2.22716V1.64558C4.15727 1.37182 5.13073 0.863707 5.4125 0.863707L13.7888 0.904199C13.9438 0.904199 14.3808 1.01157 14.6758 1.25475C14.9171 1.45367 15.0388 1.7806 15.0388 1.90378L15.1114 13.7317C15.1114 14.0055 14.8271 14.8368 14.5453 14.8368C14.4968 14.8368 14.4649 14.8293 14.4448 14.8199C14.4494 14.8376 14.4525 14.8623 14.4525 14.8962C14.4525 15.1134 13.5008 15.0088 13.7244 15.0088C13.9833 15.0088 14.2248 14.9359 14.4284 14.81C14.4142 14.7987 14.4124 14.7873 14.4162 14.7831C14.4203 14.7786 14.4307 14.7823 14.4394 14.8032C14.8 14.5753 15.0388 14.1803 15.0388 13.7317V2.22716Z" fill="white"/>
</svg>
