<?xml version="1.0" encoding="UTF-8"?>
<svg width="18px" height="22px" viewBox="0 0 18 22" version="1.1" xmlns="http://www.w3.org/2000/svg" xmlns:xlink="http://www.w3.org/1999/xlink">
    <!-- Generator: Sketch 56.2 (81672) - https://sketch.com -->
    <title>copy</title>
    <desc>Created with Sketch.</desc>
    <g id="web" stroke="none" stroke-width="1" fill="none" fill-rule="evenodd">
        <g id="14.-web-copy" transform="translate(-964.000000, -759.000000)" fill="#C9C9D7" fill-rule="nonzero">
            <g id="Group-2" transform="translate(443.000000, 728.000000)">
                <g id="input">
                    <g id="Group" transform="translate(0.000000, 19.000000)">
                        <g id="Group-9">
                            <g id="Group-Copy-2" transform="translate(505.000000, 0.000000)">
                                <g id="Group-10">
                                    <g id="copy" transform="translate(16.000000, 12.000000)">
                                        <path d="M11.8895706,4.39284254 C12.8117966,4.39284254 13.5639536,5.14499955 13.5683027,6.07157464 L13.5683027,19.392638 C13.5683027,20.3190322 12.8159647,21.0713701 11.8895706,21.0713701 L2.60531697,21.0713701 C1.67892285,21.0713701 0.926584867,20.3190322 0.926584867,19.392638 L0.926584867,6.07157464 C0.926584867,5.14518052 1.67892285,4.39284254 2.60531697,4.39284254 L11.8895706,4.39284254 Z M11.8895706,4.59284254 L2.60531697,4.59284254 C1.7893798,4.59284254 1.12658487,5.25563747 1.12658487,6.07157464 L1.12658487,19.392638 C1.12658487,20.2085752 1.7893798,20.8713701 2.60531697,20.8713701 L11.8895706,20.8713701 C12.7055077,20.8713701 13.3683038,20.2085752 13.3683038,19.392638 L13.3683038,6.07204412 C13.3644717,5.25581845 12.7014958,4.59284254 11.8895706,4.59284254 Z M13.4663441,19.3345911 C13.4663441,19.4797886 13.3547916,20.1124376 13.0818278,20.4497174 C12.7588722,20.8487684 12.2548203,20.9471565 12.0830306,20.9471565 L2.60531697,20.9471565 C2.44678572,20.9471565 1.9482188,20.8620709 1.59175912,20.5485753 C1.23546885,20.2352287 1.02124809,19.6935097 1.02124809,19.5350538 L1.12658487,5.69713701 C1.12658487,5.55016714 1.29321293,5.10186408 1.59175912,4.8653457 C1.9371225,4.59173716 2.4312097,4.53782197 2.60122699,4.53782197 L11.8854806,4.59284254 C12.0528065,4.59284254 12.5897494,4.51292938 12.9464157,4.8653457 C13.2654285,5.18055721 13.4162742,5.92238289 13.4162742,6.07204412 L13.4663441,19.3345911 Z M12.2599182,19.3885481 L12.2599182,6.07157464 C12.2599182,5.86504443 12.0920108,5.69713701 11.8854806,5.69713701 L2.60122699,5.69713701 C2.39469678,5.69713701 2.22678937,5.86504443 2.22678937,6.07157464 L2.22678937,19.3885481 C2.22678937,19.5950783 2.39469678,19.7629857 2.60122699,19.7629857 L11.8854806,19.7629857 C12.0920108,19.7629857 12.2599182,19.5950783 12.2599182,19.3885481 Z" id="Shape"></path>
                                        <path d="M15.4396728,0.9 L6.15541922,0.9 C5.2290251,0.9 4.47668712,1.65233799 4.47668712,2.57873211 C4.47668712,2.94070905 4.76685741,3.23087935 5.12883436,3.23087935 C5.4908113,3.23087935 5.7809816,2.94070905 5.7809816,2.57873211 C5.7809816,2.37220189 5.94888901,2.20429448 6.15541922,2.20429448 L15.4396728,2.20429448 C15.646203,2.20429448 15.8141104,2.37220189 15.8141104,2.57873211 L15.8141104,15.8997955 C15.8141104,16.1063257 15.646203,16.2742331 15.4396728,16.2742331 C15.0776959,16.2742331 14.7875256,16.5644034 14.7875256,16.9263804 C14.7875256,17.2883573 15.0776959,17.5785276 15.4396728,17.5785276 C16.3660669,17.5785276 17.1184049,16.8261896 17.1184049,15.8997955 L17.1184049,2.57873211 C17.1184049,1.65233799 16.3660669,0.9 15.4396728,0.9 Z M15.4396728,1.1 C16.25561,1.1 16.9184049,1.76279494 16.9184049,2.57873211 L16.9184049,15.8997955 C16.9184049,16.7157327 16.25561,17.3785276 15.4396728,17.3785276 C15.1881528,17.3785276 16.2588666,17.4996948 16.2588666,17.2481748 C16.2588666,16.9966548 16.1116986,17.179315 16.3632186,17.179315 C16.6802057,17.179315 17.0001354,16.2167827 17.0001354,15.8997955 L16.9184049,2.20429448 C16.9184049,2.06167009 16.7814919,1.68311865 16.5100219,1.45279163 C16.1781412,1.17120965 15.6865031,1.0468849 15.5121404,1.0468849 L6.08881891,1 C5.77183174,1 4.67668712,1.58833809 4.67668712,1.90532526 C4.67668712,2.15684525 4.67668712,2.80953389 4.67668712,2.57873211 C4.67668712,1.76279494 5.33948205,1.1 6.15541922,1.1 L15.4396728,1.1 Z" id="Path"></path>
                                    </g>
                                </g>
                            </g>
                        </g>
                    </g>
                </g>
            </g>
        </g>
    </g>
</svg>