<svg width="16" height="19" fill="none" xmlns="http://www.w3.org/2000/svg"><path fill-rule="evenodd" clip-rule="evenodd" d="M12.06 5.244c-.004-.8-.672-1.45-1.492-1.45H2.315c-.823 0-1.492.65-1.492 1.45v11.504c0 .8.669 1.45 1.492 1.45h8.253c.824 0 1.492-.65 1.492-1.45V5.244zM2.315 3.967h8.253c.722 0 1.311.572 1.315 1.277v11.504c0 .705-.59 1.277-1.315 1.277H2.315c-.725 0-1.314-.572-1.314-1.277V5.244c0-.705.59-1.277 1.314-1.277zm9.655 12.731c0 .126-.1.672-.342.963-.287.345-.735.43-.888.43H2.315c-.14 0-.584-.074-.9-.344-.317-.271-.508-.739-.508-.876l.094-11.95c0-.128.148-.515.414-.719.306-.236.746-.283.897-.283l8.253.048.072-.003c.196-.009.594-.027.87.238.284.272.418.913.418 1.042l.045 11.454zM10.897 5.244v11.5c0 .18-.149.324-.332.324H2.312a.329.329 0 01-.333-.323V5.244c0-.179.15-.324.333-.324h8.253c.183 0 .332.145.332.324z" fill="#fff"/><path fill-rule="evenodd" clip-rule="evenodd" d="M5.472.777h8.252c.824 0 1.493.65 1.493 1.45v11.505c0 .8-.67 1.45-1.493 1.45a.57.57 0 01-.58-.564.57.57 0 01.58-.563.328.328 0 00.333-.323V2.227a.328.328 0 00-.333-.323H5.472a.329.329 0 00-.333.323.57.57 0 01-.58.563.57.57 0 01-.58-.563c0-.8.67-1.45 1.493-1.45zm9.567 1.45c0-.705-.59-1.277-1.315-1.277H5.472c-.726 0-1.315.572-1.315 1.277v-.581c0-.274.974-.782 1.255-.782l8.377.04c.155 0 .592.108.887.35.241.2.363.527.363.65l.072 11.828c0 .274-.284 1.105-.566 1.105a.241.241 0 01-.1-.017.31.31 0 01.008.076c0 .217-.952.113-.729.113.26 0 .5-.073.704-.199-.014-.011-.016-.023-.012-.027s.015 0 .023.02c.361-.228.6-.623.6-1.071V2.227z" fill="#fff"/></svg>