<?xml version="1.0" encoding="UTF-8"?>
<svg width="20px" height="19px" viewBox="0 0 20 19" version="1.1" xmlns="http://www.w3.org/2000/svg" xmlns:xlink="http://www.w3.org/1999/xlink">
    <!-- Generator: Sketch 56.2 (81672) - https://sketch.com -->
    <title>copy</title>
    <desc>Created with Sketch.</desc>
    <g id="mobile" stroke="none" stroke-width="1" fill="none" fill-rule="evenodd">
        <g id="mobile2" transform="translate(-122.000000, -311.000000)" fill="#FFFFFF" fill-rule="nonzero">
            <g id="Group-21" transform="translate(70.000000, 295.000000)">
                <g id="Group-20" transform="translate(52.000000, 15.000000)">
                    <g id="copy" transform="translate(0.000000, 1.000000)">
                        <path d="M10.8020078,3.35488152 C11.6962876,3.35488152 12.425652,4.05444014 12.4298692,4.91621977 L12.4298692,17.3057403 C12.4298692,18.1673516 11.7003294,18.8670785 10.8020078,18.8670785 L1.79909525,18.8670785 C0.900773677,18.8670785 0.17123381,18.1673516 0.17123381,17.3057403 L0.17123381,4.91621977 C0.17123381,4.05460846 0.900773677,3.35488152 1.79909525,3.35488152 L10.8020078,3.35488152 Z M10.8020078,3.54089551 L1.79909525,3.54089551 C1.00788345,3.54089551 0.365173204,4.15734115 0.365173204,4.91621977 L0.365173204,17.3057403 C0.365173204,18.0646189 1.00788345,18.6810645 1.79909525,18.6810645 L10.8020078,18.6810645 C11.5932196,18.6810645 12.2359309,18.0646189 12.2359309,17.3057403 L12.2359309,4.91665642 C12.232215,4.15750946 11.5893293,3.54089551 10.8020078,3.54089551 Z M12.3310003,17.2517525 C12.3310003,17.3867964 12.2228282,17.9752042 11.9581361,18.288898 C11.644967,18.6600433 11.1561894,18.7515511 10.9896055,18.7515511 L1.79909525,18.7515511 C1.64536797,18.7515511 1.16190914,18.6724156 0.816251265,18.3808427 C0.470757678,18.0894085 0.263028448,17.5855719 0.263028448,17.4381969 L0.365173204,4.56796659 C0.365173204,4.43127433 0.526751929,4.01432114 0.816251265,3.79434251 C1.15114909,3.53986743 1.63026396,3.48972253 1.79512921,3.48972253 L10.7980418,3.54089551 C10.9602972,3.54089551 11.4809692,3.46657068 11.8268273,3.79434251 C12.1361731,4.08751125 12.2824477,4.77746101 12.2824477,4.91665642 L12.3310003,17.2517525 Z M11.1611328,17.3019363 L11.1611328,4.91621977 C11.1611328,4.72413223 10.9983135,4.56796659 10.7980418,4.56796659 L1.79512921,4.56796659 C1.59485748,4.56796659 1.43203817,4.72413223 1.43203817,4.91621977 L1.43203817,17.3019363 C1.43203817,17.4940238 1.59485748,17.6501895 1.79512921,17.6501895 L10.7980418,17.6501895 C10.9983135,17.6501895 11.1611328,17.4940238 11.1611328,17.3019363 Z" id="Shape"></path>
                        <path d="M18.0606432,0.106293706 L9.05773068,0.106293706 C8.15940911,0.106293706 7.42986924,0.806020645 7.42986924,1.66763196 C7.42986924,2.00429583 7.7112465,2.2741745 8.06225445,2.2741745 C8.41326239,2.2741745 8.69463965,2.00429583 8.69463965,1.66763196 C8.69463965,1.47554442 8.85745896,1.31937878 9.05773068,1.31937878 L18.0606432,1.31937878 C18.260915,1.31937878 18.4237343,1.47554442 18.4237343,1.66763196 L18.4237343,14.0571525 C18.4237343,14.24924 18.260915,14.4054056 18.0606432,14.4054056 C17.7096353,14.4054056 17.428258,14.6752843 17.428258,15.0119482 C17.428258,15.348612 17.7096353,15.6184907 18.0606432,15.6184907 C18.9589648,15.6184907 19.6885047,14.9187638 19.6885047,14.0571525 L19.6885047,1.66763196 C19.6885047,0.806020645 18.9589648,0.106293706 18.0606432,0.106293706 Z M18.0606432,0.292307692 C18.851855,0.292307692 19.4945653,0.908753333 19.4945653,1.66763196 L19.4945653,14.0571525 C19.4945653,14.8160311 18.851855,15.4324767 18.0606432,15.4324767 C17.8167451,15.4324767 18.855013,15.5451707 18.855013,15.3112395 C18.855013,15.0773083 18.7123046,15.247195 18.9562028,15.247195 C19.2635843,15.247195 19.5738191,14.3519727 19.5738191,14.0571525 L19.4945653,1.31937878 C19.4945653,1.18672813 19.3618012,0.834648817 19.0985575,0.620428582 C18.7767338,0.358537643 18.2999939,0.242906937 18.1309148,0.242906937 L8.99314856,0.199300699 C8.68576706,0.199300699 7.62380864,0.74649627 7.62380864,1.0413165 C7.62380864,1.27524768 7.62380864,1.88229376 7.62380864,1.66763196 C7.62380864,0.908753333 8.26651888,0.292307692 9.05773068,0.292307692 L18.0606432,0.292307692 Z" id="Path"></path>
                    </g>
                </g>
            </g>
        </g>
    </g>
</svg>