<svg width="42" height="42" viewBox="0 0 42 42" fill="none" xmlns="http://www.w3.org/2000/svg">
<path fill-rule="evenodd" clip-rule="evenodd" d="M21 41C32.0457 41 41 32.0457 41 21C41 9.9543 32.0457 1 21 1C9.9543 1 1 9.9543 1 21C1 32.0457 9.9543 41 21 41Z" fill="#0FB989" fill-opacity="0.2" stroke="#0FB989"/>
<path d="M31.6207 15.2087L29.7781 13.3771C29.5255 13.1257 29.2182 13 28.857 13C28.4955 13 28.1882 13.1257 27.9356 13.3771L19.0477 22.2256L15.0645 18.2525C14.8116 18.001 14.5045 17.8755 14.1433 17.8755C13.7819 17.8755 13.4748 18.001 13.2219 18.2525L11.3793 20.0841C11.1264 20.3355 11 20.6409 11 21.0001C11 21.359 11.1264 21.6647 11.3793 21.916L16.2838 26.7913L18.1265 28.6229C18.3793 28.8744 18.6864 29 19.0477 29C19.4089 29 19.7161 28.8741 19.969 28.6229L21.8117 26.7913L31.6207 17.0405C31.8733 16.789 32 16.4837 32 16.1245C32.0002 15.7655 31.8733 15.4601 31.6207 15.2087Z" fill="#0FB989"/>
</svg>
