<svg width="42" height="42" fill="none" xmlns="http://www.w3.org/2000/svg"><path fill-rule="evenodd" clip-rule="evenodd" d="M21 41c11.046 0 20-8.954 20-20S32.046 1 21 1 1 9.954 1 21s8.954 20 20 20z" fill="#0FB989" fill-opacity=".2" stroke="#0FB989"/><path d="M31.62 15.209l-1.842-1.832a1.257 1.257 0 00-.921-.377c-.361 0-.669.126-.921.377l-8.888 8.849-3.983-3.973a1.258 1.258 0 00-.922-.378c-.361 0-.668.126-.921.378l-1.843 1.831c-.253.252-.379.557-.379.916s.126.665.38.916l4.904 4.875 1.843 1.832c.252.251.56.377.92.377.362 0 .67-.126.922-.377l1.843-1.832 9.809-9.75c.252-.252.379-.557.379-.916 0-.36-.127-.665-.38-.916z" fill="#0FB989"/></svg>