<svg width="15" height="15" viewBox="0 0 15 15" fill="none" xmlns="http://www.w3.org/2000/svg">
<path d="M1.31312 10.5854C1.18276 10.5854 1.07661 10.4801 1.07661 10.3508V1.30217C1.07661 1.17293 1.18279 1.06763 1.31312 1.06763H13.6869C13.8173 1.06763 13.9234 1.17293 13.9234 1.30217V3.28392C14.3172 3.33004 14.6862 3.45801 15 3.66838V1.30217C15 0.584109 14.4107 0 13.6869 0L1.31312 0C0.589254 0 0 0.584076 0 1.30217V10.3508C0 11.0689 0.589254 11.653 1.31312 11.653H5.81973V13.3986H5.10906C4.66329 13.3986 4.3016 13.757 4.3016 14.1993C4.3016 14.6416 4.66329 15 5.10906 15H7.37576C7.09244 14.6049 6.92161 14.1252 6.92161 13.6045V10.5854H1.31312Z" fill="#0FB989"/>
<rect x="7.94141" y="4" width="6.36364" height="10" rx="1" fill="#0FB989"/>
</svg>
