<svg width="67" height="62" fill="none" xmlns="http://www.w3.org/2000/svg"><path d="M28.925 43.753H5.893a.972.972 0 01-.972-.97v-37.4c0-.535.436-.97.972-.97h55.215c.535 0 .97.435.97.97v8.19c1.618.191 3.133.72 4.422 1.59v-9.78C66.5 2.413 64.08 0 61.108 0H5.892C2.92 0 .5 2.414.5 5.382v37.401c0 2.968 2.42 5.383 5.393 5.383H24.4v7.215H21.48a3.313 3.313 0 00-3.316 3.31A3.313 3.313 0 0021.481 62h9.309a9.904 9.904 0 01-1.865-5.768V43.753z" fill="#fff"/><path d="M47.57 58.849v-4.774H37.9v-30.49c0-.643.52-1.166 1.16-1.166h21.88c.64 0 1.16.523 1.16 1.166v9.436h1.648c1.008 0 1.94.293 2.752.77V23.584c0-3.08-2.495-5.585-5.56-5.585H39.06c-3.065 0-5.56 2.505-5.56 5.585v32.83c0 3.08 2.495 5.585 5.56 5.585h9.502c-.605-.874-.992-2.091-.992-3.151z" fill="#fff"/><path fill-rule="evenodd" clip-rule="evenodd" d="M63.776 36H53.224c-1.502 0-2.724 1.25-2.724 2.785v20.43c0 1.536 1.221 2.785 2.724 2.785h10.553c1.501 0 2.723-1.249 2.723-2.784V38.785C66.5 37.25 65.278 36 63.776 36zm-10.013 3.336h9.474v17.66h-9.474v-17.66zm3.967 20.996c.204.191.472.315.771.315.297 0 .565-.124.77-.315.229-.215.377-.517.377-.861 0-.65-.514-1.175-1.147-1.175-.637 0-1.151.526-1.151 1.175 0 .344.148.646.38.861z" fill="#fff"/></svg>