<svg width="67" height="62" viewBox="0 0 67 62" fill="none" xmlns="http://www.w3.org/2000/svg">
<path d="M28.9246 43.753H5.89254C5.3572 43.753 4.92126 43.3176 4.92126 42.7833V5.3823C4.92126 4.84812 5.35734 4.41287 5.89254 4.41287H61.1076C61.6431 4.41287 62.0789 4.84812 62.0789 5.3823V13.5736C63.696 13.7641 65.2113 14.2931 66.5 15.1627V5.3823C66.5 2.41432 64.0801 0 61.1075 0H5.89254C2.91987 0 0.5 2.41418 0.5 5.3823V42.7832C0.5 45.7513 2.91987 48.1657 5.89254 48.1657H24.3997V55.3807H21.4812C19.6506 55.3807 18.1653 56.8621 18.1653 58.6903C18.1653 60.5186 19.6506 62 21.4812 62H30.7898C29.6263 60.3669 28.9248 58.3844 28.9248 56.2318V43.753H28.9246Z" fill="white"/>
<path d="M47.5698 58.8488V54.0752H37.9006V23.5851C37.9006 22.9419 38.4205 22.4187 39.0608 22.4187H60.9393C61.5796 22.4187 62.0994 22.9419 62.0994 23.5851V33.0213H63.7478C64.7555 33.0213 65.688 33.3136 66.5 33.7904V23.5851C66.5 20.505 64.0055 18 60.9392 18H39.0608C35.9947 18 33.5 20.505 33.5 23.5851V56.415C33.5 59.4952 35.9945 62 39.0608 62H48.5625C47.9566 61.1263 47.5698 59.9087 47.5698 58.8488Z" fill="white"/>
<path fill-rule="evenodd" clip-rule="evenodd" d="M63.7765 36H53.2238C51.7215 36 50.5 37.2498 50.5 38.785V59.2159C50.5 60.7512 51.7215 62 53.2238 62H63.7765C65.2785 62 66.5 60.7512 66.5 59.2159V38.7849C66.5 37.2497 65.2784 36 63.7765 36ZM53.7632 39.3356H63.2366V56.9965H53.7632V39.3356ZM57.73 60.3321C57.9339 60.5231 58.2015 60.647 58.5012 60.647C58.7985 60.647 59.0661 60.5233 59.2702 60.3321C59.4996 60.1169 59.6484 59.815 59.6484 59.4708C59.6484 58.8217 59.1343 58.296 58.5012 58.296C57.8638 58.296 57.3496 58.8217 57.3496 59.4708C57.3496 59.815 57.4983 60.1171 57.73 60.3321Z" fill="white"/>
</svg>
