<?xml version="1.0" encoding="UTF-8"?>
<svg width="9px" height="17px" viewBox="0 0 9 17" version="1.1" xmlns="http://www.w3.org/2000/svg" xmlns:xlink="http://www.w3.org/1999/xlink">
    <!-- Generator: Sketch 56.2 (81672) - https://sketch.com -->
    <title>dollar</title>
    <desc>Created with Sketch.</desc>
    <g id="approve" stroke="none" stroke-width="1" fill="none" fill-rule="evenodd">
        <g transform="translate(-510.000000, -149.000000)" fill="#0FB989" fill-rule="nonzero" id="menu">
            <g transform="translate(235.000000, 130.000000)">
                <g id="menu-napisy" transform="translate(275.000000, 18.000000)">
                    <g id="Group" transform="translate(0.000000, 1.000000)">
                        <path d="M6.53146158,7.72238829 C5.88772754,7.35372666 5.20333662,7.07284161 4.52572184,6.78142337 C4.13270527,6.61289234 3.75662907,6.41627281 3.42459783,6.14240988 C2.77069956,5.60170616 2.8960583,4.72394038 3.661763,4.37634513 C3.87859973,4.27803536 4.10560068,4.24643579 4.3359897,4.23239154 C5.22366506,4.18323666 6.06729546,4.35176769 6.87026897,4.75202888 C7.27006169,4.95215948 7.40219657,4.88896035 7.53771953,4.45709958 C7.68001863,4.00066137 7.79860122,3.53720104 7.9307361,3.07725177 C8.01882602,2.76827822 7.91040766,2.56463656 7.62919752,2.43472722 C7.11421029,2.19948599 6.58567077,2.03095496 6.03002665,1.93966732 C5.30497884,1.82380224 5.30497884,1.82029117 5.30159076,1.0654126 C5.29820269,0.0015604725 5.29820269,0.0015604725 4.26822822,0.0015604725 C4.11915297,0.0015604725 3.97007772,-0.00195059063 3.82100247,0.0015604725 C3.33989598,0.015604725 3.25858221,0.103381303 3.24502991,0.60546333 C3.23825376,0.830171371 3.24502991,1.05487941 3.24164184,1.28309851 C3.23825376,1.95020051 3.23486569,1.93966732 2.61823624,2.17139749 C1.12748373,2.73316759 0.205927629,3.78648652 0.107673486,5.47179683 C0.0195835653,6.96399865 0.771735969,7.97167377 1.95417376,8.70548597 C2.68260964,9.15841311 3.48897123,9.42525391 4.26145208,9.77987128 C4.56299065,9.91680274 4.85097693,10.0748006 5.1016944,10.2924865 C5.84368258,10.9279889 5.70815963,11.9848189 4.82726042,12.3850801 C4.35631815,12.599255 3.85827128,12.6519209 3.34667213,12.5852107 C2.55725091,12.4833899 1.80171043,12.269215 1.09021491,11.8865092 C0.673481826,11.6618011 0.551511166,11.7214892 0.409212063,12.1884606 C0.287241403,12.5922328 0.178823038,12.9995162 0.0704046736,13.4067995 C-0.0752825037,13.9545253 -0.0210733214,14.0844347 0.483749688,14.3407423 C1.12748373,14.6637601 1.81526273,14.8287801 2.51659402,14.9446451 C3.06546199,15.0359328 3.08240236,15.0605102 3.08917851,15.6503688 C3.09256658,15.9172096 3.09256658,16.1875615 3.09595466,16.4544023 C3.09934273,16.7914643 3.25519413,16.9880839 3.59061345,16.995106 C3.97007772,17.0021281 4.35293007,17.0021281 4.73239435,16.9915949 C5.04409715,16.9845728 5.20333662,16.8090197 5.20333662,16.4824908 C5.20333662,16.1173402 5.22027699,15.7486786 5.20672469,15.383528 C5.18978432,15.0113553 5.34563572,14.8217579 5.69121926,14.7234482 C6.48741662,14.4987401 7.1650314,14.0563462 7.68679478,13.3962663 C9.13689041,11.5705135 8.58463436,8.89859444 6.53146158,7.72238829 Z" id="dollar"></path>
                    </g>
                </g>
            </g>
        </g>
    </g>
</svg>