<svg width="9" height="17" xmlns="http://www.w3.org/2000/svg"><path d="M6.531 7.722c-.643-.368-1.328-.65-2.005-.94-.393-.17-.77-.366-1.101-.64-.654-.54-.529-1.418.237-1.766.217-.098.444-.13.674-.144.888-.049 1.731.12 2.534.52.4.2.532.137.668-.295.142-.456.26-.92.393-1.38.088-.309-.02-.512-.302-.642A6.275 6.275 0 006.03 1.94c-.725-.116-.725-.12-.728-.875C5.298.002 5.298.002 4.268.002c-.149 0-.298-.004-.447 0-.481.014-.562.101-.576.603-.007.225 0 .45-.003.678-.004.667-.007.657-.624.888-1.49.562-2.412 1.615-2.51 3.3-.088 1.493.664 2.5 1.846 3.234.729.453 1.535.72 2.307 1.075.302.137.59.295.84.512.743.636.607 1.693-.274 2.093-.47.214-.969.267-1.48.2-.79-.102-1.545-.316-2.257-.698-.417-.225-.538-.166-.68.301-.123.404-.231.812-.34 1.219-.145.548-.091.677.414.934.643.323 1.331.488 2.033.604.548.09.565.116.572.705.004.267.004.538.007.804.003.337.16.534.495.541.38.007.762.007 1.141-.003.312-.007.471-.183.471-.51 0-.365.017-.733.004-1.098-.017-.373.139-.562.484-.66a3.818 3.818 0 001.996-1.328c1.45-1.825.898-4.497-1.156-5.674z" fill="#B9C3F8" fill-rule="nonzero"/></svg>