<svg width="69" height="69" viewBox="0 0 69 69" fill="none" xmlns="http://www.w3.org/2000/svg">
<path d="M68.0917 65.5269C68.0917 66.3764 67.8085 67.0843 67.2423 67.6506C66.6759 68.0754 66.1096 68.3584 65.2601 68.3584H2.96444C2.2566 68.3584 1.54863 68.0752 0.982246 67.6506C0.415867 67.0842 0.132812 66.3764 0.132812 65.5269V24.0436H68.0917V65.5269Z" fill="#B2D4FD"/>
<path d="M67.2444 67.6506C66.678 68.0754 66.1118 68.3584 65.2622 68.3584H2.96657C2.25873 68.3584 1.55075 68.0752 0.984375 67.6506L34.1143 39.1929L67.2444 67.6506Z" fill="#95C5FF"/>
<path d="M68.0917 24.0435L58.4642 30.981L35.9528 47.1213C34.8202 47.9708 33.2628 47.9708 32.1301 47.1213L9.76031 30.981L0.132812 24.0435L9.76031 17.1061L30.7143 2.09852L32.2717 0.965894C33.4044 0.116461 34.9618 0.116461 36.0944 0.965894L37.6518 2.09852L47.7041 9.31918L52.6594 12.8586L58.4642 17.1061L68.0917 24.0435Z" fill="#455CDA"/>
<path d="M58.4656 14.656V30.981L35.9542 47.1213C34.8216 47.9708 33.2642 47.9708 32.1315 47.1213L9.76172 30.981V8.70956C9.76172 7.15215 11.0359 5.87794 12.5933 5.87794H49.5459L58.4656 14.656Z" fill="white"/>
<path d="M49.6876 12.3908C49.6876 13.665 50.6787 14.656 51.9529 14.656H58.4656L49.6875 5.87794L49.6876 12.3908Z" fill="#CDD6E0"/>
<path d="M42.4641 31.7282H44.7294C44.0215 33.2856 42.8888 34.4183 41.3314 35.2677C39.6324 36.2587 37.5087 36.6835 34.9603 36.6835C32.5534 36.6835 30.4297 36.2587 28.7307 35.4093C27.0317 34.5599 25.6158 33.4271 24.7664 31.7282C23.917 30.1708 23.4922 28.3302 23.4922 26.4898C23.4922 24.3661 23.917 22.5255 24.908 20.6849C25.899 18.8443 27.1732 17.5701 28.8722 16.7207C30.5713 15.8712 32.5533 15.4465 34.6771 15.4465C36.5177 15.4465 38.2166 15.8712 39.6324 16.5791C41.0482 17.2869 42.1808 18.2781 42.8888 19.6939C43.5966 20.9681 44.0214 22.5255 44.0214 24.0829C44.0214 25.9235 43.455 27.6224 42.3224 29.1798C40.9066 31.162 39.066 32.0114 36.8007 32.0114C36.2344 32.0114 35.6681 31.8698 35.3849 31.7282C35.1017 31.4451 34.8186 31.1619 34.8186 30.7372C33.9691 31.5866 32.978 32.0114 31.8453 32.0114C30.5711 32.0114 29.5801 31.5866 28.8721 30.7372C28.0227 29.8878 27.5979 28.755 27.5979 27.3392C27.5979 25.6402 28.0227 24.0828 29.0137 22.5254C30.1463 20.8264 31.7037 19.977 33.5443 19.977C34.8186 19.977 35.8096 20.5433 36.5176 21.5344L36.8007 20.2601H39.774L38.075 28.1886C37.9334 28.755 37.9334 29.0381 37.9334 29.1797C37.9334 29.3213 37.9334 29.4629 38.075 29.6045C38.2166 29.746 38.2166 29.746 38.3582 29.746C38.6413 29.746 39.2076 29.4629 39.774 29.0382C40.4818 28.4718 41.1898 27.764 41.6146 26.773C42.0393 25.7819 42.3224 24.7908 42.3224 23.7997C42.3224 21.9591 41.6146 20.4017 40.3402 19.2691C39.066 17.9949 37.2254 17.4285 34.8186 17.4285C32.8364 17.4285 31.1375 17.8533 29.7217 18.7027C28.3059 19.5522 27.3148 20.6849 26.6069 22.1007C25.8989 23.5166 25.6158 25.074 25.6158 26.773C25.6158 28.3304 26.0406 29.7462 26.7485 31.0204C27.5979 32.2946 28.5891 33.2857 30.0049 33.852C31.4207 34.4184 32.9781 34.7015 34.8187 34.7015C36.5177 34.7015 38.0751 34.4183 39.3493 33.9936C40.6235 33.4271 41.6146 32.7193 42.4641 31.7282ZM30.4297 27.1976C30.4297 28.1886 30.5713 28.755 30.996 29.3213C31.4208 29.746 31.8455 30.0291 32.4118 30.0291C32.8366 30.0291 33.2613 29.8875 33.5445 29.7459C33.8277 29.6043 34.1109 29.3211 34.3939 29.0381C34.8187 28.6133 35.1019 27.9055 35.3849 27.0559C35.6681 26.2064 35.8097 25.3569 35.8097 24.649C35.8097 23.7996 35.6681 23.2332 35.2433 22.6668C34.8186 22.2421 34.3939 21.959 33.8275 21.959C33.2611 21.959 32.5533 22.2422 32.1285 22.6668C31.5621 23.0916 31.1375 23.7995 30.8543 24.7905C30.5713 25.6402 30.4297 26.4896 30.4297 27.1976Z" fill="#5272EE"/>
</svg>
