<svg width="69" height="69" viewBox="0 0 69 69" fill="none" xmlns="http://www.w3.org/2000/svg">
<path d="M68.0898 65.5269C68.0898 66.3764 67.8066 67.0844 67.2403 67.6506C66.6739 68.0754 66.1077 68.3584 65.2581 68.3584H2.96249C2.25465 68.3584 1.54667 68.0752 0.980293 67.6506C0.413914 67.0842 0.130859 66.3764 0.130859 65.5269V24.0436H68.0898V65.5269Z" fill="#10C7BC"/>
<path d="M67.2405 67.6506C66.6741 68.0754 66.1079 68.3584 65.2583 68.3584H2.96266C2.25482 68.3584 1.54685 68.0752 0.980469 67.6506L34.1104 39.1929L67.2405 67.6506Z" fill="#09D6CA"/>
<path d="M68.0898 24.0436L58.4622 30.981L35.9508 47.1213C34.8182 47.9708 33.2608 47.9708 32.1282 47.1213L9.75836 30.981L0.130859 24.0436L9.75836 17.1061L30.7124 2.09853L32.2698 0.965902C33.4024 0.116469 34.9598 0.116469 36.0924 0.965902L37.6498 2.09853L47.7021 9.31918L52.6574 12.8586L58.4622 17.1061L68.0898 24.0436Z" fill="#15B2C7"/>
<path d="M58.4617 14.656V30.981L35.9503 47.1213C34.8177 47.9708 33.2603 47.9708 32.1276 47.1213L9.75781 30.981V8.70957C9.75781 7.15216 11.032 5.87794 12.5894 5.87794H49.542L58.4617 14.656Z" fill="white"/>
<path d="M44.6207 21.2087L42.7781 19.377C42.5255 19.1257 42.2182 19 41.857 19C41.4955 19 41.1882 19.1257 40.9356 19.377L32.0477 28.2256L28.0645 24.2524C27.8116 24.001 27.5045 23.8754 27.1433 23.8754C26.7819 23.8754 26.4748 24.001 26.2219 24.2524L24.3793 26.0841C24.1264 26.3355 24 26.6408 24 27.0001C24 27.359 24.1264 27.6646 24.3793 27.916L29.2838 32.7912L31.1265 34.6229C31.3793 34.8744 31.6864 35 32.0477 35C32.4089 35 32.7161 34.8741 32.969 34.6229L34.8117 32.7912L44.6207 23.0404C44.8733 22.789 45 22.4837 45 22.1245C45.0002 21.7654 44.8733 21.4601 44.6207 21.2087Z" fill="url(#paint0_linear)"/>
<path d="M49.6837 12.3908C49.6837 13.665 50.6748 14.656 51.949 14.656H58.4617L49.6836 5.87794L49.6837 12.3908Z" fill="#CDD6E0"/>
<defs>
<linearGradient id="paint0_linear" x1="24" y1="19" x2="45.5772" y2="19.8205" gradientUnits="userSpaceOnUse">
<stop stop-color="#0ADBC2"/>
<stop offset="1" stop-color="#07D1D1"/>
</linearGradient>
</defs>
</svg>
