<svg width="16" height="16" viewBox="0 0 16 16" fill="none" xmlns="http://www.w3.org/2000/svg">
<path d="M11.7727 9.15145H11.3181C11.2517 9.15145 11.1972 9.17414 11.1548 9.21972C11.1121 9.26504 11.0908 9.32313 11.0908 9.39387V11.8181C11.0908 12.1515 10.9796 12.4368 10.7571 12.6742C10.5346 12.9115 10.267 13.0301 9.95451 13.0301H4.04539C3.7329 13.0301 3.46536 12.9115 3.2428 12.6742C3.02028 12.4368 2.90904 12.1515 2.90904 11.8181V5.51503C2.90904 5.1817 3.02026 4.89643 3.2428 4.65905C3.46536 4.42165 3.7329 4.30301 4.04539 4.30301H7.07038C7.13678 4.30301 7.19126 4.28022 7.23382 4.23481C7.27638 4.18936 7.29765 4.13133 7.29765 4.06056V3.57564C7.29765 3.50501 7.27638 3.44687 7.23382 3.40149C7.19126 3.35604 7.13678 3.33335 7.07038 3.33335H4.04539C3.482 3.33335 3.00021 3.54674 2.60006 3.9735C2.20005 4.40023 2 4.91416 2 5.51511V11.8182C2 12.4191 2.20005 12.9331 2.60008 13.3597C3.00023 13.7865 3.48203 14 4.04542 14H9.95451C10.5179 14 10.9997 13.7865 11.3998 13.3597C11.7999 12.9331 12 12.4192 12 11.8182V9.39405C12 9.32323 11.9787 9.26512 11.936 9.21972C11.8934 9.17414 11.8389 9.15145 11.7727 9.15145Z" fill="#08AEC5"/>
<path fill-rule="evenodd" clip-rule="evenodd" d="M8.48914 2.91604V2L13.9999 2L13.9999 7.63991H13.1049V2.91604H8.48914Z" fill="#08AEC5"/>
<path fill-rule="evenodd" clip-rule="evenodd" d="M13.7206 2.29941C13.891 2.47381 13.891 2.75656 13.7206 2.93096L6.672 10.1448C6.5016 10.3191 6.22532 10.3191 6.05492 10.1448C5.88451 9.97036 5.88451 9.6876 6.05492 9.51321L13.1035 2.29941C13.2739 2.12502 13.5502 2.12502 13.7206 2.29941Z" fill="#08AEC5"/>
</svg>
