<svg width="10" height="10" viewBox="0 0 10 10" fill="none" xmlns="http://www.w3.org/2000/svg">
<circle opacity="0.7" cx="5" cy="5" r="5" fill="#7D7C9C"/>
<path fill-rule="evenodd" clip-rule="evenodd" d="M5.625 6.25H4.375V5.9375C4.375 5.17648 4.63972 4.80146 5.25 4.34375C5.57722 4.09833 5.625 4.03065 5.625 3.75C5.625 3.40482 5.34518 3.125 5 3.125C4.65482 3.125 4.375 3.40482 4.375 3.75H3.125C3.125 2.71447 3.96447 1.875 5 1.875C6.03553 1.875 6.875 2.71447 6.875 3.75C6.875 4.51102 6.61028 4.88604 6 5.34375C5.67278 5.58917 5.625 5.65685 5.625 5.9375V6.25Z" fill="white"/>
<path fill-rule="evenodd" clip-rule="evenodd" d="M5.00021 8.12402C5.3455 8.12402 5.62541 7.8442 5.62541 7.49902C5.62541 7.15385 5.3455 6.87402 5.00021 6.87402C4.65491 6.87402 4.375 7.15385 4.375 7.49902C4.375 7.8442 4.65491 8.12402 5.00021 8.12402Z" fill="white"/>
</svg>
