<svg width="12" height="12" viewBox="0 0 12 12" fill="none" xmlns="http://www.w3.org/2000/svg">
<path d="M9.77266 7.15142H9.31808C9.25168 7.15142 9.19721 7.1741 9.15482 7.21969C9.11208 7.26501 9.09081 7.3231 9.09081 7.39384V9.81807C9.09081 10.1514 8.97962 10.4367 8.7571 10.6741C8.53459 10.9115 8.26702 11.0301 7.95451 11.0301H2.04539C1.7329 11.0301 1.46536 10.9115 1.2428 10.6741C1.02028 10.4368 0.909039 10.1515 0.909039 9.81807V3.515C0.909039 3.18167 1.02026 2.8964 1.2428 2.65902C1.46536 2.42161 1.7329 2.30298 2.04539 2.30298H5.07038C5.13678 2.30298 5.19126 2.28018 5.23382 2.23478C5.27638 2.18933 5.29765 2.1313 5.29765 2.06053V1.57561C5.29765 1.50497 5.27638 1.44684 5.23382 1.40146C5.19126 1.35601 5.13678 1.33332 5.07038 1.33332H2.04539C1.482 1.33332 1.00021 1.54671 0.600056 1.97347C0.200052 2.4002 0 2.91412 0 3.51508V9.81818C0 10.4191 0.200052 10.9331 0.600081 11.3597C1.00023 11.7865 1.48203 12 2.04542 12H7.95451C8.51787 12 8.99972 11.7865 9.39982 11.3597C9.79995 10.9331 10 10.4191 10 9.81818V7.39402C10 7.3232 9.97871 7.26509 9.93597 7.21969C9.89336 7.1741 9.83888 7.15142 9.77266 7.15142Z" fill="#08AEC5"/>
<path fill-rule="evenodd" clip-rule="evenodd" d="M6.48914 0.916007V-3.02618e-05L11.9999 -3.05176e-05L11.9999 5.63988H11.1049V0.916007H6.48914Z" fill="#08AEC5"/>
<path fill-rule="evenodd" clip-rule="evenodd" d="M11.7206 0.299383C11.891 0.473779 11.891 0.756531 11.7206 0.930926L4.672 8.14472C4.5016 8.31912 4.22532 8.31912 4.05492 8.14472C3.88451 7.97033 3.88451 7.68757 4.05492 7.51318L11.1035 0.299383C11.2739 0.124988 11.5502 0.124988 11.7206 0.299383Z" fill="#08AEC5"/>
</svg>