<svg width="85" height="39" viewBox="0 0 85 39" fill="none" xmlns="http://www.w3.org/2000/svg">
<path d="M66.8888 13C65.5113 13 64.3913 14.1355 64.3913 15.533V18H69.3913V15.533C69.3913 14.1355 68.2663 13 66.8888 13Z" fill="white"/>
<path fill-rule="evenodd" clip-rule="evenodd" d="M10.709 0H74.0736C79.7445 0 84.3913 4.66995 84.3913 10.3647V28.6353C84.3913 34.339 79.7445 39 74.0736 39H10.709C5.03811 39 0.391296 34.339 0.391296 28.6353V10.3647C0.391296 4.66995 5.03811 0 10.709 0ZM25.3143 25.0368L22.839 22.3303C22.3135 21.7578 21.6129 21.126 20.7175 20.4225C22.0383 20.374 23.032 20.2897 23.7022 20.1605L27.3642 19.3923L25.7236 14.3455L22.4118 15.9231C22.0669 16.0882 21.5539 16.3448 20.8891 16.7163C20.6996 16.8276 20.2993 17.0304 19.6934 17.3355C19.9955 16.221 20.1992 15.2249 20.2921 14.3455L20.7175 10.7326H15.4613L15.9313 14.3455C16.0171 14.9988 16.2065 15.9948 16.5014 17.3355C15.1217 16.5117 14.2549 16.0146 13.9064 15.8566L10.5964 14.3455L8.88423 19.3923L12.5749 19.9954C13.7634 20.2197 14.7267 20.3561 15.4595 20.4225C14.741 20.9466 14.0136 21.5855 13.263 22.3303L10.5982 25.0368L15.0055 28.2674L16.7892 25.0368C16.9947 24.7012 17.4093 23.8038 18.0331 22.3303C18.6032 23.671 19.0089 24.5756 19.2681 25.0368L21.0267 28.2674L25.3143 25.0368ZM47.1042 22.3303L49.5831 25.0368L45.2956 28.2656L43.5387 25.0368C43.2795 24.5756 42.8738 23.671 42.3055 22.3303C41.68 23.8038 41.2689 24.7012 41.0634 25.0368L39.2761 28.2656L34.8706 25.0368L37.5354 22.3303C38.286 21.5855 39.0116 20.9466 39.7319 20.4225C39.0027 20.3561 38.0358 20.2197 36.8473 19.9954L33.1549 19.3923L34.8688 14.3455L38.1806 15.8566C38.5255 16.0146 39.3959 16.5117 40.7738 17.3355C40.4718 15.9948 40.2824 14.9988 40.2019 14.3455L39.7301 10.7362H44.9881L44.561 14.3455C44.4645 15.2249 44.2643 16.221 43.9658 17.3355C44.5681 17.0304 44.9685 16.8276 45.1597 16.7163C45.821 16.3448 46.3357 16.0882 46.6824 15.9231L49.996 14.3455L51.6384 19.3923L47.9728 20.1605C47.3026 20.2897 46.3125 20.374 44.9899 20.4225C45.8782 21.126 46.5806 21.7578 47.1042 22.3303ZM72.2828 28.9225C73.3873 28.9225 74.2934 28.0143 74.2934 26.9034H74.2916V20.0941C74.2916 18.9831 73.3837 18.075 72.281 18.075H72.0093V15.4546C72.0093 12.4861 69.6073 10.074 66.6548 10.074C63.7041 10.074 61.3038 12.4879 61.3038 15.4546V18.075H61.0321C59.9258 18.075 59.0215 18.9831 59.0215 20.0941V26.9034C59.0215 28.0143 59.9258 28.9225 61.0321 28.9225H72.2828Z" fill="white"/>
</svg>
