<svg width="85" height="39" fill="none" xmlns="http://www.w3.org/2000/svg"><path d="M66.889 13c-1.378 0-2.498 1.136-2.498 2.533V18h5v-2.467c0-1.397-1.125-2.533-2.502-2.533z" fill="#fff"/><path fill-rule="evenodd" clip-rule="evenodd" d="M10.709 0h63.365c5.67 0 10.317 4.67 10.317 10.365v18.27C84.391 34.34 79.744 39 74.074 39H10.709C5.039 39 .391 34.339.391 28.635v-18.27C.391 4.67 5.038 0 10.71 0zm14.605 25.037L22.84 22.33c-.525-.572-1.226-1.204-2.121-1.907 1.32-.049 2.314-.133 2.984-.262l3.662-.769-1.64-5.046-3.312 1.577c-.345.165-.858.422-1.523.793-.19.112-.59.314-1.196.62.302-1.115.506-2.111.6-2.99l.425-3.613H15.46l.47 3.612c.086.654.275 1.65.57 2.99-1.38-.823-2.246-1.32-2.595-1.478l-3.31-1.511-1.712 5.046 3.69.603c1.19.225 2.153.361 2.886.427-.719.525-1.446 1.163-2.197 1.908l-2.665 2.707 4.407 3.23 1.784-3.23c.206-.336.62-1.233 1.244-2.707.57 1.341.976 2.246 1.235 2.707l1.759 3.23 4.287-3.23zm21.79-2.707l2.48 2.707-4.288 3.229-1.757-3.23c-.26-.46-.665-1.365-1.233-2.706-.626 1.474-1.037 2.371-1.243 2.707l-1.787 3.229-4.405-3.23 2.664-2.706c.751-.744 1.477-1.383 2.197-1.907a31.41 31.41 0 01-2.885-.428l-3.692-.603 1.714-5.046 3.312 1.51c.345.159 1.215.656 2.593 1.48-.302-1.341-.492-2.337-.572-2.99l-.472-3.61h5.258l-.427 3.61c-.096.879-.297 1.875-.595 2.99.602-.306 1.002-.508 1.194-.62a25.367 25.367 0 011.522-.793l3.314-1.578 1.642 5.047-3.665.768c-.67.13-1.66.214-2.983.262.888.704 1.59 1.336 2.114 1.908zm25.179 6.593c1.104 0 2.01-.909 2.01-2.02h-.001v-6.809c0-1.11-.908-2.019-2.011-2.019h-.272v-2.62c0-2.969-2.402-5.381-5.354-5.381-2.95 0-5.351 2.414-5.351 5.38v2.621h-.272a2.02 2.02 0 00-2.01 2.02v6.808c0 1.111.904 2.02 2.01 2.02h11.25z" fill="#fff"/></svg>