<svg width="69" height="69" viewBox="0 0 69 69" fill="none" xmlns="http://www.w3.org/2000/svg">
<g clip-path="url(#clip0)">
<path fill-rule="evenodd" clip-rule="evenodd" d="M34.1456 68.8451C52.9315 68.8451 68.1604 53.6161 68.1604 34.8303C68.1604 16.0445 52.9315 0.815521 34.1456 0.815521C15.3598 0.815521 0.130859 16.0445 0.130859 34.8303C0.130859 53.6161 15.3598 68.8451 34.1456 68.8451Z" fill="#F0DFFD"/>
<path d="M41.3556 16.65H25.7617C25.2094 16.65 24.7617 17.0977 24.7617 17.65V29.7251C24.7617 30.2774 25.2094 30.7251 25.7617 30.7251H41.3556C41.9079 30.7251 42.3556 30.2774 42.3556 29.7251V17.65C42.3556 17.0977 41.9079 16.65 41.3556 16.65Z" fill="#C696F0"/>
<path d="M40.0096 16.65H37.6637V12.5448C37.6637 10.281 35.8222 8.43952 33.5585 8.43952C31.2948 8.43952 29.4533 10.281 29.4533 12.5448V16.65H27.1074V12.5448C27.1074 8.98728 30.0022 6.09368 33.5585 6.09368C37.1148 6.09368 40.0096 8.98728 40.0096 12.5448V16.65Z" fill="#0F0C4A"/>
<path d="M56.4312 58.4647H11.8601C5.40901 58.4647 0.130859 53.1866 0.130859 46.7355C0.130859 40.2844 5.40901 35.0062 11.8601 35.0062H56.4312C62.8823 35.0062 68.1604 40.2844 68.1604 46.7355C68.1604 53.1866 62.8823 58.4647 56.4312 58.4647Z" fill="#B55EF7"/>
<path d="M17.199 43.3398L14.2045 44.8377V40.8708C14.2045 40.2234 13.6802 39.6979 13.0316 39.6979C12.383 39.6979 11.8587 40.2234 11.8587 40.8708V44.8377L8.86423 43.341C8.28597 43.0501 7.58105 43.2871 7.29016 43.8653C7.00045 44.4447 7.23504 45.1497 7.81446 45.4394L11.2488 47.1565L8.57451 50.7234C8.1851 51.2418 8.29067 51.9773 8.8091 52.3655C9.02022 52.5238 9.26654 52.6001 9.51168 52.6001C9.86942 52.6001 10.2201 52.4382 10.4512 52.1309L13.0316 48.6896L15.6121 52.1309C15.8419 52.4382 16.1938 52.6001 16.5516 52.6001C16.7967 52.6001 17.043 52.5238 17.2541 52.3655C17.7726 51.9773 17.8781 51.2418 17.4887 50.7234L14.8133 47.1565L18.2476 45.4394C18.827 45.1497 19.0616 44.4447 18.7719 43.8653C18.481 43.2859 17.7784 43.0501 17.199 43.3398Z" fill="white"/>
<path d="M31.2732 43.3398L28.2788 44.8377V40.8708C28.2788 40.2234 27.7545 39.6979 27.1058 39.6979C26.4572 39.6979 25.9329 40.2234 25.9329 40.8708V44.8377L22.9384 43.341C22.3602 43.0501 21.6553 43.2871 21.3644 43.8653C21.0747 44.4447 21.3093 45.1497 21.8887 45.4394L25.323 47.1565L22.6487 50.7234C22.2593 51.2418 22.3649 51.9773 22.8833 52.3655C23.0944 52.5238 23.3408 52.6001 23.5859 52.6001C23.9436 52.6001 24.2943 52.4382 24.5254 52.1309L27.1058 48.6896L29.6863 52.1309C29.9162 52.4382 30.268 52.6001 30.6258 52.6001C30.8709 52.6001 31.1172 52.5238 31.3284 52.3655C31.8468 51.9773 31.9524 51.2418 31.563 50.7234L28.8875 47.1565L32.3218 45.4394C32.9013 45.1497 33.1358 44.4447 32.8461 43.8653C32.5564 43.2859 31.8527 43.0501 31.2732 43.3398Z" fill="white"/>
<path d="M45.3494 43.3398L42.3549 44.8377V40.8708C42.3549 40.2234 41.8306 39.6979 41.182 39.6979C40.5334 39.6979 40.0091 40.2234 40.0091 40.8708V44.8377L37.0146 43.341C36.434 43.0501 35.7314 43.2871 35.4406 43.8653C35.1508 44.4447 35.3854 45.1497 35.9649 45.4394L39.3992 47.1565L36.7249 50.7234C36.3355 51.2418 36.4411 51.9773 36.9595 52.3655C37.1706 52.5238 37.4169 52.6001 37.6621 52.6001C38.0198 52.6001 38.3705 52.4382 38.6016 52.1309L41.182 48.6896L43.7624 52.1309C43.9923 52.4382 44.3442 52.6001 44.7019 52.6001C44.9471 52.6001 45.1934 52.5238 45.4045 52.3655C45.923 51.9773 46.0285 51.2418 45.6391 50.7234L42.9637 47.1565L46.398 45.4394C46.9774 45.1497 47.212 44.4447 46.9223 43.8653C46.6314 43.2859 45.9288 43.0501 45.3494 43.3398Z" fill="white"/>
<path d="M60.9997 43.8653C60.7088 43.2859 60.005 43.0501 59.4256 43.341L56.4311 44.8377V40.8708C56.4311 40.2234 55.9068 39.6979 55.2582 39.6979C54.6096 39.6979 54.0853 40.2234 54.0853 40.8708V44.8377L51.0908 43.341C50.5102 43.0501 49.8076 43.2871 49.5167 43.8653C49.227 44.4447 49.4616 45.1497 50.041 45.4394L53.4753 47.1565L50.8011 50.7234C50.4117 51.2418 50.5172 51.9773 51.0357 52.3655C51.2468 52.5238 51.4931 52.6001 51.7382 52.6001C52.096 52.6001 52.4467 52.4382 52.6778 52.1309L55.2582 48.6896L57.8386 52.1309C58.0685 52.4382 58.4204 52.6001 58.7781 52.6001C59.0233 52.6001 59.2696 52.5238 59.4807 52.3655C59.9991 51.9773 60.1047 51.2418 59.7153 50.7234L57.0399 47.1565L60.4742 45.4394C61.0536 45.1485 61.2894 44.4447 60.9997 43.8653Z" fill="white"/>
</g>
<defs>
<clipPath id="clip0">
<rect width="68.0296" height="68.0296" fill="white" transform="translate(0.130859 0.815521)"/>
</clipPath>
</defs>
</svg>
