<svg width="16" height="15" viewBox="0 0 16 15" fill="none" xmlns="http://www.w3.org/2000/svg">
<path fill-rule="evenodd" clip-rule="evenodd" d="M8.00033 14.8333C3.95024 14.8333 0.666992 11.55 0.666992 7.49996C0.666992 3.44987 3.95024 0.166626 8.00033 0.166626C12.0504 0.166626 15.3337 3.44987 15.3337 7.49996C15.3337 11.55 12.0504 14.8333 8.00033 14.8333ZM8.00033 13.5C11.314 13.5 14.0003 10.8137 14.0003 7.49996C14.0003 4.18625 11.314 1.49996 8.00033 1.49996C4.68662 1.49996 2.00033 4.18625 2.00033 7.49996C2.00033 10.8137 4.68662 13.5 8.00033 13.5ZM11.3337 6.83329H8.66699V4.16663H7.33366V6.83329H4.66699V8.16663H7.33366V10.8333H8.66699V8.16663H11.3337V6.83329Z" fill="white"/>
</svg>
