<?xml version="1.0" encoding="UTF-8"?>
<svg width="19px" height="19px" viewBox="0 0 19 19" version="1.1" xmlns="http://www.w3.org/2000/svg" xmlns:xlink="http://www.w3.org/1999/xlink">
    <!-- Generator: Sketch 53.2 (72643) - https://sketchapp.com -->
    <title>printer</title>
    <desc>Created with Sketch.</desc>
    <g id="do-pocięcia" stroke="none" stroke-width="1" fill="none" fill-rule="evenodd">
        <g id="Settings_open" transform="translate(-284.000000, -229.000000)" fill="#676AE1" fill-rule="nonzero">
            <g id="Group" transform="translate(218.000000, 30.000000)">
                <g id="Group-8">
                    <g id="Group-7-Copy" transform="translate(30.000000, 162.000000)">
                        <g id="Group-10" transform="translate(20.000000, 21.000000)">
                            <g id="printer" transform="translate(16.000000, 16.000000)">
                                <path d="M15.4926989,3.89450777 L14.9966765,3.89450777 L14.9966765,2.80766839 C14.9966765,1.26010363 13.7166188,0 12.1445479,0 L6.15627773,0 C4.58420681,0 3.30414906,1.26010363 3.30414906,2.80766839 L3.30414906,3.89450777 L2.85212867,3.89450777 C1.28005775,3.89450777 0,5.1546114 0,6.70217617 L0,11.2306736 C0,12.7782383 1.28005775,14.038342 2.85212867,14.038342 L3.30014888,14.038342 L3.30014888,17.5981347 C3.30014888,18.3699482 3.94017775,19 4.72421312,19 L13.5686121,19 C14.3526475,19 14.9926764,18.3699482 14.9926764,17.5981347 L14.9926764,14.038342 L15.4926989,14.038342 C17.0647698,14.038342 18.3448276,12.7782383 18.3448276,11.2306736 L18.3448276,6.70217617 C18.3448276,5.1546114 17.0647698,3.89450777 15.4926989,3.89450777 Z M4.3801976,2.80766839 C4.3801976,1.84683938 5.17623351,1.06321244 6.15227755,1.06321244 L12.1365475,1.06321244 C13.1125915,1.06321244 13.9086275,1.84683938 13.9086275,2.80766839 L13.9086275,3.89450777 L4.3801976,3.89450777 L4.3801976,2.80766839 Z M13.9126276,17.6060104 C13.9126276,17.7910881 13.7566206,17.9446632 13.5686121,17.9446632 L4.72421312,17.9446632 C4.53620464,17.9446632 4.3801976,17.7910881 4.3801976,17.6060104 L4.3801976,11.734715 L13.9126276,11.734715 L13.9126276,17.6060104 Z M17.2647789,11.2346114 C17.2647789,12.1954404 16.468743,12.9790674 15.4926989,12.9790674 L14.9966765,12.9790674 L14.9966765,11.734715 L15.7087087,11.734715 C16.0087222,11.734715 16.248733,11.4984456 16.248733,11.2031088 C16.248733,10.907772 16.0087222,10.6715026 15.7087087,10.6715026 L2.50811315,10.6715026 C2.20809961,10.6715026 1.96808879,10.907772 1.96808879,11.2031088 C1.96808879,11.4984456 2.20809961,11.734715 2.50811315,11.734715 L3.30414906,11.734715 L3.30414906,12.9790674 L2.85212867,12.9790674 C1.87608464,12.9790674 1.08004872,12.1954404 1.08004872,11.2346114 L1.08004872,6.70611399 C1.08004872,5.74528497 1.87608464,4.96165803 2.85212867,4.96165803 L15.4926989,4.96165803 C16.468743,4.96165803 17.2647789,5.74528497 17.2647789,6.70611399 L17.2647789,11.2346114 Z" id="Shape"></path>
                                <path d="M5.7750039,14.4137931 L12.5698237,14.4137931 C12.8662818,14.4137931 13.1034483,14.1226054 13.1034483,13.7586207 C13.1034483,13.394636 12.8662818,13.1034483 12.5698237,13.1034483 L5.7750039,13.1034483 C5.47854579,13.1034483 5.24137931,13.394636 5.24137931,13.7586207 C5.24137931,14.1226054 5.48249857,14.4137931 5.7750039,14.4137931 Z" id="Path"></path>
                                <path d="M12.5737765,15.0689655 L5.7750039,15.0689655 C5.47854579,15.0689655 5.24137931,15.3601533 5.24137931,15.7241379 C5.24137931,16.0881226 5.47854579,16.3793103 5.7750039,16.3793103 L12.5698237,16.3793103 C12.8662818,16.3793103 13.1034483,16.0881226 13.1034483,15.7241379 C13.1034483,15.3601533 12.8662818,15.0689655 12.5737765,15.0689655 Z" id="Path"></path>
                                <path d="M15.2363717,5.89655172 L14.2463869,5.89655172 C13.9754057,5.89655172 13.7586207,6.18773946 13.7586207,6.55172414 C13.7586207,6.91570881 13.9754057,7.20689655 14.2463869,7.20689655 L15.2363717,7.20689655 C15.5073529,7.20689655 15.7241379,6.91570881 15.7241379,6.55172414 C15.7241379,6.18773946 15.5073529,5.89655172 15.2363717,5.89655172 Z" id="Path"></path>
                            </g>
                        </g>
                    </g>
                </g>
            </g>
        </g>
    </g>
</svg>