<svg width="16" height="16" viewBox="0 0 16 16" fill="none" xmlns="http://www.w3.org/2000/svg">
<path fill-rule="evenodd" clip-rule="evenodd" d="M2.66732 4.66689H4.00078V1.3335H12.0008V4.66689H13.334C14.0704 4.66689 14.6673 5.26384 14.6673 6.00022V11.3336C14.6673 12.0699 14.0704 12.6669 13.334 12.6669H12.0008V14.6668H4.00078V12.6669H2.66732C1.93094 12.6669 1.33398 12.0699 1.33398 11.3336V6.00022C1.33398 5.26384 1.93094 4.66689 2.66732 4.66689ZM10.6674 4.66689H5.33411V2.66683H10.6674V4.66689ZM13.334 11.3336H12.0008V10.0001H4.00078V11.3336H2.66732V6.00022H13.334V11.3336ZM10.6673 11.3335H5.33398V13.3335H10.6673V11.3335ZM12.6673 7.33356C12.6673 6.96537 12.3688 6.66689 12.0007 6.66689C11.6325 6.66689 11.334 6.96537 11.334 7.33356C11.334 7.70175 11.6325 8.00023 12.0007 8.00023C12.3688 8.00023 12.6673 7.70175 12.6673 7.33356Z" fill="#08AEC5"/>
</svg>
