<svg width="40" height="40" viewBox="0 0 40 40" fill="none" xmlns="http://www.w3.org/2000/svg">
<path fill-rule="evenodd" clip-rule="evenodd" d="M20 40C31.0457 40 40 31.0457 40 20C40 8.95431 31.0457 0 20 0C8.95431 0 0 8.95431 0 20C0 31.0457 8.95431 40 20 40Z" fill="#BDE6F2"/>
<path d="M23.8272 9.3103H15.4824C14.9301 9.3103 14.4824 9.75802 14.4824 10.3103V16.5862C14.4824 17.1385 14.9301 17.5862 15.4824 17.5862H23.8272C24.3795 17.5862 24.8272 17.1385 24.8272 16.5862V10.3103C24.8272 9.75802 24.3795 9.3103 23.8272 9.3103Z" fill="#15B2C7"/>
<path d="M23.4475 9.31029H22.0682V6.8965C22.0682 5.56546 20.9855 4.4827 19.6544 4.4827C18.3234 4.4827 17.2406 5.56546 17.2406 6.8965V9.31029H15.8613V6.8965C15.8613 4.80477 17.5634 3.10339 19.6544 3.10339C21.7455 3.10339 23.4475 4.80477 23.4475 6.8965V9.31029Z" fill="#0F0C4A"/>
<path d="M33.1034 33.8966H6.89655C3.10345 33.8966 0 30.7932 0 27.0001C0 23.207 3.10345 20.1035 6.89655 20.1035H33.1034C36.8966 20.1035 40 23.207 40 27.0001C40 30.7932 36.8966 33.8966 33.1034 33.8966Z" fill="#15B2C7"/>
<path d="M10.0359 25.0034L8.27523 25.8841V23.5517C8.27523 23.171 7.96696 22.8621 7.58558 22.8621C7.2042 22.8621 6.89592 23.171 6.89592 23.5517V25.8841L5.13523 25.0041C4.79523 24.8331 4.38075 24.9724 4.20971 25.3124C4.03937 25.6531 4.1773 26.0676 4.51799 26.2379L6.5373 27.2476L4.96489 29.3448C4.73592 29.6496 4.79799 30.0821 5.10282 30.3103C5.22696 30.4034 5.37178 30.4483 5.51592 30.4483C5.72627 30.4483 5.93247 30.3531 6.06834 30.1724L7.58558 28.149L9.10282 30.1724C9.23799 30.3531 9.44489 30.4483 9.65523 30.4483C9.79937 30.4483 9.9442 30.4034 10.0683 30.3103C10.3732 30.0821 10.4352 29.6496 10.2063 29.3448L8.63316 27.2476L10.6525 26.2379C10.9932 26.0676 11.1311 25.6531 10.9607 25.3124C10.7897 24.9717 10.3766 24.8331 10.0359 25.0034Z" fill="white"/>
<path d="M18.3113 25.0034L16.5506 25.8841V23.5517C16.5506 23.171 16.2423 22.8621 15.861 22.8621C15.4796 22.8621 15.1713 23.171 15.1713 23.5517V25.8841L13.4106 25.0041C13.0706 24.8331 12.6561 24.9724 12.4851 25.3124C12.3148 25.6531 12.4527 26.0676 12.7934 26.2379L14.8127 27.2476L13.2403 29.3448C13.0113 29.6496 13.0734 30.0821 13.3782 30.3103C13.5023 30.4034 13.6472 30.4483 13.7913 30.4483C14.0017 30.4483 14.2079 30.3531 14.3437 30.1724L15.861 28.149L17.3782 30.1724C17.5134 30.3531 17.7203 30.4483 17.9306 30.4483C18.0748 30.4483 18.2196 30.4034 18.3437 30.3103C18.6486 30.0821 18.7106 29.6496 18.4817 29.3448L16.9086 27.2476L18.9279 26.2379C19.2686 26.0676 19.4065 25.6531 19.2361 25.3124C19.0658 24.9717 18.652 24.8331 18.3113 25.0034Z" fill="white"/>
<path d="M26.5867 25.0034L24.826 25.8841V23.5517C24.826 23.171 24.5177 22.8621 24.1364 22.8621C23.755 22.8621 23.4467 23.171 23.4467 23.5517V25.8841L21.686 25.0041C21.3446 24.8331 20.9315 24.9724 20.7605 25.3124C20.5902 25.6531 20.7281 26.0676 21.0688 26.2379L23.0881 27.2476L21.5157 29.3448C21.2867 29.6496 21.3488 30.0821 21.6536 30.3103C21.7777 30.4034 21.9226 30.4483 22.0667 30.4483C22.277 30.4483 22.4833 30.3531 22.6191 30.1724L24.1364 28.149L25.6536 30.1724C25.7888 30.3531 25.9957 30.4483 26.206 30.4483C26.3501 30.4483 26.495 30.4034 26.6191 30.3103C26.9239 30.0821 26.986 29.6496 26.757 29.3448L25.1839 27.2476L27.2033 26.2379C27.5439 26.0676 27.6819 25.6531 27.5115 25.3124C27.3405 24.9717 26.9274 24.8331 26.5867 25.0034Z" fill="white"/>
<path d="M35.7896 25.3124C35.6185 24.9717 35.2047 24.8331 34.864 25.0041L33.1034 25.8841V23.5517C33.1034 23.171 32.7951 22.8621 32.4137 22.8621C32.0323 22.8621 31.724 23.171 31.724 23.5517V25.8841L29.9634 25.0041C29.622 24.8331 29.2089 24.9724 29.0378 25.3124C28.8675 25.6531 29.0054 26.0676 29.3461 26.2379L31.3654 27.2476L29.793 29.3448C29.564 29.6496 29.6261 30.0821 29.9309 30.3103C30.0551 30.4034 30.1999 30.4483 30.344 30.4483C30.5544 30.4483 30.7606 30.3531 30.8965 30.1724L32.4137 28.149L33.9309 30.1724C34.0661 30.3531 34.273 30.4483 34.4834 30.4483C34.6275 30.4483 34.7723 30.4034 34.8965 30.3103C35.2013 30.0821 35.2634 29.6496 35.0344 29.3448L33.4613 27.2476L35.4806 26.2379C35.8213 26.0669 35.9599 25.6531 35.7896 25.3124Z" fill="white"/>
</svg>
