<?xml version="1.0" encoding="UTF-8"?>
<svg width="15px" height="14px" viewBox="0 0 15 14" version="1.1" xmlns="http://www.w3.org/2000/svg" xmlns:xlink="http://www.w3.org/1999/xlink">
    <!-- Generator: Sketch 56.2 (81672) - https://sketch.com -->
    <title>leeeee</title>
    <desc>Created with Sketch.</desc>
    <g id="approve" stroke="none" stroke-width="1" fill="none" fill-rule="evenodd">
        <g transform="translate(-841.000000, -150.000000)" fill="#B9C3F8" id="menu">
            <g transform="translate(235.000000, 130.000000)">
                <g id="menu-napisy" transform="translate(275.000000, 18.000000)">
                    <g id="settings" transform="translate(331.500000, 0.000000)">
                        <path d="M13.9561926,8.22273166 C13.9340537,8.02593505 13.704591,7.87805111 13.5061747,7.87805111 C12.8646686,7.87805111 12.2954134,7.5013872 12.0566783,6.91886301 C11.8127862,6.32222239 11.9700503,5.62640211 12.4481455,5.18785511 C12.5986377,5.05028501 12.6169217,4.81999444 12.4907042,4.66002558 C12.1623719,4.24309598 11.7891888,3.86648417 11.3817296,3.54008727 C11.2221735,3.41204967 10.9880746,3.4298645 10.8497197,3.58306164 C10.4324673,4.0451534 9.6829757,4.21689464 9.1038231,3.97524841 C8.50112517,3.72172563 8.12106604,3.11102067 8.15825932,2.45546608 C8.17050081,2.2495537 8.02000865,2.07051984 7.81471629,2.04661046 C7.29182244,1.98613379 6.76434455,1.98425855 6.23988795,2.04244325 C6.03693971,2.06484202 5.88644755,2.23965657 5.89327153,2.44296444 C5.91608757,3.09205985 5.5314444,3.69208634 4.93473698,3.93649334 C4.36251254,4.17022186 3.61828217,3.99993915 3.20186322,3.54196251 C3.06423764,3.39110943 2.83394139,3.37256533 2.67360395,3.49752961 C2.25405951,3.82668729 1.87248973,4.20361165 1.54113609,4.61710329 C1.41189724,4.77785351 1.43091061,5.01085276 1.58291343,5.14915212 C2.07012464,5.59035573 2.22744079,6.29221846 1.97432849,6.89573498 C1.73267631,7.47112282 1.13518752,7.84195263 0.451174854,7.84195263 C0.229213238,7.83481628 0.071115725,7.98379412 0.0468411151,8.18559138 C-0.0147309642,8.71149357 -0.0154602443,9.24734498 0.0438198117,9.77751857 C0.0658023984,9.97514861 0.302245434,10.1217303 0.50284956,10.1217303 C1.11242356,10.1061554 1.69767086,10.4835485 1.94317781,11.0809705 C2.18790338,11.6776111 2.03058724,12.3730147 1.55176275,12.8119263 C1.40199986,12.9494964 1.38298649,13.1794223 1.50920404,13.3393912 C1.83446298,13.7536642 2.20769813,14.1306406 2.61661592,14.4597462 C2.77700545,14.5889819 3.01037509,14.5707504 3.14940714,14.4175532 C3.5682223,13.9543155 4.31766181,13.7828868 4.89452239,14.0250018 C5.49873098,14.2777432 5.87879011,14.8883961 5.84159682,15.5443153 C5.82945951,15.7503319 5.98068096,15.9296783 6.18513985,15.953223 C6.45262938,15.984425 6.72173375,16 6.9915674,16 C7.24770099,16 7.50388669,15.9859357 7.76002028,15.9574423 C7.96302062,15.9350436 8.1134086,15.760229 8.10658462,15.5565565 C8.08309138,14.9078257 8.46841174,14.3077993 9.06433779,14.063809 C9.640417,13.8285178 10.3815219,14.0007278 10.7979929,14.4582356 C10.9363999,14.6087762 11.1650813,14.6269556 11.3263043,14.5024081 C11.7450674,14.1740317 12.1258558,13.7974199 12.4587721,13.3827823 C12.5879589,13.2223967 12.5697269,12.9890328 12.4169427,12.8507856 C11.9297315,12.409582 11.771634,11.707615 12.0247463,11.1045152 C12.2627,10.5367847 12.8379978,10.1555889 13.456792,10.1555889 L13.543368,10.1578288 C13.7440763,10.174133 13.9287404,10.0195294 13.9530671,9.81465885 C14.0147434,9.28828784 14.0154727,8.75290524 13.9561926,8.22273166 Z M7.01110169,11.3497036 C5.72350553,11.3497036 4.67615509,10.302379 4.67615509,9.01481454 C4.67615509,7.7273022 5.72350553,6.67992548 7.01110169,6.67992548 C8.29864575,6.67992548 9.34599619,7.7273022 9.34599619,9.01481454 C9.34599619,10.302379 8.29864575,11.3497036 7.01110169,11.3497036 Z" id="leeeee"></path>
                    </g>
                </g>
            </g>
        </g>
    </g>
</svg>