<svg width="27" height="27" viewBox="0 0 27 27" fill="none" xmlns="http://www.w3.org/2000/svg">
<g clip-path="url(#clip0)">
<rect width="26.349" height="26.35" fill="white"/>
<path d="M13.792 6.164C15.4941 6.164 16.874 4.78414 16.874 3.082C16.874 1.37986 15.4941 0 13.792 0C12.0898 0 10.71 1.37986 10.71 3.082C10.71 4.78414 12.0898 6.164 13.792 6.164Z" fill="#0FB1D6"/>
<path d="M13.7924 26.35C14.8135 26.35 15.6414 25.5222 15.6414 24.501C15.6414 23.4798 14.8135 22.652 13.7924 22.652C12.7712 22.652 11.9434 23.4798 11.9434 24.501C11.9434 25.5222 12.7712 26.35 13.7924 26.35Z" fill="#4F30CC"/>
<path d="M6.21931 8.99197C7.75135 8.99197 8.99331 7.75001 8.99331 6.21797C8.99331 4.68593 7.75135 3.44397 6.21931 3.44397C4.68727 3.44397 3.44531 4.68593 3.44531 6.21797C3.44531 7.75001 4.68727 8.99197 6.21931 8.99197Z" fill="#1A96D5"/>
<path d="M21.3652 22.904C22.2163 22.904 22.9062 22.2141 22.9062 21.363C22.9062 20.512 22.2163 19.822 21.3652 19.822C20.5141 19.822 19.8242 20.512 19.8242 21.363C19.8242 22.2141 20.5141 22.904 21.3652 22.904Z" fill="#8730CC"/>
<path d="M3.08219 16.257C4.44357 16.257 5.54719 15.1534 5.54719 13.792C5.54719 12.4306 4.44357 11.327 3.08219 11.327C1.72081 11.327 0.617188 12.4306 0.617188 13.792C0.617188 15.1534 1.72081 16.257 3.08219 16.257Z" fill="#2B67D1"/>
<path d="M24.5015 15.023C25.1819 15.023 25.7335 14.4714 25.7335 13.791C25.7335 13.1106 25.1819 12.559 24.5015 12.559C23.8211 12.559 23.2695 13.1106 23.2695 13.791C23.2695 14.4714 23.8211 15.023 24.5015 15.023Z" fill="#9742DB"/>
<path d="M4.69377 19.84C3.85077 20.683 3.85077 22.047 4.69377 22.89C5.53577 23.733 6.90177 23.733 7.74377 22.89C8.58677 22.047 8.58677 20.683 7.74377 19.84C6.90177 18.996 5.53677 18.988 4.69377 19.84Z" fill="#3050CC"/>
<path d="M21.3644 7.14201C21.8747 7.14201 22.2884 6.72832 22.2884 6.21801C22.2884 5.7077 21.8747 5.29401 21.3644 5.29401C20.8541 5.29401 20.4404 5.7077 20.4404 6.21801C20.4404 6.72832 20.8541 7.14201 21.3644 7.14201Z" fill="#B342DB"/>
</g>
<defs>
<clipPath id="clip0">
<rect width="26.349" height="26.35" fill="white"/>
</clipPath>
</defs>
</svg>
