<?xml version="1.0" encoding="UTF-8"?>
<svg width="10.71px" height="14.29px" viewBox="0 0 30 40" version="1.1" xmlns="http://www.w3.org/2000/svg" xmlns:xlink="http://www.w3.org/1999/xlink">
    <title>tablet</title>
    <desc>Created with Sketch.</desc>
    <g id="Page-1" stroke="none" stroke-width="1" fill="none" fill-rule="evenodd">
        <path d="M27.3684211,0 C28.821802,-2.66981744e-16 30,1.17819803 30,2.63157895 L30,37.3684211 C30,38.821802 28.821802,40 27.3684211,40 L2.63157895,40 C1.17819803,40 1.77987829e-16,38.821802 0,37.3684211 L0,2.63157895 C-1.77987829e-16,1.17819803 1.17819803,7.11070954e-16 2.63157895,0 L27.3684211,0 Z M14.7368421,36.8421053 C14.1554897,36.8421053 13.6842105,37.3133845 13.6842105,37.8947368 C13.6842105,38.4760892 14.1554897,38.9473684 14.7368421,38.9473684 C15.3181945,38.9473684 15.7894737,38.4760892 15.7894737,37.8947368 C15.7894737,37.3133845 15.3181945,36.8421053 14.7368421,36.8421053 Z M27.8947368,3.68421053 L2.10526316,3.68421053 L2.10526316,35.7894737 L27.8947368,35.7894737 L27.8947368,3.68421053 Z M14.7368421,1.57894737 C14.4461659,1.57894737 14.2105263,1.81458697 14.2105263,2.10526316 C14.2105263,2.39593934 14.4461659,2.63157895 14.7368421,2.63157895 C15.0275183,2.63157895 15.2631579,2.39593934 15.2631579,2.10526316 C15.2631579,1.81458697 15.0275183,1.57894737 14.7368421,1.57894737 Z" id="tablet" fill="#FFFFFF"></path>
    </g>
</svg>