<?xml version="1.0" encoding="UTF-8"?>
<svg width="52px" height="52px" viewBox="0 0 52 52" version="1.1" xmlns="http://www.w3.org/2000/svg" xmlns:xlink="http://www.w3.org/1999/xlink">
    <!-- Generator: Sketch 58 (84663) - https://sketch.com -->
    <title>Combined Shape Copy</title>
    <desc>Created with Sketch.</desc>
    <defs>
        <radialGradient cx="50%" cy="50%" fx="50%" fy="50%" r="68.7909991%" id="radialGradient-1">
            <stop stop-color="#000000" offset="0%"></stop>
            <stop stop-color="#000000" stop-opacity="0.5" offset="100%"></stop>
        </radialGradient>
    </defs>
    <g id="universal-button" stroke="none" stroke-width="1" fill="none" fill-rule="evenodd">
        <g id="Artboard-Copy-3" transform="translate(-184.000000, -393.000000)">
            <g id="Group-2" transform="translate(184.000000, 393.000000)">
                <g id="Group-3" transform="translate(1.000000, 1.000000)">
                    <path d="M25,0 C38.8071187,0 50,11.1928813 50,25 C50,38.8071187 38.8071187,50 25,50 C11.1928813,50 0,38.8071187 0,25 C0,11.1928813 11.1928813,0 25,0 Z M21.5729865,21.4650051 C21.4802442,17.5922854 19.9795297,12.4782783 11,13.2238899 L11,13.2238899 L11,27.4152716 L11.002872,27.6547572 C11.1349494,33.1821956 15.8200686,40 24.5574634,40 C31.7452404,40 36.7726367,35.9406989 38.4168442,30.9866345 C33.5705919,30.8678725 27.4125507,29.9918841 25.5570637,29.7423906 C25.3830839,29.7668294 25.1976575,29.7857935 25,29.7995771 C21.1808558,30.0659042 21.6657288,25.3377247 21.5729865,21.4650051 Z M38.957258,13.2238899 C34.4743193,12.1738764 28.7626191,14.8214169 28.4172764,21.077116 C28.1967299,25.0721987 28.4217806,27.4133442 27.6187535,28.6518236 C30.4827504,28.2120725 35.1194122,28.0316766 38.9998348,26.177942 L38.9998348,26.177942 L38.9991669,25.5000343 C38.9948244,20.9284956 38.9743295,20.2322546 38.957258,13.2238899 Z" id="Combined-Shape" fill="url(#radialGradient-1)" opacity="0.336495536"></path>
                    <path d="M11,13.2238899 C19.9795297,12.4782783 21.4802442,17.5922854 21.5729865,21.4650051 C21.6657288,25.3377247 21.1808558,30.0659042 25,29.7995771 C25.1976575,29.7857935 25.3830839,29.7668294 25.5570637,29.7423906 C27.4125507,29.9918841 33.5705919,30.8678725 38.4168442,30.9866345 C36.7726367,35.9406989 31.7452404,40 24.5574634,40 C15.6934397,40 11,32.9831461 11,27.4152716 L11,27.4152716 Z M28.4172764,21.077116 C28.7626191,14.8214169 34.4743193,12.1738764 38.957258,13.2238899 C38.9751054,20.5508166 38.9966946,20.9787486 38.9996571,26.1484031 L38.9998348,26.177942 C35.1194122,28.0316766 30.4827504,28.2120725 27.6187535,28.6518236 C28.4217806,27.4133442 28.1967299,25.0721987 28.4172764,21.077116 Z" id="Combined-Shape-Copy" fill="#FFFFFF" opacity="0.10219029"></path>
                </g>
            </g>
        </g>
    </g>
</svg>