<svg width="52" height="53" xmlns="http://www.w3.org/2000/svg"><defs><linearGradient x1="122.587%" y1="123.004%" x2="84.243%" y2="30.09%" id="g"><stop stop-color="#706AE1" offset="0%"/><stop stop-color="#4352ED" offset="100%"/></linearGradient><linearGradient x1="50%" y1="0%" x2="50%" y2="100%" id="a"><stop stop-color="#DEEDFF" offset="0%"/><stop stop-color="#B2D4FD" offset="100%"/></linearGradient><linearGradient x1="64.68%" y1="5.323%" x2="86.637%" y2="34.933%" id="c"><stop stop-color="#00D6D9" offset="0%"/><stop stop-color="#04CFD9" stop-opacity="0" offset="100%"/></linearGradient><linearGradient x1="64.85%" y1="50%" x2="71.949%" y2="58.7%" id="d"><stop stop-color="#3F66DA" stop-opacity="0" offset="0%"/><stop stop-color="#2E2EAE" offset="100%"/></linearGradient><linearGradient x1="38.514%" y1="58.319%" x2="50%" y2="90.652%" id="e"><stop stop-color="#2D41B3" stop-opacity="0" offset="0%"/><stop stop-color="#141E62" offset="100%"/></linearGradient><linearGradient x1="43.426%" y1="23.915%" x2="83.697%" y2="67.219%" id="f"><stop stop-color="#3F66DA" stop-opacity="0" offset="0%"/><stop stop-color="#2436C1" offset="100%"/></linearGradient><linearGradient x1="90.51%" y1="5.323%" x2="87.171%" y2="62.815%" id="b"><stop stop-color="#00D6D9" offset="0%"/><stop stop-color="#455CDA" offset="100%"/></linearGradient><linearGradient x1="190.663%" y1="5.323%" x2="100%" y2="111.277%" id="h"><stop stop-color="#00D6D9" offset="0%"/><stop stop-color="#0FC4DD" stop-opacity="0" offset="100%"/></linearGradient><linearGradient x1="36.789%" y1="50%" x2="50%" y2="79.275%" id="i"><stop stop-color="#2D41B3" stop-opacity="0" offset="0%"/><stop stop-color="#141E62" offset="100%"/></linearGradient><linearGradient x1="69.976%" y1="70.522%" x2="38.879%" y2="90.086%" id="j"><stop stop-color="#3F4DDA" stop-opacity="0" offset="0%"/><stop stop-color="#2736A4" offset="100%"/></linearGradient><linearGradient x1="38.453%" y1="0%" x2="57.217%" y2="79.07%" id="k"><stop stop-color="#00D6D9" offset="0%"/><stop stop-color="#5272EE" offset="100%"/></linearGradient><linearGradient x1="27.809%" y1="24.262%" x2="44.07%" y2="71.104%" id="l"><stop stop-color="#00D6D9" offset="0%"/><stop stop-color="#0FC4DD" stop-opacity="0" offset="100%"/></linearGradient></defs><g fill="none" fill-rule="evenodd"><path d="M.413.768h6.42c7.18 0 13 5.82 13 13v10.303a6.24 6.24 0 0012.481 0V13.768c0-7.18 5.82-13 13-13h6.53v22.9c0 14.203-11.514 25.716-25.716 25.716C11.926 49.384.413 37.871.413 23.67V.769z" fill="url(#a)" transform="translate(-.177 -.147)"/><path d="M.413.768h6.42c7.18 0 13 5.82 13 13v10.303a6.24 6.24 0 0012.481 0V13.768c0-7.18 5.82-13 13-13h6.53v22.9c0 14.203-11.514 25.716-25.716 25.716C11.926 49.384.413 37.871.413 23.67V.769z" fill="url(#b)" transform="translate(-.177 -.147)"/><path d="M.413.768h6.42c7.18 0 13 5.82 13 13v10.303a6.24 6.24 0 0012.481 0V13.768c0-7.18 5.82-13 13-13h6.53v22.9c0 14.203-11.514 25.716-25.716 25.716C11.926 49.384.413 37.871.413 23.67V.769z" fill="url(#c)" transform="translate(-.177 -.147)"/><path d="M.413.768h6.42c7.18 0 13 5.82 13 13v10.303a6.24 6.24 0 0012.481 0V13.768c0-7.18 5.82-13 13-13h6.53v22.9c0 14.203-11.514 25.716-25.716 25.716C11.926 49.384.413 37.871.413 23.67V.769z" fill="url(#d)" transform="translate(-.177 -.147)"/><path d="M27.187 30.297l3.08 1.441 5.988-.547 2.72-.894 3.182-1.14 3.574-3.047 2.93-1.483 1.358-3.984.483-3.322.732-2.387v-3.942l.446-3.625V4.47c-.86 5.916-1.364 7.336-2.184 9.027-1.23 2.537-1.23 2.59-2.889 4.875-1.66 2.287-2.576 3.382-5.123 5.449-2.548 2.066-3.546 2.658-6.387 3.837a32.374 32.374 0 01-5.867 1.804l-2.043.835z" fill="url(#e)" opacity=".974" transform="translate(-.177 -.147)"/><path d="M.413.768h6.42c7.18 0 13 5.82 13 13v10.303a6.24 6.24 0 0012.481 0V13.768c0-7.18 5.82-13 13-13h6.53v22.9c0 14.203-11.514 25.716-25.716 25.716C11.926 49.384.413 37.871.413 23.67V.769z" fill="url(#f)" transform="translate(-.177 -.147)"/><path d="M.413.768h6.42c7.18 0 13 5.82 13 13v10.249a6.295 6.295 0 006.295 6.295c4.087 0 8.117-.957 11.768-2.793l.284-.143a25.022 25.022 0 009.492-8.35l.023-.033a22.98 22.98 0 003.92-12.016l.229-6.209v22.9c0 14.203-11.514 25.716-25.716 25.716C11.926 49.384.413 37.871.413 23.67V.769z" fill="url(#g)" transform="translate(-.177 -.147)"/><path d="M.413.768h6.42c7.18 0 13 5.82 13 13v10.249a6.295 6.295 0 006.295 6.295c4.087 0 8.117-.957 11.768-2.793l.284-.143a25.022 25.022 0 009.492-8.35l.023-.033a22.98 22.98 0 003.92-12.016l.229-6.209v22.9c0 14.203-11.514 25.716-25.716 25.716C11.926 49.384.413 37.871.413 23.67V.769z" fill="url(#h)" transform="translate(-.177 -.147)"/><path d="M14.368 52.348l3.523-1.21 5.867-2.19 2.84.748 3.182-1.14 3.574-3.047 2.93-1.483 1.358-3.984.484-3.322.732-2.387v-3.942l.445-3.625v-2.897l-.356 2.529a22.365 22.365 0 01-1.071 4.368l-.321.905a6.92 6.92 0 00-.396 2.525 3.221 3.221 0 01-.835 2.262l-.56.617a11.638 11.638 0 01-3.334 2.547L20.895 45.5l-.282 1.388-.573 1.425-.277.425-.084.11c-.12.16-.246.314-.377.465a5.71 5.71 0 01-.414.43l-.022.02c-.16.15-.329.29-.506.418l-.152.11-.632.423-3.208 1.634z" fill="url(#i)" opacity=".498" transform="rotate(117 26.792 37.98)"/><path d="M.413.768h6.42c7.18 0 13 5.82 13 13v10.249a6.295 6.295 0 006.295 6.295c4.087 0 8.117-.957 11.768-2.793l.284-.143a25.022 25.022 0 009.492-8.35l.023-.033a22.98 22.98 0 003.92-12.016l.229-6.209v22.9c0 14.203-11.514 25.716-25.716 25.716C11.926 49.384.413 37.871.413 23.67V.769z" fill="url(#j)" transform="translate(-.177 -.147)"/><path d="M.413.768h6.42c7.18 0 13 5.82 13 13V43.09a6.295 6.295 0 006.295 6.294C11.926 49.384.413 37.871.413 23.67V.769z" fill="url(#k)" transform="translate(-.177 -.147)"/><path d="M.413.768h6.42c7.18 0 13 5.82 13 13V43.09a6.295 6.295 0 006.295 6.294C11.926 49.384.413 37.871.413 23.67V.769z" fill="url(#l)" transform="translate(-.177 -.147)"/></g></svg>