<?xml version="1.0" encoding="UTF-8"?>
<svg width="52px" height="53px" viewBox="0 0 52 53" version="1.1" xmlns="http://www.w3.org/2000/svg" xmlns:xlink="http://www.w3.org/1999/xlink">
    <!-- Generator: Sketch 56.3 (81716) - https://sketch.com -->
    <title>Group 3 Copy</title>
    <desc>Created with Sketch.</desc>
    <defs>
        <linearGradient x1="50%" y1="0%" x2="50%" y2="100%" id="linearGradient-1">
            <stop stop-color="#DEEDFF" offset="0%"></stop>
            <stop stop-color="#B2D4FD" offset="100%"></stop>
        </linearGradient>
        <linearGradient x1="90.5099108%" y1="5.32289893%" x2="87.1713803%" y2="62.8146124%" id="linearGradient-2">
            <stop stop-color="#00D6D9" offset="0%"></stop>
            <stop stop-color="#455CDA" offset="100%"></stop>
        </linearGradient>
        <linearGradient x1="64.6799595%" y1="5.32289893%" x2="86.6365057%" y2="34.9328158%" id="linearGradient-3">
            <stop stop-color="#00D6D9" offset="0%"></stop>
            <stop stop-color="#04CFD9" stop-opacity="0" offset="100%"></stop>
        </linearGradient>
        <linearGradient x1="64.8499715%" y1="50%" x2="71.9489771%" y2="58.6999365%" id="linearGradient-4">
            <stop stop-color="#3F66DA" stop-opacity="0" offset="0%"></stop>
            <stop stop-color="#2E2EAE" offset="100%"></stop>
        </linearGradient>
        <linearGradient x1="38.5144143%" y1="58.3193659%" x2="50%" y2="90.6516982%" id="linearGradient-5">
            <stop stop-color="#2D41B3" stop-opacity="0" offset="0%"></stop>
            <stop stop-color="#141E62" offset="100%"></stop>
        </linearGradient>
        <linearGradient x1="43.4256771%" y1="23.9148467%" x2="83.6966242%" y2="67.2190584%" id="linearGradient-6">
            <stop stop-color="#3F66DA" stop-opacity="0" offset="0%"></stop>
            <stop stop-color="#2436C1" offset="100%"></stop>
        </linearGradient>
        <linearGradient x1="122.586956%" y1="123.004235%" x2="84.2432237%" y2="30.0897044%" id="linearGradient-7">
            <stop stop-color="#706AE1" offset="0%"></stop>
            <stop stop-color="#4352ED" offset="100%"></stop>
        </linearGradient>
        <linearGradient x1="190.662895%" y1="5.32289893%" x2="100%" y2="111.276935%" id="linearGradient-8">
            <stop stop-color="#00D6D9" offset="0%"></stop>
            <stop stop-color="#0FC4DD" stop-opacity="0" offset="100%"></stop>
        </linearGradient>
        <linearGradient x1="36.7894919%" y1="50%" x2="50%" y2="79.2747884%" id="linearGradient-9">
            <stop stop-color="#2D41B3" stop-opacity="0" offset="0%"></stop>
            <stop stop-color="#141E62" offset="100%"></stop>
        </linearGradient>
        <linearGradient x1="69.9759426%" y1="70.5218825%" x2="38.8788577%" y2="90.0856608%" id="linearGradient-10">
            <stop stop-color="#3F4DDA" stop-opacity="0" offset="0%"></stop>
            <stop stop-color="#2736A4" offset="100%"></stop>
        </linearGradient>
        <linearGradient x1="38.4534435%" y1="0%" x2="57.2168963%" y2="79.0700426%" id="linearGradient-11">
            <stop stop-color="#00D6D9" offset="0%"></stop>
            <stop stop-color="#5272EE" offset="100%"></stop>
        </linearGradient>
        <linearGradient x1="27.8089069%" y1="24.2618014%" x2="44.0703933%" y2="71.1037124%" id="linearGradient-12">
            <stop stop-color="#00D6D9" offset="0%"></stop>
            <stop stop-color="#0FC4DD" stop-opacity="0" offset="100%"></stop>
        </linearGradient>
    </defs>
    <g id="web" stroke="none" stroke-width="1" fill="none" fill-rule="evenodd">
        <g id="Group-3-Copy" transform="translate(-1.000000, -1.000000)">
            <g id="Group-2" transform="translate(0.822656, 0.853125)">
                <path d="M0.412548088,0.768066449 L6.83325233,0.768066449 C14.0129545,0.768066449 19.833253,6.58836502 19.833253,13.7680672 L19.833253,24.0711073 C19.833253,27.5176623 22.6272379,30.3116472 26.0737929,30.3116472 C29.520348,30.3116472 32.3143328,27.5176623 32.3143328,24.0711073 L32.3143328,13.7680672 C32.3143328,6.58836502 38.1346314,0.768066449 45.3143335,0.768066449 L51.8435926,0.768066449 L51.8435926,23.6689485 C51.8435926,37.8712393 40.3303611,49.3844708 26.1280704,49.3844708 C11.9257796,49.3844708 0.412548088,37.8712393 0.412548088,23.6689485 L0.412548088,0.768066449 Z" id="Rectangle-Copy" fill="url(#linearGradient-1)"></path>
                <path d="M0.412548088,0.768066449 L6.83325233,0.768066449 C14.0129545,0.768066449 19.833253,6.58836502 19.833253,13.7680672 L19.833253,24.0711073 C19.833253,27.5176623 22.6272379,30.3116472 26.0737929,30.3116472 C29.520348,30.3116472 32.3143328,27.5176623 32.3143328,24.0711073 L32.3143328,13.7680672 C32.3143328,6.58836502 38.1346314,0.768066449 45.3143335,0.768066449 L51.8435926,0.768066449 L51.8435926,23.6689485 C51.8435926,37.8712393 40.3303611,49.3844708 26.1280704,49.3844708 C11.9257796,49.3844708 0.412548088,37.8712393 0.412548088,23.6689485 L0.412548088,0.768066449 Z" id="Rectangle-Copy-2" fill="url(#linearGradient-2)"></path>
                <path d="M0.412548088,0.768066449 L6.83325233,0.768066449 C14.0129545,0.768066449 19.833253,6.58836502 19.833253,13.7680672 L19.833253,24.0711073 C19.833253,27.5176623 22.6272379,30.3116472 26.0737929,30.3116472 C29.520348,30.3116472 32.3143328,27.5176623 32.3143328,24.0711073 L32.3143328,13.7680672 C32.3143328,6.58836502 38.1346314,0.768066449 45.3143335,0.768066449 L51.8435926,0.768066449 L51.8435926,23.6689485 C51.8435926,37.8712393 40.3303611,49.3844708 26.1280704,49.3844708 C11.9257796,49.3844708 0.412548088,37.8712393 0.412548088,23.6689485 L0.412548088,0.768066449 Z" id="Rectangle-Copy-2" fill="url(#linearGradient-3)"></path>
                <path d="M0.412548088,0.768066449 L6.83325233,0.768066449 C14.0129545,0.768066449 19.833253,6.58836502 19.833253,13.7680672 L19.833253,24.0711073 C19.833253,27.5176623 22.6272379,30.3116472 26.0737929,30.3116472 C29.520348,30.3116472 32.3143328,27.5176623 32.3143328,24.0711073 L32.3143328,13.7680672 C32.3143328,6.58836502 38.1346314,0.768066449 45.3143335,0.768066449 L51.8435926,0.768066449 L51.8435926,23.6689485 C51.8435926,37.8712393 40.3303611,49.3844708 26.1280704,49.3844708 C11.9257796,49.3844708 0.412548088,37.8712393 0.412548088,23.6689485 L0.412548088,0.768066449 Z" id="Rectangle-Copy-2" fill="url(#linearGradient-4)"></path>
                <path d="M27.1871719,30.2970476 L30.2676897,31.7381243 L36.2546407,31.1909563 L38.9744528,30.2970476 L42.1565331,29.1578019 L45.7308985,26.1104507 L48.6607427,24.6270033 L50.0185819,20.6430553 L50.502432,17.3214853 L51.2341581,14.9344491 L51.2341581,10.9919196 L51.6797636,7.36661417 L51.6797636,4.47049585 C50.8199196,10.3858621 50.3155983,11.8058857 49.496011,13.4971809 C48.2666302,16.0341237 48.2666302,16.0861745 46.6072667,18.3724986 C44.9479033,20.6588227 44.0312785,21.7539403 41.4837611,23.8205335 C38.9362438,25.8871268 37.9384172,26.4790021 35.0968281,27.6579289 C33.2024354,28.44388 31.2466695,29.0452944 29.2295304,29.462172 L27.1871719,30.2970476 Z" id="Path-4" fill="url(#linearGradient-5)" opacity="0.973865327"></path>
                <path d="M0.412548088,0.768066449 L6.83325233,0.768066449 C14.0129545,0.768066449 19.833253,6.58836502 19.833253,13.7680672 L19.833253,24.0711073 C19.833253,27.5176623 22.6272379,30.3116472 26.0737929,30.3116472 C29.520348,30.3116472 32.3143328,27.5176623 32.3143328,24.0711073 L32.3143328,13.7680672 C32.3143328,6.58836502 38.1346314,0.768066449 45.3143335,0.768066449 L51.8435926,0.768066449 L51.8435926,23.6689485 C51.8435926,37.8712393 40.3303611,49.3844708 26.1280704,49.3844708 C11.9257796,49.3844708 0.412548088,37.8712393 0.412548088,23.6689485 L0.412548088,0.768066449 Z" id="Rectangle-Copy-2" fill="url(#linearGradient-6)"></path>
                <path d="M0.412548088,0.768066449 L6.83325233,0.768066449 C14.0129545,0.768066449 19.833253,6.58836502 19.833253,13.7680672 L19.833253,24.0168299 C19.833253,27.4933615 22.6515388,30.3116472 26.1280704,30.3116472 L26.1280704,30.3116472 C30.2149212,30.3116472 34.2450495,29.3551453 37.8960339,27.5186643 L38.1797659,27.3759443 C42.0064754,25.4510719 45.2749638,22.5760433 47.6722688,19.0261463 L47.6946056,18.9930703 C50.098779,15.4330028 51.4569478,11.2703292 51.6149932,6.97741038 L51.8435926,0.768066449 L51.8435926,23.6689485 C51.8435926,37.8712393 40.3303611,49.3844708 26.1280704,49.3844708 C11.9257796,49.3844708 0.412548088,37.8712393 0.412548088,23.6689485 L0.412548088,0.768066449 Z" id="Rectangle-Copy-3" fill="url(#linearGradient-7)"></path>
                <path d="M0.412548088,0.768066449 L6.83325233,0.768066449 C14.0129545,0.768066449 19.833253,6.58836502 19.833253,13.7680672 L19.833253,24.0168299 C19.833253,27.4933615 22.6515388,30.3116472 26.1280704,30.3116472 L26.1280704,30.3116472 C30.2149212,30.3116472 34.2450495,29.3551453 37.8960339,27.5186643 L38.1797659,27.3759443 C42.0064754,25.4510719 45.2749638,22.5760433 47.6722688,19.0261463 L47.6946056,18.9930703 C50.098779,15.4330028 51.4569478,11.2703292 51.6149932,6.97741038 L51.8435926,0.768066449 L51.8435926,23.6689485 C51.8435926,37.8712393 40.3303611,49.3844708 26.1280704,49.3844708 C11.9257796,49.3844708 0.412548088,37.8712393 0.412548088,23.6689485 L0.412548088,0.768066449 Z" id="Rectangle-Copy-3" fill="url(#linearGradient-8)"></path>
                <path d="M14.3683642,52.3479174 L17.8911821,51.1370647 L23.7577842,48.948524 L26.5979452,49.695988 L29.7800255,48.5567423 L33.3543909,45.5093911 L36.2842351,44.0259437 L37.6420743,40.0419957 L38.1259244,36.7204257 L38.8576505,34.3333895 L38.8576505,30.3908599 L39.303256,26.7655546 L39.303256,23.8694362 L38.9474588,26.3977258 C38.7379981,27.886151 38.3790255,29.3496698 37.8759854,30.7660858 L37.5546256,31.6709427 C37.2670601,32.4806442 37.1328149,33.3368219 37.1587568,34.1956802 C37.1839388,35.0293817 36.8847724,35.8403522 36.3242,36.4579694 L35.7644751,37.0746529 C34.816679,38.1188983 33.6869775,38.9821821 32.4304479,39.6224159 L20.8950135,45.5000134 L20.6129341,46.8877903 L20.0404933,48.313215 L19.7626836,48.7380656 L19.6791299,48.8483561 C19.558659,49.007377 19.4329961,49.1623969 19.3023446,49.3131652 C19.1717476,49.4638706 19.0333443,49.6076301 18.8877038,49.7438527 L18.8663576,49.7638185 C18.7065444,49.9132973 18.5374945,50.0525844 18.3602077,50.1808559 L18.2079829,50.2909945 L17.5760532,50.7135182 L14.3683642,52.3479174 Z" id="Path-4" fill="url(#linearGradient-9)" opacity="0.497884115" transform="translate(26.835810, 38.108677) rotate(117.000000) translate(-26.835810, -38.108677) "></path>
                <path d="M0.412548088,0.768066449 L6.83325233,0.768066449 C14.0129545,0.768066449 19.833253,6.58836502 19.833253,13.7680672 L19.833253,24.0168299 C19.833253,27.4933615 22.6515388,30.3116472 26.1280704,30.3116472 L26.1280704,30.3116472 C30.2149212,30.3116472 34.2450495,29.3551453 37.8960339,27.5186643 L38.1797659,27.3759443 C42.0064754,25.4510719 45.2749638,22.5760433 47.6722688,19.0261463 L47.6946056,18.9930703 C50.098779,15.4330028 51.4569478,11.2703292 51.6149932,6.97741038 L51.8435926,0.768066449 L51.8435926,23.6689485 C51.8435926,37.8712393 40.3303611,49.3844708 26.1280704,49.3844708 C11.9257796,49.3844708 0.412548088,37.8712393 0.412548088,23.6689485 L0.412548088,0.768066449 Z" id="Rectangle-Copy-3" fill="url(#linearGradient-10)"></path>
                <path d="M0.412548088,0.768066449 L6.83325233,0.768066449 C14.0129545,0.768066449 19.833253,6.58836502 19.833253,13.7680672 L19.833253,16.9141245 L19.833253,43.0896535 C19.833253,46.5661851 22.6515388,49.3844708 26.1280704,49.3844708 L26.1280704,49.3844708 C11.9257796,49.3844708 0.412548088,37.8712393 0.412548088,23.6689485 L0.412548088,0.768066449 Z" id="Rectangle-Copy-4" fill="url(#linearGradient-11)"></path>
                <path d="M0.412548088,0.768066449 L6.83325233,0.768066449 C14.0129545,0.768066449 19.833253,6.58836502 19.833253,13.7680672 L19.833253,16.9141245 L19.833253,43.0896535 C19.833253,46.5661851 22.6515388,49.3844708 26.1280704,49.3844708 L26.1280704,49.3844708 C11.9257796,49.3844708 0.412548088,37.8712393 0.412548088,23.6689485 L0.412548088,0.768066449 Z" id="Rectangle-Copy-4" fill="url(#linearGradient-12)"></path>
            </g>
        </g>
    </g>
</svg>