<?xml version="1.0" encoding="UTF-8"?>
<svg width="15px" height="13px" viewBox="0 0 15 13" version="1.1" xmlns="http://www.w3.org/2000/svg" xmlns:xlink="http://www.w3.org/1999/xlink">
    <!-- Generator: Sketch 56.2 (81672) - https://sketch.com -->
    <title>Uwaga</title>
    <desc>Created with Sketch.</desc>
    <g id="NEW" stroke="none" stroke-width="1" fill="none" fill-rule="evenodd">
        <g id="new-device-want" transform="translate(-836.000000, -624.000000)" fill="#FC4B61" fill-rule="nonzero">
            <g id="INFO" transform="translate(820.000000, 610.000000)">
                <path d="M30.1246046,25.5792795 L23.8726878,14.4531348 C23.7146852,14.1719416 23.430993,14 23.1249794,14 C22.8189659,14 22.5352736,14.1719117 22.377271,14.4531348 L16.1254099,25.5792795 C15.962815,25.8686562 15.958,26.2295931 16.1128576,26.5238082 C16.2677152,26.8180532 16.5581985,27 16.8730905,27 L29.3768962,27 C29.6917881,27 29.9822714,26.8180233 30.137129,26.5238082 C30.2919866,26.2295633 30.2871995,25.8686562 30.1246046,25.5792795 Z M23.1296552,17.8486595 C23.4887167,17.8486595 23.7925315,18.066028 23.7925315,18.4513061 C23.7925315,19.6269419 23.6636412,21.3163714 23.6636412,22.4920073 C23.6636412,22.7982884 23.350614,22.9266846 23.1296552,22.9266846 C22.8350806,22.9266846 22.5864846,22.7982586 22.5864846,22.4920073 C22.5864846,21.3163714 22.4576222,19.6269419 22.4576222,18.4513061 C22.4576222,18.066028 22.7521967,17.8486595 23.1296552,17.8486595 Z M23.1388676,25.1298481 C22.7337997,25.1298481 22.4299571,24.7741976 22.4299571,24.3691479 C22.4299571,23.9542123 22.7337719,23.6084476 23.1388676,23.6084476 C23.5163261,23.6084476 23.8385657,23.9542123 23.8385657,24.3691479 C23.8385657,24.7741976 23.5163261,25.1298481 23.1388676,25.1298481 Z" id="Uwaga"></path>
            </g>
        </g>
    </g>
</svg>