<svg width="15" height="13" xmlns="http://www.w3.org/2000/svg"><path d="M14.125 11.58L7.873.452A.863.863 0 007.125 0a.863.863 0 00-.748.453L.125 11.58a.996.996 0 00-.012.945.865.865 0 00.76.476h12.504a.865.865 0 00.76-.476.996.996 0 00-.012-.945zM7.13 3.848c.359 0 .663.217.663.602 0 1.176-.13 2.865-.13 4.041 0 .306-.312.435-.533.435-.295 0-.544-.129-.544-.435 0-1.176-.128-2.865-.128-4.04 0-.386.294-.603.672-.603zm.009 7.28c-.405 0-.709-.355-.709-.76 0-.415.304-.76.709-.76.377 0 .7.345.7.76 0 .405-.323.76-.7.76z" fill="#FC4B61" fill-rule="nonzero"/></svg>