<?xml version="1.0" encoding="iso-8859-1"?>
<!-- Generator: Adobe Illustrator 16.0.0, SVG Export Plug-In . SVG Version: 6.00 Build 0)  -->
<!DOCTYPE svg PUBLIC "-//W3C//DTD SVG 1.1//EN" "http://www.w3.org/Graphics/SVG/1.1/DTD/svg11.dtd">
<svg version="1.1" id="Capa_1" xmlns="http://www.w3.org/2000/svg" xmlns:xlink="http://www.w3.org/1999/xlink" x="0px" y="0px"
	 width="352.62px" height="352.62px" viewBox="0 0 352.62 352.62" style="enable-background:new 0 0 352.62 352.62;"
	 xml:space="preserve">
<g>
	<path d="M337.222,22.952c-15.912-8.568-33.66,7.956-44.064,17.748c-23.867,23.256-44.063,50.184-66.708,74.664
		c-25.092,26.928-48.348,53.856-74.052,80.173c-14.688,14.688-30.6,30.6-40.392,48.96c-22.032-21.421-41.004-44.677-65.484-63.648
		c-17.748-13.464-47.124-23.256-46.512,9.18c1.224,42.229,38.556,87.517,66.096,116.28c11.628,12.24,26.928,25.092,44.676,25.704
		c21.42,1.224,43.452-24.48,56.304-38.556c22.645-24.48,41.005-52.021,61.812-77.112c26.928-33.048,54.468-65.485,80.784-99.145
		C326.206,96.392,378.226,44.983,337.222,22.952z M26.937,187.581c-0.612,0-1.224,0-2.448,0.611
		c-2.448-0.611-4.284-1.224-6.732-2.448l0,0C19.593,184.52,22.653,185.132,26.937,187.581z"/>
</g>
<g>
</g>
<g>
</g>
<g>
</g>
<g>
</g>
<g>
</g>
<g>
</g>
<g>
</g>
<g>
</g>
<g>
</g>
<g>
</g>
<g>
</g>
<g>
</g>
<g>
</g>
<g>
</g>
<g>
</g>
</svg>
