<?xml version="1.0"?>
<svg xmlns="http://www.w3.org/2000/svg" xmlns:xlink="http://www.w3.org/1999/xlink" version="1.1" id="Capa_1" x="0px" y="0px" viewBox="0 0 512 512" style="enable-background:new 0 0 512 512;" xml:space="preserve" width="512px" height="512px"><g><g>
	<g>
		<path d="M256,0C114.853,0,0,114.833,0,256s114.853,256,256,256c141.167,0,256-114.833,256-256S397.147,0,256,0z M256,472.341    c-119.295,0-216.341-97.046-216.341-216.341S136.705,39.659,256,39.659S472.341,136.705,472.341,256S375.295,472.341,256,472.341z    " data-original="#000000" class="active-path" data-old_color="#ca0019" fill="#ca0019"/>
	</g>
</g><g>
	<g>
		<path d="M355.148,234.386H156.852c-10.946,0-19.83,8.884-19.83,19.83s8.884,19.83,19.83,19.83h198.296    c10.946,0,19.83-8.884,19.83-19.83S366.094,234.386,355.148,234.386z" data-original="#000000" class="active-path" data-old_color="#ca0019" fill="#ca0019"/>
	</g>
</g></g> </svg>
