<?xml version="1.0"?>
<svg xmlns="http://www.w3.org/2000/svg" xmlns:xlink="http://www.w3.org/1999/xlink" version="1.1" viewBox="0 0 512 512" enable-background="new 0 0 512 512" width="512px" height="512px" class=""><g><g>
    <g fill="#231F20">
      <path d="M422.7,141h-31.9V29.9c0-5.8-4.7-10.4-10.4-10.4H131.6c-5.8,0-10.4,4.7-10.4,10.4V141H89.3    C46.1,141,11,176.1,11,219.2v168.4c0,5.8,4.7,10.4,10.4,10.4h99.7v84.1c0,5.8,4.7,10.4,10.4,10.4h248.9c5.8,0,10.4-4.7,10.4-10.4    v-84.1h99.7c5.8,0,10.4-4.7,10.4-10.4V219.2C501,176.1,465.9,141,422.7,141z M142,40.3h228V141H142V40.3z M370,471.7H142V330h228    V471.7z M480.1,377.2h-89.3v-57.6c0-5.8-4.7-10.4-10.4-10.4H131.6c-5.8,0-10.4,4.7-10.4,10.4v57.6H31.9v-158    c0-31.7,25.8-57.4,57.4-57.4h333.5c31.7,0,57.4,25.8,57.4,57.4V377.2z" data-original="#000000" class="active-path" data-old_color="#672A2A" fill="#CA0019"/>
      <path d="m395,193.2c-5.8,0-10.4,4.7-10.4,10.4v13.2c0,5.8 4.7,10.4 10.4,10.4 5.8,0 10.4-4.7 10.4-10.4v-13.2c0-5.7-4.6-10.4-10.4-10.4z" data-original="#000000" class="active-path" data-old_color="#672A2A" fill="#CA0019"/>
      <path d="m435.6,193.2c-5.8,0-10.4,4.7-10.4,10.4v13.2c0,5.8 4.7,10.4 10.4,10.4 5.8,0 10.4-4.7 10.4-10.4v-13.2c0-5.7-4.6-10.4-10.4-10.4z" data-original="#000000" class="active-path" data-old_color="#672A2A" fill="#CA0019"/>
    </g>
  </g></g> </svg>
