<?xml version="1.0"?>
<svg xmlns="http://www.w3.org/2000/svg" xmlns:xlink="http://www.w3.org/1999/xlink" version="1.1" id="Layer_1" x="0px" y="0px" viewBox="0 0 512.003 512.003" style="enable-background:new 0 0 512.003 512.003;" xml:space="preserve" width="512px" height="512px"><g><g>
	<g>
		<path d="M433.316,328.327c2.296-5.357,7.547-8.835,13.294-8.857h1.925c34.996,0,63.468-28.472,63.468-63.468    c0-34.995-28.472-63.467-63.468-63.467h-3.554c-4.932-0.02-9.449-2.512-12.114-6.524c-0.295-1.457-0.746-2.882-1.349-4.25    c-2.415-5.47-1.292-11.763,2.861-16.058l1.134-1.134c0.032-0.03,0.063-0.061,0.093-0.092    c11.98-11.994,18.574-27.936,18.563-44.889c-0.009-16.924-6.599-32.833-18.554-44.807c-0.032-0.032-0.063-0.063-0.094-0.095    c-11.986-11.973-27.913-18.564-44.853-18.564c-0.011,0-0.024,0-0.036,0c-16.953,0.009-32.888,6.62-44.86,18.606l-1.185,1.186    c-4.294,4.151-10.587,5.275-16.058,2.861c-0.068-0.029-0.136-0.059-0.204-0.088c-5.357-2.296-8.835-7.547-8.857-13.293v-1.926    c0-34.995-28.472-63.467-63.468-63.467s-63.467,28.472-63.467,63.467v3.555c-0.02,4.932-2.512,9.449-6.524,12.113    c-1.457,0.295-2.882,0.747-4.25,1.35c-5.469,2.415-11.763,1.291-16.058-2.861l-1.226-1.227    c-11.987-11.973-27.912-18.564-44.852-18.564c-0.012,0-0.026,0-0.037,0c-16.953,0.009-32.888,6.62-44.902,18.648    c-11.981,11.993-18.574,27.935-18.564,44.888c0.009,16.953,6.62,32.887,18.606,44.859l1.185,1.185    c4.152,4.295,5.276,10.587,2.862,16.058c-0.177,0.399-0.339,0.803-0.49,1.212c-2.064,5.61-7.225,9.346-13.184,9.561h-1.633    C28.472,194.245,0,222.717,0,257.712c0,34.997,28.472,63.468,63.469,63.466h3.554c5.83,0.024,11.079,3.5,13.375,8.857    c0.029,0.069,0.059,0.137,0.088,0.204c2.415,5.47,1.291,11.763-2.862,16.059l-1.185,1.184c-0.027,0.028-0.054,0.056-0.082,0.084    c-11.955,11.988-18.533,27.914-18.524,44.847c0.009,16.953,6.62,32.888,18.614,44.868c0.029,0.03,0.059,0.06,0.089,0.089    c24.764,24.679,64.986,24.638,89.692-0.097l1.186-1.186c4.294-4.151,10.587-5.277,16.057-2.861    c0.398,0.175,0.802,0.338,1.211,0.489c5.611,2.064,9.346,7.226,9.562,13.185v1.632c0,34.996,28.472,63.468,63.467,63.468    c34.997,0,63.468-28.472,63.469-63.466v-3.553c0.024-5.83,3.5-11.08,8.857-13.376c0.069-0.03,0.136-0.059,0.203-0.088    c5.471-2.415,11.764-1.292,16.059,2.861l1.227,1.226c11.986,11.973,27.912,18.565,44.852,18.564c0.012,0,0.025,0,0.037,0    c16.953-0.01,32.888-6.62,44.902-18.647c24.731-24.76,24.709-65.025-0.041-89.749l-1.186-1.185    c-4.151-4.295-5.275-10.587-2.861-16.059C433.259,328.462,433.288,328.395,433.316,328.327z M406.58,373.577    c0.053,0.054,0.107,0.108,0.16,0.162l1.291,1.291c8.621,8.614,8.63,22.636-0.017,31.292c-4.172,4.178-9.722,6.48-15.626,6.483    c-0.005,0-0.008,0-0.013,0c-5.9,0-11.447-2.296-15.646-6.491l-1.283-1.283c-0.054-0.054-0.108-0.107-0.163-0.161    c-16.43-16.07-40.618-20.475-61.652-11.237c-20.459,8.819-33.729,28.896-33.819,51.265v3.636c0,12.188-9.915,22.103-22.103,22.103    c-12.187,0-22.102-9.916-22.102-22.103v-1.925c0-0.161-0.002-0.322-0.006-0.484c-0.536-22.913-14.654-42.862-36.028-51    c-20.916-8.95-44.852-4.486-61.15,11.456c-0.054,0.053-0.108,0.107-0.162,0.16l-1.292,1.292    c-8.612,8.622-22.635,8.631-31.258,0.018c-0.025-0.025-0.051-0.05-0.075-0.074c-4.151-4.168-6.437-9.7-6.441-15.584    c-0.004-5.904,2.293-11.455,6.465-15.632c0.024-0.023,0.047-0.048,0.071-0.071l1.238-1.239c0.054-0.054,0.108-0.108,0.161-0.163    c16.069-16.427,20.474-40.615,11.239-61.649c-8.818-20.461-28.897-33.732-51.267-33.822h-3.637    c-12.187,0-22.102-9.916-22.102-22.103c0-12.187,9.916-22.102,22.102-22.103h1.926c0.161,0,0.323-0.002,0.484-0.006    c22.915-0.536,42.863-14.654,51.001-36.028c8.948-20.916,4.486-44.85-11.456-61.148c-0.053-0.054-0.107-0.108-0.161-0.162    l-1.291-1.292c-4.177-4.173-6.479-9.722-6.482-15.626c-0.004-5.903,2.293-11.455,6.499-15.666    c4.173-4.177,9.722-6.479,15.626-6.482c0.005,0,0.008,0,0.013,0c5.9,0,11.447,2.296,15.646,6.491l1.284,1.283    c0.053,0.054,0.108,0.108,0.162,0.161c15.417,15.08,37.667,19.888,57.734,12.789c1.896-0.243,3.755-0.748,5.521-1.505    c20.521-8.795,33.839-28.904,33.928-51.312v-3.637c0-12.187,9.915-22.102,22.102-22.102s22.103,9.916,22.103,22.103v2.008    c0.088,22.287,13.36,42.366,33.821,51.185c21.036,9.238,45.221,4.83,61.65-11.239c0.054-0.053,0.108-0.107,0.163-0.161    l1.292-1.291c4.172-4.177,9.722-6.479,15.625-6.482c0.005,0,0.009,0,0.013,0c5.881,0,11.414,2.282,15.583,6.428    c0.023,0.024,0.047,0.047,0.07,0.071c4.178,4.173,6.48,9.722,6.483,15.626c0.004,5.888-2.28,11.424-6.429,15.597    c-0.02,0.02-0.041,0.04-0.062,0.061l-1.283,1.284c-0.054,0.053-0.107,0.107-0.161,0.162    c-15.08,15.417-19.888,37.668-12.789,57.734c0.244,1.897,0.749,3.756,1.506,5.522c8.795,20.521,28.904,33.839,51.312,33.928h3.636    c12.188,0,22.103,9.915,22.103,22.102s-9.916,22.103-22.103,22.103h-2.007c-22.287,0.088-42.365,13.36-51.185,33.82    C386.105,332.959,390.511,357.149,406.58,373.577z" data-original="#000000" class="active-path" data-old_color="#ca0019" fill="#ca0019"/>
	</g>
</g><g>
	<g>
		<path d="M256,171.142c-46.791,0-84.86,38.068-84.86,84.86s38.068,84.86,84.86,84.86s84.86-38.068,84.86-84.86    S302.791,171.142,256,171.142z M256,299.496c-23.983,0-43.495-19.511-43.495-43.495c0-23.983,19.512-43.495,43.495-43.495    c23.984,0,43.495,19.512,43.495,43.495S279.984,299.496,256,299.496z" data-original="#000000" class="active-path" data-old_color="#ca0019" fill="#ca0019"/>
	</g>
</g></g> </svg>
