<?xml version="1.0"?>
<svg xmlns="http://www.w3.org/2000/svg" xmlns:xlink="http://www.w3.org/1999/xlink" version="1.1" id="Capa_1" x="0px" y="0px" width="512px" height="512px" viewBox="0 0 32 32" style="enable-background:new 0 0 32 32;" xml:space="preserve"><g><g>
	<g id="Smartphone">
		<g>
			<path d="M23.25,0H8.75C7.233,0,6,1.29,6,2.875v26.25C6,30.71,7.233,32,8.75,32h14.5c1.518,0,2.75-1.29,2.75-2.875V2.875     C26,1.29,24.768,0,23.25,0z M24,29.125C24,29.607,23.663,30,23.25,30H8.75C8.337,30,8,29.607,8,29.125V25h16V29.125z M24,23H8V8     h16V23z M24,6H8V2.875C8,2.393,8.337,2,8.75,2h14.5C23.663,2,24,2.393,24,2.875V6z M16,29c0.829,0,1.5-0.672,1.5-1.5     S16.829,26,16,26s-1.5,0.672-1.5,1.5S15.171,29,16,29z M18,3h-4c-0.553,0-1,0.447-1,1s0.447,1,1,1h4c0.553,0,1-0.447,1-1     S18.553,3,18,3z" data-original="#000000" class="active-path" data-old_color="#ca0019" fill="#ca0019"/>
		</g>
	</g>
</g></g> </svg>
