<?xml version="1.0"?>
<svg xmlns="http://www.w3.org/2000/svg" xmlns:xlink="http://www.w3.org/1999/xlink" version="1.1" viewBox="0 0 36 36" enable-background="new 0 0 36 36" width="512px" height="512px"><g><g>
    <g>
      <path d="m18,22.5h-12c-3.313,0-6,2.687-6,6v4c0,0.553 0.448,1 1,1s1-0.447 1-1v-4c0-2.209 1.791-4 4-4h12c2.209,0 4,1.791 4,4v4c0,0.553 0.448,1 1,1s1-0.447 1-1v-4c0-3.313-2.687-6-6-6zm8.5-5c3.038,0 5.5-2.463 5.5-5.5v-4c0-3.037-2.462-5.5-5.5-5.5s-5.5,2.463-5.5,5.5v4c0,3.037 2.462,5.5 5.5,5.5zm-3.5-9.5c0-1.933 1.567-3.5 3.5-3.5s3.5,1.567 3.5,3.5v4c0,1.933-1.567,3.5-3.5,3.5s-3.5-1.567-3.5-3.5v-4zm-12,12.5h1c3.313,0 6-2.687 6-6v-6c0-3.313-2.687-6-6-6h-1c-3.314,0-6,2.687-6,6v6c0,3.313 2.686,6 6,6zm-4-11.5c0-2.485 2.015-4.5 4.5-4.5s4.5,2.015 4.5,4.5v5c0,2.485-2.015,4.5-4.5,4.5s-4.5-2.015-4.5-4.5v-5zm23,9.5h-7c-1.256,0-2.402,0.411-3.363,1.073-0.372,0.146-0.637,0.503-0.637,0.927 0,0.553 0.448,1 1,1 0.276,0 0.526-0.112 0.707-0.293l.022,.022c0.643-0.455 1.421-0.729 2.271-0.729h7c2.209,0 4,1.791 4,4v3c0,0.553 0.448,1 1,1s1-0.447 1-1v-3c0-3.313-2.687-6-6-6z" data-original="#000000" class="active-path" data-old_color="#ca0019" fill="#ca0019"/>
    </g>
  </g></g> </svg>
